/* XPM */
static char *result[] = {
/* columns rows colors chars-per-pixel */
"65 65 95 2 ",
"   c #520E7D",
".  c #54117E",
"X  c #050406",
"o  c #521678",
"O  c #010101",
"+  c #040404",
"@  c #501972",
"#  c #020202",
"$  c #55147E",
"%  c #56167F",
"&  c #53177A",
"*  c gray1",
"=  c #4E196F",
"-  c #140D18",
";  c #080609",
":  c #54107E",
">  c #130D16",
",  c #050405",
"<  c #040304",
"1  c #501973",
"2  c #170F1C",
"3  c #2C1639",
"4  c #4F1971",
"5  c #2F173F",
"6  c #530F7D",
"7  c #3A1A4E",
"8  c #55147D",
"9  c #070607",
"0  c #4D186F",
"q  c #130C17",
"w  c #4E1A70",
"e  c #3A1B4E",
"r  c #1B1022",
"t  c #54137E",
"y  c #261532",
"u  c #54147D",
"i  c #54177B",
"p  c #100A14",
"a  c #301840",
"s  c #0A070B",
"d  c #42195B",
"f  c #441D5D",
"g  c #080709",
"h  c #53107E",
"j  c #09070A",
"k  c #291536",
"l  c #0A080C",
"z  c #54147C",
"x  c #160D1C",
"c  c #3D1C52",
"v  c #1D1026",
"b  c #060506",
"n  c #54167B",
"m  c #331944",
"M  c #1F1127",
"N  c #54127E",
"B  c #1E1126",
"V  c #31193F",
"C  c #53147C",
"Z  c #170F1D",
"A  c #0B080D",
"S  c #110B14",
"D  c #281434",
"F  c #0F0912",
"G  c #521777",
"H  c #501576",
"J  c #150E19",
"K  c #120C15",
"L  c #1E0E29",
"P  c #471A63",
"I  c #53137B",
"U  c #2D183A",
"Y  c #3E1955",
"T  c #070507",
"R  c #4D176F",
"E  c #581E7C",
"W  c #1F1228",
"Q  c #40165B",
"!  c #541D77",
"~  c #140C18",
"^  c #521579",
"/  c #331843",
"(  c #55187B",
")  c #0E0910",
"_  c #56147F",
"`  c #16101A",
"'  c #331546",
"]  c #2D1939",
"[  c #511776",
"{  c #2A1538",
"}  c #361749",
"|  c #511A75",
" . c #37184B",
".. c #521677",
"X. c #451B60",
/* pixels */
"                                                                                                                                  ",
"                                                                                                                                  ",
"                                                                                                                                  ",
"                                                                                                                                  ",
"                                                                                                                                  ",
"                                                                                                                                  ",
"                                                                                                                                  ",
"                                                                                                                                  ",
"                                                                                                                                  ",
"                                                                                                                                  ",
"                                                                                                                                  ",
"                                                                                                                                  ",
"                                                                                                                                  ",
"                                                                                                                                  ",
"                                                                                                                                  ",
"                                                                                                                                  ",
"                                                                                                                                  ",
"                                                                                                                                  ",
"                                                                                                                                  ",
"                                        .                                                                                         ",
"                                        X                                             o                                           ",
"                                        O +                                         @ O                                           ",
"                                        # O $                                       + O %                                         ",
"                                        & * O =                                   - O ;                                           ",
"                                          $ # + :                               + O >                                             ",
"                                            , O <                             1 # O                                               ",
"                                              2 O #                         3 # O 4                                               ",
"                                                # O 5                     6 + # 7                                                 ",
"                                                8 + O 9                 0 O # q                                                   ",
"                                                  @ O O w               O O <                                                     ",
"                                                    e # # r         t # O *                                                       ",
"                                                      y O O u       + O + i                                                       ",
"                                                        p O # a 6 + O #                                                           ",
"                                                          s # d , O # f                                                           ",
"                                                              g O O h                                                             ",
"                                                            j # O k 6                                                             ",
"                                                          l O # z x O c                                                           ",
"                                                        j O # v . * O O h                                                         ",
"                                                    6 b O # n       * O O m                                                       ",
"                                                    + # # M         N * O # $                                                     ",
"                                                u * O O 8               O O # B                                                   ",
"                                                # O O V                 6 # O # 0                                                 ",
"                                          C Z O O # h                       A O O # S                                             ",
"                                          D # O F                             G # O * H                                           ",
"                                        J K L + P                               + +   #                                           ",
"                                    I # U N Y                                       T R E W                                       ",
"                                    q Q ! ~                                         ^ * / ( Y                                     ",
"                                Z ) _ * h                                               ` # ' ]                                   ",
"                                #   # [                                                   { } | 6                                 ",
"                                   .                                                        ..X.                                  ",
"                                                                                                                                  ",
"                                                                                                                                  ",
"                                                                                                                                  ",
"                                                                                                                                  ",
"                                                                                                                                  ",
"                                                                                                                                  ",
"                                                                                                                                  ",
"                                                                                                                                  ",
"                                                                                                                                  ",
"                                                                                                                                  ",
"                                                                                                                                  ",
"                                                                                                                                  ",
"                                                                                                                                  ",
"                                                                                                                                  ",
"                                                                                                                                  "
};
