/* XPM */
static char *result[] = {
/* columns rows colors chars-per-pixel */
"65 65 81 1 ",
"  c #520E7D",
". c #4F0E78",
"X c #010001",
"o c black",
"O c #030004",
"+ c #0E0215",
"@ c #3E0C5D",
"# c #020002",
"$ c #1D052B",
"% c #520E7C",
"& c #500E7A",
"* c #29083E",
"= c #040106",
"- c #0B030D",
"; c #4C0E74",
": c #510E7C",
"> c #450C68",
", c #230734",
"< c #050108",
"1 c #360952",
"2 c #0C0212",
"3 c #3B0A5A",
"4 c #28073D",
"5 c #510E7A",
"6 c #33094C",
"7 c #07010A",
"8 c #08010D",
"9 c #2C0743",
"0 c #470C6C",
"q c #3A0A58",
"w c #0D0214",
"e c #4C0D74",
"r c #100317",
"t c #250637",
"y c #250737",
"u c #020003",
"i c #27073A",
"p c #240736",
"a c #500E79",
"s c #010002",
"d c #0F0317",
"f c #410B63",
"g c #28073C",
"h c #210631",
"j c #4D0D75",
"k c #33094D",
"l c #450C6A",
"z c #4C0D73",
"x c #220634",
"c c #4C0E73",
"v c #2B0742",
"b c #0F0216",
"n c #311A3D",
"m c #220A30",
"M c #300949",
"N c #4D0E74",
"B c #4E0E75",
"V c #12031C",
"C c #0D0213",
"Z c #330A4B",
"A c #4E0F76",
"S c #2A083F",
"D c #380A55",
"F c #040105",
"G c #200532",
"H c #400B61",
"J c #480C6C",
"K c #4A0D71",
"L c #31084B",
"P c #1A0427",
"I c #230B31",
"U c #2C0843",
"Y c #250738",
"T c #260739",
"R c #4B0D71",
"E c #510E7B",
"W c #4D0D76",
"Q c #370953",
"! c #190525",
"~ c #240737",
"^ c #31084A",
/* pixels */
"                                                                 ",
"                                                                 ",
"                                                                 ",
"                                                                 ",
"                                                                 ",
"                                                                 ",
"                                                                 ",
"                                                                 ",
"                                                                 ",
"                                                                 ",
"                                                                 ",
"                                                                 ",
"                                                                 ",
"                                                                 ",
"                                                                 ",
"                                                                 ",
"                                                                 ",
"                                                                 ",
"                                                                 ",
"                                                                 ",
"                                                                 ",
"                                                                 ",
"                                                                 ",
"                                                                 ",
"                                                                 ",
"                                                                 ",
"                                                                 ",
"                                                                 ",
"                                                                 ",
"                                                                 ",
"                                                                 ",
"                                                       .         ",
"                                                       X         ",
"                   oooO                                o         ",
"                  Xoooo+                              @#         ",
"                 $ooooooo                            %o&         ",
"                 oooooooo*                           =o          ",
"                 oooooooo-       ;:  >,Xooo#<1       o2          ",
"                 :oooooooo34=Oooooooooooooooooooo5  6o           ",
"                  7oooooooooooooooooooooooooooooooo8o9           ",
"                  ooooooooooooooooooooooooooooooooooo            ",
"                  0oooooooooooooooooooooooooooooooooo            ",
"                   qooooooooooooooooooooooooo&wooooo$            ",
"                   erooooooooooooooooooooooooo  toooy            ",
"                    oooooooooooooooooooooooooo    ou             ",
"                    ooooooooooooooooooooooooooi                  ",
"                   pooooooooooooooooooooooooooa                  ",
"                   soooooooooooooooooooooooooo                   ",
"                   Xoooooooooooooooooooooooood                   ",
"                   oooooo  fooooooooooooooooo                    ",
"                   Xooooo    gooooooooooooooh                    ",
"                   oooooj     oooooooooooooo                     ",
"                  Xoooo       ooooooooooooow                     ",
"                 koooo:      oooooooooooooo                      ",
"                looooo      zoooooooooooooo                      ",
"                ooooox      Xoooooooooooooo       c.             ",
"               ooooov        boooooooooooo nm1  Mooo             ",
"              oooooo          ooooooooooooooooXoooooN            ",
"             oooooo           oooBoooooooooooooooooo2            ",
"            oooooo:           ooo ooooooooooooooVXooo            ",
"          :ooooooC            ooo:ooooooooooos    xoo2           ",
"          Zooooo            Aoooo oooooooooS        ooD          ",
"         DoFo o          GH<ooooooJooooo#K          LP           ",
"         =V   o          Ioooooooj UYTRE           WX            ",
"                       Qoooooo!~^                                "
};
