/* XPM */
static char *result[] = {
/* columns rows colors chars-per-pixel */
"60 60 230 2 ",
"   c #000300",
".  c #010C00",
"X  c #0E0000",
"o  c #1D0000",
"O  c #011302",
"+  c #041A06",
"@  c #051D09",
"#  c #0A1C0A",
"$  c #091705",
"%  c #141405",
"&  c #290A03",
"*  c #360904",
"=  c #27170B",
"-  c #36140A",
";  c #012501",
":  c #022D01",
">  c #05230C",
",  c #09230C",
"<  c #0A2A0D",
"1  c #07260A",
"2  c #023802",
"3  c #0A2610",
"4  c #042C12",
"5  c #0B2C12",
"6  c #052710",
"7  c #142F14",
"8  c #053216",
"9  c #0C3416",
"0  c #053518",
"q  c #0D3519",
"w  c #043C1C",
"e  c #0D3B1A",
"r  c #0C3917",
"t  c #113D1C",
"y  c #173816",
"u  c #18240C",
"i  c #312F18",
"p  c #123C20",
"a  c #480B09",
"s  c #560D0E",
"d  c #48110D",
"f  c #591412",
"g  c #53100F",
"h  c #63090E",
"j  c #741619",
"k  c #671214",
"l  c #66241B",
"z  c #762019",
"x  c #7D1D21",
"c  c #731D21",
"v  c #5B3321",
"b  c #4F3921",
"n  c #7E2225",
"m  c #692A20",
"M  c #482115",
"N  c #044308",
"B  c #05411E",
"V  c #0E431D",
"C  c #0E491F",
"Z  c #11431E",
"A  c #11491F",
"S  c #1D4517",
"D  c #0B5914",
"F  c #09550D",
"G  c #244C1B",
"H  c #204418",
"J  c #27551D",
"K  c #10691F",
"L  c #0E651B",
"P  c #064B25",
"I  c #0C4C22",
"U  c #064D28",
"Y  c #084622",
"T  c #124421",
"R  c #134C22",
"E  c #174E29",
"W  c #05542A",
"Q  c #065B2E",
"!  c #08572C",
"~  c #135325",
"^  c #155429",
"/  c #18532B",
"(  c #155B2A",
")  c #195B2D",
"_  c #165827",
"`  c #065E31",
"'  c #1B5C33",
"]  c #2C5820",
"[  c #335329",
"{  c #17622E",
"}  c #19612F",
"|  c #136D26",
" . c #066333",
".. c #086334",
"X. c #066936",
"o. c #076C39",
"O. c #1B6332",
"+. c #1C6C34",
"@. c #1D6A38",
"#. c #06723D",
"$. c #1C7236",
"%. c #1D7439",
"&. c #1D7C3B",
"*. c #1A7C39",
"=. c #127125",
"-. c #326325",
";. c #346927",
":. c #3A742C",
">. c #216D3E",
",. c #20733C",
"<. c #217D3C",
"1. c #34662A",
"2. c #52502E",
"3. c #1D7741",
"4. c #057841",
"5. c #237744",
"6. c #307341",
"7. c #822127",
"8. c #86252A",
"9. c #8A252C",
"0. c #8B292E",
"q. c #862C28",
"w. c #8E352D",
"e. c #8E2C32",
"r. c #922E35",
"t. c #9D2D37",
"y. c #96333A",
"u. c #9B353D",
"i. c #913236",
"p. c #8F3730",
"a. c #A0363E",
"s. c #891825",
"d. c #9A4838",
"f. c #A0523E",
"g. c #9C3B43",
"h. c #A33D45",
"j. c #A93E4A",
"k. c #A6404A",
"l. c #AA444D",
"z. c #AE4853",
"x. c #B34B55",
"c. c #B64F59",
"v. c #B84253",
"b. c #BB535E",
"n. c #B05147",
"m. c #B96D51",
"M. c #BE5561",
"N. c #C97C5D",
"B. c #C45965",
"V. c #C65C68",
"C. c #CB5C6A",
"Z. c #C65664",
"A. c #D35C6E",
"S. c #D2626F",
"D. c #CE6471",
"F. c #D46473",
"G. c #DA6C7B",
"H. c #D66876",
"J. c #D56977",
"K. c #E46C7F",
"L. c #1D823E",
"P. c #1F9239",
"I. c #21823E",
"U. c #21983D",
"Y. c #4B9639",
"T. c #529C3C",
"R. c #478734",
"E. c #55A33D",
"W. c #1E8541",
"Q. c #1E8941",
"!. c #1F9849",
"~. c #228541",
"^. c #228C44",
"/. c #26834A",
"(. c #278C4D",
"). c #239246",
"_. c #25954A",
"`. c #259B4C",
"'. c #289D4E",
"]. c #28954A",
"[. c #288D51",
"{. c #2A9854",
"}. c #348140",
"|. c #26A34E",
" X c #28A24E",
".X c #24A848",
"XX c #27A551",
"oX c #29A451",
"OX c #29AB54",
"+X c #2BAF58",
"@X c #2AB255",
"#X c #2CB559",
"$X c #2CBA5A",
"%X c #2FBC60",
"&X c #58A641",
"*X c #5DB645",
"=X c #64BC49",
"-X c #61BA47",
";X c #60AF46",
":X c #68C64B",
">X c #70D051",
",X c #70CD51",
"<X c #C4805D",
"1X c #D48B66",
"2X c #CD8763",
"3X c #EFB17F",
"4X c #DD7282",
"5X c #E86E81",
"6X c #E37585",
"7X c #EB7185",
"8X c #EB7C8D",
"9X c #E87788",
"0X c #F2778B",
"qX c #EF7E90",
"wX c #F07F90",
"eX c #EE8091",
"rX c #F48495",
"tX c #F78798",
"yX c #F88799",
"uX c #FB8A9C",
"iX c #F58998",
"pX c #F5B985",
"aX c #FF8EA1",
"sX c #FF92A5",
"dX c #FF95A9",
"fX c #FF9BAD",
"gX c #FF9CB0",
"hX c #FFA3B5",
"jX c #FFD397",
"kX c #FBC18B",
/* pixels */
"O . + + O . O + + O O O O O O + O O O . + + O . O . $ + O . O + + O O O O . O + O O O + $ O O O O O @ O O O . O O O O O ",
". %.oX].'.q   %.@X&.. O . P X...X.4 . %.|._.oXe   %.oX].XXe   $.@X%.. O . U X.` X.6   R.:XR.. O . +.OX&.. O O %.@XL.O O ",
"  `.R O Q._   + _ '.. O O  .8 O ..B . OXR O ].)   OXZ O ).(   + ( _.  O O  .8 O ` w   + ;.*X. O O O ( _.. O O O { |.. O ",
". ).r   *._ . . Z _.. O O ` >   W w . '.r   3.)   '.5   <._ .   Z ).. O O  .>   W 0 .   J E.O O O   Z ).. O O   I _.. O ",
"  _.e   &.( . . Z ].. O O  .5   W B . '.t   W.)   '.9   <.(   . R ).. O O ` > . ! w . . ] &X. O O . T ).. O O . ~ `.. O ",
". `.5   %.(     e !.  . O  .#   W B O  X5   L.O.  oX3   <.(     e ).  . + ` @   I w     G &X  . O   e ^.  . O   I ].  . ",
". ].^.+.oXR   / ].$X>.5 . ` Q Y #.0 . ].^.+.OXR   ].~.+.OX~   ^ _.#X@.5 . ` ` Y #.9   -.&X,XR.7 . E _.#X+.3 . / `.$X%.5 ",
". < _ ( Z + . A _ R ~ , . , e w 8 O . 5 _ ( T + . 5 ( _ Z + . Z ^ R ) > . > w 0 8 + . G -.] -.3 . Z ~ R _ > . C ~ I ~ , ",
"O       . . O       . . O       . O O         O O         O O         . O .       O O         . O         O O         . ",
". e ~ 9 O O . e T 5 O O $ y ] y . O O > 0 0 8 O . e ~ 9 O O . < ~ ~ e + . < R ~ V O . 5 R ~ p + . r ~ 9 . + . > 0 w 4 O ",
". ( OX^.. O . ' {.5.. O O 1.:XT.  O O  .X.W #.0   } OX^.. O O _.].I.$XR   ).`.L.#XT   '.'.L.%XR   } OX^.  O O .. .! 4.9 ",
"O   e ^.  O O   p /.. O O   G &X. O O X.>   W B .   e ^.. O $ `.5   U.(   `.>   ~.)   '.5   Q.{     t ).  O $ ..>   W w ",
"O . T ^.. O O . p /.. O O   ] T.  O O X.4   W B . . T Q.. O + _.q   U.( . _.5   ~.^   '.q   ^.)   . T ).. O O ..6   W B ",
"O   V ^.. O O   p 3.  O O   ] T.  O O  .6 . W B . . B Q.. . + `.9   ~._   ).5   5.~   `.5   Q.)   . Z ^.  . $ ..>   W p ",
"O O R ].+ O O O E /.@ O O $ [ &XO # + o.8 . Q B . . I ].$ + O XXZ   '.)   |.e . ^.)   OXV . ].{   O R '.+ + . o.4 . ` w ",
". } `.'.~.5   ' /.[.5.5   :.*X-XT.y   U ..Q ..3   >.].'.~.q   %.).~.`.w . %.].~.`.q   &.).~.'.e   O.`.'.~.5 . W  .!  .6 ",
". + @ > > O . + @ + + + O # , # , + . O # + O . . + > % % % O O # - d a & O @ > + . O O > > + . . + > @ @ O . O + + O . ",
"O .       . O     . . . O         . O . . . $ % % & d j e.n f - k z.D.Z.i.d O . . O . .       . O . . . O O O .   . O O ",
". R ~.~.,., . +.^.) . + . R ^.~.<.> . O.G a k n f 8.A.wXrXwXG.a.x 8XfXdXrXy.a d - O . ~ ~.W.%.> . B Q 0 . O . O.^.( . O ",
"  |.$.C '.(   e ~.'.. O . '.+.Z OX( X b i.Z.rXk.y.tXsXyXaXdXdXdXx.8.D.G.uXeXZ.S.u.a . OX%.T +X(   4 W  .. O O e Q.'.. O ",
". ).8   $.( .   e ].. O O [.3   *.{ * t.wXdXuXz.c.9XyXuXG.x.k.V.tXe.j 0.0.Z.dXdXrX0.& !.>   W.)   . 4 ! . O O   C _.. O ",
"  _.e   *.( . . A ].. O O _.q   L.[ s.iXsXS.8.y.g.8.r.y.0.h.l.i.e.b.y.uXJ.9.g.yXdXj.& !.q   !.(   O 0 Q . O O . ~ `.. O ",
". ).5   %.(     e ].  . $ _.5   L.2.b.yXyXC.V.iXaXtXc.j 4XgXdXdX9XJ.6X6XM.8X8.c.rX7.* '.4   ~.)   . 4 !   O O   T ].  . ",
"  '.$.Z `.(   q &.@XR > . '.+.p [ l 9.9.b.sXuXuXyXyXdXk.e.k.y.j.8Xb.0.8.h.iXG.8.G.h.7.v H I OX)   6 W #.4 @ . r L.#XR > ",
". R &.%.$., . ) <.%.,.5   R &.:.n Z.6X9XqXaXaXaXuXyXuXu.n b.V.h.M.tXj h.dXuXaXe.D.sXiXv.v 5.%.3 . w ! I U @ . ' 5.%.*.5 ",
"O .       . O         O O   X h H.dXuXD.y.0.r.V.uXdXM.e.yXgXdXdXuXdXF.V.sX8X9Xy.b.dXuXuX0.o   . + . . .   $ O         . ",
". O @ @ + . O @ # + O O O @ = h.uXaXD.7.B.J.V.8.k.sX9XG.F.M.D.8XuXG.h.y.u.c.8.j 7.z.iXuXu.= @ . : 2 N N N 2 + O > > @ . ",
". U o. .X.6 . ,.+X~.. O . <.2.z.dXyXrXrXdXaXdX8Xx b.k.8.e.y.e.8.e.7.x.D.D.eXeXi.7.V.aXG.c 6.[.q ; U.@X.X@XD O >.[.5.[.7 ",
".  .0 O ! B . + _ `.. O . > = t.uXuXyXyXyXyXyXdXc.k c.8XyXuXiX9Xk.j K.dXsXuXsX6Xq.9XdXl.s $ 5./ : .XL N .X=.O [.p O 5.E ",
".  .>   U w .   Z ].. O O . 7 v Z.uXsXsXuXyXyXuX8XG.dXuXuXuXuXaXdXV.q.rXyXyXyXsXr.V.sXrX9.& 3.E : .XF 2 U.| O /.5   5.E ",
".  .4   W B O . A ].. O O . I }.s h.S.F.yXuXyXyXuXuXaXuXyXuXiXyXtXuX9XtXuXyXyXyXr.D.uXdXx.& 3.E ; .XD 2 U.| O /.q   >.E ",
".  .>   U w .   Z _.  O O   A L.X - g l j.rXaXaXaXaXG.6XdXaXuXuXtXtXsXtXuXsXdXF.j 8XdX8X9.& 3.^ ; .XD : U.=.O (.5   @.^ ",
".  . .W #.8   O.oX%X~.9   ) oX#XI.w . ].2.0.Z.F.V.k.n n c.k.l.iXsXaX9Xe.h.S.x.j j u.c.9.2.5.{.T ; .X.XU.$XL O /./.>.[.T ",
". @ 0 0 > O . e A V Z > . e T C Z > . < t = d j u.x.eXJ.g.l.j 7.z.z.x g.h.r.t.Z.y.s * = q p 7 O : F | K L N O , V T q O ",
"O       O O O       . . O       . O O .   . O f B.gXhXfXhX4Xp.1Xm.z r.7X7X7X7X0XZ.f O .     . . + O . . O + O .     . . ",
". e ^ 9 . O . V ^ 9 . O O e ^ 9 O O O S ;.;.J u g y.B.D.8Xg.f.jXpX7.A.7XK.K.K.7XH.j . y / q O O . # w w 4 O O e ^ q O O ",
". ( OX).  O . O.OX].. O . ' OX^.. O @ *X*XY.>X;.. i M v f g p.kX3Xj Z.0X7X7X7X0XC.k . } oX).O O .  ...! 4.8   O.OX].. O ",
"O   e ^.. O O   t _.. O O   V ~.  O , =XS . Y.:.  . Y ^.. + f n.kX<Xs.l.A.S.H.A.t.- O   p _.. . O ..@   W w .   I ].. O ",
"O . C ).. O O . A ].. O O . ~ I.  O : -XJ O E.:.  . e ^.. O $ a w.1X2Xf.q.q.j l - . O . R ).O O O ` > . ! 0 . . ~ !.O O ",
"O   e ^.  O O   Z _.. O O   C ~.  O 1 -XS . Y.:..   e Q.  O O . = v 0.1XpX3Xd.i O . O   Z ^.. . O ` @   ` 0 .   C _.. O ",
"O @ ) '., + O @ ) oX5 + O @ { ].3 $ @ :X-.< *X:.  @ ^ `.< # O + } XX= f m.jXN.s u + . # } |.5 + O  .0 +  .0 . # { oX< + ",
". +.XXXX_.q   ,.oXXX].q   +.XXXX`.e O Y.-X*X-XS . $.XXXX_.q   @.XXXX{.y h 1XjXn.2.w   %.XXOX].9   P X...X.> . $.OXXX_.q ",
". $ $ O + O O O + + O O . + + + O O + @ : < 1 + O $ $ + + . O + + O $ O & q.N.n.* O O @ $ + + O O O + # O . O + $ + + O ",
"O       O . O     . . O O       . O O .       . O       O O O       O O O & a * % . O         . O         O O         . ",
". ' ).( . O O Y ` B . O . ' ]./ . O . / ^.~.<.6   O.]./ . O O O.[.( . O . w  .w . O . / 5.5.@.3 . ^ ~.I.<.< . ( /.~.<.3 ",
". e I._.. O . 4 ! X.. O O q ~.).  O $ OX,.T OX)   t L._.. O O q ~.'.. O O 6 !  .. O . [.' p {.E    X,.A OXR   OX%.R OX_ ",
"O   e ^.. O O   4 ..O O O   Z I.  O + `.9   &.' .   r Q.. O O   e ).  O O . 6 ` . O . /.>   3.E   _.<   3.~ . `.3   <.( ",
"O . T ).. O O . 0 ... O O . ~ ~.  O $ '.t   W.)   . T Q.. O O . R ).. O O . 4 ` O O . /.5   5.E . ).q   Q.~   '.q   ~._ ",
"O   e ~.  O O   4  .  O O   V L.  . + '.5   3.)     q W.  . O   e ^.  O O   6 Q . . . /.<   5.E   ).3   &.R . `.<   &.( ",
". t I.#X( > . 8 ! 4.w @ O e ~.+X_ < O oX<.R OX)   C L.@X_ < . t I.$X^ < . 4 ! #.w @ . [.>.T {.E   |.&.R +X~   OX&.R oX( ",
". ~ %.@.+.5 . w U Y I , . / %.@.$.5 . R %.@.+.1 . ^ %.+.%.5 . ^ %.@.%.5 . w U I P > . T ' >./ , . A %.%.O.> . R %.%.O.< ",
"O         . . .       . O         . O         O O         . O         . O .       . O         . O .       O O         . ",
"O , < # O O O O , < # . O > < @ O O O O > > , . O + @ + O O . > 6 + O O . > < + O O . > < + O O . + 6 > @ O O # < + O O ",
". :.:XR.. O . Y.-X&X=XG   +.OX<.. O . L.|.).oXt . Y o.W O O . O.OXL.. O . O.OX<.. O . +.OX&.O O . &.|.).oXq   ' [.%.. O ",
". . ] &X. O . :XJ   T.;.  . _ ^.  O + oXZ   ^.)   O 0 Q . O O . _ ].  O O . R ].. O + . E `.O . O `.t   Q._   O E /.. O ",
"O . G T.. + . =Xy   Y.-.  . A ~.. O O '.q   W.) . . 4 Q . O O   C ).  O O . t ).. O O   Z ).. O O ].9   W.~   . T /.. O ",
"O   G &X. O . =XH   Y.-.  . A ^.  O @ '.e   W./ . O 4 Q . O O . Z ).  O O . e ].. O O   R ).. . O ].9   W.~   . T /.. O ",
"O   H &X  O . :XS   Y.;.    Z ~.  . @ '.r   W.)   . 4 Q . O O   Z ).  O O   t ).  O O   Z ).. . O ].5   W.~   . Z /.. O ",
"  :.=X>XT.y   ;X=XT.:XJ   >. X+X^.q . _.'.Q.+XR   P X.#.` > . { |.#X^.9 . O. X#X^.9   +.OX#X^.9 . ^.`.~.@XV   ' [.{.5.5 ",
". y G H H , . < G J y O O 9 Z r T @ . > T T q O O > 4 4 8 + . r C e C @ . q Z e Z @ . q Z e C @ . , C T e O . 9 e 9 e @ "
};
