/* XPM */
static char *result[] = {
/* columns rows colors chars-per-pixel */
"65 65 202 2 ",
"   c #050402",
".  c #0A0604",
"X  c #0D0905",
"o  c #0D0C0B",
"O  c #130C05",
"+  c #190E06",
"@  c #120E0B",
"#  c #140B05",
"$  c #1C1107",
"%  c #14110C",
"&  c #1C120A",
"*  c #1F190F",
"=  c #0E0C12",
"-  c #110E14",
";  c #141313",
":  c #191615",
">  c #1B1917",
",  c #161419",
"<  c #19151B",
"1  c #1C1B1B",
"2  c #22160A",
"3  c #25190C",
"4  c #2B1C0E",
"5  c #251408",
"6  c #311E0E",
"7  c #241C12",
"8  c #2C1E11",
"9  c #201F1E",
"0  c #2F210F",
"q  c #33210F",
"w  c #3C230F",
"e  c #2E2113",
"r  c #26221D",
"t  c #332313",
"y  c #3A2612",
"u  c #3D2915",
"i  c #3D2C19",
"p  c #342718",
"a  c #1E1924",
"s  c #221E25",
"d  c #2A1F3A",
"f  c #242323",
"g  c #282726",
"h  c #2B2926",
"j  c #2C2B2B",
"k  c #282828",
"l  c #302E2E",
"z  c #352D23",
"x  c #32312E",
"c  c #383228",
"v  c #2D223D",
"b  c #2C2535",
"n  c #312D35",
"m  c #372F3F",
"M  c #353433",
"N  c #393636",
"B  c #3B3936",
"V  c #3C3B3A",
"C  c #3B383B",
"Z  c #40250E",
"A  c #432C15",
"S  c #492E15",
"D  c #442E19",
"F  c #492F19",
"G  c #402711",
"H  c #473017",
"J  c #4C3117",
"K  c #45311C",
"L  c #4C331B",
"P  c #4E381E",
"I  c #51361C",
"U  c #54391E",
"Y  c #5D3B1C",
"T  c #563419",
"R  c #623E1E",
"E  c #4C3621",
"W  c #4A3822",
"Q  c #523620",
"!  c #553C22",
"~  c #5A3D23",
"^  c #403F3E",
"/  c #423D36",
"(  c #633D25",
")  c #5D441F",
"_  c #6A421F",
"`  c #5C4325",
"'  c #5D4329",
"]  c #43403E",
"[  c #634923",
"{  c #62472A",
"}  c #664A2C",
"|  c #6A4C2D",
" . c #684526",
".. c #6D502E",
"X. c #6C4E30",
"o. c #755434",
"O. c #7B5A34",
"+. c #74532D",
"@. c #312642",
"#. c #342944",
"$. c #382C4A",
"%. c #3C3443",
"&. c #3F2E5A",
"*. c #3E2E56",
"=. c #2F2440",
"-. c #433F42",
";. c #443A4B",
":. c #412F5D",
">. c #463858",
",. c #443263",
"<. c #4C376E",
"1. c #4E396E",
"2. c #4A3764",
"3. c #513D6E",
"4. c #4E3971",
"5. c #513B73",
"6. c #553E7A",
"7. c #454343",
"8. c #494645",
"9. c #4B4947",
"0. c #4B424F",
"q. c #4D4B4B",
"w. c #474548",
"e. c #514E4D",
"r. c #504A47",
"t. c #53514E",
"y. c #5D574E",
"u. c #4D4455",
"i. c #524F50",
"p. c #555353",
"a. c #595655",
"s. c #5B5956",
"d. c #5D5B5A",
"f. c #585758",
"g. c #615E5D",
"h. c #625C56",
"j. c #63615F",
"k. c #55436B",
"l. c #5B4A75",
"z. c #5C447D",
"x. c #5B4876",
"c. c #5F5566",
"v. c #614B7D",
"b. c #655674",
"n. c #615F60",
"m. c #656362",
"M. c #696665",
"N. c #6B6966",
"B. c #6D6B6A",
"V. c #716E6C",
"C. c #73716E",
"Z. c #757373",
"A. c #797675",
"S. c #7B7976",
"D. c #7C7B7A",
"F. c #815F36",
"G. c #826139",
"H. c #817D75",
"J. c #817E7D",
"K. c #82817E",
"L. c #8B867D",
"P. c #5C4383",
"I. c #5F4589",
"U. c #604685",
"Y. c #624A85",
"T. c #634A8A",
"R. c #61468B",
"E. c #685284",
"W. c #6B5687",
"Q. c #664A91",
"!. c #694C96",
"~. c #6D4E9E",
"^. c #6F519F",
"/. c #72559E",
"(. c #6F4FA1",
"). c #6F50A0",
"_. c #7151A1",
"`. c #7553AA",
"'. c #7A59AB",
"]. c #7E5AB4",
"[. c #704FA3",
"{. c #845EBC",
"}. c #8A63C3",
"|. c #9972CE",
" X c #A47BDE",
".X c #838281",
"XX c #8A8684",
"oX c #8A8885",
"OX c #8C8B8B",
"+X c #918C86",
"@X c #938E8A",
"#X c #96928D",
"$X c #929292",
"%X c #9D9C9B",
"&X c #999897",
"*X c #A19C97",
"=X c #A6A29D",
"-X c #A6A5A5",
";X c #BAB4AE",
":X c #B9B3B1",
">X c #B188E1",
",X c #AF8ECE",
/* pixels */
"_._.^.^.).)._.)._.^._.)._.)._._.^.).).^.).).).).).).).).^.^._.)._._.^.^.^.).^.).).).).).).).).).).).).).).)._.).).).).).).).).).).",
"~.~.|.`.~.~.~.~._.).~.(.(.(.~.~.~.~.^.~.).^.~.~.).^.~.^.^.^.^.^.~.^.^.^.^.~.~.^.~.~.~.).'.~.~.~.~.~.^.^.~.~.).^.^.).~.~.^.^.).^.).",
"~.(.~.~.~.~.~.~._.~.~.[.>X{.~.~.~.~.~.~.^.~.~.~.~.^.~.~.).}.`.^.~.^.~.^.^.^.~.~.(.).).).).~.~.~.^.).^.~.~.~.~.~.~.~.~.(.(.(.~.~.~.",
"(.(.~.~.~.~.~.(.(.~.~.).|.].~.~.~.~.~.^.~.~.~.~.!.T.I.Y./.,X'.I.T.T.I.I.T.I.P.I.Q.~.~.).).~.~.~.~._.`.~.~.(.~.~.^.~.~.).}.}.(.~.~.",
"~.~.(.~.~.~.(.~.~.~.~.~._.(.~.~.~.).).^._.'.E.P.k.u.w.0.p.p.i.0.i.f.f.p.a.9.V n ,.P.Y.T.!.^.~.~.~.~.~.~.~.^.~.~.~.~.(.[.>X X`.(.(.",
"~.~.(.(.~.~.).).~.).).~.(.(.~.~.~.^.!.P.W.b.7.f w.N.B.V.p.p.S.n.W.%X%X-X&XoXD.w.^ 7.V u.l.I.!.~.~.~.~.~.~.(.~.~.~.~.(.(.`.`.(.(.(.",
"~.~.~._.).~.~.~.~.).~.`.~.~.~.~.(.P.k.0.i.s.n.e.p.Z.M.N.q.7.N.q.S.L.oXoX.XA.Z.d.oXK.d.f.7.%.2.z.Q.!.~.^.~.^.~.~.~.~.~.(.~.~.~.~.~.",
"~.~._._.(.~.(.~.~.~.~.~.~.(.).v.>.0.q.m.Z.B.A.K.7.a.d.m.p.7.f.V j.Z.D.D.V.M.d.w.%XS.f.B.C.n.7.%.*.k.I.~.~.).).~.(.~.~.~.~.~.~.~.~.",
"~.~.(.~.~.~.~.~.~.~.~.~.~.^.E.0.1 V t.B.C.B.V.S.q.a.m.j.d.7.7.B j.S.H.K.C.M.t.V %Xn.9.Z.$X$XB.7.B %.4.I.!.).(.).~.~.~.~.~.~.~.).~.",
"~.~.~.~.~.~.~.~.~.~.~.^.T.E.e.V > f V m.B.m.m.M.m.p.N.j.g.e.w.^ C.D.H.A.B.m.q.9.$Xp.7.m.S.J.Z.B.m.p.0.>.4.Q.!.).~.~.~.~.~.~.(.).~.",
"~.~.~.~.]._.~.(.~.~.~.Y.k.q.8.d.q.f j q.m.n.g.j.M.n.C.N.N.d.q.^ C.Z.A.V.B.m.p.B.S.p.9.d.m.p.p.C.A.D.n.] %.z.I.!.~.~.(.(.(.(.(.~.(.",
"~.~.).~.~.~.~.'._.(.z.>.7.p.s.B.D.q.k x p.s.s.g.B.B.B.A.A.m.9.M M.M.V.B.B.j.7.OXn.e.q.d.p.8.j.B.K..Xj.8.V $.4.I.Q.~.~.~.~.~.~.~.~.",
"~.(.~.~.~.~.~.^./.z.;.7.9.s.s.j.N.B.V k V t.d.j.B.M.p.s.e.V j 9 q.s.j.B.C.g.N K.q.q.t.d.9.q.B.V.C.V.d.8.j B ;.1.P.Q.!.^.).~.~.'.(.",
"~.~.`.~.~.(.~._.W.u.j V 8.9.8.t.d.j.t.k j 7.p.n.f.q.N j a > ; o j j M ^ ] B g e.8.q.p.p.9.M.C.B.d.f.d.7.f B ] w.2.I.!.^.~.~.(.(.~.",
"~.~.~.~.~.(.~.W.c.8.V M N V ^ t.f.a.f.N f M B V B M f = o X     % % % * : : 1 g k N 7.] s.Z.Z.j.t.p.q.M l %.M M %.4.I.!.~.(.~.~.~.",
"(.].`.~.~.~.~.b.] V t.q.N V 8.a.a.d.f.7.f 1 1 f > ; o X X X .   % * % % % * 3 % > 1 9 l m.B.m.n.p.q.B M N f.f.M j ;.4.I.).).~.~.~.",
"(.>X{.(.(.~.l.7.k f B 8.9.9.f.d.d.m.p.M f 1 % o o & % & 2 3 $ . p A p q t u A & t ; ; 1 9.d.p.p.9.V M j 8.B.D.B.B j 2.x.Q.~.(.~.(.",
"(.'.(.~.~.I.u.j 9 r f k B q.M.B.d.p.V 9 ; o X . & e e t u u 4 . W U L L D ! U 4 W 3 * & 9 M 7.7.7.V M 7.m.Z.K.S.f.f 7.2.P.R.~.(.~.",
"(.(.~.(.!.k.N l ^ 7.M f f M q.m.i.n 9 o . X X O 8 E u A A A 4 X W U I ! I ` R y | t 4 2 & ; 1 N ^ V B n.S.S.S.B.j.x f $.<.P.Q.(.~.",
"~.~.~.(.z.n h ] a.m.d.7.x j V q.N 9 o . . O % & y ` H A A A 4 . W I I Y U ` R w O.y t 4 3 @ @ 9 j j 7.B.H.C.B.j.s.j f q.,.6.Q.~.~.",
"~.~.~.!.l.V M V p.M.B.j.f.w.C j 1 @ . X O & 2 2 D | P D S A 3 . W U I ` U [ Y A G.J H u e 7 X @ , k p.B.C.d.g.t.q.B.m.C $.,.I.~.~.",
"(.~.~.E.9.7.S.B.d.n.j.g.j.i.M 9 o . X O & 0 t 4 K | L u A A 5 . W P U ` U ` T A G.I I H A t O % ; f f.m.g.a.t.L.oXZ.i.g f &.6.!.(.",
"_.~.~.b.-.N i.d.V.OX.XM.d.x 1 @   X @ & 3 t u w E o.I A L F 5   K I U ! I ` J D G.L L D H u + 7 * > 7.M.A..XoXW.M.s.p.V f $.4.!.~.",
"~.~.E.0.V ^ e.e.p.n.M.A.A.f ; X   % 2 3 6 A L J L o.! S U J 5   W I U U S [ S D O.I L J I D 5 t 7 % f f.OXoXB.N.j.f.p.7.1 > ,.I.~.",
"~.~.v.B M 8.9.t.a.t.t.e.V 1 o   X * e 0 y A L J L o.! H L F 5 . W K ! I D ` A y O.U U I ) J 3 H p & f 7.B.B.C.B.m.g.s.7.f : *.z.!.",
"~.~.3.l M q.e.a.a.a.g.t.N ; X X O 0 p q A L L T L o.! S F A 3 . K J Q I A ! y A O.I J J ) J q ! K * 9 j p.m.m.m.g.d.a.V 1 > $.6.Q.",
"~.U.;.s j V 7.t.s.d.d.q.g @ X O & p A y A J L Y E o.! S D A 3   K H ! I A ! G A +.J J L I I w { ) 3 % r x e.q.t.8.^ n 1 ; > b 4.I.",
"~.z./ 9 1 k N ^ 7.7.7.V 9 o X + * i L u H H L Y Q o.~ S S D 5   W H ! K A ~ 6 w +.L I J ! I w | ` 0 * 1 , f 1 1 1 > > 1 j M s <.I.",
"!.k./ s f g 9 f g f f g > X + * $ L ! A H D L _ Q o.Q G D A 5   E L L H w U 0 q ..J T J L I Z X.} u 3 & = = : f j V 7.w.^ B a ,.P.",
"~.x.B , ; > r g g a 1 9 ; X $ 3 & ! ` S S D L _ L o.Q G S A 5   W H L D y U 4 q [ J H H I L Z | } i 4 % % 9 B p.n.B.B.j.e.V < ,.6.",
"~.x.M g M 7.e.q.8.^ g > % X * 4 2 ` ' J D D J _ E o.T A G G 2   E A H A u P 4 w [ S D H P L w ..X.H 0 & ; f w.M.D.Z.B.M.f.N , ,.6.",
"~.k.N -.d.m.M.N.M.g.N : o O 2 q 3 [ } L J J L _ L o.I S G G &   E K L H w L 5 6 [ J D A H J G X.X.H u 2 : f w.B.D.B.n.n.p.l - ,.6.",
"!.k.V p.d.s.s.M.V.N.N : X + 2 u 6 | } I L F Y R F +.L A S A $   K I L D y H 5 q ) L H u H J Z ..| S u 3 & f 9.V.B.d.d.f.w.k - ,.4.",
"P.$.j V B N V q.e.8.f @ X & 4 A 4  .} I L S T ( F X.F G D D $   K I U D y H 5 4 U H S u L J S ..} A u 4 & f M q.w.%.V N k ; = &.6.",
"z.u.f.i.q.f.M.m.d.M.N o X * 0 H q | { L F D S R A ( A A D A &   E F Q D u H 3 3 ) H D A P S G | { A A 4 @ h d.N.m.n.s.f.9.^ n $.5.",
"x.n.N.N.M.V.D.A.B.A.V X X * 0 P q | ~ D A A S R F ( A D A A $   E F Q S w u 5 5 [ J S D P A y | [ A D t % V A..XJ.A.Z.B.d.p.%.b 4.",
"l.i.7.p.e.r.e.p.f.f.l o X & 0 I q ..` G D D F ( A ( D F H u &   E L U D t u 3 3 [ H H D U S S }  .D H t & V d.m.j.j.d.q.V V x f k.",
"v.p.7.9.9.q.e.g.M.d.j X X 2 q U w ..` y D F F T D ( D K u t & . Q L I A u H 2 4 ` D H F U J S } { L F t & M s.s.d.d.p.] 7.w.N s 4.",
"l.q.] 9.8.e.t.M.B.p.f X X & 0 P 6 ` P 6 t G w S z Q y D u 0 &   F u u q q t & 2 L t y y L y w ~ ~ A y 4 % M q.p.p.q.7.7.q.9.M a 5.",
"x.V j V ^ 7.9.t.7.M 1   X % & K 8 I i 3 8 8 8 w t D 8 e 0 3 %   t e e 3 4 0 + $ u 8 4 8 y 6 4 J A 8 4 & O j V 7.7.7.7.9.w.7.k 1 4.",
"k.M > 1 f f f f 9 1 = o ; 7.B.+X*X:X;X;X;X:X;X;X=X*X+XH.N.h.c o h.XX+X+X=X*XZ.S.L.oXoXL.#X@X@X#X+XL.N.] f j x M B B 7.9.N M f a 4.",
"k.b = = ; ; 1 ; ; > o . = f ] p.j.B.V.C.V.C.A.K.L.L.H.H.S.Z.8.% B.@XXXH.H.C.h.y.j.j.m.m.j.j.j.h.d.s.r.M 1 ; 1 > 1 9 f f 1 1 - $.4.",
"4.d = = ; ; , 1 1 , = . > f B 7.8.e.p.s.V.r./ B ] C.OXf.] ] z X a.a.r.t.$XB./ M B / t.Z.t.] ^ B B t.a.j ; > ; ; ; ; ; , , ; - &.4.",
"4.d = - 1 1 f f s 9 , o = k r h h x x N r.] h h B B.-Xp./ z ;   x h z / -X.X] c 9 r h r.B 1 1 1 > c 8.f o f 1 > , 1 9 9 , - - :.4.",
"k.v 1 f k x M V N l < .   X o o o @ o o % @ o : i.f.e.d.8.f     @ % ^ a.q.f.f.x X X X o o . . X . X o X   k f M 7.e.p.p.7.j ; &.1.",
"4.#.h j x V q.f.i.7.f .   . X 5 . 4 5 # # # # p OXM V C B.p.    + : &X9.M ] ^ K.3 + + O + X . $ $ O O X X j V f.B.D.Z.B.m.p.a &.4.",
"4.#.k j x 7.f.j.d.9.s . . # + w # u q 5 + 5 & z $XV ^ 7.S.h.O   * 7 &Xf.V w.i.oX0 0 $ $ 2 O X 3 0 $ & + O j 7.f.M.C.B.n.p.9., &.4.",
"5.#.k x M 7.p.B.M.9.1   . $ 8 T 3 ~ E 6 6 e 4 t B.V.e.M.K.y.$   8 8 t.D.d.w.Z.A.i u t 0 t 0 $ t u w q 0 % j 7.f.n.f.p.t.9.V , &.4.",
"4.=.f M M N 8.n.s.V >   X * q L 8 { ! y t t t e B N.&XA.t.c &   e e c 7.$XOXB.B K u u w u 4 + p K u H 0 * g B q.8.V ] 7.V j ; &.1.",
"5.=., f k j M V M k =   X * 0 H 8 ' E u q e 4 3 % r l N r 3 & . r e * * h N x & L y u u u 4 $ y u H A 0 & ; j x j k j l j k - &.4.",
"k.#.n n.M.j.B.M.p.V 9 o . * q H 4 ~ E t 6 4 4 4 @ O X X & 3 $   e e 3 X X . X + W t q t p 3 5 p u A A 4 % l j.B.j.g.n.m.M.s.a &.4.",
"<.v f V 8.9.7.B j 1 = . X & 0 H 8 W D 8 4 4 q 4 * e + % 3 4 $   e 0 e & X X X * ! t t t y 3 $ p H A A 4 * l w.p.a.f.9.9.q.V , &.<.",
"<.=.; ; 1 f r 1 1 , ;   X $ 3 u 3 Q D 8 4 4 4 4 e i q i p 4 +   r 3 0 3 * 2 2 2 ` t t t p 3 $ p u A A 0 & M ^ q.p.p.i.w.7.l , &.1.",
"<.v = 1 f M ^ B N l 1 . X $ 3 u 5 Q u 8 3 4 e 4 e i q i p 3 O   3 e e * 2 2 2 & Q e t q p 5 + u i y u 0 & B j M N ^ ^ V l 9 - &.4.",
"<.=.a V f.M.B.j.m.a.f   X & 3 t 5 E i 4 3 4 t 4 7 i t i t 4 O   r e 3 & 2 2 2 * K e t t p 2 @ p t t u 0 & M 9 f k j j k 1 ; = &.4.",
"<.@.j w.a.d.g.d.f.e.r     & 2 e & E u 4 3 8 8 3 3 p 4 p t 4 O   * 0 3 & 2 2 $ % i 6 t t t 2 O p t 0 0 3 + M j 9.q.9.^ N j 9 = &.1.",
"4.v 9 n M M V V V l ;     % & 3 + K i 4 5 3 4 5 > p 0 t t 4 X   * 2 3 3 * 2 $ O i 0 0 e e 2 O e 0 0 0 2 % f j f.f.7.V M l k - &.4.",
"4.v 1 j j l B ^ B j ;   . X & 3 O K p 3 3 7 7 2 2 t 4 t e 4 O   * 2 0 3 * $ & O p 3 3 0 t 2 + e e 3 0 2 % ; j t.9.N M V ^ M , &.<.",
"4.@.V N.B.B.S.oXZ.g.j o   O % 3 O i t & 2 3 3 5 2 t 4 t 8 3 O   * 3 0 3 & & $ O e 2 3 4 e 3 $ t e 3 0 & O j p.OXOXD.Z.Z..XD.a &.<.",
"4.@.M i.f.f.s.m.d.q.f .   X $ 3 O u 0 5 2 2 2 * * e 3 e 4 2 .   * 2 3 4 & & + O t 2 3 3 t 3 $ t p 4 0 * O j V n.m.n.f.i.f.q.1 &.4.",
"4.#.M i.s.d.f.a.d.q.f . . X $ * O t 3 * 2 3 3 2 & e 5 t 4 2 X   * 2 4 4 $ O O O 0 2 2 5 e 5 & t t 4 4 * O j B p.d.m.f.e.f.w.a &.4.",
"4.@.j 9.s.j.e.e.e.7.9     X O 2 O e 3 $ 2 2 2 & * t 2 t 4 & X   * 3 4 3 + O X O 0 2 * 2 8 2 & t t 3 4 2 @ j N q.f.d.p.e.q.V , &.4.",
"4.=.s B e.t.9.8.7.N 1     X O 2 O e 4 $ * $ & $ 3 t 2 e 4 2 X   * 2 4 2 O O O O q & & 2 4 & $ t t 6 4 3 o k n 7.q.p.q.w.^ l , :.4.",
"<.=.1 f M B N M j f %     X $ 2 X e 3 + $ 2 2 * 3 y & 4 3 $ X   & 2 & $ O O O O q & 5 & 2 5 + t t 4 6 3 o j j V ^ ^ ^ ^ M k , ,.4.",
"P.#.= = ; ; ; ; ; ; @ .   X & 2 X q 3 $ $ & 3 & 3 u $ 3 3 $ .   2 & $ + O O # O u 2 5 2 2 5 $ q q 4 4 2 O 7 > 9 f 9 s f 9 > , <.z."
};
