/* XPM */
static char *result[] = {
/* columns rows colors chars-per-pixel */
"65 65 217 2 ",
"   c #36343B",
".  c #3D393E",
"X  c #39343B",
"o  c #5B3529",
"O  c #4C3635",
"+  c #4D3B3D",
"@  c #483739",
"#  c #533D3C",
"$  c #573C39",
"%  c #4F2D24",
"&  c #633A2A",
"*  c #6B3C2C",
"=  c #683924",
"-  c #653B32",
";  c #683E34",
":  c #723F27",
">  c #56423F",
",  c #5B423E",
"<  c #7B452C",
"1  c #78442B",
"2  c #63453D",
"3  c #69433C",
"4  c #6A4A3D",
"5  c #684439",
"6  c #794B36",
"7  c #7E503B",
"8  c #6B412F",
"9  c #3C3C44",
"0  c #393943",
"q  c #423C43",
"w  c #413F4C",
"e  c #553F40",
"r  c #520E7D",
"t  c #54127F",
"y  c #3F414A",
"u  c #43444B",
"i  c #49434A",
"p  c #554344",
"a  c #5C4343",
"s  c #52444B",
"d  c #5C4A4A",
"f  c #464A52",
"g  c #4D4954",
"h  c #494854",
"j  c #554953",
"k  c #524E5D",
"l  c #584E5C",
"z  c #4D535A",
"x  c #51525E",
"c  c #57535D",
"v  c #634543",
"b  c #634946",
"n  c #644E4A",
"m  c #694942",
"M  c #724E43",
"N  c #784F42",
"B  c #7B5446",
"V  c #74554E",
"C  c #7A564B",
"Z  c #7E5A4C",
"A  c #735043",
"S  c #6B5454",
"D  c #6B595E",
"F  c #695559",
"G  c #735652",
"H  c #745955",
"J  c #7B5B53",
"K  c #735B5B",
"L  c #7A5F5B",
"P  c #6C554F",
"I  c #7E635F",
"U  c #545364",
"Y  c #595465",
"T  c #575669",
"R  c #5C566A",
"E  c #59596C",
"W  c #585C66",
"Q  c #5C5D71",
"!  c #554E61",
"~  c #6C5D63",
"^  c #635B6D",
"/  c #655A64",
"(  c #725E62",
")  c #655D71",
"_  c #5E656B",
"`  c #5C656B",
"'  c #66636D",
"]  c #746165",
"[  c #796567",
"{  c #6B6376",
"}  c #656C72",
"|  c #686277",
" . c #6B7479",
".. c #6B757A",
"X. c #717A7E",
"o. c #736975",
"O. c #854C2E",
"+. c #92522E",
"@. c #8B5232",
"#. c #89553B",
"$. c #955433",
"%. c #9C5B35",
"&. c #9B5D3A",
"*. c #97593A",
"=. c #884E32",
"-. c #9E603C",
";. c #A3633D",
":. c #AA663D",
">. c #AC683F",
",. c #B16A3F",
"<. c #895A45",
"1. c #835B4C",
"2. c #8A5E4C",
"3. c #845746",
"4. c #935E44",
"5. c #985F42",
"6. c #845E51",
"7. c #8D614D",
"8. c #9C6245",
"9. c #93634C",
"0. c #9C664A",
"q. c #956244",
"w. c #866155",
"e. c #8C6558",
"r. c #946552",
"t. c #996C5A",
"y. c #A46542",
"u. c #A96641",
"i. c #AD6943",
"p. c #A46A4C",
"a. c #AB6C4B",
"s. c #A26749",
"d. c #B36D43",
"f. c #B56E45",
"g. c #B97145",
"h. c #B6714A",
"j. c #BB7349",
"k. c #B77045",
"l. c #A77157",
"z. c #826866",
"x. c #C0764D",
"c. c #C1784D",
"v. c #561580",
"b. c #591782",
"n. c #5D1D85",
"m. c #571880",
"M. c #5E2185",
"N. c #5E2A85",
"B. c #622589",
"V. c #642D8A",
"C. c #67358B",
"Z. c #674288",
"A. c #6E4191",
"S. c #764996",
"D. c #7B5598",
"F. c #737D81",
"G. c #767386",
"H. c #7D7896",
"J. c #7A6894",
"K. c #805A9C",
"L. c #82629C",
"P. c #8256A0",
"I. c #845BA2",
"U. c #8865A4",
"Y. c #9275AB",
"T. c #957AAD",
"R. c #987CB0",
"E. c #8E7BA8",
"W. c #7B868A",
"Q. c #7E898D",
"!. c #758184",
"~. c #868B97",
"^. c #849194",
"/. c #8A9699",
"(. c #8C9A9D",
"). c #869698",
"_. c #90939F",
"`. c #8B86A3",
"'. c #9483AB",
"]. c #9588AA",
"[. c #8E9EA1",
"{. c #8F94A5",
"}. c #929DA2",
"|. c #9C96AE",
" X c #9B9CAC",
".X c #9494A7",
"XX c #9C86B3",
"oX c #9C92B1",
"OX c #A19BB4",
"+X c #A296B7",
"@X c #A08CB6",
"#X c #93A2A5",
"$X c #95A5A9",
"%X c #99A6AA",
"&X c #9BAAAD",
"*X c #97A5A9",
"=X c #9EADB1",
"-X c #9DA6B1",
";X c #9FB1B3",
":X c #8FA0A4",
">X c #A2ADB3",
",X c #A5A1B9",
"<X c #A6ACB9",
"1X c #A6A8B8",
"2X c #A3B2B5",
"3X c #A6B4B9",
"4X c #AAB6BA",
"5X c #ABB9BD",
"6X c #A8B3B6",
"7X c #A0ADAF",
"8X c #AEBBC0",
"9X c #B4BFC5",
"0X c #AC9FC1",
"qX c #B3C2C5",
"wX c #B9C7CA",
"eX c #BFCCD0",
"rX c #C0CED2",
/* pixels */
"r r r r r r r r r r r r r r r r r r r r r r r r r r r r r r r r r t t t t r v.r r r r r r r r r r r r r r r r r r r r r r r r r r ",
"r r r r r r r r r r r r r r r r r r r r r r r r r r r r r r r r r r t t t t v.r r r r r r r r r r r r r r r r r r r r r r r r r r ",
"r r r r r r r r r r r r r r r r r r r r r r r r r r r r v.n.N.N.C.S.A.S.S.S.A.A.C.C.t t r r r r r r r r r r r r r r r r r r r r r ",
"r r r r r r r r r r r r r r r r r r r r r r r r r r C.N.C.`.2X2X3X3X5X8XqX9XqX3X6X6X].D.C.C.B.r r r r r r r r r r r r r r r r r r ",
"r r r r r r r r r r r r r r r r r r r r r r r v.r r V.V.Z.`.2X2X5X4X4X5XqXqX9X3X<X6X'.S.C.C.M.r r r r r r r r r r r r r r r r r r ",
"r r r r r r r r r r r r r r r r r r r r r r v.C.Z.Z.$X&X=X&X3X3X2X#X#X#X;X5X5X8X5X9X6X%X<X3X'.A.C.V.r r r r r r r r r r r r r r r ",
"r r r r r r r r r r r r r r r r r r v.N.N.C.S.;X;X:X:X#X&X[.Q.Q. .W W W ../.).>X4X4X&X&X3X3X;X;X<X.XC.C.C.r r v.r r r r r r r r r ",
"r r r r r r r r r r r r r r r r t t C.H.W.:X$X&X&X).} } ` z u f 0 . 0 0 9 u f W } } X.#X=X=X$X#X$X(./.OXOXS.C.C.v.r r r r r r r r ",
"r r r r r r r r r r r r r r r r v.v.C.H.Q.[.$X&X&X).} } ' U w w 0 0   0 9 f f W } } ..}.&X;X#X#X#X(./.OX+XS.C.C.v.r r r r r r r r ",
"r r r r r r r r r r r r r r r C.J.J.(.)./.:X/.W.W.` 0 0 0 q q w u h u h 9 0 0 X   0 9 } ^.Q.[.#X#X^.*XqXqX8X+X|.S.b.r r r r r r r ",
"r r r r r r r r r r r r r v.Z.{.&X&X$X/.(.W.` f f 9 e i b M e j h x ! ! g e + $ > > q w z z } Q.~.(.3X2X2X2X5X4X+XP.b.v.r r r r r ",
"r r r r r r r r r r r r v.v.Z.{.&X&X$X/.(.!.` f f 9 i q n m e e h x x x g # + O > > q q z z  .Q.W.(.6X3X2X2X3X5XOXP.v.v.r r r r r ",
"r r r r r r r r r r r t n.M.{.&X$X$X(.X.X.f 9 i i S V C 2.=., $ h ! U U h q $ = 7 7 A d i q y z z ^.&X$X#X$X2X;X6X@XC.C.r r r r r ",
"r r r r r r r r r r r n.J.H.;X3X*X*XX.f f y d C C 0.7.w.e.=.3 3 ! U U U ! $ $ = 7 #.1.<.B Z d . . x X.(.(.#X&X&X#X|.U.U.B.r r r r ",
"r r r r r r r r r M.t G.^.^.$X$XF.X.f u u n 7.;.;.,.r.7.r.=.3 , ! U U T U a $ : <.1.z.*.u.y.q.d d 9 f X.F.}.(./.^.^.|.|.U.B.B.r r ",
"r r r r r r r r r M.M.J.^.^.$X$XX.X.f u u n 7.-.-.i.e.r.r.=.v v ! U U T ! $ , : <.2.e.5.u.u.7.d n 9 u !.X.(.(./.W.^.|.@XU.B.B.r r ",
"r r r r r r r r b.T.'.;X[.[.Q._ y y i P P 7 %.d.d.g.;.;.u.$.v 3 ! T T T Y e e : y.y.p.;.,.d.u.=.7 d . f f } Q.W.Q.[.:X:X$XK.K.t r ",
"r r r r r r r t J.3X<X8X3X;XF.0 9 9 G q.q.@.;.g.f.x.u.u.u.$.m 3 Y T T T ^ v v 1 u.u.g.:.d.f.i.=.@.*.n     y W.W.$X#X&X$X;XXXXXB.r ",
"r r r r r r r t J.3X;XqX;X2XF.0 9 9 G q.q.O.;.g.f.x.u.;.u.$.3 m Y T T E Y v a 1 u.i.g.y.d.d.i.=.@.*.n     y W.W.$X#X&X&X<XXXXXB.r ",
"r r r r r t t A.=X;X;X;X$X$X_ 0 d d 4.:.:.+.:.g.j.x.u.u.u.$.3 m Y T T T R a v < i.i.j.:.g.g.d.@.@.:.q.> >   ....:X:X#X$X>X+X+XS.r ",
"r r r r r t t ].&X[.[.:X!.!.g i B C -.;.:.O.:.j.x.x.u.u.f.*.3 m Y T T T R v a < d.a.j.u.j.f.d.+.@.>.-.4 4 9 z W Q.$X:X:X*X,X,XK.r ",
"r r r r r t m.oX$XQ.Q.Q._ _ u n #.#.#.B B 4 :.c.x.x.u.y.i.*.3 3 Y Y W Y R a a < f.d.j.i.h.h.i.6 7 #.-.6 7 > u y F.$X=X&X2X,X,XI.v.",
"r r r r r m.m.oX:X).).).} _ y n #.q.3.B B 4 y.j.x.x.u.y.f.$.3 m Y T T T R d a < f.f.j.i.j.f.u.6 6 #.-.6 6 > y y F.$X&X&X6X0X0XI.r ",
"r r r r r v.m.].:X[.[.Q.z z i A B Z F F F D p.c.x.x.-.-.f.$.3 m Y T U T R a a < h.f.h.i.a.i.s.F F F F 7 7 7 > . ` [.=X=X2X,X,XU.v.",
"r r r r r v.v.E.(./.).' y y p C H V V 7.2.J p.x.x.x.&.&.i.$.m 3 l U T U Y a a < f.f.j.u.u.u.p.K K 1.G H V 3.# # y F.}.}.}.|.|.K.v.",
"r r r r r v.v.`.(.).).} 9 9 p C H H V 7.2.J p.x.x.x.&.&.i.*.; m Y T U U Y a a < h.f.x.u.a.u.s.K K 6.G H H 3.p # y ..[.}.[.|.oXK.r ",
"r r r r r v.b.oX#X^.^.z 0   d H D D Z 9.r.1.9.a.p.l.2.2.p.$.3 3 l U U T R e p < f.f.a.5.s.8.s.3.3.0.4.K L 6.p p   } }.#X%X,X+XK.v.",
"r r r r v.b.b.0XqX=X&X` 0 0 z / ' ' ] ] ] ~ ] ] ( ( ( ~ r.*.; 3 Y U U U R p p 1 r.r.z.( ( L ( ( K [ [ ' ' / h i 0 ..5X4X5X0X,XU.v.",
"r r r r r v.b.+XqX2X2X} 0 0 j ] / / H w.w.J w.e.e.e.J J 0.*.; 3 ! x ! U Y a a 1 0.r.z.K L L L H K w.] ~ ' ~ s g 9 X.5X5X5X<X<XY.v.",
"r r r r v.v.b.+XqX2X2X_ 9 0 l ] / D H w.w.J w.e.e.e.J J 0.$.3 3 Y U x U Y a e 1 r.r.w.K K L L K H [ [ ' ' ' g j 9 !.3X5X5X6X1XY.v.",
"r r r r r v.v.`.>X=X=X_ 9 0 M 7.S D B q.4.3.s.j.h.h.5.*.y.$.; 3 l U U ! Y a p O.a.a.a.8.a.a.s.B B 9.2.L ] 7.b a 9 F.&X;X*X,X,XT.v.",
"r r r r r v.t `.#X=X=X} . @ A s.w.1.S V G D p.j.j.f.&.&.;.$.3 ; c ! U U Y b a O.f.f.j.u.j.h.p.H K 6.G J Z 8.4 4 9 X.[.(.(.-X7XR.r ",
"r r r r t t t `.#X&X&X} . . 7 s.6.6.S G G G s.x.x.f.-.-.u.$.; 3 U ! U U U a v O.f.f.j.u.j.f.p.K G 1.G 6.J s.4 4 @ X.[.[.(.&X&XXXv.",
"r r r r t t t `.:X&X&X} . y 4 >.5.5.V G S V a.f.f.u.*.*.-.$.; ; l U U U Y v a O.d.d.j.u.j.j.a.S S F H 2.<.:.4 4 y } Q.Q.Q.;X&XT.v.",
"r r r r r t t ~.(.(.[.W     7 >.;.u.*.8.5.<.f.f.f.5.2.2.y.$.; ; l U U U Y a a < u.u.l.p.h.x.a.3.3.9.s.u.:.:.4 4 . z !.!.^..X.XY.v.",
"r r r r r B.t E.(.).).z     4 >.:.:.;.d.,.&.f.u.u.6.[ [ t.$.; ; l U T W Y a p 1 5.5.e.z.l.l.h.*.$.i.f.,.,.:.2 4   ` ).^.(. X%XT.v.",
"r r r r v.n.n.E.(.(./.c     4 >.:.:.%.d.d.%.d.u.i.6.o.[ t.4.- ; l T T T T a a : 5.5.w.z.l.l.j.*.$.f.,.,.,.,.4 2 X _ ^.^.(. X%XT.v.",
"r r r r v.V.V.oX7X7X2X} . . 4 ,.:.:.%.d.d.%.d.u.u.6.{ { e.$.- ; j T T E Y e e : $.5.K { l.t.f.-.&.d.,.x.,.,.2 4 q F.4X4X5X4X4XXXv.",
"r r r r r S.S.|.2X3X3X..9 . 4 >.;.:.;.d.d.%.u.u.5.C D D C =.- - j E T E U e e : =.3.G ( 2.w.u.*.&.d.x.,.,.,.; 3 i W.9X8X9X8X4X@Xv.",
"r r r r v.S.S.%X2X3X3X..9 9 n >.:.:.%.d.d.-.u.5.5.V D D C =.- - j E E E U # e : <.<.G ( 2.2.a.-.&.d.d.d.,.,.3 3 u W.8X8X9X8X4X@Xv.",
"r r r r t L.K.|.#X$X$X} y 9 A -.%.%.%.,.,.%.:.2.1.2.3.3.3 ; - - l E Q E U e e & C B 2.3.N N <.*.-.,.c.,.,.>., 4 u Q.5X5X6X>X>XXXv.",
"r r r r t L.U. X$X&X&X..9 9 4 ;.;.;.%.,.,.+.-.3.1.r.5.$.; ; - - j Q Q Q U # # o C C 4.#.N N 2.$.-.,.,.,.,.>.4 , f ^.3X3X;X&X=XXXv.",
"r r r r t U.U. X&X7X&X .9   2 ;.:.%.:.:.:.$.u.4.4.1.B B M 6 - - g E E Q U + $ * <.3.1.N 3.3.s.*.-.,.,.g.,.>., 4 u Q.&X7X%X7X>XT.v.",
"r r r r t I.U.|.&X&X&X .9 > 4 y.:.:.;.:.>.$.u.4.4.3.B B M N - - j E Q Q U # # : <.3.1.N 3.3.s.%.-.,.g.,.k.>.4 , i Q.&X7X%X=X>XR.v.",
"r r r r t U.U./.^.^.^.'     2 :.:.:.-.;.;.$.u.d.f.u.5.5.*.+.- * j E E Q U e e < u.u.y.5.u.y.f.*.$.>.,.,.k.;., 4 q } /./././.{.U.r ",
"r r r r t Y.T..X(.6X6X!.y y 2 :.;.;.B G G M y.g.g.g.f.d.-.$.* - j E E Q U e e < d.d.f.u.i.u.u.6 7 B 0.,.d.:., , i ^.2X;X>X,X>XY.v.",
"r r r r t Y.Y.}.}.6X6X!.9 9 2 ;.;.8.3.V G M y.k.g.g.d.d.-.+.* * j E E Q U e # < d.d.f.u.i.d.u.3.7 Z 8.,.,.:., 2 f W.7X;X>X1X1XU.v.",
"r r r r t '.'.#X*X5X5X!.y y 2 8.2.7.F F S F 0.k.g.g.d.f.:.+.* * s E T Q ! + + 1 ,.d.f.:.i.i.s.S F F K 0.0.;., , f Q.2X2X2X<X6XT.v.",
"r r r r t `.`.#X#X2X;XX.y y , 7.J H C 7.4.Z q.f.f.k.d.d.:.+.* * j E E Q Y # # 1 >.>.k.:.>.i.0.J J 3.V J w.q., > y } [.[.2X3X<XT.v.",
"r r r r t ]..X}.$X%X&X .9 9 p H ~ D J 7.7.1.3.9.r.r.r.r.8.+.* * s T T Q U a # < :.8.a.q.8.8.0.1.7.7.7.] ] J p p y  .$X&X2X>X>XY.v.",
"r r r r t ].].}.$X&X&X..y 9 p D / ~ H 7.7.1.<.r.r.r.r.r.8.$.* * s E T Q U # p < ;.y.p.q.8.q.0.<.1.q.7.( K J i p 0  .$X&X2X>X>XY.v.",
"r r r r t ].].#X#X#X#X} 0 9 h E ' ' ] ] ] ' ~ ~ ~ ~ ] ] 7.+.* * s T T E U , a 1 2.2.] ~ K ( ] ( ] ] ] ' ^ / h h y F.$X$X*X X}.Y.v.",
"r r r r t XXXX>X7X7X;XX.y y s D D / V 7.7.Z Z 9.9.9.3.7.*.@.* : s T T E U , a O.<.q.w.J J J w.H H J L ] / ~ g s z Q.%X$X/._.~.U.v.",
"r r r r t XXXX<X7X2X2XX.y y s ( D D V 7.7.7.B 9.9.7.7.7.-.+.* = j T T E U a , < q.7.w.V Z J w.J J J J ' ' ~ g g z Q.%X$X(.~./.U.v.",
"r r r r t T.R.9XeXeXeX^.f u , 7.H H M <.B Z @.,.i.d.;.-.#.+.8 8 s U U E c a a < -.-.s.&.-.;.s.1.Z #.Z K H 7.p p c #X8XqX*X.X.XI.r ",
"r r r r t T.Y.9XrXqXwX^.f f , <.Z 7.S F n S #.,.,.k.-.-.3.7 = * s U U T k , a 1 2.3.0.-.;.;.8.H S P P V C #.p > ` $XqXqX6X|.|.P.v.",
"r r r r v.T.R.<X6X;X;XQ.f f > @.@.=.2 b b 2 < %.%.%.=.@.G 3 o o i ! x T ! # # & M M J O.+.+.@.b b s n 1 6 < + # W (.3X3X2XOX,XP.v.",
"r r r r v.T.R.<X2X;X2XQ.f f O =.@.O.2 d b 2 < %.%.&.=.O.G 3 o o i U x U ! # # & M M 6.O.+.+.#.b b d b 1 1 6 # $ ` (.5X5X2X X-XP.r ",
"r r r r v.Y.Y.%X(.:X:XW.z f @ 8 = = % = o = = 1 : 1 = * $ o % % q ! k U k + e % & & ; = = : : & * o & o = o q @ W (.;X&X=X,XOXP.v.",
"r r r t t R.T.7X[.#X:X^.z f   @ O O O O O O O O O $ O O O O @ @ g l k U k g i + $ # $ # # # , # # + $ # # # q q ' (.&X;X=X,X,XD.r ",
"r r r r v.R.'.7X(.#X}.^.f z X @ O O O O O O O # $ $ O # @ O @ @ h k k c k g w # $ $ # $ # a # , # $ e $ # # q q Q [.=X=X=X,X,XD.v.",
"r r r r v.R.XX<X>X>X7X/.' ' U R Y c Y ^ ^ ^ R ^ ^ ^ ^ ^ ) ) ) ) ) | | | | | { ) { ) | { { { { | { { { ) | | R E G. X<X0X1X+X+XS.v.",
"r r r r v.P.K.XX@X@X@XY.L.L.D.L.D.L.L.K.K.L.L.L.L.L.K.L.L.L.L.L.L.D.D.D.S.S.S.D.D.D.D.K.U.L.U.L.L.U.U.D.D.D.D.D.D.D.P.P.U.S.P.n.r ",
"r r r r r n.b.B.B.B.V.V.t B.n.B.n.M.n.B.n.n.n.n.n.M.n.M.M.n.n.n.n.n.n.n.b.b.b.b.n.n.n.n.n.M.n.n.M.n.M.n.n.n.n.n.n.n.b.b.n.v.v.v.r ",
"r r r r r n.t B.B.B.B.B.B.M.M.n.n.n.B.n.n.n.B.n.n.n.B.n.n.n.n.B.n.n.n.b.b.b.b.b.n.n.n.n.n.n.n.n.M.M.M.n.n.n.n.n.n.b.b.b.b.v.b.r r "
};
