/* XPM */
static char *result[] = {
/* columns rows colors chars-per-pixel */
"65 65 210 2 ",
"   c #0C0A0B",
".  c #0E0907",
"X  c #150E0D",
"o  c #1D0E10",
"O  c #141413",
"+  c #191819",
"@  c #290C0E",
"#  c #320D0F",
"$  c #3D110F",
"%  c #35120E",
"&  c #2C0D11",
"*  c #260F11",
"=  c #310E10",
"-  c #3C0D12",
";  c #281C1A",
":  c #3D1213",
">  c #341514",
",  c #372915",
"<  c #363213",
"1  c #232314",
"2  c #282726",
"3  c #5D0C0F",
"4  c #4B0E12",
"5  c #430F12",
"6  c #550D11",
"7  c #5B0D11",
"8  c #431214",
"9  c #4C1313",
"0  c #481A19",
"q  c #541215",
"w  c #5A1C1C",
"e  c #551619",
"r  c #48100F",
"t  c #630B0F",
"y  c #640B11",
"u  c #6A0E14",
"i  c #6A1015",
"p  c #6B151A",
"a  c #691B1A",
"s  c #65181B",
"d  c #75171B",
"f  c #472618",
"g  c #4A2C19",
"h  c #533A17",
"j  c #75351C",
"k  c #69251A",
"l  c #521F22",
"z  c #4B1C20",
"x  c #761D23",
"c  c #7F1921",
"v  c #572729",
"b  c #5A302F",
"n  c #572A33",
"m  c #463939",
"M  c #4A2E25",
"N  c #6A2828",
"B  c #7B232A",
"V  c #742A27",
"C  c #673526",
"Z  c #75372A",
"A  c #652B35",
"S  c #7E2A30",
"D  c #6E3938",
"F  c #793B38",
"G  c #4F491D",
"H  c #724E1A",
"J  c #7B6E1C",
"K  c #6C641B",
"L  c #5B5123",
"P  c #5F5330",
"I  c #514138",
"U  c #634724",
"Y  c #71592A",
"T  c #74572E",
"R  c #6D6539",
"E  c #756730",
"W  c #6C2F40",
"Q  c #6B3943",
"!  c #7A3B46",
"~  c #6F395A",
"^  c #7C3E5C",
"/  c #713E65",
"(  c #5A4F4A",
")  c #5F5241",
"_  c #7F4143",
"`  c #664647",
"'  c #7D7159",
"]  c #76426A",
"[  c #744577",
"{  c #7B706E",
"}  c #7C6362",
"|  c #8B1B1E",
" . c #9C1F1F",
".. c #882C1F",
"X. c #98261D",
"o. c #951D21",
"O. c #9A1E24",
"+. c #821A22",
"@. c #A51C23",
"#. c #BA1C24",
"$. c #B71C21",
"%. c #882929",
"&. c #992223",
"*. c #8A2C32",
"=. c #832C33",
"-. c #863339",
";. c #92383B",
":. c #92352B",
">. c #B82623",
",. c #A9312C",
"<. c #D21D23",
"1. c #E51E27",
"2. c #DD2226",
"3. c #C43A23",
"4. c #866B1C",
"5. c #8D701D",
"6. c #8A4726",
"7. c #964523",
"8. c #9B5838",
"9. c #AA5A35",
"0. c #9F6832",
"q. c #A27033",
"w. c #B0673C",
"e. c #883944",
"r. c #813C56",
"t. c #9D3E54",
"y. c #A53F4A",
"u. c #844A4B",
"i. c #98494E",
"p. c #8E554D",
"a. c #A05057",
"s. c #B14746",
"d. c #936F5E",
"f. c #9A4A6F",
"g. c #A85A67",
"h. c #AC5B77",
"j. c #946362",
"k. c #A96667",
"l. c #A0706A",
"z. c #B46474",
"x. c #B66A72",
"c. c #AC6D75",
"v. c #CB4B4C",
"b. c #9F901C",
"n. c #AF9D1F",
"m. c #A29320",
"M. c #A58A32",
"N. c #AA943D",
"B. c #C1A91E",
"V. c #B89C43",
"C. c #A89C7C",
"Z. c #A58E6C",
"A. c #D3996F",
"S. c #744A89",
"D. c #764A83",
"F. c #6D4E9E",
"G. c #734D94",
"H. c #754F98",
"J. c #74529F",
"K. c #7B539B",
"L. c #6F4FA0",
"P. c #704FA3",
"I. c #6F50A1",
"U. c #7151A3",
"Y. c #7553A9",
"T. c #7956AD",
"R. c #7B59AD",
"E. c #7B56A4",
"W. c #7A56B2",
"Q. c #7D5AB3",
"!. c #9B5C8A",
"~. c #855798",
"^. c #925993",
"/. c #8D4F85",
"(. c #A65F85",
"). c #8F609C",
"_. c #95649B",
"`. c #AB698B",
"'. c #A66B97",
"]. c #B26A81",
"[. c #815EB6",
"{. c #835DBB",
"}. c #8661BC",
"|. c #8A66BC",
" X c #9660AE",
".X c #C17687",
"XX c #C27AB1",
"oX c #855FC3",
"OX c #8761C0",
"+X c #8C65C3",
"@X c #8E68C7",
"#X c #956ECB",
"$X c #916AC6",
"%X c #9972CE",
"&X c #956AD2",
"*X c #9C75D2",
"=X c #A57CDB",
"-X c #A97EDE",
";X c #A8A080",
":X c #BEB58F",
">X c #C0AF95",
",X c #C7C290",
"<X c #AC84DD",
"1X c #B289E2",
"2X c #B48AE6",
"3X c #BD92EB",
"4X c #B893E3",
"5X c #AD83E6",
"6X c #C79CF0",
"7X c #D0A7F7",
/* pixels */
"U.I.J.I.I.I.J.I.I.I.I.U.I.U.J.I.L.F.U.J.I.I.I.I.J.I.I.I.I.I.U.I.U.U.I.I.I.I.J.I.F.I.I.I.I.I.I.I.I.I.J.I.I.I.U.I.I.J.I.I.J.I.J.I.U.",
"F.F.#XY.F.F.F.F.U.I.F.F.I.F.F.F.F.F.F.F.I.I.F.F.I.F.F.I.F.L.I.F.I.I.F.F.F.F.F.I.F.F.F.I.T.I.F.F.F.F.F.F.F.F.I.F.F.I.F.F.F.F.I.F.I.",
"I.L.F.F.F.F.F.F.I.I.F.L.1X{.F.F.F.F.F.F.F.F.F.F.F.F.F.F.U.+XT.F.F.F.F.F.I.F.F.F.F.F.F.L.I.F.F.F.F.F.F.F.F.F.F.F.F.F.F.F.I.I.F.F.F.",
"F.I.F.F.F.F.F.L.I.F.F.I.*XQ.F.F.F.F.F.F.F.F.F.F.F.F.F.F.W.3X}.F.F.F.F.F.I.F.F.F.F.F.F.F.I.F.F.F.F.E.Y.F.F.F.F.F.F.F.F.I.@XOXI.F.F.",
"F.I.F.F.F.F.F.F.F.F.F.F.I.L.F.F.F.U.F.F.Y.oXL.F.F.F.F.F.U.Q.U.F.F.F.F.F.F.F.F.F.L.L.F.L.F.F.F.F.F.F.F.F.F.F.F.F.F.F.L.P.1X=XP.I.L.",
"F.F.F.F.F.I.I.I.F.I.L.L.F.F.F.F.F.F.F.J.{.5XY.F.F.F.F.F.F.F.F.F.F.F.F.F.F.I.F.F.I.T.F.F.F.F.F.F.F.F.F.F.F.F.F.F.F.F.L.L.T.Y.L.I.F.",
"F.F.F.U.I.F.F.F.F.I.F.U.L.F.F.F.F.F.F.F.U.Y.L.F.T.F.I.F.F.F.I.F.F.I.F.F.F.I.F.F.L.F.F.F.F.F.F.F.F.F.F.F.F.F.F.F.F.F.F.F.F.F.L.L.F.",
"F.F.I.U.F.F.F.I.F.F.F.F.F.F.F.F.F.F.P.F.F.L.F.F.U.I.F.F.F.F.F.F.F.F.F.F.F.F.F.F.Y.I.F.F.L.F.F.F.F.F.F.F.F.I.I.F.L.F.F.F.F.F.F.F.F.",
"F.F.I.F.F.F.F.F.F.F.F.F.F.F.F.F.F.F.F.F.F.F.F.F.F.F.F.F.F.F.F.F.F.F.F.F.F.F.F.L.%X$XI.L.F.F.F.F.F.F.F.F.F.F.F.F.F.F.F.F.F.F.F.I.F.",
"F.F.F.F.F.F.F.F.F.F.F.F.F.I.F.F.F.F.F.F.F.F.F.L.F.F.F.F.F.F.F.F.I.F.F.F.F.F.F.F.OXQ.L.L.L.L.I.F.F.F.I.F.F.F.F.F.F.F.F.F.F.F.L.I.F.",
"F.F.F.F.Q.U.F.F.F.F.F.F.F.F.F.F.L.L.F.F.F.F.F.L.F.F.F.F.F.F.F.F.F.F.F.F.F.F.F.F.F.L.F.F.L.F.L.I.I.F.F.F.F.F.F.F.F.F.F.L.F.I.F.F.L.",
"F.F.F.F.F.F.F.R.U.F.L.F.F.F.F.F.F.F.L.F.F.F.L.W.Y.F.F.F.F.F.F.F.F.F.F.F.F.F.L.F.F.F.F.F.L.L.P.&X@XI.I.T.F.F.F.I.L.F.F.F.F.F.F.F.F.",
"F.F.F.F.F.F.F.F.F.F.Y.F.F.L.F.F.F.F.F.F.L.L.oX7X&XL.L.L.F.F.F.F.F.F.F.I.F.U.=XT.L.F.F.F.F.F.T.3X5XY.L.L.F.F.F.F.F.F.F.F.I.F.F.T.L.",
"F.F.Y.F.F.F.F.F.F.F.U.F.U.U.F.F.F.L.F.F.L.Y.oX6X&XL.F.F.L.F.F.F.F.F.F.J.F.T.2XW.F.F.F.F.F.F.L.W.W.L.L.L.F.F.F.F.F.I.I.F.F.F.I.F.F.",
"F.F.F.F.F.I.F.F.F.F.F.F.}.[.F.F.F.F.F.F.L.L.L.W.Y.F.F.F.F.F.F.F.F.F.F.F.Y.L.Y.L.F.F.F.F.F.F.F.L.L.F.F.L.F.F.I.I.F.F.F.F.F.I.F.F.F.",
"F.Q.Y.F.F.I.F.I.F.F.F.F.F.F.F.F.F.F.F.F.F.F.F.L.L.F.F.F.F.P.U.F.F.F.F.F.L.F.F.F.F.F.F.F.F.F.F.I.L.F.F.F.F.F.}.I.F.F.F.F.Y.I.F.F.F.",
"P.1XoXF.F.F.F.F.I.L.F.F.F.F.F.L.F.F.F.F.F.F.F.F.F.F.F.F.F.F.F.F.F.L.I.F.F.F.F.F.F.L.F.I.J.F.F.I.F.F.F.I.Q.I.I.F.F.I.I.F.I.F.F.F.F.",
"F.T.I.F.F.F.I.U.L.F.F.F.F.F.F.F.F.F.F.F.F.F.F.F.F.F.F.F.F.P.L.L.I.I.F.F.F.F.F.F.F.F.F.F.I.}.F.F.F.F.L.L.L.F.I.F.F.F.T.F.F.F.I.F.F.",
"F.F.F.L.F.F.F.F.F.F.I.F.F.F.F.F.F.L.L.F.F.F.F.F.F.F.F.F.F.F.F.P.#X*XT.F.F.F.F.J.F.F.F.F.F.F.F.F.F.F.L.F.F.I.F.F.F.I.F.F.F.F.F.F.F.",
"F.F.F.U.F.F.F.F.F.F.F.F.F.F.F.F.Y.F.Y.I.F.F.F.F.L.L.F.F.F.F.L.U.=X2XU.F.F.F.F.F.F.F.I.F.I.F.F.F.F.F.F.F.F.I.F.F.F.L.F.F.F.I.F.F.F.",
"F.F.F.F.F.F.F.F.F.F.R.L.F.F.F.F.L.Y.2X+XF.F.F.F.F.F.F.F.F.F.F.R.Y.P.Y.L.I.F.F.F.F.F.F.F.F.F.F.F.F.F.F.F.F.F.F.F.F.F.F.F.F.F.F.F.F.",
"F.F.F.F.F.F.F.F.U.F.L.F.F.F.F.F.F.I.W.Y.F.F.F.F.F.F.L.F.F.F.H.F.L.L.I.F.I.U.F.F.F.F.I.F.F.I.F.F.F.L.F.F.F.F.F.Y.F.F.I.F.F.F.F.F.F.",
"U.F.F.U.T.F.F.U.F.F.F.L.F.L.F.F.F.F.F.F.F.F.F.F.F.F.F.F.F.J.^.`.h.z.z.].`._.J.F.F.F.F.F.F.Y.F.I.F.F.F.L.F.F.I.L.F.F.F.F.F.F.Y.I.F.",
"F.F.F.F.F.F.F.F.F.F.F.F.F.F.L.F.F.F.F.F.F.F.F.F.L.L.F.K.h.y.*.B B B B =.-.i.x.'.E.L.F.U.F.F.F.F.F.F.L.F.F.F.F.I.U.I.Y.F.F.F.F.F.F.",
"F.F.F.F.F.F.F.F.F.F.L.F.F.F.#XF.F.F.F.F.F.F.F.F.oX*X^.y.d i i u y y y y i x -.i..X).L.F.F.I.Y.F.F.F.Y.F.U.F.F.F.I.F.F.F.I.F.F.F.F.",
"F.F.F.F.F.F.F.F.F.F.F.T.R.F.U.F.F.F.F.F.F.F.F.F.{.XX*.u i y y y y y y y y u i x e.z._.I.I.T.$XL.F.F.F.F.F.F.F.F.F.I.F.F.F.F.F.I.F.",
"F.F.F.F.L.F.T.Y.F.F.F.F.L.F.F.F.F.F.F.F.F.F.F.H./.%.6 U C T V t y 7 y y y 6 U C T u.k.'.F.F.L.F.I.F.F.I.F.L.F.F.F.F.F.F.F.F.F.F.F.",
"F.I.F.U.L.F.L.L.F.F.F.F.F.F.F.F.F.U.F.F.F.F.F.G.S t y 0 C.>XN t y w Z y y 7 ( ,XD p -.g.).F.F.F.F.F.F.I.F.F.F.F.F.F.I.F.F.F.F.F.U.",
"F.F.F.F.F.F.F.F.F.F.F.F.F.F.F.L.F.L.F.F.F.F.J.r.6 y y 7 ( >Xs 4 8 d ;.;.B t I C.y y i -.].J.F.F.F.F.F.F.F.F.I.F.F.F.F.F.F.F.F.F.F.",
"F.F.F.F.F.F.F.F.F.F.F.F.F.F.F.F.F.F.F.F.F.F.D.w t y y y 8 C.b & a | @. .v.D d.F y y y x a._.F.U.F.F.F.F.F.I.F.F.F.F.F.J.I.F.F.F.F.",
"F.F.F.F.F.P.W.W.L.F.F.F.F.F.F.F.F.F.F.F.F.F.! 9 y y y y 7 M L > p &.>.$.>.0.Z.3 y y y u -.`.I.U.F.F.F.F.F.F.F.F.F.F.F.F.F.F.F.F.F.",
"F.U.F.F.I.Y.2X6XY.F.F.F.F.F.U.F.R.I.F.F.F.S.l 6 y y y y y = L J g 4.4.:.5.q.j.t y y t y x g.K.F.F.F.F.F.F.F.F.F.F.F.F.F.F.F.F.I.U.",
"F.F.F.F.L.L.Q.{.L.U.F.F.F.F.F.F.F.F.F.F.L.[ 0 7 y y e C 7 .   > h j 6.7.X.2.A.3 f D y y p i.~.U.R.U.F.F.F.F.F.F.F.F.F.F.F.F.F.F.F.",
"F.F.F.F.F.W.Q.L.L.F.F.F.F.F.F.F.F.F.F.F.F./ 5 7 y 4 < K E * @ * 5 >.<.<.$.3.9.L G d.V y p ;.!.F.F.U.F.F.F.F.F.F.F.I.L.Y.%XY.F.F.L.",
"F.I.F.F.F.T.T.I.L.F.F.F.F.F.U.L.F.F.F.F.F.~ - y y : G , n.4.8   @ $.1.1.<.3.5.b.1 R l.y u *.!.F.F.F.F.F.F.F.F.F.F.F.F.U.{.U.F.F.F.",
"F.F.F.F.F.F.F.F.F.F.F.F.F.F.F.F.F.F.F.F.F./ 8 7 y % N.J B.L f V s q d &.&.0 H n.5.V.l.y u *.!.F.F.F.F.F.F.F.F.F.F.F.F.F.F.F.F.F.F.",
"F.F.F.F.F.F.I.F.F.F.F.F.F.F.F.F.P.F.F.F.F./ 8 7 y 6 0 6.M.< > P g a w f R , < M.w.V s y u *.^.F.F.F.F.L.F.F.F.F.F.F.F.F.F.F.F.F.F.",
"F.F.F.F.F.F.F.F.F.F.F.L.F.F.F.F.F.F.F.F.L.[ 0 4 y y - X.6.Y 6...d @.7.j %.8.H Z v.e.7 y u *. XL.F.F.F.F.F.F.F.F.F.F.F.F.F.F.F.F.F.",
"F.F.F.F.F.F.F.F.F.F.F.[.F.F.F.F.F.F.F.F.F.G.v 5 y y - | : f %.@.d >.9.k &.,., 9 ;.u.y y i t.E.F.F.F.F.F.F.F.F.F.F.F.F.F.F.F.U.F.I.",
"F.F.F.F.F.F.F.F.F.F.F.L.F.F.F.F.F.P.F.F.L.J.^ 8 7 y % +.% . 9 D ` C N b ` a X % &.j.y y c f.F.F.F.F.F.F.[.F.I.F.U.F.F.F.F.U.U.F.I.",
"F.F.F.I.F.F.F.F.F.F.F.F.F.F.R.F.F.F.F.F.F.F.G.v 4 y 8 c * O o } 2 m m 2 { ; O % | k.t t %.~.F.F.F.F.F.F.I.F.F.F.F.F.F.F.F.F.F.F.F.",
"F.F.F.L.F.F.I.I.F.F.F.F.F.F.F.F.F.U.U.F.F.F.J./ - 6 e : > ; + n m O O I n 2 2 & e x.t i f.F.F.F.F.F.F.F.F.F.L.I.F.F.F.F.F.F.F.F.F.",
"F.F.L.Q.R.F.L.F.F.F.F.F.F.F.F.F.F.F.F.R.L.F.F.G.W : - 8 + ( & % M ! _ p.v & o o =.s 7 e.K.F.F.F.F.F.F.F.F.T.F.F.F.F.F.F.F.F.F.F.F.",
"F.F.F.T.Y.F.F.L.F.F.F.F.F.U.F.F.F.F.F.F.Y.F.F.F.H.A 8 8 = ` s 7 q %.9.p.y t # e q 6 e.~.F.F.I.F.F.F.F.F.F.F.F.U.F.F.F.F.F.F.F.I.F.",
"F.F.F.F.F.F.F.F.Y.U.J.F.F.F.F.F.F.F.F.F.F.F.F.F.F.G.W : r 6 y y t 6 6 t y t 3 6 e r.H.F.F.F.F.F.F.U.F.F.L.F.F.F.F.F.F.U.L.F.F.F.F.",
"F.L.F.F.F.F.F.F.P.P.F.F.F.F.F.F.F.F.F.F.F.F.F.F.F.F.U.] v : $ 4 6 3 7 7 6 4 5 A [ F.F.F.F.F.F.F.F.F.F.F.L.F.F.F.F.F.F.+XR.F.F.F.F.",
"F.F.F.F.F.F.F.F.F.F.F.F.F.F.P.F.F.L.L.F.F.F.F.F.F.F.F.F.[ ~ n z 0 8 8 0 0 n ~ S.J.F.F.F.F.L.I.F.F.F.F.F.F.F.F.F.F.F.F.U.L.F.F.F.F.",
"F.F.U.F.F.F.F.F.F.F.F.F.F.F.F.F.L.F.F.F.F.F.F.F.F.P.F.F.F.L.G.S.[ ] [ [ S.H.L.L.L.F.F.F.F.F.U.L.F.F.F.F.F.F.F.F.F.F.F.F.L.F.F.F.F.",
"F.L.#XL.F.F.F.F.F.F.F.F.F.F.F.Y.OXY.L.F.F.F.F.U.F.F.F.L.F.F.F.F.F.F.F.F.F.F.F.F.F.F.F.F.F.I.F.[.F.F.F.F.F.F.F.F.F.F.U.F.F.F.F.F.F.",
"F.F.L.F.F.F.F.F.F.F.F.F.F.F.L.Q.6XQ.F.F.F.L.F.L.F.F.F.L.F.F.F.F.F.F.F.F.F.F.I.Y.U.F.F.F.F.F.F.F.F.I.F.F.F.F.F.F.F.F.I.F.F.F.F.L.F.",
"F.F.F.L.F.F.F.F.F.F.F.L.}.U.P.U.T.L.F.L.}.Q.I.F.F.F.F.F.F.F.L.U.F.F.F.F.F.F.I.F.L.F.F.F.F.F.F.F.F.I.F.F.I.F.F.F.F.F.F.F.F.F.F.U.F.",
"F.F.F.T.F.F.F.F.I.I.F.F.U.L.L.L.F.F.F.L.=X#XL.F.F.F.F.F.F.L.+XU.F.F.F.F.F.F.F.F.F.F.F.F.F.J.F.F.F.F.F.F.F.F.F.F.F.F.T.U.F.F.F.F.F.",
"F.F.F.F.F.F.T.I.F.F.F.F.F.F.F.Q.F.F.L.L.Y.U.F.F.F.F.F.F.L.U.$XY.F.F.F.F.F.F.Y.T.F.F.F.F.F.F.F.F.F.F.T.Y.I.F.F.F.F.F.}.}.F.F.F.F.F.",
"F.F.F.F.F.F.F.F.F.F.F.F.F.F.F.F.F.F.F.F.F.F.F.F.F.I.F.F.F.F.F.F.F.I.F.F.F.F.@X$XY.F.F.F.F.F.F.F.F.F.R.T.F.F.F.F.F.F.F.R.L.F.T.F.F.",
"F.F.F.F.F.F.F.F.F.F.I.U.F.I.F.F.F.F.F.F.F.F.U.Q.F.F.F.F.F.F.F.F.F.I.I.F.F.F.F.F.F.F.F.F.F.F.F.F.F.F.F.F.J.F.F.U.F.F.F.F.F.F.F.F.F.",
"F.F.F.F.F.F.F.F.F.F.Y.I.F.T.|.F.F.F.F.F.U.F.F.F.F.F.F.F.L.T.F.F.F.F.Y.[.F.I.F.F.F.F.F.F.F.F.F.F.F.#XY.F.F.F.F.F.F.F.F.F.F.F.F.F.F.",
"F.F.F.F.F.F.F.F.F.F.F.F.F.F.I.I.F.I.L.F.F.F.F.F.F.F.I.L.F.F.F.F.F.F.F.I.F.F.F.J.F.F.F.F.F.F.F.F.F.P.J.F.F.F.F.F.F.F.F.F.F.U.I.F.F.",
"F.F.F.F.U.F.F.F.F.F.F.F.F.F.F.F.F.F.L.F.F.L.F.F.F.F.W.Y.F.F.F.F.F.I.F.F.F.F.F.I.F.F.F.F.F.F.F.F.F.F.F.F.F.F.F.F.F.I.F.F.F.F.F.F.F.",
"F.F.F.F.T.F.F.F.F.F.F.F.F.F.F.F.F.F.F.F.F.F.F.L.F.L.<X+XF.F.F.F.F.F.F.F.F.F.F.F.F.I.F.F.F.F.F.F.U.F.F.F.F.F.F.F.J.I.F.F.F.F.F.L.F.",
"U.F.F.F.F.F.F.F.F.F.F.F.F.I.F.F.F.F.F.F.F.F.F.L.F.L.W.U.F.F.L.U.F.F.F.F.F.F.L.F.F.F.F.F.F.F.F.F.Y.F.F.F.F.F.F.I.F.F.F.F.F.F.F.F.F.",
"F.F.F.F.F.F.F.F.F.F.F.F.F.F.F.F.F.F.F.L.F.F.F.U.L.F.F.F.F.F.F.F.F.F.F.F.F.F.F.U.F.F.F.F.F.F.F.F.F.F.F.I.F.Y.F.F.F.F.F.F.F.F.L.F.F.",
"I.F.P.T.L.F.F.F.F.F.F.F.F.F.F.I.F.F.F.J.F.F.F.Q.T.L.F.F.F.F.F.F.F.F.F.F.F.F.F.U.F.F.F.F.F.F.I.F.F.F.F.F.F.F.F.F.I.F.F.F.F.F.F.F.F.",
"U.F.OX4X}.I.F.I.I.F.F.F.F.F.F.F.F.F.F.U.F.F.F.U.F.F.F.F.F.F.F.F.F.F.F.F.F.F.F.F.F.F.F.F.F.F.F.F.F.F.F.F.F.F.F.F.F.F.F.L.F.F.F.F.F.",
"F.F.W.@XU.F.F.F.F.F.F.F.F.F.F.F.F.F.F.U.U.F.F.L.F.F.F.F.T.F.F.F.F.F.F.I.T.F.F.I.F.F.F.I.F.F.T.F.F.F.R.F.F.L.F.F.F.F.F.F.F.F.F.L.F.",
"F.F.L.L.F.F.F.F.L.Y.F.F.F.F.F.F.F.F.F.U.F.F.F.I.F.F.F.F.F.F.F.F.F.I.F.T.|.F.F.F.F.F.F.F.F.F.F.F.F.F.L.F.F.Y.F.F.F.F.F.F.F.F.F.I.F."
};
