/* XPM */
static char *result[] = {
/* columns rows colors chars-per-pixel */
"65 65 170 2 ",
"   c #020203",
".  c #0D0405",
"X  c #060609",
"o  c #09070D",
"O  c #07080A",
"+  c #09090C",
"@  c #0D0C12",
"#  c #100C17",
"$  c #130F1A",
"%  c #0F1015",
"&  c #101217",
"*  c #13151B",
"=  c #1A141C",
"-  c #16181F",
";  c #361719",
":  c #161620",
">  c #1B1426",
",  c #171A20",
"<  c #1B1D25",
"1  c #1E162C",
"2  c #1C1F28",
"3  c #2D1F27",
"4  c #381623",
"5  c #251B34",
"6  c #271C38",
"7  c #2A1E3D",
"8  c #1F232C",
"9  c #21242E",
"0  c #2B242C",
"q  c #232533",
"w  c #252931",
"e  c #2A2C34",
"r  c #272738",
"t  c #29273B",
"y  c #2A293D",
"u  c #2F313A",
"i  c #33343C",
"p  c #39373D",
"a  c #393A3F",
"s  c #49141A",
"d  c #671C28",
"f  c #7E1F24",
"g  c #4A2D36",
"h  c #632325",
"j  c #6E2931",
"k  c #772629",
"l  c #2D2A42",
"z  c #302345",
"x  c #312C46",
"c  c #34254B",
"v  c #332D4A",
"b  c #323044",
"n  c #383742",
"m  c #3D3C44",
"M  c #393548",
"N  c #35314A",
"B  c #372F50",
"V  c #392A52",
"C  c #3E2D59",
"Z  c #373150",
"A  c #3A3252",
"S  c #3E3950",
"D  c #3D3359",
"F  c #403F44",
"G  c #422F5E",
"H  c #41355E",
"J  c #443562",
"K  c #483467",
"L  c #463866",
"P  c #4A376B",
"I  c #4A3A6B",
"U  c #4E3C71",
"Y  c #513E75",
"T  c #543E7B",
"R  c #583F7E",
"E  c #414145",
"W  c #45434B",
"Q  c #4D4C4E",
"!  c #4B4346",
"~  c #4A4552",
"^  c #4E4955",
"/  c #4A425B",
"(  c #514F51",
")  c #554D5E",
"_  c #535053",
"`  c #7B4B50",
"'  c #4E4368",
"]  c #4E4364",
"[  c #564D61",
"{  c #5A4E6A",
"}  c #5C4C74",
"|  c #55417C",
" . c #58427F",
".. c #5E4C79",
"X. c #564575",
"o. c #5F5075",
"O. c #7C4175",
"+. c #A9262E",
"@. c #B4262D",
"#. c #B03137",
"$. c #AC2E46",
"%. c #A4304F",
"&. c #B33F45",
"*. c #8F3E6F",
"=. c #9A3660",
"-. c #953B67",
";. c #913C6C",
":. c #914349",
">. c #8B4072",
",. c #CA6468",
"<. c #5A4383",
"1. c #5E4689",
"2. c #634D85",
"3. c #62468D",
"4. c #644B8C",
"5. c #7C488C",
"6. c #7C478A",
"7. c #655481",
"8. c #644790",
"9. c #664A93",
"0. c #694C95",
"q. c #6D4E9E",
"w. c #794A90",
"e. c #714D9A",
"r. c #764A93",
"t. c #6E509E",
"y. c #6F4FA0",
"u. c #704FA3",
"i. c #6F50A0",
"p. c #7151A3",
"a. c #7553AA",
"s. c #7956AD",
"d. c #7B59AD",
"f. c #7A56B2",
"g. c #7D59B3",
"h. c #824584",
"j. c #88739F",
"k. c #815EB6",
"l. c #835DBB",
"z. c #8161B0",
"x. c #8661BC",
"c. c #8964BC",
"v. c #8D6BBD",
"b. c #9A68B7",
"n. c #855FC3",
"m. c #8761C0",
"M. c #8B64C3",
"N. c #8F69C6",
"B. c #8D65C9",
"V. c #9067C8",
"C. c #956DCB",
"Z. c #906BC4",
"A. c #9E7EC2",
"S. c #9770CD",
"D. c #9F7DC8",
"F. c #9B74CE",
"G. c #956AD2",
"H. c #9C75D2",
"J. c #A47BDC",
"K. c #A97EDE",
"L. c #A27AD5",
"P. c #CE8285",
"I. c #AC84DD",
"U. c #AD83E6",
"Y. c #B289E2",
"T. c #BD92EB",
"R. c #B893E3",
"E. c #C49CEC",
"W. c #C99CF5",
"Q. c #D0A7F7",
/* pixels */
"p.t.p.i.p.i.i.i.i.i.i.i.i.p.i.i.i.i.i.i.i.p.i.i.i.i.i.i.y.p.p.p.p.p.i.i.i.i.i.i.i.i.i.i.i.i.i.i.i.i.i.i.t.p.p.p.i.p.p.i.i.i.i.i.i.",
"q.q.C.a.q.q.q.q.p.i.q.q.p.e.q.t.q.q.q.q.i.i.q.q.i.t.t.e.y.y.q.q.q.t.q.q.t.q.t.i.q.q.t.p.s.t.q.q.i.t.t.e.q.q.q.q.q.t.q.q.i.q.i.e.i.",
"p.q.t.q.q.q.q.q.i.i.q.u.Y.l.q.q.q.q.q.q.e.q.q.q.q.q.t.q.a.m.a.q.q.q.q.i.i.q.q.q.q.q.q.y.i.q.q.q.q.t.e.t.q.q.q.q.q.q.q.q.u.y.t.t.q.",
"q.i.q.q.q.q.q.q.i.t.q.i.H.g.q.q.q.q.q.q.t.t.q.q.q.q.q.q.g.T.x.y.q.q.q.q.i.q.q.q.q.q.q.q.q.q.q.q.q.a.a.q.q.q.q.q.q.q.q.p.M.x.p.q.y.",
"q.q.q.q.q.q.q.q.q.q.q.q.p.q.q.q.q.p.q.q.a.n.y.q.q.q.q.q.p.g.p.y.q.i.q.q.q.q.q.q.q.y.q.i.q.q.q.q.q.q.q.q.q.q.q.q.q.q.q.a.Y.J.a.q.e.",
"q.q.q.q.q.i.p.i.q.i.t.q.q.q.q.q.q.q.q.u.l.U.a.q.q.q.q.q.q.q.q.q.q.q.q.q.q.i.q.q.y.s.q.q.q.q.q.q.q.q.q.q.q.t.q.q.q.q.q.y.f.a.y.q.q.",
"q.q.q.p.p.q.q.q.q.i.q.a.y.y.q.q.q.q.q.q.p.a.y.q.s.t.p.q.q.q.q.q.q.i.q.q.q.i.q.q.y.q.q.q.q.y.q.q.q.q.q.q.q.q.q.q.q.q.q.q.q.q.q.q.q.",
"q.q.p.p.q.q.q.y.q.q.q.q.q.e.q.q.q.q.u.q.q.q.q.q.p.i.q.q.q.q.t.q.q.q.q.q.q.q.q.q.a.p.q.q.y.q.q.q.q.q.q.q.q.p.p.q.y.q.q.q.q.q.q.q.q.",
"q.q.y.q.q.q.q.q.q.q.q.q.q.y.q.q.q.q.q.q.q.q.q.q.q.q.q.q.q.q.q.q.q.q.q.q.q.q.q.y.G.N.q.q.q.q.q.q.q.q.q.q.q.q.q.q.q.q.q.q.q.q.q.p.q.",
"q.q.q.q.q.q.q.q.q.q.q.q.q.i.q.q.q.q.q.q.q.q.y.y.q.q.q.q.q.q.q.q.i.e.q.q.q.q.q.q.m.l.q.q.y.y.y.q.q.y.i.q.q.q.q.q.q.q.q.q.q.q.y.y.q.",
"q.q.q.q.g.p.q.y.q.q.q.q.q.q.q.q.y.y.q.q.q.q.q.y.q.q.q.q.q.q.q.q.q.q.q.q.q.q.q.y.y.q.q.q.q.q.y.i.y.q.q.q.q.q.q.q.q.q.q.y.y.q.q.q.u.",
"q.q.t.q.q.q.t.s.p.q.y.q.q.q.q.q.q.q.q.y.q.y.y.f.a.y.q.q.q.q.q.q.q.q.q.q.q.q.y.y.t.q.q.q.q.q.a.G.B.p.y.d.q.q.q.i.y.q.q.q.q.q.q.q.q.",
"q.q.q.q.q.q.q.q.q.q.a.q.q.y.q.q.q.q.q.q.y.u.n.Q.G.y.y.y.q.q.q.q.t.q.q.p.q.p.L.a.y.q.q.q.q.q.s.T.U.a.q.y.y.q.q.q.q.q.q.q.y.q.q.s.y.",
"q.q.a.q.y.e.q.q.q.q.p.q.p.p.q.q.q.y.q.q.y.y.n.W.G.y.q.y.t.q.q.q.q.q.y.p.y.a.T.f.q.q.q.q.q.q.y.f.f.y.q.y.q.q.q.q.q.q.p.q.q.q.p.q.q.",
"q.q.q.q.q.u.q.y.q.q.q.q.x.k.q.q.q.q.q.q.y.y.y.g.a.q.q.q.q.q.q.q.q.q.q.q.a.y.a.y.q.q.q.q.q.q.q.i.y.q.q.y.q.t.y.q.q.q.q.q.q.q.q.q.q.",
"y.g.a.q.t.q.q.t.q.q.q.q.q.q.q.q.q.q.q.q.q.q.q.y.y.q.q.q.q.p.p.q.q.q.q.q.y.q.q.q.q.q.q.q.q.q.q.p.u.q.q.q.q.t.x.p.q.q.q.q.a.p.q.q.q.",
"i.Y.n.q.y.q.q.q.i.y.q.q.q.q.q.i.q.q.q.q.q.y.y.q.q.q.q.e.y.y.y.q.q.y.p.y.q.q.q.q.q.y.y.e.u.q.q.u.q.q.q.p.k.q.p.q.q.q.p.q.q.q.q.q.y.",
"y.s.y.q.q.q.i.i.y.q.q.q.q.q.q.q.q.q.q.q.q.0.9.0.q.9.R P 3.u.e.q.y.y.q.q.q.q.q.q.q.q.q.q.u.k.q.q.q.q.q.y.u.q.q.q.q.q.d.q.q.q.e.q.q.",
"q.y.q.y.q.q.q.q.q.q.i.q.q.q.q.q.q.q.y.q.9.H t l v r < - H 0.q.i.G.H.a.q.q.q.q.i.q.q.q.q.q.u.q.q.q.q.q.q.q.q.q.q.q.q.q.q.q.q.i.y.q.",
"q.q.q.i.q.q.q.q.q.q.q.q.q.q.q.q.a.y.a.y.J 9 8 8 9 9 a F ~ [ { o.j.I.p.q.q.q.q.q.q.q.u.q.y.e.0.q.h.w.q.q.q.p.q.q.q.p.q.q.q.y.q.q.q.",
"q.q.q.q.q.q.q.q.y.q.s.y.q.q.q.q.q.a.D.7.b 8 8 8 r 6 , 8 8 8 e n ! _ o.0.q.q.q.q.q.y.q.q.y.w.-.q.=.h.q.q.q.q.q.q.q.q.q.q.q.q.q.q.q.",
"i.q.q.q.q.q.q.q.i.q.i.y.q.q.q.0.X.S b J U l l U 0.q.J # , 8 8 8 8 w 8 q N X.2.9.q.2.2.4.q.w.;.q.%.6.q.q.q.q.q.a.q.q.q.t.q.q.q.q.q.",
"p.q.q.p.s.q.q.p.q.q.y.y.0.2./ u Z | 0.y.q.q.q.q.q.q.q.9.7 X * < * % 8 9 E W w w [ Q i q l O.h.h.$.e.q.y.q.q.p.q.q.q.q.q.q.q.a.i.q.",
"q.q.q.q.q.q.q.q.y.y.0...~ u L 9.q.q.q.q.q.q.q.q.y.y.q.q.t.T 1 X X X O % < 9 8 E Q w 8 8 X 4 *.*.w.y.y.q.q.q.q.p.p.i.a.q.q.q.q.q.q.",
"q.q.q.q.q.q.q.t.0...~ i A 0.C.y.q.q.q.q.q.q.q.q.m.H.i.y.q.q.q.3.3.3.V     - 9 ( i 9 8 %   = e.y.q.q.p.q.p.q.q.q.p.q.q.q.y.q.q.q.q.",
"q.q.q.q.q.q.0.} ~ a A 4.s.q.i.i.q.q.q.q.q.q.q.y.m.H.i.q.q.q.q.t.t.t.9.t   o 9 ^ 9 8 8 X   4 b.y.i.q.i.q.q.q.q.q.q.i.q.q.q.q.q.i.q.",
"q.q.q.y.0.o.^ M D <.0.i.y.q.q.q.q.q.t.i.q.q.q.q.y.y.y.q.q.q.q.q.q.q.i.9.7   9 ! 9 8 8   . d 1.y.y.q.q.i.q.y.q.q.q.q.q.q.q.q.q.q.q.",
"q.p.q.4.[ F A R t.q.q.q.q.q.q.q.q.i.q.q.q.q.q.q.y.q.q.q.q.q.q.i.y.a.q.q.3.  8 :.g 0 3 ; +.; J 0.q.q.q.i.q.q.q.q.q.q.i.q.q.q.q.y.p.",
"q.q.4.W M U 0.y.q.q.q.q.q.q.q.i.q.i.q.q.q.q.q.q.q.q.q.q.q.q.q.q.q.q.q.t.q.5 - ` ,.+.&.P.k + 8 L 0.q.q.y.q.q.y.q.q.q.q.q.q.q.q.q.q.",
"q.q.B D 3.q.y.y.q.q.q.q.q.q.q.y.q.t.q.q.q.q.q.q.q.q.q.q.q.q.q.q.q.q.q.q.q.K * p j @.#.h . + 8 8 B 1.q.q.q.p.q.q.q.q.q.p.i.q.q.q.q.",
"q.9.| q.y.y.g.g.i.q.q.q.q.q.q.q.q.q.q.q.q.q.q.q.i.q.y.q.q.q.q.q.q.q.q.q.q.9.- e w 0 9 @   & 8 8 8 q H 9.q.q.q.q.q.q.q.i.q.q.q.q.q.",
"i.p.q.q.y.a.Y.T.a.q.q.q.q.q.i.y.s.i.q.q.q.q.i.q.a.q.y.q.q.q.q.y.q.q.q.q.q.t.c 9 e 9 9 * X < % - 8 8 8 J q.y.q.q.q.q.q.q.q.q.q.i.p.",
"q.q.q.q.y.y.g.l.p.p.q.q.q.q.q.q.q.q.q.q.q.q.q.q.a.q.q.q.q.q.q.q.q.q.q.q.q.q.R 8 w 9 8 8 - 8 X O 8 8 8 y q.q.q.q.q.q.q.q.q.q.q.q.q.",
"q.q.q.q.y.d.g.y.y.q.q.q.q.q.q.q.q.q.q.q.q.q.q.q.q.q.q.q.q.q.q.q.q.q.q.q.y.f.q.q 9 9 8 8 8 8 %   + 8 8 8 1.q.q.q.q.y.y.a.F.a.q.q.y.",
"q.i.q.q.q.a.d.y.y.q.q.q.q.q.p.i.q.q.q.q.q.q.q.q.q.q.q.q.q.q.q.q.p.q.q.q.f.W.g.l 8 8 8 8 8 8 -     X 8 8 r 1.q.y.y.q.q.i.x.y.q.q.q.",
"q.y.q.q.q.q.q.q.q.q.q.q.q.q.y.q.q.q.q.q.q.q.q.q.q.q.i.q.q.q.q.q.q.q.q.q.y.g.p.H 8 8 8 8 8 8 8 X     * 8 8 r 3.y.q.q.q.q.y.q.q.q.q.",
"q.q.q.q.q.q.p.q.q.q.q.q.q.q.q.q.i.i.q.q.q.i.a.q.q.q.q.0.0.q.q.q.q.q.q.q.y.y.y.U 8 8 8 8 8 8 8 < * X X 8 8 8 l <.q.q.q.q.q.q.q.q.q.",
"q.q.q.q.q.q.q.q.q.q.q.y.q.q.q.q.q.q.q.q.i.i.i.i.q.q.9.l v v l v ] 2.0.t.q.q.y.<.8 8 8 8 8 8 8 8 + #   - 8 8 8 q T q.q.q.q.q.q.q.q.",
"q.q.q.q.q.q.q.q.q.q.q.l.q.q.q.q.q.y.q.q.q.q.q.q.i.i.I 8 8 8 8 8 e W ) o.4.0.q.U 8 9 8 8 9 8 8 -   $ + X 8 8 8 8 l 9.q.q.q.q.y.q.i.",
"q.q.q.q.q.q.q.q.q.q.q.q.q.q.y.q.q.i.q.q.q.q.q.q.i.q.v 8 8 8 8 8 9 9 a ( _ [ } v 8 8 8 8 8 8 2 X   5 G > < 8 8 8 8 J q.q.q.a.y.q.i.",
"q.q.q.i.q.q.q.q.q.q.q.q.q.q.s.q.q.q.i.q.q.q.q.q.q.0.q 8 8 8 8 8 8 8 9 e Q _ ( i 8 8 8 8 8 8 %   @ 1.q.9.<.r 8 8 8 r 1.y.q.q.q.q.q.",
"q.q.y.y.q.q.i.y.q.q.q.q.q.q.q.q.i.i.i.i.q.q.q.q.y.0.r 8 8 8 8 8 8 8 8 8 w W ( W 8 8 8 8 8 %   @ R i.q.q.y.v 8 8 8 8 J 0.q.q.q.q.q.",
"q.q.y.g.s.q.q.y.q.q.q.q.q.q.q.q.q.q.q.s.i.q.q.q.q.q.T 8 8 9 9 8 8 8 8 8 8 9 i _ w 9 8 8 @     G y.y.q.q.y.t.l 8 8 8 q <.q.q.q.q.q.",
"q.q.q.s.a.q.q.y.t.q.q.q.q.p.q.q.q.q.q.q.a.q.q.q.y.i.p.' 8 8 t l 8 8 8 9 8 8 8 e u 8 8 *     5 9.q.q.q.q.q.q.9.Z 9 8 8 v 0.q.y.i.i.",
"q.q.q.q.q.q.q.q.a.a.t.q.q.q.q.q.q.q.q.q.q.q.q.q.q.q.q.9.q 8 8 r N r 8 8 8 8 8 8 8 8 8 8 O   J q.q.i.y.q.y.q.q.q.J 9 8 8 I y.y.y.q.",
"q.i.y.q.q.q.q.q.y.y.q.q.q.q.q.q.q.q.q.q.q.q.q.q.q.q.i.q.U 8 8 8 9 x B 9 8 8 8 8 8 8 9 8 <   # <.q.q.q.q.y.q.q.q.q.I 9 8 t 1.q.q.q.",
"q.q.q.q.q.q.q.q.q.q.q.q.q.q.i.q.q.y.i.q.q.q.q.q.q.q.i.q.0.J t 8 8 8 y A l 8 8 8 8 8 8 8 8 +   t 0.y.q.q.q.q.q.q.y.9.D 9 8 D q.q.q.",
"q.q.p.q.q.q.q.q.y.q.q.q.q.q.q.q.y.y.q.q.t.q.q.q.q.p.q.q.q.t.3.H r 8 8 9 I A 8 8 8 8 8 8 8 8 O   z 0.q.q.q.q.q.q.q.y.q.J 9 8 T q.q.",
"q.y.S.q.q.q.q.q.y.q.q.q.q.q.q.a.x.a.y.q.q.q.q.p.q.q.q.i.q.q.q.q.1.Z 8 8 J 0.H 8 8 8 8 8 8 8 * X   z q.y.q.q.q.q.q.q.p.9.t 8 A q.q.",
"q.q.p.q.q.q.q.q.q.q.q.q.y.q.y.g.E.l.q.q.q.y.q.y.q.q.q.y.q.q.q.q.y.<.q 8 l q.y.L 8 8 8 8 8 8 8 @     G q.q.q.q.q.q.q.p.L 9 8 q q.q.",
"q.q.q.y.q.q.q.q.q.q.q.y.c.p.y.y.s.y.q.y.l.g.q.q.q.q.q.q.q.q.q.p.y.9.t 8 8 <.i.q.I q 8 8 8 8 8 8 o   o T u.q.q.q.q.q.q.L 8 8 8 3.q.",
"q.q.i.p.q.q.q.q.i.p.q.q.p.y.y.y.q.q.q.y.K.C.y.q.q.q.q.q.q.u.M.a.y.0.v 8 8 x q.q.t.I 8 8 8 8 8 8 2     > q.q.q.q.q.q.a.9.y 8 H 0.q.",
"q.q.q.q.q.q.d.p.q.q.q.q.y.q.q.g.q.q.y.y.a.p.q.q.q.q.q.q.i.p.Z.a.y.y.<.8 8 8 <.a.t.q.U 9 8 8 8 8 8 @     9.q.q.q.q.q.x.l.U I y.q.q.",
"q.q.q.q.q.y.q.q.q.q.q.y.q.q.q.q.q.q.q.q.q.q.q.q.q.i.q.q.q.q.q.q.y.y.y.U 8 8 g.S.a.t.q.Z 8 8 8 8 8 +     P q.q.q.q.q.q.d.y.y.a.q.q.",
"q.q.q.q.q.q.q.q.q.q.q.p.q.q.q.q.q.q.q.q.q.y.p.g.q.q.q.q.q.q.q.q.q.i.y.y.J q 0.q.q.q.0.v 8 8 8 8 8 O     7 y.y.u.q.q.q.q.q.y.q.q.q.",
"q.q.q.q.q.q.q.q.q.q.a.i.q.a.v.q.q.q.q.q.p.q.q.q.q.q.q.q.y.a.q.i.y.q.a.g.0.<.y.q.q.<.v q 8 8 8 8 8 O     # 0.q.q.q.t.q.q.q.q.q.q.q.",
"q.q.q.q.q.q.q.q.q.q.q.q.q.q.y.y.q.y.y.q.q.q.q.q.q.y.i.q.q.q.q.q.q.q.i.i.q.q.q.i.q.H 8 8 8 8 8 8 8       7 0.q.q.q.q.q.q.q.p.u.q.q.",
"q.q.q.y.p.q.q.q.q.q.q.q.q.q.q.y.q.t.y.q.q.y.q.q.q.y.s.a.q.q.q.q.q.q.q.q.q.q.q.i.q.D 8 , 8 8 8 8 -     1 1.q.q.q.u.p.q.q.q.q.q.q.q.",
"q.q.q.q.s.q.q.q.q.q.q.q.q.i.q.q.q.q.q.q.q.q.q.y.q.y.I.B.q.q.q.q.q.y.q.q.q.q.q.q.q.v < o < , % X     7 9.q.q.q.q.t.p.q.q.q.q.q.u.q.",
"i.q.q.q.q.q.q.q.q.q.q.q.q.q.q.q.q.q.q.y.q.q.y.q.q.y.a.a.q.q.i.i.q.q.q.q.q.q.i.q.9.q * X V c 1 # o c 0.q.q.q.q.q.q.q.q.q.q.q.q.q.q.",
"q.q.q.q.q.q.q.q.q.q.q.q.q.q.q.q.q.q.t.y.y.q.t.i.y.q.q.q.q.q.q.y.q.q.q.q.q.q.y.i.D 9 + # 3.q.0.3.<.q.q.y.q.p.p.y.q.q.q.q.q.q.q.q.q.",
"i.q.u.s.y.y.q.y.q.q.q.q.q.q.q.i.q.q.q.i.q.q.y.g.s.i.q.q.q.q.i.q.q.q.q.q.q.q.q.i.9 2   6 0.q.u.q.y.q.q.q.q.q.q.q.i.q.q.y.q.q.q.q.q.",
"p.q.n.R.x.y.q.p.i.q.q.q.q.q.q.y.q.q.y.i.q.q.q.i.q.q.q.q.q.q.q.q.q.q.y.q.q.q.q.q.y :   C y.q.q.q.q.q.q.q.q.q.q.q.q.q.q.i.q.q.q.q.q.",
"q.q.f.V.p.q.q.q.q.q.q.q.q.q.q.q.q.q.q.p.i.q.q.y.q.q.q.q.a.q.q.q.y.q.i.i.a.q.q.i.I % o R y.q.a.q.q.y.d.q.q.y.q.q.q.q.q.q.q.q.y.e.q.",
"q.q.i.y.q.q.q.q.y.p.i.q.q.q.q.q.q.q.q.p.y.q.q.i.q.q.q.q.q.q.q.q.y.i.q.f.c.q.q.q.9.X > 9.t.q.q.q.q.q.p.q.q.a.q.q.q.q.q.q.q.q.q.q.q."
};
