/* XPM */
static char *result[] = {
/* columns rows colors chars-per-pixel */
"65 65 159 2 ",
"   c #010101",
".  c #090604",
"X  c #0D0905",
"o  c #0C0B0B",
"O  c #120C06",
"+  c #130E0A",
"@  c #14100C",
"#  c #1A120B",
"$  c #141313",
"%  c #181715",
"&  c #1B1916",
"*  c #17121E",
"=  c #18131F",
"-  c #1C1B1B",
";  c #221C16",
":  c #201F1D",
">  c #22201D",
",  c #1A1522",
"<  c #1E1A24",
"1  c #211D25",
"2  c #241E2A",
"3  c #242323",
"4  c #282726",
"5  c #292827",
"6  c #27222C",
"7  c #29262B",
"8  c #2C2B2B",
"9  c #302E2E",
"0  c #31302F",
"q  c #2A2433",
"w  c #2E2A32",
"e  c #2F263C",
"r  c #31263F",
"t  c #332B3C",
"y  c #2F3030",
"u  c #343333",
"i  c #383736",
"p  c #393837",
"a  c #37323B",
"s  c #39333C",
"d  c #3C3B3B",
"f  c #403F3E",
"g  c #42413F",
"h  c #342749",
"j  c #392D4B",
"k  c #3C3542",
"l  c #3E3943",
"z  c #3E354A",
"x  c #403A45",
"c  c #40364D",
"v  c #443D4B",
"b  c #422F5D",
"n  c #463D53",
"m  c #483D53",
"M  c #42315E",
"N  c #473C5B",
"B  c #4C3D5E",
"V  c #443162",
"C  c #483565",
"Z  c #4B3B64",
"A  c #4A366B",
"S  c #4E3C6A",
"D  c #503C6F",
"F  c #4F3A71",
"G  c #523B75",
"H  c #553E7A",
"J  c #583F7D",
"K  c #444343",
"L  c #494746",
"P  c #4A4847",
"I  c #47414B",
"U  c #49444B",
"Y  c #4C4B4B",
"T  c #514E4D",
"R  c #53504F",
"E  c #4B4254",
"W  c #4E4A51",
"Q  c #514E52",
"!  c #52495D",
"~  c #545352",
"^  c #595655",
"/  c #5A5857",
"(  c #575758",
")  c #5A575A",
"_  c #5D5B5A",
"`  c #615E5D",
"'  c #63605F",
"]  c #524463",
"[  c #564C62",
"{  c #59486D",
"}  c #5B5365",
"|  c #5F5A60",
" . c #5C5368",
".. c #574472",
"X. c #5A4674",
"o. c #5B4B74",
"O. c #57407C",
"+. c #59437C",
"@. c #625F63",
"#. c #61536F",
"$. c #645E6B",
"%. c #614D7D",
"&. c #625575",
"*. c #656362",
"=. c #696665",
"-. c #676867",
";. c #6A6866",
":. c #6D6B6A",
">. c #716E6D",
",. c #73716F",
"<. c #6A6370",
"1. c #726D74",
"2. c #747271",
"3. c #797775",
"4. c #7B7976",
"5. c #76707C",
"6. c #78737E",
"7. c #7D7A7A",
"8. c #807E7D",
"9. c #84817F",
"0. c #5C4383",
"q. c #5F4589",
"w. c #604886",
"e. c #61468D",
"r. c #644B8B",
"t. c #665184",
"y. c #6B548D",
"u. c #654991",
"i. c #6A4D96",
"p. c #6D4E9E",
"a. c #6C5195",
"s. c #6E509C",
"d. c #70539E",
"f. c #6F4FA1",
"g. c #704FA3",
"h. c #6F50A0",
"j. c #7151A1",
"k. c #7554AA",
"l. c #7956AF",
"z. c #7A58AD",
"x. c #7D59B3",
"c. c #805CB6",
"v. c #855FBD",
"b. c #8361B4",
"n. c #8761BD",
"m. c #8761C0",
"M. c #8B64C4",
"N. c #946DCA",
"B. c #9D76D1",
"V. c #A47BDE",
"C. c #858383",
"Z. c #888786",
"A. c #8B8989",
"S. c #90908F",
"D. c #959393",
"F. c #9A989A",
"G. c #AA84D7",
"H. c #B188E1",
"J. c #B991E4",
/* pixels */
"j.j.d.h.h.h.h.j.h.j.h.h.h.h.j.j.j.j.f.j.j.s.h.j.j.j.s.j.f.h.j.j.k.s.h.j.h.j.j.h.h.h.h.h.h.h.h.h.h.h.h.h.h.j.j.h.h.j.h.h.h.j.j.h.f.",
"p.p.N.k.p.p.p.p.j.s.f.f.f.f.p.p.p.p.p.p.f.j.p.p.h.p.p.p.p.f.f.p.p.p.p.p.p.p.p.p.p.p.s.h.z.h.p.p.s.f.p.s.p.p.f.p.f.s.f.p.p.p.h.p.f.",
"h.f.f.p.p.f.p.p.j.f.p.j.H.v.p.p.p.p.p.p.p.p.p.f.p.p.p.p.g.M.k.p.p.p.p.h.j.p.p.p.h.p.s.h.h.f.p.p.h.h.f.p.f.p.p.p.p.p.f.f.h.f.p.p.f.",
"f.f.p.p.p.p.p.f.f.p.p.f.B.x.p.p.p.p.p.p.p.p.p.p.p.p.p.p.x.J.b.i.i.a.i.i.a.i.i.s.i.p.s.h.s.s.p.p.p.j.k.p.p.p.p.p.p.p.p.h.M.m.h.p.i.",
"p.p.f.p.p.p.p.p.p.p.p.p.f.f.p.p.p.j.f.p.k.n.j.p.p.i.i.r.r.y.%.o.o.o.&.$.o.o...+.u.s.i.a.s.s.s.p.p.p.p.p.p.p.p.p.p.p.f.g.H.V.g.f.f.",
"p.p.f.f.p.f.h.h.p.f.f.p.f.p.p.p.p.p.p.f.v.G.s.+.+.%.&.&. .} $.} -.6.6.y.5.<.| n z ....q.i.i.p.s.p.p.p.p.p.p.p.p.p.p.f.f.l.l.f.f.f.",
"p.p.p.j.f.p.p.p.p.f.p.k.f.p.p.p.p.p.i.q.X.o.[ z U 1.1.1._ Y :.*.1.D.D.F.D.Z.7.) _ @.W [ ] ..u.s.p.p.p.p.p.f.p.f.f.p.p.p.f.p.p.p.f.",
"p.p.j.j.f.p.p.f.p.p.p.p.p.p.p.p.i.+.] ! _ *.-.:.Y *.` *./ K _ ~ @.7.8.C.7.2.:.) Z.A.` ` Q l z Z 0.r.p.p.p.f.h.p.f.p.p.p.p.p.p.p.f.",
"p.p.g.p.p.p.p.p.p.p.p.p.p.f.s.r.] n E ` >.:.,.9.K ^ ` ' _ K Y L / 4.4.8.3.;._ P S.7./ >.4.:.P a c S e.i.p.p.p.p.p.p.p.p.p.p.f.j.f.",
"p.p.p.p.p.p.p.p.p.p.p.p.p.s.t.E 8 8 f _ :.:.;.,.' R ' ' _ Y f f ' 7.4.8.,.=.R K A.' Y >.A.S.2.( Q x M J u.p.p.p.p.p.p.p.p.p.f.f.i.",
"p.p.p.p.c.g.p.p.p.p.p.p.r.{ Q L u - 5 R -.;.*.*.,.R :.' ' ^ P L ;.9.4.3.:.*.~ ( 8._ L ` :.:.=.:.:.*.Q c S 0.i.p.p.p.p.f.f.p.p.p.f.",
"p.p.g.p.h.i.p.l.j.f.p.q.N U Y *.>.L 3 u ( _ _ ' >.' ,.>.,.' Y K *.3.>.>.:.*.Y 2.:./ Y _ ' T ~ ,.7.8.*.Y l C 0.i.p.p.p.p.p.p.f.p.f.",
"p.p.p.p.p.p.p.p.h.i.r.c K Y ` *.,.=.d 5 K ~ _ _ =.,.;.>.,._ L u / ;.;.>.:.' f 7._ Y T / R Y :.,.7.8.` K d s Z O.u.i.p.p.f.p.p.l.f.",
"p.p.k.p.p.h.p.p.d.r.c p L ~ ~ / ' ;.R y y P ( @.=.*.T P K w 3 - g ~ / *.=./ u *.R Y R / Y R :.,.:.=.` K 3 p v Z O.u.s.p.p.p.h.p.f.",
"p.p.p.p.p.h.i.d.y.} u u g g K T ^ _ _ p 5 p P ~ T L u : - $ o o - 3 3 y 9 7 3 p f K R Y P ;.2.;./ / ^ d 3 u f x Z 0.u.p.p.f.p.p.f.",
"f.c.k.p.h.h.h.i.} L K L u i f Y ~ ^ ^ Y 5 5 8 5 5 4 % o .         .   . . o $ % - 3 u d ` >.,.' R T L 9 a L p 8 a Z 0.u.k.j.p.p.i.",
"g.H.v.p.f.f.i.o.x 9 f T K f P ^ ` ` _ P 8 - % - o o                           . o $ $ 8 / *.' / ~ L i 9 f ` =.K 8 x D w.i.h.h.p.f.",
"p.l.g.p.p.i.+.v 4 : 3 u g P _ ' ` ` ~ u : % o                                       o $ y Y Y Y L d u u / ,.8.>.d w Z G e.i.p.h.f.",
"p.p.p.g.h.r.E u 8 9 9 3 8 p ~ ;.' P i : o .                                           . o > u f K d u T ,.4.8.,.^ 5 s M J u.i.p.f.",
"p.p.p.g.i.+.x 9 f P P 0 3 8 f _ ^ i - o                                                   o - w d i d =.7.4.2.;.` 9 3 c F e.i.p.i.",
"p.p.i.h.u.c 5 d T *.:.` Y p p d u - X                                                       . $ : 5 Y >.4.=.*./ ~ x f U M H u.p.f.",
"g.p.p.p.%.U Y ~ ~ _ =.*.` ~ K 7 % o                                                       . . . @ 5 ~ =.=./ ^ @.=.>.` 5 r A w.i.f.",
"g.h.p.h.#.f / :.=.>.7.=.` T u - +                                                           .   o - Y *.:.:.:.7.4.' T 4 2 b 0.i.f.",
"p.p.i.%.E p P T _ ;.4.,.2.Y = @ . .                                                         . . . $ u @.Z.Z.7.2.' ^ T f 2 r F u.i.",
"p.p.i.] p f P T ~ R ` ` ` d @ o . .                                                         X . . @ 3 R 8.7.:.;.' ` ~ f : 2 A e.f.",
"p.p.i.m 9 f P ~ ^ R R ` K 5 + . . . X                                                       X X . . & p *.:.:.;.` ` T f : 2 b w.i.",
"p.i.H t 4 f K R R ` ` ` p = X X X X X                                                       O X O X @ 5 L / _ / ~ T f 3 % 1 j H u.",
"p.p.B 8 : 8 p K T ~ R g w + X O O O O .                                                   . O X + X X - 3 y y y 8 > & & 3 5 q D e.",
"p.u.m 9 > 4 8 5 9 u 0 0 3 O X + + O X                                                       X X + O O # $ $ $ % : 7 0 u i 8 2 A q.",
"p.u.m 4 & - - : 4 : - : - X X # # # O .                                                   . X O + O O O @ & 8 K Q / ` ~ K 9 1 A 0.",
"p.i.m 4 : 8 i d f 0 8 - % X O # # # .                                                       O O O O O + $ 3 K *.2.2.>.*.Y 8 , C 0.",
"p.i.v u K ^ ` ' ` R P ; @ . O # + O + .                                                   . . O O O # + $ 5 Y >.7.>.=.@.T 2 , C 0.",
"p.i.v f R ` ` ' :.:.~ - o X + > 9 0 3 o                                                   . $ o o O O O @ 3 Y 2.:.*.` / g > - M O.",
"i.0.a K T T P ~ ' _ Y % X # g T g 8 - o                                                   . % : u 8 - # o 3 K ` ~ Y T g u & , M O.",
"i.A s i u i f P Y Y K % - - 5 0 f 8 $                                                     . $ $ > i d 0 $ 3 K Y L g g p 8 : 1 M O.",
"u.{ :.,.>.>.9.9.7.2.>.- o o $ 3 g 0 @                                                       . $ 5 8 > > - p 4.A.y.9.8.3.@.~ l h G ",
"u. .Y ~ ^ ~ ` ` / / R & o @ $ 3 0 5 $ .                                                     . o 5 u > & $ p ` :.=.-.` ~ K d y e O.",
"r. .Y Y P T P R ' ' Y $ . o $ 8 5 - - .                                                     . $ > 5 > @ o p ( _ ` ` R g g g y e O.",
"u.} L L P P T / >.*.K o     > p 4 3 - .                                                     o $ - : 5 o . u Q ~ ~ ~ L g L L y q O.",
"u.! u p g K P R ^ Y 8 o   . & d u y & .                                                     . $ - - u & . 8 f L L L K P P d 5 q O.",
"u.E 3 6 8 y u p u 8 % o   . # 8 f y @ .                                                     . @ > 0 d > X 5 u d d d L P f u 3 q O.",
"u.N - % % % - - % % $ .   + # # - $ .                                                     . . o > d p ; X - 3 3 5 8 u y 4 - , h O.",
"e.V = o o $ $ % - % $ . . O # o . . . .                                                     . . X - > # O $ $ o $ $ $ $ $ o * M G ",
"e.V = o % - - 3 > < - $ . X O O O o X .                                                     .   . . X # O > - - % - - - $ $ , M O.",
"e.V 1 = 1 5 9 u u 8 3 o   O # # # + O .                                                     . . . . X # O 3 3 8 p K L K u - , M O.",
"e.C 7 5 8 u K Y T L u @ . O O # # # O                                                       . X . X # # @ 5 p ~ =.>.:.:.( i , b O.",
"e.C w 8 9 i T / _ Q i + . X O # # # X                                                     . .   X X # # O 8 P ) :.2.:.*.~ p , M O.",
"e.V w 8 0 d T ` :./ u X   X O # # + O                                                       . . X X # # @ 7 L / *.` ( ~ P w , M O.",
"e.V q 8 u i K / @.T w o   X O # # O X                                                     . . . X X X + @ 3 f R Y f K L d 3 = M G ",
"u.V < - 3 5 9 i f 9 - . . X O + # O X                                     .               . . . X X O # X % 5 0 5 5 8 y 5 - = M O.",
"e.V 7 x _ / ` =./ K 8 o   X O O # O X .                                   .   . o       . . . . X X O O O 8 ( *.( ^ ( _ _ d , V O.",
"e.V 6 0 K P P K u 5 - X . . O + + O X                     .       o   o   . . .   o o   o   . . X X X O X 8 Y _ / ( T T Y 9 , M O.",
"e.b , % - 5 8 > - - % o   X X O + O .                       . . o   o   o . o   o o . o . . . . X . X O O 9 f Y ~ ~ Y L g 3 , M G ",
"e.V , $ - 8 p p u 0 3 o . X O + # O X     . .     . o     o   o   o o o o o o o o o o o o o . . . . X O X 0 u p d K g d 0 & = M O.",
"e.V < 8 K / =.' ` _ f X . . X + O X o .   .         o   o o o o o o o o o o o o o o $ o $ o . .   . X O X 9 > 5 8 0 y 5 < o = b O.",
"e.b 6 u T _ ` ` _ / f X   . X # # o .     . o   o . o o o o o o $ o o $ $ $ - $ - - $ % $ $ . . . . X O X 8 y g K g p u 5 = , j G ",
"e.V 2 8 p d g g f d 6 o   X X # + . . . . o o o o o o $ $ $ $ $ * $ $ $ - - - - - - - - - - o o   . X O o 3 i _ ^ P f p y - , j G ",
"e.V , 8 u u p K L u 3 o   . . O o . . .   o o o o o $ $ $ $ $ $ $ * - - - - - < - 3 3 3 - 3 $ $ + o X O . % y ( Y d l f f 8 , V 0.",
"e.M 7 ^ *.*.:.8.3.@.L @       . . o o o o o o o $ $ $ $ $ - - - : : 3 3 3 3 5 5 8 5 5 8 y y 8 y 3 > & # o 5 ( C.C.2.:.2.7.( < V G ",
"u.V w K ~ / _ ' *.^ d +   .   . . o o o $ $ $ $ $ - - - - 3 3 3 6 5 8 8 y y y y y y y y y y y u u u y 3 @ 5 K @.*.*./ ~ ( s < V G ",
"q.V w x R ` ^ ^ _ ~ p $     . o o o $ $ $ $ $ - - 3 3 3 3 5 y y y y y a u p p p d d d d d d f f g f d 8 $ 8 f ( ` @.~ Q ~ u < V O.",
"e.V 7 p T ' R P R Y y o .   . o o $ $ $ - - - 3 3 3 5 5 y y y y p d d d f f f f d K K K K P K P P P K y - 8 d Y ( ` Q Y L w , V G ",
"r.V 2 8 g ^ T P L f 8 o   . o o $ $ $ $ - < 3 3 3 y y y y a p d d K K K K K K U Y Y Y Y W Y Y Y Y Y L u : 5 y L R R Y P d 3 , V F ",
"q.V 1 - 5 i i 0 9 5 < o     o $ $ - - < 3 3 3 y y y u u d d K K K K K P Y Y Y Q Y Q Y Q Q ( ~ ~ ( ( W i : 8 y d g d f f u - < C 0.",
"u.G < o $ * % $ $ $ o o . o o * % < : 3 8 8 y y a p d f K K P P W Y Q Y ~ ~ ~ ( ( ( ( ( ( ( ( _ _ @.( d 3 5 - < 3 3 3 3 - < y ..0."
};
