/* XPM */
static char *result[] = {
/* columns rows colors chars-per-pixel */
"60 60 236 2 ",
"   c #000300",
".  c #010C00",
"X  c #0A0A0D",
"o  c #011302",
"O  c #041A06",
"+  c #051D09",
"@  c #09190A",
"#  c #0E0D13",
"$  c #100F15",
"%  c #121117",
"&  c #15141A",
"*  c #18171D",
"=  c #19181F",
"-  c #131D16",
";  c #0F1611",
":  c #04230C",
">  c #09230D",
",  c #0A290D",
"<  c #032C12",
"1  c #0B2C12",
"2  c #092611",
"3  c #152618",
"4  c #053215",
"5  c #0C3315",
"6  c #043D1B",
"7  c #0D3B1A",
"8  c #0A3618",
"9  c #113D1C",
"0  c #173716",
"q  c #1D1C23",
"w  c #201F26",
"e  c #221F28",
"r  c #193525",
"t  c #172F20",
"y  c #232129",
"u  c #25282D",
"i  c #2B2E3D",
"p  c #282A34",
"a  c #34333D",
"s  c #37383D",
"d  c #283432",
"f  c #562812",
"g  c #6D3619",
"h  c #4B3839",
"j  c #553D3D",
"k  c #5A342A",
"l  c #743C21",
"z  c #0D441D",
"x  c #06451D",
"c  c #11431E",
"v  c #18451A",
"b  c #0B521F",
"n  c #244C1B",
"m  c #204418",
"M  c #29541F",
"N  c #064B25",
"B  c #124421",
"V  c #124B22",
"C  c #174C29",
"Z  c #055429",
"A  c #055B2E",
"S  c #09572B",
"D  c #145426",
"F  c #155B29",
"G  c #195B2D",
"H  c #175529",
"J  c #065E31",
"K  c #1B5C33",
"L  c #2C5830",
"P  c #17622E",
"I  c #056333",
"U  c #076837",
"Y  c #1B6C34",
"T  c #1B6633",
"R  c #05733D",
"E  c #1D7539",
"W  c #1E7B3B",
"Q  c #1A7535",
"!  c #03602F",
"~  c #346627",
"^  c #21783C",
"/  c #276F3A",
"(  c #5E413D",
")  c #7C4428",
"_  c #65443A",
"`  c #7C4E3A",
"'  c #2D3142",
"]  c #343543",
"[  c #3D3D4C",
"{  c #393A45",
"}  c #34364A",
"|  c #453E4A",
" . c #3C4547",
".. c #3D494F",
"X. c #287447",
"o. c #1F7E44",
"O. c #45454C",
"+. c #584548",
"@. c #444553",
"#. c #4A4A55",
"$. c #4C4B5B",
"%. c #474857",
"&. c #564C57",
"*. c #495557",
"=. c #56545B",
"-. c #45504E",
";. c #634643",
":. c #674A47",
">. c #7A5549",
",. c #624E51",
"<. c #6B595C",
"1. c #675559",
"2. c #785B56",
"3. c #6E4F47",
"4. c #4D685D",
"5. c #7E605A",
"6. c #4B4D61",
"7. c #4E5265",
"8. c #53556C",
"9. c #54586D",
"0. c #5B5B6D",
"q. c #575664",
"w. c #5C5D72",
"e. c #565A71",
"r. c #524F61",
"t. c #665C67",
"y. c #6B5E67",
"u. c #5B6768",
"i. c #5C6473",
"p. c #537060",
"a. c #65656D",
"s. c #776367",
"d. c #666476",
"f. c #6C7678",
"g. c #71787D",
"h. c #6D6E73",
"j. c #864929",
"k. c #96552E",
"l. c #875338",
"z. c #9C5B34",
"x. c #955B3A",
"c. c #9B5D3B",
"v. c #945734",
"b. c #8B4F2F",
"n. c #A25E34",
"m. c #A55A2C",
"M. c #9E603C",
"N. c #A4623B",
"B. c #AB663D",
"V. c #A96339",
"C. c #B46A3D",
"Z. c #B96D3E",
"A. c #B26637",
"S. c #BE713F",
"D. c #865B49",
"F. c #915D46",
"G. c #9B6243",
"H. c #97644A",
"J. c #886358",
"K. c #956955",
"L. c #8E614D",
"P. c #A46542",
"I. c #AD6A43",
"U. c #A96B48",
"Y. c #B46B42",
"T. c #B86D43",
"R. c #BC7244",
"E. c #BB744A",
"W. c #AB7358",
"Q. c #8A706F",
"!. c #AC7862",
"~. c #C17649",
"^. c #C5794C",
"/. c #C67848",
"(. c #C87D54",
"). c #D17F4F",
"_. c #1D833F",
"`. c #21823F",
"'. c #529B3C",
"]. c #498E36",
"[. c #56A43E",
"{. c #1E8741",
"}. c #1D9142",
"|. c #238C44",
" X c #258549",
".X c #249246",
"XX c #259549",
"oX c #259B4B",
"OX c #289E4E",
"+X c #28934A",
"@X c #2A9854",
"#X c #2E8E53",
"$X c #26A24F",
"%X c #29A451",
"&X c #29AB54",
"*X c #27A952",
"=X c #2BB559",
"-X c #4B8656",
";X c #58A641",
":X c #5BB042",
">X c #64BA49",
",X c #60AF46",
"<X c #569170",
"1X c #688779",
"2X c #6BC94D",
"3X c #CE8155",
"4X c #D18254",
"5X c #6F7583",
"6X c #798688",
"7X c #79928C",
"8X c #6AA986",
"9X c #5AAC80",
"0X c #5DC887",
"qX c #889699",
"wX c #919B9E",
"eX c #838E91",
"rX c #939EA2",
"tX c #8D9FA2",
"yX c #8EA4A3",
"uX c #94A3A6",
"iX c #96A6AA",
"pX c #9CAAAE",
"aX c #99A6AA",
"sX c #9EADB1",
"dX c #9DBBB4",
"fX c #A1AEB2",
"gX c #A4B3B5",
"hX c #A9B9BC",
"jX c #A7B5B9",
"kX c #83B89C",
"lX c #AEBDC1",
"zX c #B0BEC2",
"xX c #B6C5C9",
"cX c #BFCED1",
"vX c #C5D1D6",
"bX c #D4E1E5",
/* pixels */
"o . O O o o o o O o o o o o o O o . o . O O o . o . @ O O . o o O o o o o . O O o . o O O o o o o o O o o o o O O o o o ",
". E %X+XOX5   ^ &XW . o . N U I U < . E $X+X%X7   E %X+X$X7 . Q =XE . o o N U J U :   ].2X].. o . Y =XE   o o Y =XW . o ",
"  oXV o {.F . O F OX. o o U 4 o I 6 . &XV o .XG   %Xc o .XF   O F XX. o o I < o A 6   O ~ ,X. . o O F XX. O o o P oX. o ",
". .X8   E F .   c .X. o o J :   Z x . OX5   {.G   OX1   ^ F     c .X  o O J :   Z 8 .   M [.o o o   9 .X  o o   b oX. o ",
". .X7   W F . . z XXo o . J ,   Z x . %X9   _.G   OX5   `.F . . V .X  o O J :   S 6 . . M ;Xo o o . z .X. o o . S oX. o ",
". oX1   E F .   z .X  . o I >   Z 6 . %X1   _.P   OX2   ^ F     B |.  . o I +   Z 6     n ;X  X o   9 |.  . o   V XX  . ",
"  .X|.Y %XV   H XX=X/ 2 . I A N R 8 . XX|.Y &XC   OX|.Y &XV   H XX=XY 1 . J Z N U 5   ~ :X2XX.0   H XX=XY 2 . H XX=XE 1 ",
". 1 H F B O . c F V D > . > 7 8 4 o . 1 H F B O . 2 F F c O . c H V F > . : 6 6 4 O . n ~ M ~ 3 . c D D H : . c H V H > ",
"o       . o o         o o       . o o .       o o         o o         . o .       . o         . o         o o         . ",
". 7 D 5 o o . 7 B 1 o o X m ~ 0 . o o + 4 6 4 o . 7 D 5 o o . , D D 9 O . 2 D D c O . 1 V D 9 O . 7 H 1 o o . > 8 6 < o ",
". F &X|.  o . H #Xo.. o . ~ 2X[.  O . I U Z R 8   T &X|.. o o XXoXQ =Xz   .X}.Q &XB   OXoX_.=XV   P &X.X. o o I U Z R 8 ",
"o   7 |.. o o   7  X. o o   n [.  o O U :   Z 6 .   8 |.. o O oX1 w -X<Xh.8Xf.=.<XK   $X2   |.P     7 .X  o o U +   N N ",
"o . z |.. o o . r {.. o o   M '.  o o U <   Z x . . b .X. . @ #X7XpXpXpXvXvXbXbXhXqXf.#X5   {.K   . c .X  o X I :   Z 6 ",
"o   z |.. o o   r o.. O o   M '.  o o U <   Z 6 . . z }.- u.fXwXpXuXyXzXfXsXgXhXgXxXgXwXwX*.@XF   . c .X  o o I :   Z 7 ",
"o o C XXO o o o C  Xo O @   ~ [.. O o U 5 . A N   . 7 1XqXgXxXrXeXxXjXhXaX6XrXhXvXvXuXfXxXlXdXp.. . C oXO O . U 4 . A N ",
". P oXOX X1   K  X#X4.9.[  .-X>X'.0 . Z I A I : o 1X6X5XiXwXuXjXqXqXf.=.O.{ O.=.g.wXwXlXuXqXsXg.6X<X+X$X|.2 . S I S I : ",
"o + + O + O o O @ o 7.5X%.$.8.6.O.3 . . O O o 3 6XhXzX6XqXtXaXqX@.] | #.$.$.q.#.| a #.wXsXiXqXqXbXxXf.3 O o o o O O O . ",
"o         . o       6.5Xr.,.K.s.d.9.s @ . . 3 eXhXuXiXpXrXqXq.[ $.| | i e y $.| _ <.%.| a.rXqXgXgXgXxX1XO . o     . . o ",
". V |.|.E > . T +XH 6.5X8.;.A.~.K.s.5X6.K S *.iXqXsXyXuXg.s @.#.] e = w w p q.k g b.F.t.@.] qXcXqXiXgXxX .. o T |.F . o ",
"  OXQ B OXH   7 {.oX| d.8.;.n.Q.v.z.K.d.5X..*.6XgXhXxXu.{ $.{ y = e e e * e e.j g s.2.n.J.=.[ u.uXyXfXqX*.3 . 7 {.OX. o ",
". .X4   Q F .   7 XX| d.8.;.B.K.G.n.Z.x.s.w.h.6XeXjXa.{ $.p w w w = * * & e t.j l !.F.V.R.D.$.{ f.sX6Xg.jX6X+   B XX. o ",
"  XX7   W F   o B XX| i.w.:.I./.I.c.~.T.j.2.w.6XuX*.i #.u w w q w = * & $ q 0.| ) ).n.I.R.j.x.q.a q.wXiXqXgXf.  D oX. o ",
". XX5   E F .   7 |.[ d.e.;.T.(.I.M.^.~.j.m.K.i.eXa #.p q w q = & & & % # e w.( ) ^.N.I.~.b.V.H.%. .iXiXuXhXiX# z +X  o ",
"  OXY c oXF   7 E =X@.w.e.:.T.(.I.n.(.E.b.c.C.1.{ | ] q e q = * & & % $ # e t.j j./.I.Y.~.b.C.A.+.] g.pXqXuXgXL Q =XV : ",
". V W E Y > . K ^ E -.0.0.:.T.(.I.P.(.^.b.z.C.l.r.| y e q q & & & % $ % # w w.| ) ).U.Y.E.) >.n.` #.O.pXiXsXjX-XY W E 1 ",
"o .       o o       { i.9.:.T.4XI.M.(.P.+.2.N.v.q.] w e q = & & % % $ # X = t.| j.).U.I.U.t.q.q.b.>.' 6XhXsXzXL       o ",
". O O + O o o O + O s t.9.:.T.(.I.G.).J.$.=.1.z.t.] e q q = & % % $ # # X w 8.h j.).Y.B.U.2.I.>.5.M.] [ wXqXeXu O + + . ",
". N U I U :   ^ =X{.s 0.e.:.Y.4XI.v.).E._ n.t.L.1.{ q q = * % % % $ # # X * w.h j.!.J.L.H.>.H.L.a.2.] a iXfXpX-X X X#X8 ",
". I 8 o A x . O G XXa 0.e.:.T.W.s.1.s.s.y.2.d.t.q.{ q q = & & % $ $ # # # q w.k ) Q.0.q.t.a.d.d.d.e.[ [ lXxXlX9X8 O X.C ",
". U :   N 6 .   c .Xa 0.e.:.T.W.t.1.<.s.t.y.s.0.w.{ q q & & & % % $ # $ # q w.| j.(.G.P.U.` U.F.y.K.{  .lXsXpX8X:   E C ",
". J <   Z 6 . . c +Xa w.8.;.T.).P.v.).E.` m.t.L.J.' q = = & % % % % # # # = e.| b.).I.T.E.t.F.,.J.B.] @.sXqXpX7X:   E C ",
". I :   N x .   9  Xa 0.e.:.Y.(.P.x.~.J.&.,.&.k.J.' q q = & & & % % # # # w e.( j.(.N.T.E.1.r.<.M.I.] $.iX6XlX8X+   X.H ",
". J U Z R <   T OX=X..q.9.;.C.(.F.v.Y.U.r.s.G.z.J.' q q = & & & % % % % # q 8.j ) E.L.W./.b.H.T.A.P.s O.g.6XrX<X XX.@Xc ",
". + 4 4 < o o 7 V c  .q.8.;.E.Q.t.b.n.~.v.B.Y.z.D.' q q = * & % % % % % # q w.j ) F.5XQ.~.v.T.T.Z.P.{ p 5X7XwXu.8 B 5 . ",
"o       . o o       s 0.9.;.T.Q.$.b.I.~.n.I.Y.c.D.i q q = * * & & % % % # q 7.h j.x.8.J./.x.I.~.Z.G.a *.cXxXcX1X    . o ",
". 7 H 8 . o o 7 H 5 s 0.8.;.G.s.+.>.T.~.c.n.Y.n.2.i w q q * & & & & % % # w 9.h g D.1.3.H.c.B.R.Z.G.a *.hXxXxX1XV 7 o o ",
". G *XXX. o . T %X.Xa 0.7.;.;.P.G.;.Y.~.N.B.I.V.D.i q q q = * % & % % % $ q 8.h k J.C.l >.c.n.~.Z.G.i =.xXsXpX7X$XoX. o ",
"o   7 |.. o o   9  Xa 0.8.;.D.D.>.3.T.^.z.N.C.v.>.i q w q = * & & & & % # y 6.h l 2.D.;.K.z.I.E.S.G.i q.cXaXlXh.z oX. o ",
"o . z |.. o o . V +X| q.0._ A.K._ n.^.U.+.<.G.b.>.i w w q = = * * & % % $ w 7.h k.T.D.G.^.k.A.T.S.G.i -.uXqXwX-.b oX. o ",
"o   z |.  . o   v .X] w.r.| C.).z.B./.K.=.&.1.n.>.i w w q = - * * & & & % e 7.h b.^.Y.n.~.` 3.P.R.G.i =.gXpXaX=.x XX  o ",
". + F OX> O . O G %X .0.7.j C.^.x.I.R.I.` m.<.K.3.i w w q = = & * * & & & e 6.h j./.P.n.U.8.q.1.P.G.i 0.xXgXxXeXP *X: O ",
". Y *X$X+X5   ^ %X*X*.0.8.;.A.W.a.t.y.s.t.2.d.t.=.p e w q q q q = * * * & e 7.h ) /.Y.n.~.D.n.>.J.G.' ..7XiXzXkXOX&XXX5 ",
". O @ O O o . O O o  .w.6._ C.U.5.5.5.5.<.J.d.t.9.p e e q q q q q q * * * e r.j ) W.D.D.J.J.J.J.y.<.}  .pXhXhXqX@ O @ o ",
"o       . o o       O.w.%.j Y.~.C.S.S.U.l.m.1.K.3.p e e w w q q q * q * q e &.j j.s.e.q.t.y.y.d.w.e.{ -.uXqXwXa.      o ",
". K .XG . o . N J 6 | w.6._ B.~.B.I.S.5.=.&.,.V.,.p e e w q q w q q q q q e 6.j j.T.n.z.C.l.v.v.y.L.i h.xXuX6X1X X|.^ 2 ",
". 7 `.XX. o . < S I @.w.6.j A.E.V.V.R.G.:.5.M.V.:.p y e y q e q q q q q w e | | ) L.G.n.U.t.:.&.2.x.i g.vXhXaXkXP V %XG ",
"o   7 |.. o o   1 I @.d.#.j n./.V.M.R.C.k.Z.M.N.+.p y e w y y q e q e q e e $.| g s.D.b.c.,.r.3.b.l.i f.zXhXpX8X:   W G ",
"o . z |.. o o . 4 I #.d.r.j F.K.z.M.E.B.v.Y.x.N.+.p e u y y y y y e e e e e $.h f l g f g g f g f k ] g.gXiXjX9X1   _.F ",
"o   5 |.  . o   < J $.d.%.( G.K.k.V.~.C.k.S.k.M.#.p e y e y y y q y e e e u $.$.| +.+.| +.+.| +.| |  .5XjXuXhX9XO   E F ",
". 9 |.=XH : . 4 A R 9.d...( A.S.b.c.N.D.3.:.&.O.[ d u p p u u p p p u u u u $.w.w.0.9.i.i.d.d.0.q.q...qXcXhXcX0XQ D &XF ",
". D E Y Y 2 . 6 N N i.d.%.| 3.,.+.#.r.[ @.] s u 3 3 r r r - - 3 r r 3 - ; - t r r 3 - 3 d C r 3 ; 3 C ..p.=.=./ Y E T > ",
"o         . o .     r.h.$.[ | } ..p u - @ o . o . o o . o o . . . . o o . . .   . . o . . . . . . . .     .           o ",
"o , , @ O o . O , , 3 a p r 0 - O o . o : : + . o O + O o o o + : O o o o + : @ o o o @ , O o o o O > : + . o @ : @ o o ",
". ~ 2X].. o . ].>X;X>Xm   T *X^   o o ^ OX.X%X9   N U Z . o . T &XW . o o T &XW . o . Y &X_.. o . E $XXX%X7 . K #XE . o ",
"o . M ;X. o . 2Xn   '.~   . F .X  o O %Xc   |.K   o 4 J . o o . D oX  o o . V oX. o o . C XX. o o OX9   .XF   o C  X. o ",
"o   n [.. o . >Xm   ].~   . c `.  o O oX7   _.F . . < A . o o   c .X. o o   9 .X. o o . c .Xo . o .X1   _.C   . B  Xo o ",
"o . n ;X. o . >Xm   ].~   . V |.. o O OX7   {.H   o < J . o o . B .X. o o . 7 .X. o o   V .Xo . o XX5   _.D   . V  X. o ",
"o   m ;X  . . 2Xv   '.~     c |.  . O OX5   {.G   . < A . o o   c .X  o o   9 .X  o o   B .X. . o +X2   _.H .   c  X. . ",
". ~ >X2X'.0   ,X>X'.2Xn   T $X=X X8 . XXOX|.=XB   N U R A : . P %X=X|.1 . T %X=X|.5   Y %X=X|.5 . |.OX|.&Xz   K #X@XX.1 ",
"o 0 n n n > . > n n m o o 5 c 7 c : . > z c 8 O . : 4 < 4 O o 8 z 7 z + o 5 c 7 c + . 7 z 7 c + . , z c 8 O . 5 7 8 8 O "
};
