/* XPM */
static char *result[] = {
/* columns rows colors chars-per-pixel */
"65 65 215 2 ",
"   c #0E0D13",
".  c #100F15",
"X  c #121117",
"o  c #15141A",
"O  c #18171D",
"+  c #19181E",
"@  c #1D1C24",
"#  c #201F27",
"$  c #211F28",
"%  c #23222B",
"&  c #262631",
"*  c #292631",
"=  c #2A2934",
"-  c #2F2E39",
";  c #37343D",
":  c #322E3A",
">  c #5A2E1C",
",  c #64341D",
"<  c #44373B",
"1  c #5A3E3A",
"2  c #573B36",
"3  c #57352B",
"4  c #633E35",
"5  c #6B3C27",
"6  c #5E403A",
"7  c #794329",
"8  c #62423D",
"9  c #794A3A",
"0  c #3E3E4A",
"q  c #393943",
"w  c #443C43",
"e  c #4B3E41",
"r  c #413F4D",
"t  c #513F42",
"y  c #4B3E5E",
"u  c #520E7D",
"i  c #54127E",
"p  c #551A7E",
"a  c #5A2A7D",
"s  c #573C71",
"d  c #3E424B",
"f  c #4E4143",
"g  c #43424D",
"h  c #4D424D",
"j  c #534243",
"k  c #594445",
"l  c #5E4A4D",
"z  c #574749",
"x  c #464552",
"c  c #4A4653",
"v  c #4A4A55",
"b  c #4C4A5A",
"n  c #474955",
"m  c #524A52",
"M  c #524E5D",
"N  c #594A54",
"B  c #4E535B",
"V  c #52535C",
"C  c #5E5159",
"Z  c #614B4E",
"A  c #6B4D45",
"S  c #724E43",
"D  c #724E48",
"F  c #7D5A4D",
"G  c #785347",
"H  c #634E52",
"J  c #645156",
"K  c #6C5554",
"L  c #69575A",
"P  c #725753",
"I  c #745954",
"U  c #7D5C54",
"Y  c #735C5C",
"T  c #7B5E5A",
"R  c #6B5048",
"E  c #524E61",
"W  c #594769",
"Q  c #545364",
"!  c #565669",
"~  c #5A596C",
"^  c #595764",
"/  c #5E5D73",
"(  c #5F5676",
")  c #574C6D",
"_  c #6C5D64",
"`  c #665D6A",
"'  c #715E62",
"]  c #634E77",
"[  c #5E646A",
"{  c #6C616C",
"}  c #61686F",
"|  c #776367",
" . c #6D6572",
".. c #656776",
"X. c #6C747A",
"o. c #717A7F",
"O. c #7A6A70",
"+. c #894C2D",
"@. c #91512F",
"#. c #894D30",
"$. c #83533C",
"%. c #8C563B",
"&. c #8B573C",
"*. c #925532",
"=. c #955835",
"-. c #9B5B36",
";. c #94593A",
":. c #9C5C3B",
">. c #935639",
",. c #A15E3C",
"<. c #A15E36",
"1. c #9E603D",
"2. c #A4623C",
"3. c #AB663D",
"4. c #AD693F",
"5. c #A36136",
"6. c #B56C3F",
"7. c #835641",
"8. c #845945",
"9. c #8C5B44",
"0. c #835B4C",
"q. c #895B49",
"w. c #945F42",
"e. c #905F4A",
"r. c #835E53",
"t. c #895F55",
"y. c #8F614D",
"u. c #9C6243",
"i. c #93624C",
"p. c #9B6549",
"a. c #896357",
"s. c #996A57",
"d. c #A36542",
"f. c #A76846",
"g. c #AD6942",
"h. c #A4694A",
"j. c #AD6D4B",
"k. c #A96741",
"l. c #B36D44",
"z. c #B56F46",
"x. c #BB7245",
"c. c #B4714C",
"v. c #BC734A",
"b. c #AC7255",
"n. c #B47352",
"m. c #A66D52",
"M. c #896A64",
"N. c #977369",
"B. c #A97864",
"V. c #C1774C",
"C. c #C57A4E",
"Z. c #C77C51",
"A. c #561680",
"S. c #571980",
"D. c #591C82",
"F. c #5D2284",
"G. c #5E2A82",
"H. c #622F85",
"J. c #652C8B",
"K. c #602786",
"L. c #6B3A8D",
"P. c #673389",
"I. c #6F3C91",
"U. c #6A4785",
"Y. c #71488D",
"T. c #72588B",
"R. c #734A94",
"E. c #7B5697",
"W. c #6E4491",
"Q. c #736A86",
"!. c #787988",
"~. c #7F6696",
"^. c #6C6B80",
"/. c #815E9C",
"(. c #816595",
"). c #846B9C",
"_. c #86739D",
"`. c #8A6BA3",
"'. c #8669A2",
"]. c #8B76A3",
"[. c #9079A9",
"{. c #798689",
"}. c #7B878B",
"|. c #7F8C90",
" X c #808A8F",
".X c #858B96",
"XX c #849195",
"oX c #8A959A",
"OX c #8D9A9D",
"+X c #909C9F",
"@X c #9489AB",
"#X c #8E9EA1",
"$X c #8C95A0",
"%X c #929EA3",
"&X c #9696AD",
"*X c #9A87B1",
"=X c #8E89A5",
"-X c #A096B5",
";X c #93A2A6",
":X c #95A5A9",
">X c #99A6AC",
",X c #9BA9AD",
"<X c #97A8AC",
"1X c #9DACB1",
"2X c #9CA1B1",
"3X c #8FA0A4",
"4X c #A1AEB3",
"5X c #A2B2B4",
"6X c #A5B4B8",
"7X c #ABBABD",
"8X c #A9B7BB",
"9X c #AEBDC0",
"0X c #B2BEC3",
"qX c #B8C4C8",
"wX c #C0CCD1",
/* pixels */
"u u u u u u u u u u u u u u u u u u u u u u u u u u u u u u u u u A.D.D.J.J.J.J.J.D.F.i i u u u u u u u u u u u u u u u u u u u u ",
"u u u u u u u u u u u u u u u u u u u u u u u u u u u u u A.u u u A.D.D.J.J.I.J.J.K.F.i i u u u u u u u u u u u u u u u u u u u u ",
"u u u u u u u u u u u u u u u u u u u u u u u u u u u u A.A.A.A.D.E.@X@X-X[.-X-X*X*X*X`./.D.F.u u u u u u u u u u u u u u u u u u ",
"u u u u u u u u u u u u u u u u u u u u u u u u u u u A.A.K.E./.&X2X<X<X6X0XwX0XwXwXqX4X-X@X*XI.p u u u u u u u u u u u u u u u u ",
"u u u u u u u u u u u u u u u u u u u u u u u u u u A.A.A.D.E.'.2X:X,X1X4X9X0X0XwXqXwX4X>X@X@XL.A.u u u u u u u u u u u u u u u u ",
"u u u u u u u u u u u u u u u u u u u u u u u i u i J.E.E.*XoXoX,X<X<X<X9X6X>X4X5X8X8X7X7X4X4X=X`.J.J.i u u u u u u u u u u u u u ",
"u u u u u u u u u u u u u u u u u u u u u u i D.D.`.$X,X1X6XoXoX>X5X1X1X4X$X X X+X5X4X0X7X4X1X1X8X&X&X/.K.K.u u u u u u u u u u u ",
"u u i i u u u i u u u u u u u u u u u u u i E.Q.^.XX;X:X:X1X<X<XXXoXX.X.V 0 0 w h } | .X%X%X%X4X>X;X:X%X!.!.G.u u u u u u u u u u ",
"u u u i u u i i u u u u u u u u u u u u i i E.Q.!.XX;X;X:X1X,X,XXXoXX.X.B d d d n [ [  X%X%X%X5X:X;X;X%X!.!.G.u u u u u u u u u u ",
"u a a ) y s s P.a u A.A.u u u u u u u u ).).4X#XOX|.OXOXOX:X X Xn g g g n B b b V c v g g } } %X:X;X;XoX%XOX@XL.i i u u u u u u u ",
"p ) ] Q m T Y  .] U.U.G.i i u u u u p _.<X<X1X1X1XOX#XoXXX[ g g x b g g ; = : : m l Z Z V g x B {.;X;XoX,X,X7X>XW.I.A.u u u u u u ",
"A.( ( ! l =.;.h.a...{ ..T.T.J.u i i ).>X,X,X;X#X#X3XX.v v n b b 0 = % % # # - - v 3 4 5 7.I I C n ^ ^ oX8X8X<X,X&X&XJ.u u u u u u ",
"p ( ( ! H >.>.j.M. . ...T.T.P.u u i ).,X<X<X;X3X3X#XX.v n x b b 0 * % % # # - - c 2 2 5 $.I I V g ^ [ XX8X8X<X,X&X&XH.u u u u u u ",
"p / ( ! Z >.*.g.2.q.q.M.....Q.Y.E./..X+X5X5X6X;X;XX.g v n r = = % % @ % @ @ - - V 4 3 5 7.9.8.q.L n g [ XXXX#X;X<X1X~.F.u u u u A.",
"p / / ! l %.;.M.i.<.1.3.a.y. .Q.Q.(.o.OX6X6X5Xo.o.x n ; q % @ % @ @ @ @ + + - - m 2 4 7 M.a.a.<.p.P K n B B |.:X:X;X{.T.D.D.u u A.",
"p / / ! H >.>.s.y.<.5.g.i.a.| Q.!.!.{.#X6X6X5Xo.o.n v ; q % % @ @ @ @ + + + - = V 1 2 7 M.a.a.<.h.L P n B B |.:X:X;X{.~.D.S.u u A.",
"a ~ / ~ N ;.;.b.h.<.,.l.4.4.u._ } } !.|.oXoXX.g g x : % % $ @ @ @ @ @ @ X @ = = W 4 4 7 j.,.,.3.6.&.&.Z n g ^ |.{.{.}.#XT.T.A.i A.",
"F.~ ~ ~ J :.:.C.z.2.2.z.x.x.1.$.Y Y ..oXX.X.q g g ; % @ $ @ @ @ O O X X X X = = W 8 8 7 V.l.z.g.l.=.=.&.L L d B XXXX;X#X_._.D.u A.",
"F.! ! [ H :.:.C.z.2.d.v.V.x.<.@.p.u.Y !.B V g q q % # @ @ @ O O o X @ . X X = = ^ 8 8 #.V.g.g.g.6.=.=.1.i.1.B d  X X;X;X1X1XR.i A.",
"F.! ~ ~ H ,.:.C.z.d.d.x.V.V.-.@.p.p._ X.V B d ; q % # @ @ @ O O @ o X X X X = * ^ 4 1 #.V.g.l.g.6.=.=.5.i.p.m d  X X:X;X1X1XR.i A.",
"K.~ ! ~ H ,.,.C.z.k.k.v.V.V.<.*.4.3.q.V d d 0 = = # # + @ + o o X X X X . X * & E 8 8 #.V.z.g.l.x.1.=.2.3.3.9 d X...#X3X3X;X~.D.D.",
"H.! ! ~ J ,.,.Z.z.k.k.x.V.V.,.=.4.4.:.J b n : % % @ @ + + + o o X X X X .   & & ^ 4 4 #.V.z.z.j.l.#.%.8.=.1.9 z B B oX:X<X<X].D.A.",
"a ^ ! ~ J ,.,.Z.x.d.k.v.v.v.7.S 1.d.1.P n x = # # @ @ o o o o X X X X . .   & & E 8 A +.V.j.z.g.h.I P C K K 9 R d d {.<X1X1X&XS.D.",
"H.^ Q ( J ,.,.Z.c.d.k.v.v.v.&.S d.u.:.P n x = # # @ @ + + o o o X X . .     & * E 8 1 #.V.z.z.g.h.P P C R J 9 R g g {.<X1X1X@XS.D.",
"H.Q Q ~ H ,.,.Z.v.d.d.v.m.m.L E I I ;.U b c * # @ @ @ o o o X X X .   .     % & M 8 8 #.V.z.l.g.h.T T U K K F G w w ^ #X<X<X#XD.D.",
"P.Q Q ~ H ,.,.Z.v.,.w.z.b.b.K A K K F F m v = # # @ + o o o X X .           % & E 1 1 @.v.f.f.d.d.9.9.u.y.i.U a.f f - o.oXoXoXD.D.",
"P.Q Q ~ H ,.d.Z.z.,.,.v.b.b.P S K K F a.m m = # @ @ + o o o X X . .         & % E 8 1 +.V.j.g.d.d.q.9.u.y.y.T U f e q o.oXoXoXD.D.",
"P.Q Q ~ J ,.,.Z.j.9.9.h.n.j.e.9.F a.T I m v = @ @ @ + o o X . . .           & & E 1 1 +.M.' ' ' ' ' | | | | { C 0 x q $XqX0X6XL.I.",
"U.Q Q ! H w.,.b.| ` ` ` _ ' ` {  . .[ ~ n n * @ @ @ + o X X . X . . .       @ & E 4 1 9 M.' ' Y Y Y _ ' | | { ` x x q OXqXqX5XE.E.",
"L.Q Q ~ J ,.,.n.a.P P U a.M.U U T Y L _ b b * @ @ + o o o X X X X .   .     & & E 8 A #.v.f.f.f.f.9.9.u.9.y.T a.j f d %X1X5X<X'.`.",
"U.Q Q ! H ,.,.v.a.I I r.a.M.U U Y Y { { b b * @ @ @ o o o X X X X .         & % E 8 4 @.v.h.f.f.k.9.9.u.9.y.T a.j j d #X5X5X1X'.`.",
"U.Q Q ! H ,.,.C.z.:.:.z.n.v.q.%.F F F a.m m * @ @ + o o o X X X X X . .     & & Q 4 Z *.v.l.g.g.j.T T F K K a.p.6 j d oX#X#X%X[.[.",
"Y.E Q ~ H w.:.C.j.;.:.z.m.p.L l J J G 9.z h & @ @ + + o o o X X X X . .   . & & M 8 8 *.V.l.g.l.c.I I W I Y u.1.j 6 d |.|.|.<X=X[.",
"Y.^ E ! H ,.,.C.l.:.:.z.s.s.L N L L 9 9.m m & @ @ @ o o o X o . X . . .   X & & M Z 8 *.V.g.j.z.j.I P ` I L u.u.j f d |.|.|.;X[.[.",
"Y.Q Q ! H ,.,.C.k.=.;.g.f.h.I L a.F =.1.z z & @ @ @ O o o o X o X X X X   X & & E 4 4 +.z.h.h.h.x.&.%.w.k.d.4.d.6 f d X.{.{.3X`.`.",
"T.Q Q ) Z ,.:.B.O.9 $.3.g.l.d.;.k.3.1.i.z z & @ @ + + o o o X o X X X X X   & & E 8 4 7 e.M.O.N.c.,.<.3.x.x.4.2.f f ; [ {.}.|.`.].",
"R.Q Q ! Z :.:.N.} 9 G 4.z.z.l.1.g.4.2.u.z z % @ @ @ O o o o o X @ X X X   X & & b 1 1 +.e.`  .M.c.2.2.4.x.x.6.d.f f d ;XqX9X8X].`.",
"E.V Q ! Z :.w.N.{ G G 3.z.z.g.5.4.g.5.i.z h & @ @ @ + O O o o o   X X X X X & & E 1 1 5 e. . .M.c.2.2.g.x.x.6.d.f f d ;X7X7X6X].`.",
"E.Q Q ! H >.;.a.L 9 9 3.x.x.g.2.4.4.5.i.z j % # @ @ + o o o o o X X X X X X & & c 2 4 5 8.L L r.d.,.2.3.x.x.6.u.j f d <XqXqX9XE.E.",
"T.Q Q Q H 9 $.F F R S p.x.v.g.2.4.4.2.;.j j * @ @ @ + + + o o o @ X X X X X & & W 2 2 4 r.9.e.G q.w.,.g.x.x.6.2.f 6 n 3X9X9X6XR.R.",
"E.Q Q ! l 9 S 9.,.S S e.V.V.g.2.4.4.5.;.f f & # # @ + + + o + o X @ . X X X & & b 2 < 4 t.,.,.9 G 1.1.3.x.x.6.u.w f B 1X6X6X;XL.L.",
"E.Q Q Q z S 9 7.w.S S w.V.V.g.2.l.4.1.i.f z & @ @ @ + o + o o o X X X X X X & & b 2 2 4 t.,.,.9 F 1.1.3.x.x.6.u.f < B 1X6X6X:XL.L.",
"~.Q Q Q l 7.7.0.S G G g.x.v.2.>.3.g.1.&.6 g & @ @ @ + + + o o o @ X X X X o & & n 2 2 7 q.D D D p.1.1.3.x.x.6.1.f < B :X5X1X,XG.G.",
"(.Q Q Q l :.:.h.9.;.&.x.l.g.F J F F =.&.d 6 & # # @ @ + + o + o X X X @ X X & & b 2 2 @.j.d.w.d.l.-.1.3.6.z.l.u.6 0 x |.oXoXXXH.H.",
"/.^ Q Q Z ,.:.j.8.;.&.x.j.j.F C F a.=.&.f f & @ # @ + + + o o o o o o X o X & & b 1 1 @.j.w.,.d.l.5.-.2.6.x.6.u.d 6 x |.oXoXXXH.G.",
"(.! ! Q k ,.:.V.4.1.1.v.h.m.K l J C F &.6 d % # # @ @ + + + + o @ o o o o o & & n 2 2 #.V.g.4.4.l.$.$.G p.u.6.1.< < B #X,X1X:XF.F.",
").Q ! E k :.:.V.g.2.2.x.c.c.y.$.G F U y.q 6 & @ # @ @ + @ + o + o o o o o o = & x 2 2 #.x.g.g.3.h.I I ^ Y L p.;.f < V ,X6X8X6XF.F.",
").! W s l :.:.j.a.' ' T T a.T F T T _ L d d & # # @ # @ + + + + O O O O o O = = b 1 1 #.x.4.4.3.h.r.r.q.I I U y.< f n {.:X:X5XF.F.",
").~ ^ Q H ,.-.j.t.' Y r.t.a.r.T T T ' L q d % % % @ @ @ + + + + + O O o o X = = m 1 2 +.x.4.3.3.h.r.r.q.P P a.9.< < n {.;X:X6XF.F.",
"_.~ ! E t -.:.j.M._ _ ' ` _ _  .| X.[ [ 0 d % # @ # @ @ @ @ + @ @ + + O O @ & & n 1 1 +.j.p.p.w.d.9.9.w.y.y.Y I g f d {.6X5X5XF.D.",
"_.~ ~ M l ,.-.x.f.d.d.g.f.h.e.9.F F Y Y w g % % % # @ @ @ @ @ @ @ O O + @ O = = c 4 2 9 a.` ` _ ` { { { {  .} ^ g r n oX5X,X:XF.F.",
"_.~ ~ b t -.-.x.g.g.g.V.p.h.G G I I F y.w < % % # # # @ @ @ @ @ @ @ @ + @ @ = = x A A #.y.U U F y.U F F T U _ _ g g B oXoXoX{.p p ",
"_.~ ~ b l -.-.x.6.4.4.x.h.p.I G K K y.F w q % % # # # @ @ @ @ @ @ @ + + @ @ & = c 8 8 #.p.U r.F a.F F F T U _ _ g g B XXOXOX{.p p ",
"].~ ~ V l -.-.x.4.3.3.x.p.p.L ^ I L &.&.q 6 % % % % # @ # # @ @ @ @ @ @ @ @ * * x 8 8 #.4.3.2.<.f.7.y.$.F 8.U a.w w ..7X8X7X}.p p ",
"].~ ~ b k -.*.x.4.3.,.x.g.g.$.8.1.p.1.F < < % % # # % # # # # # $ @ @ @ @ $ * = x 6 4 9 t.w.w.5.u.K L l C Z F 9 w w X.7X9X9X=Xi S.",
"`.` ~ b k -.-.x.6.<.<.x.g.k.7.8.1.1.5.&.< q % % % # # # # @ @ # @ @ @ @ @ @ = * g 8 1 7 t.w.w.<.u.L K J C C 8.$.< w ..7X9X9X.XS.S.",
")./ / b t *.-.l.3.<.<.x.6.6.-.5.3.3.5.&.q < & % % # $ # $ $ $ $ $ $ @ # @ @ = = b 2 2 5 I 7.G +.>.D R N A A 7 9 w w ..5X7X9X=XS.D.",
").~ / M l %.%.y.:.-.-.6.6.6.-.5.3.3.5.9 < q % % % % % $ $ $ $ $ $ $ # @ % # * - e < < > , , , , 5 , , > > > , 2 w ; X.,X<X,X].S.p ",
"/./ / M 8 %.%.s.;.=.-.6.l.6.-.2.2.2.1.S ; ; & % % % % % % $ * $ % % % % % % - = v m y t t k t j k t k t t t t e r h !.1X<X<X~.A.p ",
"/./ / W t %.%.s.w.-.-.6.6.l.-.5.5.5.1.G q ; & % % $ % $ % % $ $ % $ # % # % * - n h h t k t j j k k k t t k t e r r X.,X<X<X~.S.i ",
"E.( ..b t ,.-.l.-.*.*.k.u.d.$.S S G Z f ; < * * * $ * * * * * * * * * * & * : : M ` ( ` ) ` ( ` / ` ( ~ ) / Q Q b d ^.&X=X=XL.A.u ",
"W.../ b t $.$.7.S Z k l m m N ) ] ] U.Y.L.I.I.Y.Y.(.(./.(.).(.(.(.(.(.(.(.Q.(.(.`.`.'.'.`.'.'.`.`.`.`.'.R.W.L.J.F.F.A.A.A.A.A.A.u ",
"L.T.^.E c c y W ] U.U.U.P.P.D.i i i i i u u i i i i i i A.i i i p i i A.i i i i A.i A.u i i A.A.u A.u i u A.A.A.A.A.u u u u A.A.u ",
"L.^.^.E c c h W ] ] ] U.P.P.p i i i u i i i i i i i i i i A.i i i i i p i i p i A.u A.A.i A.u A.A.i A.i A.A.u A.A.A.u u u u u u u ",
"D.T.R.( ( Y.Y.K.i i i i i i u u u u u u u u u u u u u u u u u u u u u u u u u u u u u u u u u u u u u u u u u u u u u u u u u u u "
};
