/* XPM */
static char *result[] = {
/* columns rows colors chars-per-pixel */
"65 65 228 2 ",
"   c #7051A0",
".  c #7354A4",
"X  c #7454A5",
"o  c #7252A2",
"O  c #7253A3",
"+  c #7252A3",
"@  c #7152A1",
"#  c #7051A1",
"$  c #6D4E9E",
"%  c #946DCA",
"&  c #7453AA",
"*  c #7252A4",
"=  c #6F50A0",
"-  c #6D4E9F",
";  c #6F4FA3",
":  c #6E4EA0",
">  c #6F50A1",
",  c #7150A2",
"<  c #7A58AD",
"1  c #6F4FA0",
"2  c #6E4FA0",
"3  c #6E4F9F",
"4  c #704FA3",
"5  c #B189E0",
"6  c #855EBE",
"7  c #7150A5",
"8  c #8961C3",
"9  c #7654AC",
"0  c #7151A2",
"q  c #6E4E9F",
"w  c #6F4FA2",
"e  c #6F4FA1",
"r  c #9D76D1",
"t  c #7E59B6",
"y  c #7D59B4",
"u  c #BE94EC",
"i  c #8762BD",
"p  c #7655A8",
"a  c #7554A8",
"s  c #7150A4",
"d  c #8D66C5",
"f  c #8761C0",
"g  c #7151A3",
"h  c #7553AA",
"j  c #8761BD",
"k  c #7251A6",
"l  c #7352A6",
"z  c #7B58B2",
"x  c #7452A9",
"c  c #B388E4",
"v  c #A47BDE",
"b  c #7250A6",
"n  c #7050A2",
"m  c #8660BC",
"M  c #B188E2",
"N  c #7653AC",
"B  c #7B59AD",
"V  c #7754AE",
"C  c #7554A7",
"Z  c #7050A3",
"A  c #6E4EA1",
"S  c #7050A1",
"D  c #7352A9",
"F  c #9B75D0",
"G  c #8F69C6",
"H  c #6D4EA0",
"J  c #7454A6",
"K  c #7051A2",
"L  c #8962C0",
"P  c #815DB9",
"I  c #7E5BB1",
"U  c #6F4EA1",
"Y  c #7958AD",
"T  c #7955B2",
"R  c #7351A9",
"E  c #7351A7",
"W  c #956BCF",
"Q  c #8D65C9",
"!  c #7C59AE",
"~  c #7654A8",
"^  c #865FC4",
"/  c #D0A7F7",
"(  c #966BD3",
")  c #7351A8",
"_  c #A47AD9",
"`  c #BE94EB",
"'  c #AD83E6",
"]  c #6F50A2",
"[  c #7B59AE",
"{  c #7151A4",
"}  c #845EC1",
"|  c #C99BF3",
" . c #9368D0",
".. c #7152A3",
"X. c #7553AB",
"o. c #BA90EA",
"O. c #7955B1",
"+. c #7956B2",
"@. c #7854AF",
"#. c #8460B8",
"$. c #835FB6",
"%. c #7D58B6",
"&. c #6E4FA1",
"*. c #805CB6",
"=. c #7452AA",
"-. c #7353A5",
";. c #8662B9",
":. c #7857AB",
">. c #B088E0",
",. c #865FBF",
"<. c #7453A6",
"1. c #805DB2",
"2. c #6F4F9F",
"3. c #7956AF",
"4. c #7050A4",
"5. c #704FA4",
"6. c #825FB6",
"7. c #7A58AC",
"8. c #976FCE",
"9. c #9E75D3",
"0. c #7554A9",
"q. c #A77FDB",
"w. c #B087E2",
"e. c #B88DE9",
"r. c #8D67C3",
"t. c #7D5AB0",
"y. c #7B57B4",
"u. c #7856AC",
"i. c #7756AA",
"p. c #7251A3",
"a. c #956ECA",
"s. c #8660C0",
"d. c #9B73D3",
"f. c #7352A7",
"g. c #7555A7",
"h. c #7654A9",
"j. c #7B59AC",
"k. c #8760BF",
"l. c #A27AD5",
"z. c #7654AA",
"x. c #936DC7",
"c. c #7856AB",
"v. c #8C68BF",
"b. c #7B57B0",
"n. c #7251A4",
"m. c #7C57B5",
"M. c #7C58B6",
"N. c #7653AB",
"B. c #B78CE6",
"V. c #BD91E9",
"C. c #7957AC",
"Z. c #805BBB",
"A. c #825CBC",
"S. c #7353A6",
"D. c #7453A5",
"F. c #7957AB",
"G. c #7C59B1",
"H. c #7956B1",
"J. c #9B74CE",
"K. c #7352A8",
"L. c #7655A9",
"P. c #7957AD",
"I. c #C99CF6",
"U. c #7D59B7",
"Y. c #7C58B5",
"T. c #7353A7",
"R. c #7D59B5",
"E. c #7855AF",
"W. c #BC93EA",
"Q. c #9069C7",
"!. c #845FB8",
"~. c #855FBD",
"^. c #7855AE",
"/. c #815EB7",
"(. c #7A59AD",
"). c #946BCC",
"_. c #C298EC",
"`. c #7956AE",
"'. c #7553A8",
"]. c #9971CF",
"[. c #805CBA",
"{. c #7152A2",
"}. c #7956AD",
"|. c #8D66C2",
" X c #7251A5",
".X c #9770CD",
"XX c #8963BE",
"oX c #815DB3",
"OX c #805ABA",
"+X c #C49CEC",
"@X c #805CB7",
"#X c #7655A7",
"$X c #8863BB",
"%X c #8661BC",
"&X c #7E5BB3",
"*X c #A97EDE",
"=X c #956ECB",
"-X c #8B64C2",
";X c #7553A9",
":X c #7E5BB2",
">X c #906BC4",
",X c #7655AA",
"<X c #8662BB",
"1X c #835FB7",
"2X c #8F69C5",
"3X c #946DC9",
"4X c #7555A8",
"5X c #7A57AD",
"6X c #7C5AAE",
"7X c #7453A8",
"8X c #8D6BBD",
"9X c #7756A9",
"0X c #825EB8",
"qX c #966FC8",
"wX c #7A56B0",
"eX c #7452A8",
"rX c #7755AA",
"tX c #AC84DD",
"yX c #8F67C7",
"uX c #7E5BB0",
"iX c #7B58AE",
"pX c #8660BF",
"aX c #B893E3",
"sX c #8761BE",
"dX c #9067C8",
"fX c #7251A7",
"gX c #7151A5",
"hX c #8965BB",
/* pixels */
"                                                            .   X                                         o O     + @           # ",
"$ $ % & $ $ $ $ * = $ - ; : $ $ $ $ $ $ = = $ $ > $ $ $ $ - $ $ $ $ $ $ $ $ $ $ $ $ $ , < $ $ $ $ $ $ $ $ $ $ $ $ $ $ $ $ $ = $ = ",
"= 1 2 $ $ $ $ $ 1 3 $ 4 5 6 $ $ $ $ $ $ $ $ $ $ $ $ $ $ 7 8 9 $ $ $ $ 2 0 $ $ $ $ $ $ 3 3 $ $ $ $ $ q $ $ $ $ $ $ $ $ - w e - $ $ ",
"2 > $ $ $ $ $ 3 3 $ $ w r t $ $ $ $ $ $ $ - $ $ $ $ $ $ y u i - $ $ $ - 3 $ $ $ $ $ $ q q $ $ $ $ p a $ $ $ $ $ $ $ $ s d f w $ $ ",
"$ 3 $ $ $ $ $ $ $ $ $ $ e q $ $ $ g 3 $ h j k $ $ $ $ $ l z k $ $ 3 $ $ $ $ $ $ $ 2 $ 3 $ $ $ $ $ $ $ $ $ $ $ $ $ $ $ x c v b $ 1 ",
"$ $ $ $ $ 3 n > $ = 1 - $ $ $ $ $ $ $ 1 m M N $ $ $ $ $ $ $ $ $ $ 3 $ $ $ = $ $ e B $ 3 $ $ $ $ $ $ $ $ $ 3 $ $ $ $ $ : V N : $ q ",
"$ $ $ * n $ $ $ $ = $ C - $ $ $ $ $ $ $ Z h A $ < 3 = $ $ $ 3 $ $ g $ $ $ > $ $ $ $ $ $ $ 3 $ $ $ $ $ $ $ 3 $ $ $ $ $ $ $ $ $ $ $ ",
"$ $ S * 3 $ $ 3 3 $ $ $ $ 3 $ $ $ $ 1 $ $ $ $ $ * 3 $ $ $ $ 3 $ $ $ $ $ $ $ $ $ D k $ $ - 3 $ $ $ $ $ $ $ S S $ S $ $ $ $ $ $ $ $ ",
"$ $ 1 $ $ $ $ $ $ $ $ $ $ 3 $ $ $ $ $ $ $ $ $ $ $ $ $ $ $ $ $ $ $ $ $ $ $ $ $ : F G H $ $ $ $ $ $ $ $ $ $ $ $ $ $ $ $ $ $ $ $ J $ ",
"$ $ $ $ $ $ $ $ $ $ $ $ $ K $ $ $ $ $ $ $ $ $ $ $ $ $ $ $ $ $ $ 3 3 $ $ $ $ $ q L P - $ 1 S S $ $ 2 = $ $ $ $ $ $ $ $ $ $ $ $ 2 $ ",
"$ $ $ $ I 0 $ q $ $ $ $ $ $ $ $ 2 n $ $ $ $ $ - $ $ $ $ $ $ $ $ $ $ $ $ $ $ $ $ - - $ $ $ $ - e U $ $ $ $ $ $ $ $ $ $ 1 3 3 $ $ 1 ",
"$ $ 2 - $ $ $ Y g $ q $ $ $ $ $ $ $ 3 3 $ q b T R - $ $ $ $ $ $ $ $ $ $ $ $ : - 3 $ $ $ $ $ E W Q 7 2 ! $ $ $ > = $ $ $ $ $ $ $ $ ",
"$ $ - $ $ $ $ $ $ $ ~ $ $ $ $ $ $ $ $ $ $ 4 ^ / ( 4 > $ $ $ $ $ 3 3 $ S $ ) _ N 3 $ $ $ $ $ V ` ' x $ ] 3 $ $ $ $ $ $ $ = $ $ [ w ",
"$ $ C $ $ 1 $ $ $ $ S $ { { $ $ 3 3 $ $ $ 4 } |  .4 $ $ 3 $ $ $ $ $ - ..$ X.o.O.$ $ $ $ $ $ w +.@.U $ 1 $ $ $ $ $ $ K $ $ $ S $ $ ",
"$ $ $ $ $ 1 $ 1 $ $ $ $ #.$.$ $ $ $ $ $ $ q E %.X.- $ $ 3 $ $ $ $ $ $ $ a : x &.$ $ $ $ $ $ $ e : $ $ 1 $ 3 - $ $ $ $ $ $ $ $ $ $ ",
": *.=.$ 3 3 $ > $ $ $ $ 1 3 $ $ $ $ $ $ $ $ $ q - $ $ $ $ S * $ $ $ $ $ q $ $ $ $ q $ $ $ $ $ -.0 $ $ $ $ 3 ;.k $ $ $ $ :.0 $ $ $ ",
"; >.,.$ 3 3 $ $ K - $ $ $ $ $ n $ $ $ $ $ $ $ $ $ $ $ $ $ $ - $ $ $ n 3 $ $ $ $ $ 1 $ 1 0 3 $ = $ $ $ <.1.$ { q - 3 n $ 1 q $ $ 2.",
"- 3.4.$ $ $ 3 K 1 $ $ $ $ $ $ $ $ $ $ $ $ $ $ $ $ $ $ $ 3 0 3 - 4.5.- $ $ $ $ $ $ $ $ $ n 6.q $ $ $ $ q e $ $ $ $ 2 7.$ $ $ 3 3 $ ",
"$ q $ 1 $ $ $ $ $ $ S $ $ $ $ $ $ 1 2 $ $ $ $ $ 3 $ $ $ 3 3 $ 4 8.9.0.$ $ $ $ S $ $ $ $ $ e $ $ $ $ $ $ $ = $ $ $ 3 $ $ $ $ 3 $ $ ",
"$ $ $ K $ $ $ $ $ $ $ $ $ $ $ $ C : D Z $ $ $ $ = - $ $ $ $ 3 k q.w.) $ $ $ $ $ $ $ K $ = 3 $ $ $ $ $ $ $ = $ $ $ 1 $ $ 3 3 $ $ $ ",
"$ $ $ $ $ $ $ $ $ $ B e $ $ $ $ $ x e.r.q $ $ $ $ $ $ $ $ $ $ t.=.R <.$ $ $ $ $ $ $ $ $ 1 q $ $ $ $ $ $ $ $ $ $ $ $ $ $ $ $ $ $ $ ",
"3 $ $ $ $ $ $ $ g $ 2 - $ $ $ $ $ e y.D $ $ $ $ $ $ > $ $ 3 3 $ $ $ > $ $ $ $ $ $ $ > $ $ $ $ $ $ 1 $ $ $ $ $ a $ $ 3 3 $ $ $ $ $ ",
"0 $ $ -.u.$ $ g $ $ - S $ > $ $ $ $ $ $ $ $ $ $ $ $ $ $ 3 $ $ $ $ $ $ $ $ $ $ $ $ $ $ $ $ p 3 3 $ $ $ 1 $ $ + $ $ $ $ $ $ - C > $ ",
"$ $ $ $ $ $ $ $ $ $ $ $ $ $ : $ $ $ $ $ $ $ $ $ 2 w $ $ 1 $ $ $ $ $ $ i.e $ $ $ 1 1 $ g $ $ $ $ $ $ n $ $ $ $ p.-.2 C $ $ $ - $ $ ",
"$ $ $ $ $ $ $ $ $ $ > $ $ q a.$ $ $ $ $ $ $ $ - s.d.e $ $ $ $ - $ $ $ $ $ g 3 q $ $ $ $ 3 e f.- $ $ g.$ S $ $ $ n $ $ $ 3 $ $ $ $ ",
"$ $ $ $ $ $ $ $ $ $ = h.j.$ { $ $ $ $ $ $ $ $ - k.l.w $ $ $ $ = $ 3 2 $ 1 q 3 q $ 3 $ $ K z.x.e 3 $ $ $ - $ $ $ $ 3 $ $ 3 $ $ = $ ",
"$ $ $ 1 > $ c.p $ $ $ 3 2 $ $ $ $ $ 3 3 $ $ $ $ &.4 $ $ $ $ $ $ $ 2 2 $ v.b.$ $ $ 3 $ $ $ - e $ 1 $ $ = $ 1 $ $ $ 3 $ $ $ $ $ $ $ ",
"$ K $ = > $ > e $ $ $ $ $ $ $ $ $ ..$ $ $ $ $ $ $ $ $ $ $ $ $ K q C $ $ l ] $ $ $ $ $ 1 $ $ $ $ $ $ $ n $ $ 3 $ $ $ > $ $ $ $ - g ",
"$ $ $ $ $ $ $ $ $ $ $ $ $ $ $ > $ 3 $ $ $ $ $ $ $ $ $ $ $ $ $ $ $ $ $ 2 $ $ $ $ $ $ $ $ $ $ $ $ $ $ $ 3 $ q 2 $ $ $ $ $ $ $ $ $ $ ",
"$ $ $ $ $ $ q - $ $ $ $ $ $ $ 2 $ 3 $ $ $ $ $ $ $ $ $ $ $ $ $ $ $ $ $ 2 $ $ $ $ $ $ $ $ > l $ n.- $ $ $ $ S $ $ $ $ $ K K $ $ $ $ ",
"$ $ $ $ $ U m.M.w $ $ $ $ $ $ $ $ $ $ $ $ $ $ $ J $ S $ $ $ $ $ $ $ $ $ $ $ $ $ $ $ $ $ # g.$ * q $ $ $ $ $ $ $ $ 3 3 1 $ $ $ $ $ ",
"1 0 $ $ > N.B.V.=.$ $ $ $ $ g q C.# $ $ $ $ S $ s $ $ $ $ $ 3 3 $ $ $ $ $ $ $ $ $ $ $ $ 1 $ $ $ $ $ $ $ $ 1 $ $ $ $ $ $ $ $ $ 1 g ",
"$ $ $ $ $ w Z.A.w S.$ $ $ $ $ $ $ $ $ $ $ $ $ $ D.$ $ $ $ $ $ $ $ $ $ $ $ $ $ $ $ $ $ $ $ $ $ q < * $ $ $ q $ $ $ $ $ $ - $ $ $ $ ",
"$ $ $ $ $ F.G.- $ $ $ $ $ $ $ $ $ $ $ $ $ $ $ $ $ $ $ $ $ $ $ $ $ $ $ $ &.H.4 $ $ $ $ $ $ $ $ $ $ g $ $ $ $ $ $ $ > > f.J.K.$ $ 1 ",
"$ * $ $ $ L.P.n - $ $ $ $ $ -.2 $ $ $ $ $ $ $ $ $ $ $ $ $ $ $ $ S $ $ $ X.I.U.$ $ $ $ $ $ $ $ $ $ $ $ $ $ $ $ 3 3 $ $ Z m s $ q $ ",
"$ $ $ $ $ $ $ $ $ $ $ $ $ $ : - $ $ $ $ $ $ $ $ $ $ g $ $ $ $ $ $ $ $ $ w Y.7 $ $ $ S K $ $ $ $ $ $ $ $ $ $ $ $ $ $ $ $ $ $ $ $ $ ",
"$ $ $ $ $ - g $ $ $ $ $ $ $ $ $ S 3 $ $ $ * T.$ $ $ $ $ $ $ $ $ 3 $ $ $ $ p.$ $ $ $ * l ; R.h $ $ $ $ 1 $ $ $ $ $ $ $ $ $ $ $ $ $ ",
"$ $ $ $ $ $ $ $ $ $ $ 2 $ $ $ $ $ $ $ $ q K K $ $ $ $ $ $ $ $ $ 3 $ $ $ $ $ $ $ $ $ - q E.W.Q.: $ $ $ $ $ $ $ $ $ $ $ $ $ $ $ $ $ ",
"$ $ $ $ $ $ $ $ $ $ $ !.$ $ $ $ $ $ 3 $ $ $ $ $ # 2 $ $ 1 $ $ $ $ g 1 $ $ $ $ $ $ $ - - s ~.^.- $ $ $ $ $ $ 3 $ $ $ $ $ $ $ S $ > ",
"$ $ $ 3 $ $ $ $ $ $ $ q $ $ - $ $ g $ $ $ $ $ $ K 2 $ $ 1 $ $ 1 1 a n $ $ g $ $ $ $ 1 2 $ - - $ $ $ $ - 6.$ 3 $ K $ $ $ $ S.S $ > ",
"$ $ $ S $ $ $ $ $ $ $ $ $ $ < $ $ $ $ $ $ $ $ $ $ $ $ = $ $ $ $ $ $ $ $ $ $ $ $ $ $ $ $ $ $ $ $ $ $ $ $ n $ $ $ $ $ $ $ $ $ $ $ $ ",
"$ $ $ $ $ $ n 1 $ $ $ $ $ $ $ $ $ * g - $ $ $ $ $ $ $ 3 $ $ $ $ $ 3 3 e $ $ $ $ $ 4.K.: $ $ $ $ $ S $ $ $ $ 2 S $ $ $ $ $ $ $ $ $ ",
"$ $ 1 /.(.$ $ q q $ $ $ $ $ $ $ $ $ $ [ S $ $ $ $ $ $ q $ $ $ $ $ $ $ + S $ $ $ q )._.N $ $ $ $ $ $ $ $ q L.$ $ $ $ $ $ $ $ $ $ $ ",
"$ $ $ `.'.$ $ 1 3 $ $ $ $ p.$ $ $ $ $ $ L.$ $ $ $ = 7 ].- $ $ $ $ $ $ $ - $ $ $ $ =.[.z.$ $ K $ $ $ $ $ $ $ $ {.- $ $ $ $ $ $ g > ",
"$ $ $ $ $ $ $ $ C J = $ $ $ $ $ $ $ $ $ $ $ $ $ $ $ - w $ $ $ 3 3 $ $ $ $ $ $ $ $ $ $ $ $ $ $ $ $ * $ $ 1 $ $ 2 $ $ $ e 2 $ $ $ $ ",
"$ 1 q $ $ $ $ $ e 1 $ $ $ $ $ $ $ $ $ $ $ $ $ $ $ $ n $ $ $ 3 3 $ $ $ $ $ }.$.$ $ $ $ $ $ $ $ $ $ $ $ $ 1 $ $ $ $ $ - |.[ $ $ $ $ ",
"$ $ $ $ $ $ $ $ $ $ $ $ $ $ n $ $ 1 1 $ $ $ $ $ $ $ 1 $ $ $ $ $ $ $ $ $ $ n.-.$ $ $ $ $ $ 1 * $ $ $ $ $ $ $ $ $ $ $ $  Xe $ $ $ $ ",
"$ $  X$ $ $ $ $ 1 $ $ $ $ $ 3 $ 2 2 $ $ 3 $ $ $ $ g $ $ $ $ $ $ $ = = $ $ 1 $ $ $ $ $ $ $ $ 0 q $ $ $ $ $ $ $ $ $ $ $ $ 1 3 $ $ $ ",
"$ 2 .X: $ $ $ $ 1 $ $ $ $ $ $ K.XXx $ $ $ $ $ * $ $ $ 1 $ $ $ $ $ $ $ $ $ $ $ $ $ $ $ $ 3 3 e oX$ $ $ $ $ $ $ $ $ $ * $ 3 q $ $ $ ",
"$ $ n $ $ $ $ $ $ $ $ $ - $ $ OX+X@X$ $ - - $ q $ $ $ 1 $ $ - 3 $ $ $ $ $ $ = #X<.$ $ $ $ $ $ e 3 = $ $ $ $ $ $ $ $ K $ $ $ $ 1 $ ",
"$ $ $ 2 $ $ $ $ $ $ $ w $X-.n Z ^.4 $ 2 %X&X- $ $ $ $ $ $ $ q n $ $ $ $ $ $ > 2 2 $ $ $ $ $ $ $ 3 = $ $ S $ $ $ $ $ $ $ $ $ $ p.- ",
"$ $ - g.$ $ $ $ = S $ q { 1 3 $ $ $ $ Z *X=X: $ $ $ $ $ $ e -X;X$ $ $ $ $ $ $ $ $ $ $ $ $ = > $ $ $ $ $ $ $ $ $ $ $ 9  X$ $ $ $ $ ",
"$ $ $ $ $ $ F.* $ $ $ $ $ $ $ :X$ $ S - ) 7 $ $ $ $ $ $ 1 s >X,X$ $ $ $ $ $ K.=.$ $ $ $ $ $ $ $ $ $ c.0.$ $ $ $ $ $ <X1Xq $ $ $ $ ",
"$ $ $ $ $ 1 $ $ $ $ $ $ $ $ $ $ $ $ $ $ $ $ $ - $ K $ $ $ $ $ $ 1 1 $ $ $ $ 2X3X4X$ $ $ $ $ $ $ $ $ I 5X$ $ $ $ $ $ - 6X3 $ p $ $ ",
"$ $ $ $ $ $ $ $ $ $ $ * $ $ $ $ $ $ $ $ $ - g :X$ $ $ $ $ $ $ $ $ 3 > $ $ $ : : $ $ $ $ $ $ $ $ $ $ $ $ > $ 3 + $ $ $ $ $ S $ $ $ ",
"$ $ $ $ $ $ $ $ $ $ L.g $ 7X8X$ $ $ $ $ * $ $ $ $ $ $ $ 3 9X$ 1 2 $ C 0X$ > $ $ $ $ $ $ $ $ $ $ $ qXx $ $ $ $ $ $ 1 $ $ $ $ $ $ $ ",
"$ $ $ $ $ $ $ $ $ $ $ $ $ q e 1 $ 1 e $ $ $ $ $ $ $ n $ $ $ $ $ $ $ 1 1 $ 3 $ 0 $ $ $ $ $ $ $ $ $ n.q $ 1 q $ $ $ $ $ $ $ * n $ $ ",
"$ $ $ - -.$ $ $ $ $ $ $ $ $ $ 3 $ 3 3 $ $ 1 $ $ $ - wXeX$ $ $ $ $ 3 $ $ $ $ $ S $ 3 $ $ $ $ $ $ $ $ $ $ 3 $ $ $ 1 n $ $ $ $ $ - $ ",
"$ $ $ q rX$ $ $ $ $ $ $ $ 3 $ $ $ $ $ $ $ $ q 2 $ w tXyX- $ $ $ $ 3 $ $ $ $ $ $ $ 1 $ $ $ $ $ $ -.$ $ $ $ $ $ $ = n $ $ $ $ $ 1 $ ",
"g $ $ $ $ $ $ $ $ $ $ $ $ 3 $ $ $ $ 3 3 $ $ q 3 $ - ^.f.$ $ $ * $ $ $ $ $ $ e $ $ $ $ $ $ $ $ $ -.$ $ $ $ $ $ 3 $ $ $ $ $ $ $ $ $ ",
"$ $ $ $ $ $ $ $ $ $ $ $ $ $ $ $ $ $ 3 1 1 $ $ e 1 $ $ $ $ $ 2 q $ $ $ $ $ $ 3 0 $ $ $ $ $ $ $ $ $ $ $ > $ D.e 3 3 $ $ $ $ $ 1 $ $ ",
"= $ 7 ^.w $ $ 2 3 $ $ $ $ $ $ > $ $ $ = $ $ q uXiX1 $ $ $ $ 1 3 $ $ $ $ $ $ $ * $ $ $ $ $ $ 3 3 $ $ $ $ $ $ $ $ 3 $ $ 3 $ $ $ $ $ ",
"p.$ pXaXsX3 $ S = $ $ $ $ $ $ 2 $ $ $ S $ $ 3 + q $ $ $ $ $ $ $ $ $ $ $ $ $ $ $ 3 $ $ $ $ $ $ 3 3 $ $ $ $ $ $ $ $ $ $ S $ $ $ $ $ ",
"$ $ H.dXfX$ $ $ $ $ $ $ $ $ $ $ $ $ $ + g $ $ 3 $ $ $ $ 4X$ $ $ - - $ gXz.$ $ = 3 $ $ 3 3 $ p $ $ q ! $ $ e $ $ $ $ $ $ $ $ $ 1 $ ",
"$ $ > - $ $ $ 3 3 C $ $ $ $ $ $ $ $ $ * $ $ $ > $ $ $ $ $ $ $ $ 1 > $ 3.hX$ $ $ $ $ $ $ $ $ $ $ $ $ e $ $ J $ $ $ $ $ $ $ $ 1 3 $ "
};
