/* XPM */
static char *result[] = {
/* columns rows colors chars-per-pixel */
"65 65 171 2 ",
"   c #140710",
".  c #150913",
"X  c #190914",
"o  c #160D1A",
"O  c #1B0B1A",
"+  c #1D101F",
"@  c #220C1D",
"#  c #1A0C23",
"$  c #1C0D2B",
"%  c #1C1122",
"&  c #1F102D",
"*  c #1D0E32",
"=  c #1F1235",
"-  c #1D1139",
";  c #240D21",
":  c #2C0E26",
">  c #220E2A",
",  c #2E0F28",
"<  c #211124",
"1  c #2C1025",
"2  c #23142B",
"3  c #2E1029",
"4  c #24182F",
"5  c #371227",
"6  c #33112A",
"7  c #3B132D",
"8  c #3B1424",
"9  c #200F3E",
"0  c #231332",
"q  c #261932",
"w  c #281933",
"e  c #23133C",
"r  c #2C1D3B",
"t  c #291632",
"y  c #2D203F",
"u  c #42162D",
"i  c #471734",
"p  c #521B34",
"a  c #521B39",
"s  c #5C1E3C",
"d  c #611F3E",
"f  c #4C203B",
"g  c #6D253F",
"h  c #251443",
"j  c #281943",
"k  c #2D1B4B",
"l  c #2A1748",
"z  c #311F40",
"x  c #311D4C",
"c  c #291652",
"v  c #2D1B53",
"b  c #311E53",
"n  c #2F214B",
"m  c #322243",
"M  c #3D2140",
"N  c #35244A",
"B  c #39264D",
"V  c #342156",
"C  c #3A2553",
"Z  c #3D2A55",
"A  c #37225B",
"S  c #3A245A",
"D  c #3B2959",
"F  c #3B2661",
"G  c #3B2861",
"H  c #3F2D6B",
"J  c #5C2348",
"K  c #412C5C",
"L  c #492959",
"P  c #722542",
"I  c #77264B",
"U  c #7C274D",
"Y  c #62315C",
"T  c #442E61",
"R  c #422C6D",
"E  c #4A2765",
"W  c #463062",
"Q  c #493266",
"!  c #4C356D",
"~  c #46326C",
"^  c #58326E",
"/  c #50386E",
"(  c #452F76",
")  c #463070",
"_  c #4C3572",
"`  c #4E3973",
"'  c #473278",
"]  c #4D367C",
"[  c #4F387C",
"{  c #553070",
"}  c #523974",
"|  c #50377B",
" . c #543C7C",
".. c #583E7E",
"X. c #713167",
"o. c #673C75",
"O. c #7D3F73",
"+. c #822B4C",
"@. c #842B47",
"#. c #8C2D53",
"$. c #9A3254",
"%. c #9B325A",
"&. c #AC395E",
"*. c #A6365D",
"=. c #993C67",
"-. c #AB3763",
";. c #BD3D63",
":. c #C23F6D",
">. c #C13E65",
",. c #C34067",
"<. c #C74168",
"1. c #CA416B",
"2. c #D0436E",
"3. c #CC4171",
"4. c #DA4674",
"5. c #DF4875",
"6. c #D44F79",
"7. c #DF4C78",
"8. c #4F3783",
"9. c #543B83",
"0. c #5A3E84",
"q. c #563C89",
"w. c #5C4184",
"e. c #5D428A",
"r. c #5F4390",
"t. c #62468D",
"y. c #7F4786",
"u. c #624592",
"i. c #664995",
"p. c #684A97",
"a. c #674998",
"s. c #6D4E9E",
"d. c #774D97",
"f. c #6F4FA0",
"g. c #704FA3",
"h. c #6F50A0",
"j. c #7151A3",
"k. c #7553A9",
"l. c #7956AD",
"z. c #7B59AD",
"x. c #7A56B3",
"c. c #7D5AB2",
"v. c #815EB6",
"b. c #835DBC",
"n. c #8663B7",
"m. c #8661BC",
"M. c #8964BC",
"N. c #8D6BBD",
"B. c #E75A8A",
"V. c #E66193",
"C. c #855FC3",
"Z. c #8761C0",
"A. c #8C65C4",
"S. c #8F69C5",
"D. c #926DC6",
"F. c #9067C8",
"G. c #946DCA",
"H. c #9770CD",
"J. c #9A73CF",
"K. c #956AD2",
"L. c #9C75D2",
"P. c #A97EDE",
"I. c #A37BDA",
"U. c #AC84DD",
"Y. c #B289E2",
"T. c #B88DE9",
"R. c #BE93EB",
"E. c #B893E3",
"W. c #C49CEC",
"Q. c #C99BF3",
"!. c #D0A7F7",
/* pixels */
"j.h.h.h.h.h.h.h.h.h.h.h.h.h.j.h.h.h.h.h.h.h.h.h.h.h.h.h.h.h.j.j.j.j.h.h.h.h.t.w.0.! s.u.w.j.h.h.h.h.h.h.h.j.j.h.h.h.h.h.h.j.h.j.h.",
"s.s.G.k.s.s.h.s.j.h.s.s.j.s.s.s.s.s.s.s.h.h.s.s.h.s.s.s.f.f.h.s.h.h.s.s.s.s.D p.L t.| x s.s.s.s.s.s.s.s.s.s.h.s.s.s.s.s.s.s.h.s.h.",
"h.h.h.s.s.s.s.s.h.h.s.j.Y.b.s.s.s.s.s.s.h.s.s.s.s.s.s.s.j.Z.k.s.s.s.s.h.g.s.F s.L y < Q s.s.s.s.s.s.h.d.s.s.s.s.s.s.s.h.h.h.s.s.s.",
"s.h.s.s.s.s.s.s.s.s.s.h.J.v.s.s.s.s.s.s.s.s.s.s.s.s.s.s.c.R.M.s.s.s.s.s.s.s.K ^ J p 8 L s.s.s.s.s.k.k.s.s.s.s.s.s.s.s.j.S.M.h.s.s.",
"s.h.s.s.s.s.s.s.s.s.s.s.h.s.s.s.s.f.f.s.k.C.f.s.s.s.s.s.j.c.j.h.s.s.s.s.s.s.o.+.$.$.@.g Y t.s.s.s.s.s.s.s.s.s.s.s.s.s.k.Y.P.g.f.f.",
"s.s.s.s.s.h.j.j.s.h.h.s.s.s.s.s.s.s.s.f.b.Y.k.s.s.s.s.s.s.h.s.s.s.f.s.s.s.g.=.>.1.6.<.&.@.a W u.s.s.s.s.9.i.s.s.s.s.s.f.l.k.f.s.f.",
"s.s.s.j.j.s.s.s.s.h.s.k.s.s.s.s.s.s.s.s.h.k.f.s.z.s.h.s.s.s.s.s.s.j.s.s.s.d.,.V.5.B.4.1.$.p : k  .s.s.s.H h.s.s.s.s.s.s.s.s.s.s.s.",
"s.s.h.j.s.s.s.s.s.s.s.s.s.h.s.s.s.s.f.f.f.f.s.s.j.h.s.s.s.s.h.s.s.s.s.s.s.y.<.7.5.5.4.1.$.d 5 ; k s.s.! [ h.h.s.f.s.s.s.s.s.s.s.s.",
"s.s.s.s.s.s.s.s.s.s.s.s.s.s.s.s.s.s.s.s.s.s.s.s.s.s.s.s.s.s.s.s.s.s.s.s.s.=.-.4.4.5.4.1.%.d u , b s.u.q u.s.s.s.s.s.s.s.s.s.s.j.s.",
"s.s.s.s.s.s.s.s.s.s.s.s.s.j.s.s.s.s.s.s.s.s.s.f.s.s.s.s.s.s.s.s.f.s.s.s.p.J %.<.4.5.7.3.%.J 7 5 m K 2 V s.s.s.s.s.s.s.s.s.s.f.f.s.",
"s.s.s.s.v.j.s.s.s.s.s.s.s.s.s.s.f.f.s.s.s.s.s.f.s.s.s.s.s.s.s.s.s.s.s.s.s.E X.&.:.7.4.:.%.s 7 5 ; > G t.s.s.s.s.s.s.s.f.f.s.s.s.f.",
"s.s.s.s.s.s.s.z.j.s.s.s.s.s.s.s.s.s.f.s.s.f.f.x.k.s.s.s.s.s.s.s.s.s.s.s.s.s.^ g -.:.:.-.U i 6 , : : R z.s.s.s.h.f.s.s.s.s.s.s.s.s.",
"s.s.s.s.s.s.s.s.s.s.k.s.s.s.s.s.s.s.s.s.f.g.C.!.K.f.f.f.s.s.s.s.h.s.a.e.s.a.C u I #.#.I a 6 , , : @ b g.h.s.s.s.s.s.s.s.f.s.s.l.f.",
"s.s.k.s.s.s.s.s.s.s.j.s.j.j.s.s.s.f.s.s.f.g.C.Q.K.f.s.f.f.s.s.s.s.s.] - k h @ @ u p a i 6 , , , ; O h s.s.s.s.s.s.s.j.s.s.s.j.s.s.",
"s.s.s.s.s.s.s.s.s.s.s.s.v.n.s.s.s.s.s.s.f.f.g.x.k.f.s.s.f.s.s.s.s.s.A O # @ @ : , 5 5 , , , , ; @ X h f.s.s.s.f.s.s.s.s.s.s.s.s.s.",
"s.v.k.s.j.s.s.h.s.s.s.s.g.s.s.s.s.s.s.s.s.s.s.s.f.s.s.s.f.h.h.s.s.s.T O @ : : : , , , , , , : ; B > c s.s.h.m.j.s.s.s.s.k.j.s.s.s.",
"g.Y.C.s.s.s.s.s.h.f.s.s.s.s.s.h.s.s.s.s.s.s.s.s.s.s.s.s.s.s.f.s.s.s.K @ ; : , : , : , : 1 1 + + w. .~ k.c.s.h.s.s.h.h.s.h.s.s.s.f.",
"s.l.g.s.s.s.s.j.f.s.s.s.s.s.s.s.s.s.s.s.s.s.s.s.s.s.s.s.h.h.f.f.g.0.0 @ : : , , , , , 6 1 @ X . r s.s.s.h.s.h.s.s.h.z.s.s.s.h.s.s.",
"s.s.s.s.s.s.s.s.s.s.f.s.s.s.s.s.s.f.f.s.s.s.s.s.s.s.s.s.h.s.s.h.F.W ; : , , , , , , 1 : @ X   4 } y i.s.s.h.s.s.s.h.s.s.s.s.s.s.s.",
"s.s.s.g.s.s.s.s.s.s.s.s.s.s.s.s.k.f.k.f.s.s.s.s.h.s.s.s.s.s.h.h.D.L @ : , , , , , , 6 1 1 X o W h.K ! s.s.h.s.s.s.s.s.s.h.s.s.s.s.",
"s.s.s.s.s.s.s.s.s.s.z.f.s.s.s.s.s.k.T.A.s.s.s.s.s.s.s.s.s.s.s.c.u.t : : : : : , , : : : < y / s.h.s.Z N s.s.s.s.s.s.s.s.s.s.s.s.s.",
"s.s.s.s.s.s.s.s.j.s.f.s.s.s.s.s.s.f.x.k.s.s.s.s.s.s.h.s.s.s.s.s. .@ @ @ @ 0 ; ; : : @ ; < B } h.s.h.h.t.Z w.s.k.s.s.h.s.s.s.s.s.s.",
"j.s.s.k.z.s.s.j.s.s.f.h.s.f.s.s.s.s.s.s.s.s.s.s.s.s.s.s.h.s.s.p.w @ O X 0 N # @ @ O o X . 4 D ` s.s.s.h.s.! ! `  .p.s.s.s.s.k.h.s.",
"s.s.s.s.s.s.s.s.s.s.s.s.s.s.f.s.s.s.s.s.s.s.s.s.h.h.s.s.h.s.s.W O O $ b e.w.* X   X   . . o % N s.s.h.s.s.s.s.h.h.h.k.s.s.s.s.s.s.",
"s.s.s.s.s.s.s.s.s.s.h.s.s.s.G.s.s.s.s.s.s.s.s.s.C.L.f.s.s.s.e.% O e [ s.s.i.& .             o o D t.j.s.h.s.s.s.h.h.s.s.s.s.s.s.s.",
"s.t.t.s.s.s.s.s.s.s.h.k.z.s.j.f.s.s.s.s.s.s.s.f.b.I.f.s.a.w.m o ;  .s.s.s.e.#               . 4 & j w.s.s.s.s.s.s.h.s.s.h.s.s.h.s.",
"s.s._ | i.s.k.k.s.s.s.s.f.s.s.s.s.f.f.s.s.s.s.s.f.g.s.s.' % .   e e.| C n. .. .               Z t.D j _ s.s.s.s.s.h.s.s.s.s.s.s.f.",
"s.j.s.} C R t.s.s.s.s.s.s.s.s.f.s.h.s.s.s.s.s.s.s.s.s.a.n .     o 0 e  .e.%                   4 p.s.} l ) s.s.s.s.s.h.s.s.s.s.s.h.",
"s.s.s.s.e.B 2 x T _ ' 9.9.q.q.u.r.u.r.r.q.8.] ' ( R F k # .   % B Z ..i.4                     X ! s.s.t.b ) s.s.s.s.s.s.s.s.s.s.s.",
"s.s.s.s.s.a.! # . o # O # $ $ e h c c h - * * $ $ # .   $ # # C s.s.s.B                         q h.s.s.e.= _ s.s.s.s.h.h.s.s.s.s.",
"s.s.s.s.s.g.x.x.e._ Q K N m z z w r m N C C Z K ! !  .t.r.v -  .s.s.! .                         . w.s.s.s.! - w.s.h.h.h.s.s.s.s.f.",
"s.j.s.s.g.k.T.R.k.s.s.s.s.s.j.g.l.h.s.s.f.s.f.s.j.s.s.s.s.s.e.s.h.t.2                             N s.s.s.h.Z j e.s.s.s.s.s.s.h.h.",
"s.s.s.s.s.g.b.v.j.j.s.s.s.s.s.s.s.s.s.s.s.s.s.s.k.s.s.s.s.s.s.s.s.} .                             + p.h.s.s.p.N ! s.f.s.s.s.s.s.s.",
"s.s.s.s.s.l.x.s.s.s.s.s.s.s.s.s.s.s.s.s.s.s.s.s.s.s.s.s.s.s.s.s.h.Z                                 ..s.s.s.s.p.e.f.j.j.J.k.s.s.f.",
"s.j.s.s.s.k.l.j.s.s.s.s.s.s.k.s.s.s.s.s.s.s.s.s.s.s.s.s.s.s.s.s.h.y                                 L s.s.s.s.s.s.s.s.g.b.g.s.s.s.",
"s.s.s.s.s.s.s.s.s.s.s.s.s.s.s.s.s.s.s.s.s.s.s.s.s.s.j.s.s.s.s.s.p.4                         X X X   w s.s.s.s.s.s.s.s.s.s.s.s.s.s.",
"s.s.s.s.s.s.j.s.s.s.s.s.s.s.s.s.h.s.s.s.s.j.k.s.s.s.s.s.s.s.s.s.p.<               X   X X . .       X p.h.s.s.s.s.s.s.s.s.s.s.s.s.",
"s.s.s.s.s.s.s.s.s.s.s.s.s.s.s.s.s.s.s.s.s.j.j.s.s.s.s.s.s.s.s.s.t.<       . X X X X X X X . .         ..s.s.s.s.s.s.s.s.s.s.s.s.s.",
"s.s.s.s.s.s.s.s.s.s.s.m.s.s.s.s.s.s.s.s.s.s.s.s.j.s.s.s.s.s.s.s.t.<       X X X X X X X .             W s.s.s.s.s.s.s.s.s.s.j.s.h.",
"s.s.s.s.s.s.s.s.s.s.s.s.s.s.s.s.s.j.s.s.s.s.s.s.j.s.s.s.j.s.s.s.t.<               X                   N n.s.s.s.j.s.s.s.s.j.j.s.h.",
"s.s.s.j.s.s.s.s.s.s.s.s.s.s.z.s.s.s.s.s.s.s.s.s.s.s.s.h.s.s.s.s.u.2                                 . w h.s.s.s.s.s.s.s.s.s.s.s.s.",
"s.s.s.s.s.s.g.s.s.s.s.s.s.s.s.s.s.j.j.s.s.s.s.s.s.s.s.s.s.s.s.s.u.0                                   % s.s.s.j.s.s.s.s.s.s.s.s.s.",
"s.s.j.v.z.s.s.s.s.s.s.s.s.s.s.s.s.s.s.z.j.s.s.s.s.s.s.s.s.s.s.s.u.e                                   X s.k.s.s.s.s.s.s.s.s.s.s.s.",
"s.s.s.l.k.s.s.g.s.s.s.s.s.j.s.s.s.s.s.s.k.s.s.s.s.g.g.J.s.s.s.s.u.h                                   . s.h.s.j.f.s.s.s.s.s.s.j.h.",
"s.s.s.s.s.s.s.s.k.k.h.s.s.s.s.s.s.s.s.s.s.s.s.s.s.s.s.g.s.s.s.h.a.l .                                   s.s.s.s.s.s.s.g.f.s.s.s.s.",
"s.g.s.s.s.s.s.s.g.s.s.s.s.s.s.s.s.s.s.s.s.s.s.s.s.s.j.s.s.s.s.s.a.l .         o                       . s.s.s.s.s.s.s.A.z.s.s.s.s.",
"s.s.s.s.s.s.s.s.s.s.s.s.s.s.j.s.s.h.s.s.s.s.s.s.s.s.g.s.s.s.s.s.a.l           o                       . s.s.s.s.s.s.s.j.f.s.s.s.s.",
"s.s.j.s.s.s.s.s.s.s.s.s.s.s.s.s.j.s.s.s.h.s.s.s.s.j.s.s.s.s.s.s.a.l .         o                     . . s.s.s.s.s.s.s.s.f.s.s.s.s.",
"s.s.J.s.s.s.s.s.s.s.s.s.s.s.s.j.M.k.f.s.s.s.s.g.f.s.s.f.s.s.s.s.i.v .       . o   . .                 o s.s.s.s.s.s.k.s.h.s.s.s.s.",
"s.s.g.s.s.s.s.s.s.s.s.s.s.s.f.v.W.v.s.s.s.f.s.s.s.s.s.f.s.s.s.s.a.v .       o m y + + .               % s.s.s.s.s.s.h.s.s.s.s.s.s.",
"s.s.s.s.s.s.s.s.s.s.s.g.M.j.g.g.l.g.s.s.b.v.s.s.s.s.s.s.s.s.s.j.i.v .       % e.s.w.K .               & h.s.s.s.s.s.s.h.s.s.s.h.s.",
"s.s.s.k.s.s.s.s.j.j.s.s.g.f.f.f.s.s.s.g.P.G.f.s.s.s.s.s.s.s.A.k.a.n .     m w.s.s.s. ..               m s.s.s.s.s.s.k.h.s.s.s.h.s.",
"s.s.s.s.s.s.z.j.s.s.s.s.f.s.s.c.s.s.g.s.k.g.s.s.s.s.s.s.s.g.D.k.s.n .   . ..k.k.s.s.e.%             . w.h.h.s.s.s.s.M.n.h.s.s.s.s.",
"s.s.s.s.s.s.s.s.s.s.s.s.s.s.s.s.s.s.s.s.s.s.s.s.s.g.s.s.s.s.s.s.h.H .   .  .S.D.j.s.e.%       .     m z.s.s.s.s.s.s.s.z.s.s.k.s.s.",
"s.s.s.s.s.s.s.s.s.s.s.j.s.s.s.s.s.s.s.s.s.s.j.v.s.s.s.s.s.s.s.s.s.] #      .s.h.s.s.i.4     . % . . m s.h.s.h.h.s.s.s.s.s.h.s.s.s.",
"s.s.s.s.s.s.s.s.s.s.k.j.s.k.N.s.s.s.s.s.j.s.s.s.s.s.s.s.g.k.s.h.f.9.#   . w.s.s.s.s.s./ y Z w. .. . N h.s.s.s.s.s.s.s.s.s.s.s.s.s.",
"s.s.s.s.s.s.s.s.s.s.s.s.s.s.f.f.s.s.j.s.s.s.s.s.s.s.g.s.s.s.s.s.s.9.$     } s.f.s.s.s.s.s.s.s.t.<   y s.h.s.s.s.s.s.s.s.s.j.h.h.s.",
"s.s.s.f.j.s.s.s.s.s.s.s.s.s.s.s.s.h.s.s.s.s.s.s.s.s.x.k.s.s.s.s.s.9.#     T s.g.s.s.s.s.s.s.s.i.2   w s.s.s.s.s.h.h.s.s.s.s.s.s.s.",
"s.s.s.s.l.s.s.s.s.s.s.s.s.s.s.s.s.s.s.s.s.s.s.h.s.f.U.A.s.s.s.s.a.A .     Z s.s.s.f.s.s.s.s.s.s.q   O s.s.s.s.s.h.h.s.s.s.s.s.h.s.",
"j.s.s.s.s.s.s.s.s.s.s.s.s.h.s.s.s.s.s.s.s.s.g.s.s.s.l.k.s.s.s.j.] $       Z f.s.s.s.s.s.s.s.s.s.r   .  .s.s.s.s.s.s.s.s.s.s.s.s.s.",
"s.s.s.s.s.s.s.s.s.s.s.s.s.s.s.s.s.s.s.h.s.s.s.s.f.s.s.s.s.s.] V 2 .   X O  .s.j.s.s.s.s.s.s.s.s.r   . k a.k.s.h.s.s.s.s.s.s.h.s.s.",
"f.s.g.l.f.s.s.f.s.s.s.s.s.s.s.h.s.s.s.h.s.s.s.v.l.g.s.s.s.a.v .   X r K w.s.s.j.s.s.s.s.s.s.s.s.w     $ 9.s.s.s.s.s.s.h.s.s.s.s.s.",
"j.s.Z.E.Z.f.s.j.h.s.s.s.s.s.s.h.s.s.s.j.s.s.g.j.s.s.s.s.s.s._ t r K i.s.s.s.s.s.s.s.s.s.s.s.s.i.2     O ] f.s.s.s.s.s.h.s.s.s.s.s.",
"s.s.x.F.j.s.s.s.s.s.s.s.s.s.s.s.s.s.s.j.j.s.s.s.s.s.s.s.k.s.s.s.f.f.s.k.k.s.s.h.f.s.s.s.f.s.k.s.w     * e.h.s.s.s.s.s.s.s.s.s.s.s.",
"s.s.f.f.s.s.s.s.f.k.s.s.s.s.s.s.s.s.s.j.s.s.s.h.s.s.s.s.s.s.s.s.h.h.s.l.M.s.s.s.s.s.s.s.s.s.s.s.w.= $ A h.j.h.s.s.s.s.s.s.s.h.h.s."
};
