/* XPM */
static char *result[] = {
/* columns rows colors chars-per-pixel */
"65 65 173 2 ",
"   c #140710",
".  c #150913",
"X  c #190914",
"o  c #150C18",
"O  c #1B0B1A",
"+  c #141018",
"@  c #19101E",
"#  c #220C1D",
"$  c #1B0C24",
"%  c #1D0D2D",
"&  c #1C1222",
"*  c #1A102B",
"=  c #1E0F33",
"-  c #1F0F3D",
";  c #1D1034",
":  c #240D22",
">  c #2C0E26",
",  c #2E0F28",
"<  c #211125",
"1  c #2E1024",
"2  c #23152B",
"3  c #2E1029",
"4  c #22192E",
"5  c #33112A",
"6  c #3D142B",
"7  c #3E1527",
"8  c #200F34",
"9  c #200F3D",
"0  c #251531",
"q  c #281633",
"w  c #2A1A36",
"e  c #24153D",
"r  c #2C1C39",
"t  c #25183C",
"y  c #331735",
"u  c #321D3D",
"i  c #3C1F3C",
"p  c #2B203C",
"a  c #40152D",
"s  c #481735",
"d  c #4C1937",
"f  c #511B34",
"g  c #551C3B",
"h  c #5D1E37",
"j  c #51203B",
"k  c #64213E",
"l  c #70263F",
"z  c #241342",
"x  c #2D1945",
"c  c #291649",
"v  c #2C1A4B",
"b  c #281545",
"n  c #2F1B50",
"m  c #301D54",
"M  c #331E5C",
"N  c #2E2141",
"B  c #322344",
"V  c #3F2E47",
"C  c #35244A",
"Z  c #39264E",
"A  c #3B2750",
"S  c #3C2A54",
"D  c #35225A",
"F  c #38245B",
"G  c #3E2D5C",
"H  c #322152",
"J  c #3B2564",
"K  c #3F2C67",
"L  c #611F40",
"P  c #47284F",
"I  c #572349",
"U  c #422D5C",
"Y  c #462956",
"T  c #5C2650",
"R  c #672242",
"E  c #6D2441",
"W  c #7C294D",
"Q  c #622E55",
"!  c #432E63",
"~  c #432C69",
"^  c #4B2C69",
"/  c #453264",
"(  c #4A3364",
")  c #453269",
"_  c #4B356C",
"`  c #4D386F",
"'  c #56306E",
"]  c #462F72",
"[  c #4D3573",
"{  c #4E3973",
"}  c #4F3778",
"|  c #463271",
" . c #513A74",
".. c #583678",
"X. c #543C7B",
"o. c #593D7D",
"O. c #692E66",
"+. c #77417A",
"@. c #892D4A",
"#. c #8B2D53",
"$. c #832951",
"%. c #932F51",
"&. c #9B3253",
"*. c #A2355C",
"=. c #A13457",
"-. c #B23A5E",
";. c #913E6F",
":. c #A83661",
">. c #AF3865",
",. c #B73B60",
"<. c #BE3D64",
"1. c #C33F6D",
"2. c #C23F66",
"3. c #BA4067",
"4. c #C64169",
"5. c #CC426C",
"6. c #CD4271",
"7. c #DB4674",
"8. c #DE4975",
"9. c #D34976",
"0. c #E04975",
"q. c #E14C79",
"w. c #543B83",
"e. c #593E82",
"r. c #593E88",
"t. c #574083",
"y. c #5A4184",
"u. c #5D428B",
"i. c #684282",
"p. c #62458D",
"a. c #784A8D",
"s. c #644794",
"d. c #664994",
"f. c #694A97",
"g. c #6D4E9E",
"h. c #714D9A",
"j. c #6F509F",
"k. c #785C94",
"l. c #6F4FA0",
"z. c #704FA3",
"x. c #6F50A1",
"c. c #7151A3",
"v. c #7553A9",
"b. c #7956AD",
"n. c #7B59AD",
"m. c #7A56B1",
"M. c #7D59B3",
"N. c #825EB5",
"B. c #835DBB",
"V. c #8661BC",
"C. c #8C68BF",
"Z. c #8965BB",
"A. c #E55F90",
"S. c #E75B8A",
"D. c #8761C0",
"F. c #8B64C3",
"G. c #8F69C6",
"H. c #8D65C9",
"J. c #926BC7",
"K. c #9067C8",
"L. c #956DCB",
"P. c #9770CD",
"I. c #9B74CE",
"U. c #9D75D1",
"Y. c #A57CDB",
"T. c #AC84DD",
"R. c #AD83E6",
"E. c #B087E2",
"W. c #B389E3",
"Q. c #BD92EA",
"!. c #B893E3",
"~. c #C298EC",
"^. c #C99CF6",
/* pixels */
"c.j.j.c.c.j.c.j.j.c.c.j.j.j.c.j.c.j.c.j.y.f.j.) s.t.s.j.x.x.c.x.c.x.x.x.x.j.j.x.x.x.x.x.j.x.j.x.j.j.x.c.j.c.c.j.j.c.c.j.j.j.j.c.x.",
"g.g.L.v.g.g.g.g.c.j.g.g.z.l.g.g.g.g.g.g.y.x e.o.~ s.! j.l.l.l.g.j.x.g.g.j.g.j.j.g.g.j.x.b.j.g.g.j.g.g.j.g.g.j.g.g.j.g.g.j.g.j.j.x.",
"x.j.g.g.g.g.g.g.j.j.g.z.W.B.g.g.g.g.g.g.g.U q i ^ f.~ g.z.F.v.g.g.g.g.x.x.g.g.g.g.g.g.g.j.g.g.g.g.j.g.g.g.g.g.g.g.g.g.g.z.z.g.g.g.",
"g.x.g.g.g.g.g.g.j.g.g.c.U.M.g.g.g.g.g.g.f.P 7 f T ' ^ g.M.Q.V.l.g.g.g.g.j.g.g.g.g.g.g.l.j.g.g.g.g.v.v.g.g.g.g.g.g.g.g.c.F.V.c.g.g.",
"g.j.g.g.g.g.g.g.g.g.g.g.c.g.g.g.l.z.z.p.Q E @.&.&.W i.g.c.M.c.l.g.j.g.g.g.g.g.g.l.l.g.g.g.g.g.g.g.g.g.g.g.g.g.g.l.l.l.z.W.Y.v.l.l.",
"g.g.g.g.g.l.c.x.g.j.g.s.u.g.g.g.h.p.Y g @.-.2.S.5.<.;.g.g.l.g.g.g.g.g.g.g.j.g.g.x.v.g.l.g.g.g.g.g.g.g.g.g.j.g.g.l.f.l.l.n.v.l.f.l.",
"g.g.g.c.c.g.g.g.g.x.g.c.K g.g.g.' x 1 h =.1.q.S.q.A.3.h.g.g.g.g.g.c.g.g.g.x.g.g.l.l.g.g.g.l.g.g.g.g.g.g.g.j.g.g.f.l.l.l.l.l.l.l.g.",
"g.g.c.c.g.g.g.g.j.g.g.l.| X.g.f.9 # a E =.1.1.0.0.8.4.a.g.g.x.g.g.g.g.g.g.g.g.g.v.x.g.g.l.g.g.g.g.g.g.g.g.j.j.g.l.l.l.l.f.l.f.l.g.",
"g.g.z.g.g.g.g.g.g.g.g.g.u.w d.g.c , a L -.1.8.8.0.7.<.o.g.g.g.g.g.g.g.g.l.l.l.l.U.H.x.l.g.g.g.g.g.g.g.g.g.g.g.g.l.l.g.g.g.g.g.x.g.",
"g.g.g.g.g.g.g.g.g.g.g.g.g.v * U u 5 a L :.7.8.0.7.2.&.I f.g.g.g.g.x.g.g.f.l.f.l.D.M.l.l.l.l.l.g.g.l.j.g.g.g.g.g.g.g.g.g.g.g.l.l.g.",
"g.g.g.g.M.c.g.g.g.g.g.g.l.u.F < : 5 6 L *.1.0.7.2.*.O.^ l.l.g.g.g.g.g.g.l.l.l.l.l.g.l.g.l.l.l.l.l.g.g.g.g.g.g.g.g.g.g.l.g.l.g.g.l.",
"g.g.g.g.g.g.g.n.x.g.l.g.g.l.J : , , 5 d $.>.1.1.-.l ..g.g.g.g.g.g.g.g.g.f.l.l.f.g.g.g.g.l.l.z.L.H.x.l.n.g.g.g.x.l.g.g.g.g.g.g.g.g.",
"g.g.g.g.g.g.g.g.g.g.v.g.g.g.b # > , , 6 g W #.#.E a M f.s.r.g.g.g.j.g.x.g.v.Y.v.l.g.g.g.g.g.m.Q.R.v.f.l.j.g.g.g.g.g.g.g.x.g.g.b.x.",
"g.g.v.g.g.j.g.g.g.g.c.g.c.g.9 O > , , , 5 s g f 6 # # b v z X.l.g.g.g.c.g.v.Q.m.g.g.g.g.g.g.l.m.m.l.l.l.g.g.g.g.g.j.x.g.g.g.x.g.g.",
"g.g.g.g.g.j.g.z.g.g.g.g.B.n.- X # > , , , 5 5 5 1 > # : : O ~ g.g.g.g.g.v.l.v.l.g.g.g.g.g.g.g.l.l.g.l.l.g.g.l.l.g.g.g.g.g.x.g.g.g.",
"g.N.v.g.j.g.g.g.g.g.g.g.l.f.b q x # > , , , 1 1 > > > : # O _ g.g.g.g.g.g.g.g.g.g.g.g.g.g.g.g.x.l.g.l.l.g.j.V.x.g.g.g.g.b.x.g.g.g.",
"l.E.B.l.l.g.g.g.x.l.g.g.g.g./ y.X.O # > > > , , , , > > : : e.j.g.g.z.z.g.g.g.g.g.j.g.j.c.j.g.j.g.g.g.c.M.j.c.g.g.x.x.g.l.g.g.g.g.",
"g.n.z.g.g.g.g.c.x.g.g.g.g.g.j.d.4 . X # > > , , , , > , > y p.g.z.z.g.g.g.g.g.g.g.g.g.g.z.N.j.g.g.g.l.l.l.g.g.g.g.l.n.g.g.g.x.g.g.",
"g.g.g.l.g.g.g.g.g.g.x.g.g.g.s.N { 2 . O > , , , , , , , 3 Y f.z.P.U.v.j.g.g.g.j.g.g.g.g.g.z.g.g.g.g.g.g.g.x.g.g.g.g.g.g.g.g.g.g.g.",
"g.g.g.z.g.g.g.g.g.g.l.g.g.g./ ) v.S + O # , , , , , , , y e.z.z.Y.E.z.g.g.g.g.g.g.g.c.g.j.g.g.g.g.g.g.g.g.x.g.g.g.l.g.g.g.j.g.g.g.",
"g.g.g.g.g.g.g.g.x.g.n.x.d.C / g.j.c.k.u > 1 1 > , > , , Y g.j.n.v.v.v.g.g.g.g.g.g.g.g.g.j.g.g.g.g.g.g.g.g.g.g.g.g.g.g.g.g.g.g.g.g.",
"j.g.g.g.g.g.g.g.x.g.x.X.G d.g.g.j.x.y.Z < # : : > > : r f.g.j.g.g.g.l.g.g.g.g.g.g.g.z.g.g.g.g.g.g.l.g.g.g.g.g.v.g.g.j.j.g.g.g.g.g.",
"c.g.g.c.b.g.g.g.t.{ /  .g.j.g.g.j._ ! < X X O O O O <  .j.j.g.g.g.g.g.g.g.g.g.g.g.g.g.g.g.v.j.g.g.g.g.l.g.g.x.g.g.g.g.g.g.g.v.x.g.",
"g.g.g.g.g.g.g.g.g.g.j.g.g.g.g.g.f.N @ .       . X X = s.x.g.g.g.g.g.g.b.z.g.g.g.j.j.g.c.g.g.g.g.g.g.l.g.g.g.l.c.c.g.v.g.g.g.g.g.g.",
"g.g.g.g.g.g.g.g.g.g.l.g.g.g.L.s.C + + .             * g.g.g.g.g.g.g.g.g.g.z.j.j.g.g.g.g.g.c.v.g.g.g.v.g.c.g.g.g.c.g.g.g.x.g.g.g.g.",
"g.g.g.g.g.g.g.g.g.g.l.v.n.g.X.t 0 ; .               * f.g.g.g.j.g.g.j.g.j.j.j.g.g.g.g.g.c.v.J.l.j.g.g.g.g.g.g.g.g.x.g.g.g.g.g.x.g.",
"g.g.g.g.l.g.n.v.g.g.g.g.g./ e U p.Z                 o  .j.g.g.g.g.g.g.g.C.m.g.g.g.j.g.g.g.g.l.g.g.g.g.l.g.l.g.g.g.g.g.g.g.g.g.g.l.",
"g.c.g.c.l.g.l.l.g.g.g.g.K v e.g.p.<               . . & u.g.g.j.g.v.g.g.v.z.g.g.g.g.g.g.g.g.g.g.g.g.g.c.g.g.g.g.g.g.x.g.g.g.g.g.x.",
"g.g.g.g.g.g.l.g.g.g.f.~ m s.g.g./                       r f.g.g.g.g.g.g.g.g.g.g.g.g.g.g.g.g.g.g.g.g.g.j.g.g.g.g.g.g.g.g.g.g.g.g.g.",
"g.g.g.g.g.g.l.l.g.g.~ e p.g.g.g.@                         G g.g.g.g.g.g.g.g.g.g.g.g.g.g.l.v.g.c.g.g.g.g.g.c.g.g.g.g.g.c.c.g.g.g.g.",
"g.g.g.g.g.l.M.M.g.} = X.j.g.g.{ .                         O X.j.g.g.g.g.g.g.g.g.g.g.g.g.c.v.g.c.g.g.g.g.g.g.g.g.g.g.g.l.g.g.g.g.l.",
"g.c.g.g.x.v.W.Q.s.e ! g.g.g.c.u . .       .                 r g.g.g.g.g.g.g.g.g.g.g.g.g.j.g.g.g.g.g.g.g.g.x.g.g.g.g.g.g.g.g.g.x.x.",
"g.g.g.g.l.l.M.B.~ G g.g.g.g.d.X                             O y.g.g.g.g.g.g.g.g.g.g.g.g.g.g.g.g.v.c.x.l.g.g.g.g.g.g.g.g.g.g.g.g.g.",
"g.g.g.g.l.n.M.g.y.f.g.g.g.g.` X                               ( g.g.g.g.g.n.z.g.g.g.g.g.g.g.g.g.x.x.g.g.g.g.g.g.g.x.l.v.I.v.g.g.l.",
"g.c.g.g.f.v.n.c.l.g.g.g.g.g.C                                 C z.g.g.g.v.^.M.l.g.g.l.l.g.g.g.g.g.g.g.g.g.g.g.j.l.g.g.x.V.l.g.g.g.",
"g.g.g.l.l.l.g.g.g.g.g.g.g.g.< . X X X                         r g.g.g.g.l.M.z.g.g.l.l.x.g.g.g.g.g.g.g.g.g.g.g.g.g.g.g.g.l.g.g.g.g.",
"g.g.g.g.g.g.c.g.g.g.g.g.g.p..     X X X X X                   0 f.g.g.l.l.l.l.f.g.g.x.x.x.M.v.l.g.g.g.l.g.g.g.g.g.g.g.g.g.g.g.g.g.",
"g.g.g.g.g.g.g.g.g.g.g.x.g.(         X X X X X X X     X   X   2 f.g.g.l.l.l.l.l.g.g.l.l.m.Q.H.l.g.g.g.g.g.g.g.g.g.g.g.g.g.g.g.g.g.",
"g.g.g.g.g.g.g.g.g.g.g.B.g.Z             X X X X X X X X       2 s.x.l.l.l.l.l.f.g.g.l.l.x.B.v.l.g.g.g.g.g.j.j.g.g.g.g.g.g.l.l.l.x.",
"g.g.g.l.g.g.g.g.g.g.g.g.j.r                   X   X           4 d.v.l.l.f.l.l.l.g.g.l.l.l.l.l.g.g.g.g.g.M.x.g.g.x.g.g.g.g.c.l.g.x.",
"g.g.g.x.g.g.g.g.g.g.g.g.g.<                                   0 f.l.l.g.g.g.g.g.g.l.g.g.g.g.g.g.g.g.g.g.x.g.g.g.l.g.g.g.g.g.g.g.g.",
"g.g.g.g.g.g.c.l.g.g.g.g.g.O                                 . z s.l.l.l.g.g.g.g.g.x.v.l.g.g.g.g.g.x.g.g.g.g.x.x.g.g.g.g.g.g.g.g.g.",
"g.g.l.B.n.g.g.g.g.g.g.g.d..                                   c s.g.g.x.x.g.g.g.l.L.Q.v.g.g.g.g.g.g.g.g.l.v.g.g.g.g.g.g.g.g.g.g.g.",
"g.g.g.v.v.g.g.l.j.g.g.g.s..                                   c f.g.g.g.g.g.g.g.l.v.B.v.g.g.x.g.g.g.g.g.g.g.j.x.g.g.g.g.g.g.l.x.x.",
"g.g.g.g.g.g.g.g.v.c.x.g.p.                                  . M g.g.g.g.g.g.x.j.g.g.g.g.g.g.g.g.g.c.g.g.l.g.g.g.g.g.x.x.l.g.g.g.g.",
"g.l.g.g.g.g.g.g.x.g.j.g.p.                        o         . n f.g.g.g.l.v.M.g.g.g.g.g.g.g.g.g.g.g.g.g.l.g.g.g.g.g.l.F.b.g.g.g.g.",
"g.g.g.g.g.g.g.g.g.g.g.g.s.                      o +         . n g.l.l.g.g.x.v.g.g.g.g.g.g.l.x.l.g.g.g.g.g.g.g.g.g.g.g.x.l.g.g.g.g.",
"g.g.c.g.g.g.g.g.j.g.g.j.f..                       +         . M s.x.l.g.g.l.g.g.g.g.g.g.g.g.x.l.g.g.g.g.g.g.g.g.g.g.g.g.l.x.g.g.g.",
"g.l.P.l.g.g.g.g.j.g.g.g.f.o .               . . . +         . M g.g.g.g.g.g.g.g.g.g.g.g.g.g.j.N.g.g.g.g.g.g.g.g.g.g.c.g.l.g.g.g.g.",
"g.g.l.g.g.g.g.g.g.g.g.g.f.o                 & & p p .       . M f.g.g.g.g.g.j.v.v.g.g.g.g.g.g.j.x.x.g.g.g.g.g.g.g.g.c.g.g.g.g.z.g.",
"g.g.g.l.g.g.g.g.g.g.g.l.V.@               . ` t.j.o.+       X D f.g.g.g.g.g.z.g.g.g.g.g.g.g.g.g.g.x.g.g.j.g.g.g.g.g.g.l.g.g.g.c.l.",
"g.g.g.v.g.g.g.j.j.c.g.g.c.r               @ u.j.j.j.y.p     . D g.g.g.g.g.g.g.g.g.g.g.g.g.z.z.g.g.g.g.g.g.g.g.g.g.g.v.c.g.g.g.g.g.",
"g.g.g.g.g.g.b.c.g.g.g.g.g.( o             2 d.g.g.g.g.{     X D g.g.g.g.g.g.v.v.g.g.g.g.g.g.g.g.g.g.b.v.j.j.g.g.g.g.V.V.g.g.g.g.g.",
"g.g.g.g.g.g.g.g.g.g.g.j.g.g.4     .       2 d.g.j.x.g.`     O | g.z.g.g.g.g.G.J.v.g.g.g.g.g.g.g.g.g.n.b.g.g.g.g.g.g.g.n.g.g.v.g.g.",
"g.g.g.g.g.g.g.g.g.g.j.c.j.j.r . . & .     w g.M.g.g.g.{     $ r.g.g.z.g.g.g.g.g.g.g.g.g.g.g.g.g.g.g.g.g.j.g.j.c.g.g.g.g.g.c.g.g.g.",
"g.g.g.g.g.g.g.g.g.g.v.x.g.c.V   O t.t.A B X.g.g.g.g.g.{     % u.j.g.v.N.g.j.g.g.g.g.g.g.g.g.g.g.g.L.v.g.g.g.g.g.g.g.g.g.g.g.g.g.g.",
"g.g.g.g.g.g.g.g.g.g.g.g.g.g.0   2 f.l.g.g.g.g.g.g.g.c.(     8 r.g.g.g.g.g.j.g.c.g.g.g.g.g.g.g.g.j.z.g.g.j.j.g.g.g.g.g.g.g.c.c.g.g.",
"g.g.g.l.x.g.g.g.g.g.g.g.g.g.&   r f.l.l.g.l.g.g.g.l.m.Y     % r.g.g.g.g.g.g.g.j.g.j.g.g.g.g.g.g.g.g.g.g.j.g.g.g.j.j.g.g.g.g.g.g.g.",
"g.g.g.l.v.l.g.g.g.g.g.g.g.s.. . B g.g.g.g.g.g.l.g.l.T.(     o J g.g.g.g.g.g.g.g.g.j.g.g.g.g.g.g.c.j.g.g.g.g.g.g.j.c.g.g.g.g.g.z.g.",
"x.g.g.g.g.g.g.g.g.g.g.g.g._ .   S l.h.j.g.g.l.g.g.l.b.Z       = w.g.g.g.g.g.z.g.g.g.g.g.g.g.g.g.v.g.g.g.g.g.g.j.g.g.g.g.g.g.g.g.g.",
"g.g.g.g.l.g.g.g.g.l.f.l.f.e     S g.j.j.j.g.g.j.l.g.g.[ O     . 0 D w.g.g.g.g.c.g.g.g.g.g.g.g.g.g.g.g.j.g.c.z.j.j.g.g.g.g.g.j.g.g.",
"x.g.v.v.l.l.g.l.l.l.l.l.} $     N g.g.j.g.g.g.M.n.l.g.g.X.U r X   o F g.g.g.g.c.g.g.g.g.g.g.g.z.g.g.g.g.g.g.g.g.g.g.g.g.g.g.g.g.g.",
"c.g.D.!.D.l.g.l.l.g.f.l.] o     r g.g.c.g.g.g.c.g.g.g.g.l.l.s.U w w } g.g.g.g.g.j.g.g.g.g.g.g.g.g.g.g.g.g.g.g.g.g.g.g.z.g.g.g.g.g.",
"g.g.m.H.x.g.g.g.g.g.l.l.w.$     B g.g.c.c.g.g.g.g.g.g.g.v.f.l.f.l.l.g.c.b.g.g.j.g.g.g.j.g.g.v.g.g.h.n.g.g.z.g.g.g.g.g.g.g.g.g.j.g.",
"g.g.l.g.g.g.g.g.x.v.g.g.g.n % t s.j.g.x.j.g.g.x.g.g.g.g.g.g.g.g.x.x.g.m.Z.g.g.g.g.g.g.g.g.g.g.g.g.g.l.g.g.c.j.g.g.g.g.g.g.g.x.g.g."
};
