/* XPM */
static char *result[] = {
/* columns rows colors chars-per-pixel */
"65 65 190 2 ",
"   c #520E7D",
".  c #2F0847",
"X  c #28083C",
"o  c #3D0B5D",
"O  c #2C0843",
"+  c #15041F",
"@  c #500E79",
"#  c #27073C",
"$  c #460C6B",
"%  c #400B62",
"&  c #0B0310",
"*  c #370A54",
"=  c #200531",
"-  c #500E7A",
";  c #490D6F",
":  c #0D0314",
">  c #2D0845",
",  c #180524",
"<  c #250738",
"1  c #1E062D",
"2  c #0E0314",
"3  c #470C6C",
"4  c #0A020E",
"5  c #2B0842",
"6  c #4F0D78",
"7  c #4A0D70",
"8  c #0C0212",
"9  c #4D0D76",
"0  c #4E0D76",
"q  c #34094F",
"w  c #060109",
"e  c #3E0B5E",
"r  c #470C6B",
"t  c #09020E",
"y  c #12031B",
"u  c #3B0A59",
"i  c #33094E",
"p  c #480C6E",
"a  c #010101",
"s  c #440C68",
"d  c #370A53",
"f  c #300949",
"g  c #230635",
"h  c #1F062F",
"j  c #190526",
"k  c #150420",
"l  c #14031E",
"z  c #12041A",
"x  c #100317",
"c  c #0E0315",
"v  c #0C0213",
"b  c #0C0312",
"n  c #010001",
"m  c black",
"M  c #2C0842",
"N  c #33094D",
"B  c #0B0311",
"V  c #450C69",
"C  c #4B0D72",
"Z  c #27073B",
"A  c #2A0740",
"S  c #410B63",
"D  c #250737",
"F  c #13031D",
"G  c #040206",
"H  c #08010D",
"J  c #100318",
"K  c #1C052A",
"L  c #29073F",
"P  c #29073E",
"I  c #28073C",
"U  c #210632",
"Y  c #170424",
"T  c #0D0214",
"R  c #040105",
"E  c #08020C",
"W  c #030103",
"Q  c #160421",
"!  c #440C67",
"~  c #060209",
"^  c #200631",
"/  c #34094E",
"(  c #510E7C",
")  c #400B61",
"_  c #3F0B5F",
"`  c #010002",
"'  c #2B0841",
"]  c #4C0D74",
"[  c #26073A",
"{  c #020103",
"}  c #29073D",
"|  c #3A0A59",
" . c #480C6D",
".. c #0C0313",
"X. c #4F0E79",
"o. c #0F0216",
"O. c #2D0844",
"+. c #2F0848",
"@. c #170423",
"#. c #07010A",
"$. c #4D0D75",
"%. c #2B0840",
"&. c #230736",
"*. c #1C052B",
"=. c #460C6A",
"-. c #020102",
";. c #4E0D77",
":. c #28073D",
">. c #020002",
",. c #32094C",
"<. c #31094B",
"1. c #510E7B",
"2. c #390A57",
"3. c #0E0216",
"4. c #3D0A5D",
"5. c #110319",
"6. c #13041D",
"7. c #190525",
"8. c #0F0316",
"9. c #430C67",
"0. c #020003",
"q. c #420C64",
"w. c #3D0B5C",
"e. c #350950",
"r. c #240736",
"t. c #4B0D73",
"y. c #32084B",
"u. c #09010E",
"i. c #260638",
"p. c #340A50",
"a. c #2A0840",
"s. c #1A0527",
"d. c #190426",
"f. c #0A020F",
"g. c #14041F",
"h. c #350951",
"j. c #1A0428",
"k. c #3D0A5C",
"l. c #490C6F",
"z. c #1E062E",
"x. c #11031B",
"c. c #13031C",
"v. c #300849",
"b. c #07010B",
"n. c #030105",
"m. c #340950",
"M. c #4C0D73",
"N. c #050107",
"B. c #4A0D71",
"V. c #380A55",
"C. c #09020D",
"Z. c #050108",
"A. c #13041C",
"S. c #500E7B",
"D. c #07020A",
"F. c #220633",
"G. c #170523",
"H. c #2E0846",
"J. c #040106",
"K. c #3A0A58",
"L. c #1E052E",
"P. c #3B0A5A",
"I. c #350A50",
"U. c #08010C",
"Y. c #390A56",
"T. c #3C0B5C",
"R. c #1D062C",
"E. c #0F0317",
"W. c #230735",
"Q. c #1D052D",
"!. c #09010D",
"~. c #06010A",
"^. c #07020B",
"/. c #26063A",
"(. c #360952",
"). c #4E0D78",
"_. c #250638",
"`. c #0B0211",
"'. c #490D70",
"]. c #1F052F",
"[. c #030004",
"{. c #300848",
"}. c #12041B",
"|. c #3F0B60",
" X c #2E0847",
".X c #420B64",
"XX c #32094B",
"oX c #520E7C",
"OX c #31094A",
"+X c #210633",
/* pixels */
"                                                                  . X         o                                                   ",
"                                                                O + @         # $                                                 ",
"                                                              % & o           * = -                                               ",
"                                                            ; : >             - , < @                                             ",
"                                                          - 1 2 -               3 4 5 6                                           ",
"                                                          7 8 1       9 0         q w e                                           ",
"                                                          r t y       u i         p a i                                           ",
"                      - s d f g h j k k l z x c v 8 8 v 2 b n m 1 M N + B V     C Z m A                                           ",
"                S D F G m m m m H J k K < L P L L P L I U Y T m m m m m m m R y E m m W Q 5 !                                     ",
"                ~ + ^ L / S ; (                             3 R m m m m m m m m m m m m m m a )                                   ",
"                                                              _ n m m m m m m + ` m D < m m m R t '                               ",
"                                                            ] [ m m m m m m { o Z m + g m m m } | )                               ",
"                                                             .B m m m m m m ..( X.o.m ` m m m O.                                  ",
"                                                        9 % , m m m m m m m a ;   +.m m m m m B f                                 ",
"                                                       .@.#.m m m m m m m m m r $.%.m m m m m m &.                                ",
"                                                      X.*.m m m m m m m m m a =.Q -.m m m m m B ;.                                ",
"                                                    - :.>.m m m m m m m m m m K m m m m m m a ,.                                  ",
"                                                    ( <.m m m m m m m m m m m m m m m m m n K 1.                                  ",
"                                                      2.m m m m m m m m m m m m m m m n 3.A X.                                    ",
"                                                      4.m m m m m m m m m m m m m m 5.d (                                         ",
"                                                      s #.m m m m m m m m m m m m 6.-                                             ",
"                                                      6 7.m m m m m m m m m m m m 8.6                                             ",
"                                                        9.b m m m m m m m m m m m m  .                                            ",
"                                                          i 0.m m m m m m m m m m m q.                                            ",
"                                                          $.F m m m m m m m m m m m w.                                            ",
"                                                            O a m m m m m m m m m m o                                             ",
"                                                            e.m m m m m m m m m m m =.                                            ",
"                                                            r.m m m m m m m m m m R -         t.e                                 ",
"                                                            S m m m m m m m m m m Q (     6 y.u.i.                                ",
"                                                            e m m m m m m m m m m m ! X.p.c { a.(                                 ",
"                                                            i m m m m m m m m m m m s.d.f.g.h.;.                                  ",
"                                                          ;.j.m m m m m m m m m m m E r.k.0                                       ",
"                                                        l.z.0.m m m m m m m m m m m k p                                           ",
"                                                    ( e x.m m m m m m m m m m m m m c.3                                           ",
"                                                    v.b.m m m m m m m m m m m m m m n.m.                                          ",
"                                                M.K m m m m m m m m m m m m m m m m m N.O B.                                      ",
"                                              V.C.m m m m m m m m m m m m m m m m m m m m Z.h.                                    ",
"                                        ( | A.{ R m m m m m m m m m m m m m m m m m m m m m -.S.                                  ",
"                                    ( w.+ D.F.r l m m m m m m m m m m m m m m m m m m m m m m 4 [ (                               ",
"                                  =.*.G G.V S.[ m m m m m m m m m m m m m m m m m m m m m m m m m '                               ",
"                                H.b Q h.$.- I 0.m m m m m m m m m m m m m m m m m m m m m m m m m J.K.-                           ",
"                                L.P.X.    B.2 m m m m m m m m m m m m m m m m m m m m m m m m m m m 4 %                           ",
"                                S.        1.< 0.m m m m m m m m m m m m m m m m m m m m m m m m m m , $                           ",
"                                            - ,.#.m m m m m m m m m m m m m m m m m m m m m m m m m u                             ",
"                                                I.n m m m m m m m m m m m m m m m m m m m m m m m m *                             ",
"                                                ^ m m m m m m m m m a U.Q Q J ` m m m m m m m m m m 0                             ",
"                                              2.m m m m m m m m m v Y.X.      X.T.Q m m m m m m m m :.$.                          ",
"                                              R.m m m m m m m m E.$.                W.n.m m m m m m Q.t.                          ",
"                                          ( u ` m m m m m m m m |                   ( ^ >.m m m m !.;.                            ",
"                                          | ~.m m m m m m m m Q -                     ) ^.m m m m '                               ",
"                                        3 E.m m m m m b.y /.(.t.                    6 [ n m m m 2 0                               ",
"                                      0 *.m m m m m 7.9.;.                          > J.m m m R T.                                ",
"                                    )._.>.m m m m `.'.                              ].m m m m Q (                                 ",
"                                    O.J.m m m m b.d                                 O.[.m m m D.S                                 ",
"                                  [ m m m m J.{.;.                                  S._ O.}.m m f.]                               ",
"                                * a m m m m i                                             ( K.v m U.H.|.(                         ",
"                                + m m m m y 9                                                 X.O.& m n  X                        ",
"                                , m m m m {.                                                      S.9..X]                         ",
"                                XXm m m J.)                                                                                       ",
"                                X.w m m }.0                                                                                       ",
"                                ( N.m m F.                                                                                        ",
"                                @ W m m A                                                                                         ",
"                                  [ m m g                                                                                         ",
"                                  oXOXZ.Y                                                                                         ",
"                                      V.+X                                                                                        "
};
