/* XPM */
static char *result[] = {
/* columns rows colors chars-per-pixel */
"65 65 137 2 ",
"   c #520E7D",
".  c #2E0846",
"X  c #4C0D74",
"o  c #4B0D71",
"O  c #0D0313",
"+  c #2F0945",
"@  c #030104",
"#  c #010101",
"$  c #3F0B60",
"%  c #08020C",
"&  c #2A073F",
"*  c #4D0D76",
"=  c #0D0413",
"-  c #0F0317",
";  c #4B0D73",
":  c black",
">  c #07010A",
",  c #4C0D73",
"<  c #190526",
"1  c #4E0D78",
"2  c #2D0844",
"3  c #3E0B5F",
"4  c #14031E",
"5  c #29073E",
"6  c #32094C",
"7  c #3D0B5D",
"8  c #430C66",
"9  c #33094D",
"0  c #09020D",
"q  c #1C062A",
"w  c #180525",
"e  c #1D062B",
"r  c #210832",
"t  c #250738",
"y  c #2A083F",
"u  c #2F0947",
"i  c #3C0B5C",
"p  c #3D0A5E",
"a  c #4A0E71",
"s  c #430C65",
"d  c #0E0415",
"f  c #1E062C",
"g  c #1F062F",
"h  c #010001",
"j  c #020102",
"k  c #020202",
"l  c #3D0A5D",
"z  c #500E7A",
"x  c #20062F",
"c  c #0D0412",
"v  c #470C6C",
"b  c #1A0527",
"n  c #040105",
"m  c #300848",
"M  c #480C6E",
"N  c #380A54",
"B  c #180523",
"V  c #240736",
"C  c #420B64",
"Z  c #2C0842",
"A  c #400B62",
"S  c #09020E",
"D  c #1C0529",
"F  c #29073F",
"G  c #1F0630",
"H  c #0C0313",
"J  c #3D0B5C",
"K  c #34094E",
"L  c #060309",
"P  c #190524",
"I  c #4A0D71",
"U  c #3C0B5B",
"Y  c #12031A",
"T  c #100318",
"R  c #4E0D77",
"E  c #050107",
"W  c #0F0316",
"Q  c #15041F",
"!  c #160421",
"~  c #490C6F",
"^  c #250737",
"/  c #400B61",
"(  c #230634",
")  c #380A55",
"_  c #4F0D78",
"`  c #1C052A",
"'  c #170424",
"]  c #3A0A58",
"[  c #060208",
"{  c #28073D",
"}  c #460C6A",
"|  c #26063A",
" . c #28073C",
".. c #190426",
"X. c #200631",
"o. c #0C0312",
"O. c #040206",
"+. c #4E0D76",
"@. c #500E79",
"#. c #180524",
"$. c #490D6F",
"%. c #1A0427",
"&. c #160422",
"*. c #440C67",
"=. c #2E0847",
"-. c #0E0216",
";. c #260739",
":. c #510E7C",
">. c #4D0D75",
",. c #050207",
"<. c #34094F",
"1. c #510E7B",
"2. c #010002",
"3. c #33094E",
"4. c #250639",
"5. c #030004",
"6. c #07030A",
"7. c #230735",
"8. c #0B0310",
"9. c #3A0A59",
"0. c #2B0841",
"q. c #060209",
"w. c #450C69",
"e. c #0A010E",
"r. c #1F052F",
"t. c #050208",
"y. c #0A020E",
"u. c #1E062D",
"i. c #2F0848",
"p. c #390A56",
"a. c #2F0847",
"s. c #27073B",
"d. c #0B0211",
"f. c #120319",
"g. c #440C68",
"h. c #4A0D70",
"j. c #15041E",
/* pixels */
"                                                                  .                                                               ",
"                                                      X o         O +                                                             ",
"                                                      @             # #                                                           ",
"                                                  $ % &             * = -                                                         ",
"                                                ; : >                   # ,                                                       ",
"                                                @ <           1         # 2                                                       ",
"                                                : 3           4         : 5                                                       ",
"                                                : 6         7 #     8 9 : 0 q < w w < < e r t y y u i p a                         ",
"                                            s d : : : f g : : : : : : : : : : : # : h j : # # # : : : : : : : k w 3               ",
"                                        l : : : : : : : : : : : : : : : #                               z p x c # : : #           ",
"                                  v b n : : : : m : : # # : : : : : : # M                                                         ",
"                                    N   B : : : V : # C Z : : : : : : : A                                                         ",
"                                        S : : : : : D     : : : : : : : F                                                         ",
"                                      G # : : : : H     J : : : : : : : : K                                                       ",
"                                      L : : : : : P I   U : : : : : : : : # : Y                                                   ",
"                                        : : : : : : # T p : : : : : : : : : : R                                                   ",
"                                        E : : : : : : : l : : : : : : : : : : W                                                   ",
"                                        * : : : : : : : : : : : : : : : : : : # *                                                 ",
"                                          l : : : : : : : : : : : : : : : : : #                                                   ",
"                                              ; k : : : : : : : : : : : : : : :                                                   ",
"                                                  Q # : : : : : : : : : : : : !                                                   ",
"                                                  O : : : : : : : : : : : : : ~                                                   ",
"                                                  # : : : : : : : : : : : : ^                                                     ",
"                                                  : : : : : : : : : : : : :                                                       ",
"                                                  : : : : : : : : : : : : /                                                       ",
"                                                  : : : : : : : : : : : #                                                         ",
"                                                  : : : : : : : : : : : :                                                         ",
"                                                  : : : : : : : : : : : :                                                         ",
"                                      : (         ) # : : : : : : : : : #                                                         ",
"                                      _ # # 7     # : : : : : : : : : : :                                                         ",
"                                          ` # : ' : : : : : : : : : : : #                                                         ",
"                                              ] [ : : : : : : : : : : : : _                                                       ",
"                                                { : : : : : : : : : : : : # }                                                     ",
"                                                F : : : : : : : : : : : : : : |                                                   ",
"                                                # : : : : : : : : : : : : : : : E                                                 ",
"                                               .: : : : : : : : : : : : : : : : # ..                                              ",
"                                           .# : : : : : : : : : : : : : : : : : : : k X.                                          ",
"                                          : : : : : : : : : : : : : : : : : : : : : : : # v                                       ",
"                                      6 o.: : : : : : : : : : : : : : : : : : : : : : K Z : O.+.                                  ",
"                                  @.#.: : : : : : : : : : : : : : : : : : : : : : : : : $.  X.# S z                               ",
"                                  : : : : : : : : : : : : : : : : : : : : : : : : : : : #       %.# &.*.                          ",
"                                0 : : : : : : : : : : : : : : : : : : : : : : : : : : : : =.        -.Q                           ",
"                                ;.: : : : : : : : : : : : : : : : : : : : : : : : : : : : :.                                      ",
"                                  : : : : : : : : : : : : : : : : : : : : : : : : : : : >.                                        ",
"                                  : : : : : : : : : : : : : : : : : : : : : : : : : ,.<.                                          ",
"                                  # : : : : : : : : : : : # # : : : : : : : : : : : &.1.                                          ",
"                                  : : : : : : : : # 2.3.        $ # : : : : : : : : : #                                           ",
"                                4.: : : : : : : #                   5.: : : : : : : : : M                                         ",
"                                  0 : : : : : : z                     < : : : : : : : : O.                                        ",
"                                  ; 6.: : : : 7.                        # : : : : : : : : 8.                                      ",
"                                    :.: : : : #                           9.S : : : : : : : 9                                     ",
"                                      0.: : : : q.                              w.: : : : : # >.                                  ",
"                                        # : : : :                                 e.: : : : : :                                   ",
"                                      R # : : : :                                 / : : : : : : r.                                ",
"                                      : : : # &.;                                     *.t.: : : : g                               ",
"                                  g : : # >.                                              # : : : : ]                             ",
"                              y.: : # u.                                                  i.: : : : # =.                          ",
"                              p.a.X                                                         # : : : : s.                          ",
"                                                                                            d.: : : f.1.                          ",
"                                                                                            g.: : :                               ",
"                                                                                              : : :                               ",
"                                                                                              : : : h.                            ",
"                                                                                              : : j.                              ",
"                                                                                              : : :.                              ",
"                                                                                              :                                   "
};
