/* XPM */
static char *result[] = {
/* columns rows colors chars-per-pixel */
"65 65 172 2 ",
"   c #140710",
".  c #150913",
"X  c #190915",
"o  c #170A19",
"O  c #1B0C1A",
"+  c #16101B",
"@  c #19101E",
"#  c #230B1E",
"$  c #1B0C22",
"%  c #1C0D2B",
"&  c #1F1325",
"*  c #1F1328",
"=  c #1D0D32",
"-  c #1F1033",
";  c #1F1038",
":  c #250D22",
">  c #2C0E26",
",  c #200D29",
"<  c #2E0F28",
"1  c #221226",
"2  c #23142B",
"3  c #2E1129",
"4  c #241A2D",
"5  c #33112A",
"6  c #3A132B",
"7  c #3C192F",
"8  c #341126",
"9  c #251333",
"0  c #271A33",
"q  c #2A1A35",
"w  c #25143D",
"e  c #2B1739",
"r  c #271E38",
"t  c #2A1B3B",
"y  c #321634",
"u  c #341638",
"i  c #371839",
"p  c #2D203E",
"a  c #48182F",
"s  c #4C1935",
"d  c #491A38",
"f  c #491734",
"g  c #561C38",
"h  c #5D1E3E",
"j  c #642139",
"k  c #291744",
"l  c #281549",
"z  c #2B1A4B",
"x  c #291944",
"c  c #311F41",
"v  c #301E4A",
"b  c #341F55",
"n  c #322246",
"m  c #32214B",
"M  c #39254D",
"N  c #36284F",
"B  c #342255",
"V  c #3C2750",
"C  c #3D2A55",
"Z  c #3A265C",
"A  c #3E2C5B",
"S  c #3A2561",
"D  c #3D2768",
"F  c #3C2B61",
"G  c #531F51",
"H  c #5C2A4C",
"J  c #442A57",
"K  c #412E5D",
"L  c #5C2754",
"P  c #41305F",
"I  c #642342",
"U  c #6F2448",
"Y  c #7C2945",
"T  c #77264B",
"R  c #7B2A50",
"E  c #452E64",
"W  c #422C6B",
"Q  c #453163",
"!  c #4A3165",
"~  c #45316B",
"^  c #4C356D",
"/  c #503162",
"(  c #473175",
")  c #4B3474",
"_  c #4D357C",
"`  c #4F3A74",
"'  c #503770",
"]  c #513A75",
"[  c #553C7B",
"{  c #583E7E",
"}  c #603B7D",
"|  c #5B437E",
" . c #822B4B",
".. c #8A2D4C",
"X. c #912F4E",
"o. c #862C51",
"O. c #8E2E52",
"+. c #983152",
"@. c #943059",
"#. c #9B385E",
"$. c #9E335C",
"%. c #AD385B",
"&. c #953964",
"*. c #A63561",
"=. c #B73B61",
"-. c #BA3C63",
";. c #BD3D6B",
":. c #C33E6C",
">. c #C33F66",
",. c #9A4374",
"<. c #C54067",
"1. c #C7446C",
"2. c #D2446E",
"3. c #CE4272",
"4. c #D64573",
"5. c #DC4775",
"6. c #D64872",
"7. c #DE4874",
"8. c #E1507E",
"9. c #563C85",
"0. c #593D81",
"q. c #593E8B",
"w. c #613F81",
"e. c #5C4185",
"r. c #5E438A",
"t. c #61458C",
"y. c #664385",
"u. c #634692",
"i. c #654994",
"p. c #694A97",
"a. c #6D4E9E",
"s. c #734C98",
"d. c #6F4FA0",
"f. c #704FA3",
"g. c #6F50A1",
"h. c #7151A3",
"j. c #7553A9",
"k. c #7956AD",
"l. c #7B59AD",
"z. c #7A56B2",
"x. c #7D5AB3",
"c. c #894885",
"v. c #815EB6",
"b. c #835DBC",
"n. c #8661BC",
"m. c #8A65BD",
"M. c #8D6BBD",
"N. c #E25583",
"B. c #E35987",
"V. c #855FC3",
"C. c #8761C0",
"Z. c #8C65C4",
"A. c #8F69C5",
"S. c #9067C8",
"D. c #956ECB",
"F. c #906BC4",
"G. c #9770CD",
"H. c #9A73CF",
"J. c #956AD2",
"K. c #9D75D2",
"L. c #A67DDD",
"P. c #A97EDE",
"I. c #A27AD5",
"U. c #AC84DD",
"Y. c #B087E2",
"T. c #B289E2",
"R. c #B88DE9",
"E. c #BE93EB",
"W. c #B893E3",
"Q. c #C49CEC",
"!. c #C99BF3",
"~. c #D0A7F7",
/* pixels */
"h.g.g.g.g.g.g.g.g.g.g.h.g.g.h.g.g.g.g.g.g.g.g.g.g.g.g.g.h.g.h.g.h.h.a.g.h.a.i.s.e.t.g.a.p.g.g.a.g.g.g.g.g.g.h.g.g.h.g.g.h.g.g.g.g.",
"a.a.D.j.a.a.a.a.h.g.a.a.g.g.a.a.a.a.a.a.g.g.a.a.g.a.a.a.a.a.g.g.a.a.a.a.a.p.A i.b a.) Z h.g.a.a.a.a.a.g.a.a.g.a.a.g.a.a.g.a.g.a.g.",
"g.a.g.a.a.a.a.a.g.a.a.h.T.b.s.g.a.a.a.a.a.a.a.a.a.a.a.a.h.C.k.a.a.a.a.g.f.t.) i.u ~ 1 0.g.a.a.a.a.s.a.a.a.a.a.a.a.a.a.a.g.g.g.a.a.",
"g.g.a.a.a.a.a.a.g.a.a.g.K.x.a.a.a.a.a.a.a.g.a.a.a.a.a.a.x.E.n.g.a.a.a.g.a.u.E { d 7 5 t.g.a.a.a.a.j.j.a.a.a.a.a.a.a.a.g.Z.m.g.a.a.",
"a.a.a.a.a.a.a.a.a.a.a.a.g.a.a.a.a.h.a.a.j.V.d.a.a.a.a.a.h.v.h.a.a.g.a.a.a.a.L R ..Y j H w.a.a.a.a.a.a.a.a.a.a.a.a.a.d.f.T.L.f.d.d.",
"a.a.a.a.a.g.h.g.a.g.g.g.g.a.a.a.a.a.a.d.b.Y.k.a.a.a.a.a.a.a.a.a.a.a.a.a.a.s.#.-.<.<.%.X.I / t.a.a.a.a.g.e.a.a.a.a.a.d.d.k.j.d.d.d.",
"a.a.a.h.h.a.a.a.a.g.a.h.a.a.a.a.a.a.a.a.j.j.d.a.l.g.g.a.a.a.a.a.a.g.a.a.a.c.2.N.8.B.2.=. .6 y ) p.a.a.r._ g.a.a.a.a.a.a.a.a.d.d.a.",
"a.a.g.h.a.a.a.g.a.a.a.a.a.g.a.a.a.a.a.a.a.a.a.a.h.a.a.a.a.a.a.a.a.a.a.a.a.,.6.N.7.7.2.-. .a > 9 e.g.a.A u.g.g.a.d.a.a.a.a.a.a.a.a.",
"a.a.a.a.a.a.a.a.a.a.a.a.a.a.a.a.a.a.a.a.a.a.a.a.a.a.a.a.a.a.a.a.a.a.a.a.a.&.:.7.7.7.4.-.o.s 8 9 9.g.e.m a.a.a.a.a.a.a.a.a.a.a.g.a.",
"a.a.a.a.a.a.a.a.a.a.a.a.a.h.a.a.a.d.a.a.a.a.a.a.a.a.a.a.a.a.a.a.g.a.a.a.w.Y >.4.7.7.5.:.o.s 5 u ` ^ & ) a.a.a.a.a.a.a.a.a.a.d.g.a.",
"a.a.a.a.v.g.a.a.a.a.a.a.a.a.a.a.d.d.a.a.a.a.a.d.a.a.a.a.a.a.a.a.a.a.a.a.{ G &.>.5.7.4.:.o.s 5 < O * D a.a.a.a.a.a.a.a.d.d.a.d.a.d.",
"a.a.a.a.a.a.a.l.h.a.a.a.a.a.a.a.a.a.a.a.a.a.f.z.j.a.a.a.a.a.a.a.a.a.a.a.a.i.L +.:.:.:.*.U 6 8 < : k u.l.a.a.a.g.d.a.a.a.a.a.a.a.a.",
"a.a.a.a.a.a.a.a.a.a.h.a.a.a.a.a.a.a.a.a.d.f.V.~.J.d.d.d.a.a.a.a.a.g.g.g.a.p.i j @.$.@.T s 5 < < : , 9.f.g.a.a.a.a.a.a.a.g.a.a.k.d.",
"a.a.j.a.a.a.a.a.a.a.g.a.h.h.a.a.d.a.a.a.d.f.V.!.J.d.a.a.a.a.a.a.a.a.D z _ l # 6 g I h f 5 < < < # $ ( a.a.a.a.a.a.a.g.a.a.a.g.a.a.",
"a.a.a.a.a.g.a.a.a.a.a.a.n.n.a.a.a.a.a.a.a.d.f.z.j.d.a.a.a.a.a.a.a.u.x O % : # > 8 6 6 < < < < : O $ W f.a.a.g.g.a.a.a.a.a.a.a.a.a.",
"a.v.j.a.a.g.a.h.a.a.a.a.a.a.a.a.a.a.a.a.a.a.a.d.d.a.a.a.a.a.j.a.a.u.e O # : : > < < < < < < : > < , W a.a.a.n.g.a.a.a.a.k.g.a.a.a.",
"f.Y.b.a.f.a.a.a.h.a.a.a.a.a.a.h.a.a.a.a.a.a.a.a.a.a.a.a.a.a.a.a.a.a.v : : > > < > > > 5 > : O c u.v e.j.l.g.h.a.g.a.g.a.g.a.a.a.a.",
"a.k.h.a.a.a.g.h.a.a.a.a.a.a.a.a.a.a.a.a.a.a.a.a.a.a.a.a.a.h.a.a.f.d./ > > < > > 5 5 > > : O X & q.i.a.a.g.a.g.a.a.g.k.a.a.a.a.g.a.",
"a.f.a.a.a.a.a.a.a.a.f.a.a.a.a.a.a.a.a.a.a.a.a.a.a.a.a.a.g.a.a.d.J.K.w.< 5 > < < < < > > # O . p V ] a.a.a.g.a.a.a.a.a.a.a.a.a.a.a.",
"a.a.a.f.a.a.a.a.a.a.a.a.a.a.a.a.j.a.j.h.a.a.a.a.g.a.a.a.a.a.g.j.L.T.p.y < < < < < < > > # O o | ` n a.a.a.g.a.a.a.g.a.a.a.g.a.a.a.",
"a.a.a.a.a.a.a.a.a.a.l.f.a.a.a.a.a.j.R.Z.a.a.a.a.a.a.a.a.a.a.a.x.j.j.h.J > < 5 > < < < < & 4 ' a.a.[ n r.g.a.g.a.a.a.a.a.a.a.a.a.a.",
"a.a.a.a.a.a.a.a.h.a.a.a.a.a.a.a.a.d.z.j.a.a.a.a.a.a.g.a.a.g.a.a.a.a.f.p.u 2 : > > : : : q Q p.g.a.g.i.F ` a.g.h.a.a.a.g.a.a.a.a.a.",
"h.a.a.h.k.a.a.h.a.a.a.h.a.h.a.a.a.a.a.a.a.a.a.a.a.a.a.a.a.a.a.a.a.a.a.a.p.e O # # O X X O Q F p.a.a.a.d.[ A ` r.a.a.g.g.a.a.h.h.a.",
"a.a.a.a.a.a.a.a.a.a.a.a.a.a.a.a.a.a.a.a.a.a.a.a.d.d.a.a.g.a.a.a.a.a.a.k.f.Z $ X . X       + p | a.a.g.d.a.a.a.i.i.a.h.a.a.a.a.g.a.",
"a.a.a.a.a.a.a.a.a.a.h.a.a.a.D.a.a.a.a.a.a.a.a.a.b.K.d.a.a.a.a.a.a.a.a.a.a.^ $             . . n r.a.j.a.d.a.a.a.g.a.a.a.a.a.a.a.a.",
"a.a.a.a.a.a.a.a.a.a.g.j.l.a.h.a.a.a.a.a.a.a.a.a.C.I.d.a.a.a.a.g.a.a.g.a.a.~ o             . + 1 t ~ p.a.a.a.a.a.a.g.a.a.a.a.a.g.a.",
"a.a.a.g.a.a.j.j.a.a.a.a.a.a.a.a.a.a.a.d.a.a.a.a.d.f.d.a.a.a.a.a.a.a.a.a.M.A                 @ [ F w Z i.a.d.a.a.a.g.a.a.a.a.a.a.d.",
"a.h.a.g.f.a.f.d.a.a.a.a.a.a.a.a.a.h.a.a.a.a.a.a.a.a.a.a.a.a.a.g.a.j.a.a.] o                 . ^ g.r.B B u.a.d.a.a.a.g.a.a.a.a.a.g.",
"a.a.a.a.a.a.a.a.a.a.a.a.a.a.a.f.a.a.a.a.a.a.a.a.a.a.a.a.a.a.a.a.a.a.g.[ O                     q p.a.p.F B i.d.a.a.a.a.a.a.a.a.a.a.",
"a.a.a.a.a.a.a.a.a.a.a.a.a.a.a.a.a.a.a.a.a.a.a.a.a.a.a.a.a.a.a.a.a.a.u.2                       + e.a.g.a.m b a.a.a.a.a.h.g.a.a.a.a.",
"a.a.a.a.a.f.x.x.f.a.a.a.a.a.a.a.a.a.a.a.a.a.a.a.j.a.d.a.a.a.a.a.a.a.C                           M g.a.a.i.9 W a.a.a.g.a.a.a.a.a.d.",
"a.h.a.a.g.j.R.E.j.a.a.a.a.a.h.a.k.h.a.a.a.a.h.a.h.a.a.a.a.a.a.d.a.e.O                           . t.a.a.a.e.9 ] a.a.a.a.a.a.a.g.g.",
"a.a.a.a.a.d.b.b.a.j.a.a.a.a.a.a.a.a.a.a.a.a.a.a.j.a.a.a.a.a.a.a.a.C                               ! a.a.a.d.^ x u.a.a.a.a.a.a.a.a.",
"a.a.a.a.a.k.z.a.a.a.a.a.a.a.a.a.a.a.a.a.a.a.a.a.a.a.a.a.a.a.a.a.p.4   .                           9 a.a.a.a.a.) u.g.g.j.H.j.a.a.g.",
"a.h.a.a.a.j.k.h.a.a.a.a.a.a.j.a.a.a.a.a.a.a.a.a.a.a.a.a.a.a.a.a.t.$                           X   X p.a.a.a.a.a.g.a.a.g.n.g.a.a.a.",
"a.a.a.a.a.a.a.a.a.a.a.a.a.a.a.a.a.a.a.a.a.a.a.a.a.a.h.a.a.a.a.a.0.O                                 ] a.a.a.a.a.a.a.a.a.a.a.a.a.a.",
"a.a.a.a.a.a.h.a.a.a.a.a.a.a.a.a.d.a.a.a.a.h.j.a.a.a.a.a.a.a.a.a.[ X                   X . . .       V d.d.a.a.a.a.a.a.a.a.a.a.a.a.",
"a.a.a.a.a.a.a.a.a.a.a.a.a.a.a.a.a.a.a.a.a.h.g.a.a.a.a.a.a.a.a.a.'         .     X X o X . . .       1 d.a.a.a.a.a.a.a.a.a.a.a.a.a.",
"a.a.a.a.a.a.a.a.a.a.a.v.a.a.a.a.a.a.a.a.a.a.a.a.h.a.a.a.d.a.a.a.^       X   X X X X X X . .         O p.a.a.d.a.a.a.a.a.a.a.d.a.g.",
"a.a.a.g.a.a.a.a.a.a.a.f.a.a.a.a.a.h.a.a.a.a.a.a.g.a.a.a.d.a.a.d.'         X   X . X                   y.v.a.a.a.g.a.a.a.a.j.g.a.g.",
"a.a.a.h.a.a.a.a.a.a.a.a.a.a.l.a.a.a.a.a.a.a.a.a.a.a.a.d.a.a.a.a.'                                     ] g.a.a.a.a.a.a.a.a.a.a.a.a.",
"a.a.a.a.a.a.h.a.a.a.a.a.a.a.a.a.a.j.h.a.a.a.a.a.a.a.a.a.a.a.a.a.) o                                   Q a.a.d.g.a.a.a.a.a.a.a.a.a.",
"a.a.a.v.k.a.a.a.a.a.a.a.a.a.a.a.a.a.a.k.g.a.a.a.a.a.a.a.a.a.a.a._ $                                   J a.j.a.a.a.a.a.a.a.a.a.a.a.",
"a.a.a.k.h.a.a.f.g.a.a.a.a.h.a.a.a.a.a.a.h.a.a.a.a.d.f.K.a.a.a.a.9.$                             .   . V a.a.a.h.a.a.a.a.a.a.a.g.g.",
"a.a.a.a.g.a.a.a.h.h.h.a.a.a.a.a.a.a.a.a.h.a.a.a.a.a.a.d.a.a.a.a.9.%                                   M a.a.a.g.a.a.a.a.d.a.a.a.a.",
"a.a.a.a.a.a.a.a.f.a.h.a.a.a.a.a.a.a.a.a.a.a.a.a.a.a.h.a.a.a.h.a.9.$         . .                       M a.a.a.a.a.a.a.Z.l.a.a.a.a.",
"a.a.a.a.a.a.a.a.a.a.a.a.a.a.h.a.a.a.g.a.a.a.a.a.a.a.a.a.a.a.a.a.9.$         . .                       M a.a.a.a.a.a.a.j.d.a.a.a.a.",
"a.a.j.a.a.a.a.a.a.a.a.a.a.a.a.a.h.a.a.a.g.a.a.a.a.h.a.a.a.a.a.a.q.=         o . .                   . V a.a.a.a.a.a.a.a.d.d.a.a.a.",
"a.a.G.f.a.a.a.a.g.a.a.a.a.a.a.j.n.j.d.a.a.a.a.j.a.a.a.a.a.a.a.a.e.=         . . .                     A a.a.a.a.a.a.j.a.g.a.a.a.a.",
"a.a.h.a.a.a.a.a.a.a.a.a.a.a.a.b.Q.v.a.a.d.a.a.a.a.a.a.a.a.a.a.a.r.%         + p * +                   A a.a.a.a.a.a.g.a.a.a.a.g.a.",
"a.a.a.a.a.a.a.a.a.a.a.f.m.h.a.f.k.f.a.a.b.x.d.a.a.a.a.a.a.a.a.h.q.=         p i.u.` O                 Q g.a.a.a.a.a.a.a.a.a.a.g.a.",
"a.a.h.h.a.a.a.a.g.g.a.a.h.f.a.a.a.a.a.f.P.D.d.a.a.a.a.a.a.d.Z.j.r.%     . C r.g.a.g.r                 | a.a.a.a.a.a.j.g.a.a.a.g.a.",
"a.a.a.a.a.a.k.h.a.a.a.a.a.a.a.v.a.a.a.a.j.j.a.a.a.a.a.a.a.j.F.j.r.%     & g.j.j.a.a.A               * j.a.a.a.a.a.a.n.n.g.a.a.a.a.",
"a.a.a.a.a.a.a.a.a.a.a.a.a.a.a.a.a.a.a.a.a.a.a.a.a.h.a.a.a.a.a.a.u.x .   & a.Z.F.j.a.Q             . | k.a.a.a.g.a.a.a.k.a.a.h.a.a.",
"a.a.a.a.a.a.a.a.a.a.a.h.a.a.a.a.a.a.a.a.a.a.h.x.a.a.a.a.a.a.a.a.d.z .   & g.g.g.a.a.^ .     . .     e.a.g.a.g.g.a.a.a.a.g.g.g.g.a.",
"a.a.a.a.a.a.a.a.a.a.j.a.a.j.M.a.a.a.a.a.h.a.a.a.a.a.a.a.a.h.a.h.d.S o   & g.a.a.a.a.i.n r A r.n     e.a.a.a.a.a.a.a.a.a.a.a.a.a.a.",
"a.a.a.a.a.a.a.a.a.a.a.a.a.a.f.a.a.h.d.a.a.a.a.a.a.d.d.d.a.a.a.a.d.S o   $ d.d.d.a.a.a.a.a.a.a.!     [ a.a.a.a.a.a.a.a.a.a.h.g.g.a.",
"a.a.a.a.h.a.a.a.a.a.a.a.a.a.a.g.a.a.a.a.a.a.a.a.a.d.k.j.a.a.a.a.d.S .   . u.d.d.a.g.a.a.a.a.a.' X   ^ a.g.a.a.a.g.g.a.a.a.a.a.a.a.",
"a.a.a.a.k.a.a.a.a.a.a.a.a.g.a.a.a.a.a.a.a.a.a.g.a.d.U.S.d.a.a.a.r.; .     r.d.a.a.a.a.a.a.a.a.{ .   V a.a.a.a.a.g.g.a.a.a.a.a.g.a.",
"h.a.a.a.a.a.a.a.a.a.a.a.a.a.a.a.a.a.a.g.a.a.f.a.a.d.k.f.a.a.a.d.D o . .   e.d.a.a.a.a.a.a.a.a.e.O   4 a.a.a.a.a.a.a.a.a.a.a.a.a.a.",
"a.a.a.a.a.a.a.a.a.a.a.a.a.a.a.a.a.a.a.a.d.a.a.d.d.a.a.a.a.p.( B $ .     * p.d.g.a.a.a.a.a.a.a.e.O   $ [ a.h.g.g.a.a.a.a.a.a.g.a.a.",
"g.a.f.k.f.a.a.a.a.a.a.a.a.a.a.g.a.a.a.g.a.a.a.x.k.d.a.a.d.t.; . . O t E r.d.a.j.a.a.a.a.a.a.a.0..   o l a.a.a.a.g.a.a.a.a.a.a.a.a.",
"j.a.n.W.n.a.a.h.g.a.a.a.a.a.a.a.a.a.a.d.a.a.d.d.d.a.a.a.d.i.m 1 q ^ a.a.a.a.a.a.a.a.a.a.a.a.a.] .     ; a.a.a.a.a.a.a.g.a.a.a.a.a.",
"a.a.z.S.j.a.a.a.a.a.a.a.a.a.a.a.a.a.a.g.j.a.a.a.a.a.a.a.h.a.a.a.a.a.d.g.j.a.a.g.g.a.a.a.g.a.j.9..   . z a.a.a.a.a.a.a.a.a.a.a.g.a.",
"a.a.a.a.a.a.a.a.a.j.a.a.a.a.a.a.a.a.a.h.a.a.a.h.a.a.a.a.a.a.a.a.a.h.a.k.m.a.a.a.a.a.a.a.a.a.a.p.V % = _ d.j.a.a.a.a.a.a.a.a.g.a.a."
};
