/* XPM */
static char *result[] = {
/* columns rows colors chars-per-pixel */
"65 65 181 2 ",
"   c #140710",
".  c #150913",
"X  c #190914",
"o  c #160C19",
"O  c #1C0B1B",
"+  c #141018",
"@  c #18101C",
"#  c #230C1E",
"$  c #160F21",
"%  c #1A0B23",
"&  c #1C0D2C",
"*  c #1C1123",
"=  c #19102B",
"-  c #1D0E32",
";  c #1F0E3C",
":  c #1E1034",
">  c #1E113A",
",  c #250D22",
"<  c #2C0E26",
"1  c #2E0F28",
"2  c #220C28",
"3  c #221124",
"4  c #2E1023",
"5  c #23152B",
"6  c #2F1029",
"7  c #22192F",
"8  c #3E1627",
"9  c #33112A",
"0  c #3D142C",
"q  c #200F3C",
"w  c #231332",
"e  c #2A1A36",
"r  c #23143C",
"t  c #281638",
"y  c #2C1C3B",
"u  c #281434",
"i  c #371D3B",
"p  c #2B203B",
"a  c #40152D",
"s  c #481734",
"d  c #4B1936",
"f  c #511B34",
"g  c #531D3A",
"h  c #5C1E37",
"j  c #63213E",
"k  c #6B233F",
"l  c #70253F",
"z  c #241342",
"x  c #291643",
"c  c #2C1944",
"v  c #271448",
"b  c #28154F",
"n  c #2C1B4B",
"m  c #301F45",
"M  c #341E4F",
"N  c #2D1950",
"B  c #291655",
"V  c #311E53",
"C  c #331E5B",
"Z  c #2F2242",
"A  c #332244",
"S  c #372944",
"D  c #342449",
"F  c #39254D",
"G  c #3E2D45",
"H  c #352354",
"J  c #3A2752",
"K  c #3C2954",
"L  c #35225C",
"P  c #3A245C",
"I  c #3D2B5C",
"U  c #3C2665",
"Y  c #3F2D67",
"T  c #601F40",
"R  c #562248",
"E  c #5C254F",
"W  c #482950",
"Q  c #412C5B",
"!  c #4A325C",
"~  c #672142",
"^  c #6D2341",
"/  c #7D294E",
"(  c #622F55",
")  c #412B65",
"_  c #432C69",
"`  c #4B2C68",
"'  c #463165",
"]  c #483265",
"[  c #45316A",
"{  c #4B346C",
"}  c #4C386F",
"|  c #55316E",
" . c #442E73",
".. c #4B3574",
"X. c #4E3974",
"o. c #4B347B",
"O. c #513974",
"+. c #583778",
"@. c #543C7B",
"#. c #6A2E66",
"$. c #77427C",
"%. c #872C49",
"&. c #8A2D4B",
"*. c #8C2D54",
"=. c #832951",
"-. c #923051",
";. c #9A3253",
":. c #A2345B",
">. c #A3385F",
",. c #A13457",
"<. c #B23A5E",
"1. c #923E6F",
"2. c #A83660",
"3. c #AF3865",
"4. c #B73C60",
"5. c #BE3E64",
"6. c #C33E6B",
"7. c #C23F66",
"8. c #B94068",
"9. c #CC426C",
"0. c #CB4172",
"q. c #DB4674",
"w. c #DE4975",
"e. c #D54F79",
"r. c #D24373",
"t. c #E04975",
"y. c #E04C79",
"u. c #503784",
"i. c #533A83",
"p. c #593F83",
"a. c #573D89",
"s. c #593E88",
"d. c #5B4184",
"f. c #5D428B",
"g. c #5F4491",
"h. c #684180",
"j. c #61458D",
"k. c #784A8E",
"l. c #624692",
"z. c #664994",
"x. c #684B97",
"c. c #664998",
"v. c #6D4E9E",
"b. c #704D9A",
"n. c #6E519D",
"m. c #7B5E98",
"M. c #6F4FA0",
"N. c #704FA3",
"B. c #6F50A1",
"V. c #7151A3",
"C. c #7553A9",
"Z. c #7956AD",
"A. c #7B59AD",
"S. c #7A56B1",
"D. c #7D59B3",
"F. c #825EB5",
"G. c #835DBB",
"H. c #8661BC",
"J. c #8965BB",
"K. c #E75C8C",
"L. c #E55F91",
"P. c #8761C0",
"I. c #8B64C3",
"U. c #8F69C6",
"Y. c #8D65C9",
"T. c #926BC7",
"R. c #9067C8",
"E. c #956DCB",
"W. c #9770CD",
"Q. c #9B74CE",
"!. c #9D75D1",
"~. c #A47BDC",
"^. c #A37CD6",
"/. c #AC84DD",
"(. c #AD83E6",
"). c #B087E2",
"_. c #B389E3",
"`. c #BD92EA",
"'. c #B893E3",
"]. c #C298EC",
"[. c #C99CF6",
/* pixels */
"V.n.V.n.B.B.n.V.n.V.V.V.n.V.B.n.V.M.n.V.p.x.n.' l.i.z.n.B.B.B.B.B.B.B.B.n.B.B.B.B.B.B.B.B.B.B.B.B.B.B.B.B.V.V.B.B.V.B.B.B.B.V.n.B.",
"v.v.E.C.v.v.v.v.V.B.v.v.M.M.v.v.v.v.v.v.d.x j.@.` c.) v.M.B.B.B.B.B.v.v.n.v.v.n.v.v.v.B.Z.n.v.v.n.v.v.n.v.v.n.v.v.n.v.v.n.v.B.v.B.",
"B.M.M.v.v.v.v.v.V.v.v.N.).P.v.v.v.v.v.M.v.Q u i ` x.) v.N.I.C.v.n.v.v.B.B.v.v.v.v.v.v.v.n.v.v.v.v.n.v.v.v.v.v.v.v.v.v.M.M.M.v.v.v.",
"M.B.v.v.v.v.v.M.v.v.v.B.!.D.v.v.v.v.v.M.x.W 8 f E | { v.S.`.P.M.v.v.v.M.B.v.v.v.v.v.v.v.B.n.v.v.v.C.C.v.v.v.v.v.v.v.v.V.Y.P.B.v.v.",
"v.v.v.v.v.v.M.v.v.v.v.v.N.v.v.v.v.N.v.h.( ^ %.,.;./ $.v.B.S.B.M.v.v.v.v.v.v.v.v.M.M.M.M.v.v.v.v.v.v.v.v.v.v.v.v.v.v.c.C._.~.C.M.M.",
"v.v.v.M.v.n.B.B.v.B.n.l.f.v.v.v.v.l.Q g &.<.6.q.9.7.1.v.M.M.v.v.v.M.v.v.v.B.v.v.B.Z.v.M.v.v.v.v.v.v.v.v.v.v.v.v.v.M.M.M.Z.C.M.c.M.",
"v.v.v.V.V.v.v.v.v.B.v.V.Y v.v.v.| c 4 h ,.6.q.K.y.L.8.b.M.v.M.v.v.B.v.v.v.B.v.v.M.M.v.v.v.M.v.v.v.v.v.v.v.B.v.v.v.v.v.v.v.v.M.M.v.",
"v.v.B.V.M.v.v.v.v.v.v.n. .@.v.x.q # a j <.6.q.t.t.w.7.k.v.v.v.v.v.M.v.v.v.v.v.v.N.B.v.v.v.M.v.v.v.v.v.v.v.B.B.v.M.v.v.v.v.v.v.M.v.",
"v.v.N.v.v.v.v.v.v.v.v.v.f.y x.v.v < a T >.6.6.t.w.r.8.#.v.v.v.v.v.v.v.v.v.v.v.M.W.U.B.M.M.v.v.v.v.v.v.v.v.v.v.v.v.v.v.v.v.v.v.C.v.",
"v.v.v.v.v.v.v.v.v.v.v.v.v.n 5 Q i 9 a T 3.t.K.t.q.0.;.R c.v.v.v.n.M.v.v.v.v.v.M.P.D.M.M.M.M.M.v.v.M.B.v.v.v.v.v.v.v.v.v.v.v.v.v.v.",
"v.v.v.v.D.V.v.v.v.v.v.v.v.f.L 2 < 1 0 T :.6.t.q.9.>.#.` M.v.v.v.v.v.v.v.v.v.M.M.v.M.v.v.M.M.M.N.M.v.v.v.v.v.v.v.v.v.v.M.n.v.v.v.M.",
"v.v.n.v.v.v.v.A.V.v.v.v.v.v.P 2 1 1 9 d =.3.6.6.:.k +.v.v.v.v.v.v.v.v.v.v.v.M.M.M.v.v.v.M.M.N.E.Y.V.M.A.v.v.v.B.M.v.v.v.v.v.v.v.v.",
"v.v.v.v.v.v.v.v.v.v.C.v.v.v.x # < 1 1 9 g / *.*.l 8 P x.x.f.v.v.M.v.v.B.v.N.!.Z.v.v.v.v.v.v.Z.`.(.C.c.N.n.v.v.v.v.v.v.v.B.v.v.A.M.",
"v.v.C.v.v.v.v.v.v.v.V.v.V.v.; O < < 1 1 0 s g f 0 4 % x c z @.v.v.v.B.B.M.C.`.S.v.v.v.v.v.v.M.S.S.M.M.N.v.v.v.v.v.v.B.v.v.v.V.v.v.",
"v.v.v.v.v.N.v.M.v.v.v.v.H.A.; X , < 1 1 1 1 9 9 4 , # , O % ) v.v.v.v.v.C.M.N.M.v.v.v.v.v.v.v.B.M.v.v.M.v.v.M.v.v.v.v.v.v.v.v.v.v.",
"v.F.C.v.v.v.v.n.v.v.v.v.M.x.z u m # < 1 1 1 1 1 4 1 , , # O { v.v.v.v.v.M.M.M.M.v.v.v.v.v.v.v.B.V.v.v.v.v.v.H.V.v.v.v.v.Z.V.v.v.v.",
"M.).P.M.v.M.v.v.B.M.v.v.v.v.Y d.@.O # 4 4 6 1 1 1 1 < , , # ` v.v.v.v.v.v.v.v.v.v.v.v.N.V.v.v.V.v.v.v.C.F.v.V.v.v.v.V.v.v.v.v.v.M.",
"M.Z.M.v.v.v.M.M.M.v.v.v.v.v.n.l.7 . X # < < 1 1 < 1 < 1 1 # t s.V.N.v.v.v.v.v.v.v.v.v.v.V.F.v.v.v.v.v.v.N.v.v.v.v.v.A.v.v.v.n.v.v.",
"v.v.v.M.v.v.v.v.v.v.B.n.v.v.g.Z X.5 . O , 1 1 1 1 1 1 1 1 # , Q W.^.C.v.v.v.v.N.v.v.v.v.v.N.v.v.v.v.v.v.v.n.v.v.v.v.v.v.v.v.N.v.v.",
"v.v.v.V.v.v.v.v.v.v.M.B.v.v.' ' C.K + X , 1 1 1 1 1 1 1 1 < # V ^.).C.v.v.v.v.v.v.v.V.v.n.v.v.v.v.v.v.v.v.v.v.v.v.N.v.v.n.v.v.v.v.",
"v.v.v.v.v.v.v.v.M.v.Z.B.x.Z ' v.M.B.m.S 2 4 4 6 1 1 1 1 1 1 , e c.C.N.N.v.v.v.v.v.v.v.v.n.v.v.v.v.v.v.v.v.v.v.v.v.v.v.v.v.v.v.v.v.",
"n.v.v.v.v.v.v.v.B.n.B.@.I x.v.v.v.M.d.F 3 # # 2 < , # w # # , , p.v.N.v.v.v.v.v.v.v.V.v.v.v.v.v.v.v.v.v.v.v.v.Z.v.v.v.v.v.v.v.v.v.",
"V.v.v.V.C.v.v.v.@...' @.n.B.v.v.v.X.! * X . O X O # 2 J & . O O m v.v.v.v.v.v.v.v.v.v.v.v.C.v.v.v.v.v.v.v.v.V.v.v.v.v.v.v.v.C.V.v.",
"v.v.v.v.v.v.v.v.v.M.n.v.v.n.M.v.v.Z * .     . X X . - z.s.n & O # { v.Z.V.v.v.v.v.v.v.V.v.v.v.v.v.v.N.v.v.v.v.V.C.n.C.v.v.v.v.v.v.",
"v.v.v.v.v.v.v.v.v.v.B.v.v.v.E.j.Z o o             . : x.v.v...w . 5 z.n.v.V.n.M.v.v.v.v.M.N.C.v.v.v.C.v.n.v.v.v.N.v.v.v.v.v.v.v.v.",
"v.v.v.v.v.v.v.v.v.v.V.C.A.v.@.r w 7                 = v.v.n.v._ % . D d.v.v.M.v.v.v.v.v.V.C.T.N.n.v.v.v.v.v.v.v.v.v.v.v.M.v.l.j.v.",
"v.v.v.M.B.v.C.C.v.v.v.v.v.' z Q j.J                 . @.f.U @.s.u   o : n.Z.v.v.v.v.v.v.v.v.M.v.M.v.v.B.v.M.v.v.v.n.v.v.g.o.X.v.M.",
"v.B.v.B.M.v.N.M.v.v.v.v.Y n d.v.j.*                   * j.[ w 5 O       K v.v.v.v.v.v.M.v.v.v.v.v.v.v.V.v.v.v.v.v.x.f.) H @.v.M.B.",
"v.v.v.v.v.v.M.M.v.v.v.Y H l.v.V.Q .                     p z.@.F F O   o $ N U _  .o.o.u.a.g.g.g.g.f.f.a.i.u.o...Y Z 5 P j.v.v.v.v.",
"v.v.v.v.v.v.M.M.v.v._ w z.v.v.v.@ .                     . Q v.v.v.c o & $ o o % & & - > ; z B b z : & & % O % O . 3 X.v.V.v.v.v.v.",
"v.v.v.v.v.M.D.D.v...q @.v.v.v.O..                         o @.n.v...> L z.f...{ ] Q K J F D A e e A c D F Q ] O.f.v.M.M.v.v.v.v.M.",
"M.V.v.v.B.C._.`.c.r ) b.v.v.V.y                             e v.n.c.f.v.v.v.v.N.v.v.v.v.B.n.v.v.v.v.v.v.v.n.v.v.v.v.v.v.v.v.v.B.B.",
"v.v.v.v.M.N.D.G.[ I v.v.v.v.z.X                             O h.v.v.v.v.v.v.v.v.v.v.v.v.v.v.v.v.Z.B.B.M.v.M.v.v.v.v.B.M.M.v.v.v.v.",
"v.v.v.v.v.Z.D.v.d.x.v.v.v.n.{ .                               ] v.v.v.v.M.S.M.v.v.v.v.v.v.v.v.v.v.B.v.v.v.v.v.v.v.M.B.N.W.C.v.v.M.",
"v.V.v.v.v.C.A.V.v.v.v.v.v.v.A .                               F B.v.v.v.C.[.D.M.v.v.M.M.v.v.v.v.v.v.v.v.v.v.v.n.M.v.v.B.H.B.v.v.v.",
"v.v.v.v.v.v.v.v.v.v.v.v.v.v., .   X                           y v.v.v.v.N.D.M.M.v.M.B.B.v.v.v.v.v.v.v.v.v.v.v.v.v.v.v.v.M.v.v.v.v.",
"v.v.v.v.v.v.V.v.v.v.v.v.v.f.. . X X X X X X   X   .           e v.v.v.v.M.M.M.v.v.v.B.B.M.D.C.M.v.v.v.M.v.v.v.v.v.v.v.v.v.v.v.v.v.",
"v.v.v.v.v.v.v.v.v.v.v.B.v.{           X X X X X . . . .   .   5 c.v.v.v.M.M.v.v.v.v.M.M.S.`.Y.M.v.v.v.v.v.v.v.v.v.v.v.v.v.v.v.v.v.",
"v.v.v.v.v.v.v.v.v.v.v.G.v.W           X X X X X X X X X       5 c.B.M.M.v.M.v.v.v.v.M.M.B.G.C.M.v.v.v.v.v.M.B.v.v.v.v.v.v.v.B.v.B.",
"v.v.v.B.v.v.v.v.v.v.v.v.v.y                     X .     .     7 c.V.M.v.v.M.v.v.v.v.M.M.M.M.v.v.v.v.v.M.D.n.v.v.B.v.v.v.v.C.B.v.B.",
"v.v.v.V.v.v.v.v.v.v.v.v.v.5                                   t x.v.v.v.v.v.v.v.v.M.v.v.v.v.v.v.v.v.v.v.B.v.v.v.v.v.v.v.v.v.v.v.v.",
"v.v.v.v.v.v.M.M.v.v.v.v.v.O                                   x x.M.v.M.v.v.v.v.v.B.N.M.v.v.v.v.v.B.v.v.M.v.B.B.v.v.v.v.v.v.v.v.v.",
"v.v.M.F.A.v.v.v.N.v.v.v.x..                                   v x.v.v.B.B.v.v.v.M.E.].Z.v.v.v.v.v.v.v.v.v.C.v.v.v.v.v.v.v.v.v.v.v.",
"v.v.v.Z.C.v.v.M.n.v.v.v.z..                                   b c.v.v.B.M.v.v.v.M.C.D.C.v.M.B.v.v.v.v.v.v.v.v.B.v.v.v.v.v.v.M.B.B.",
"v.v.v.v.v.v.v.v.C.V.n.v.j.                                  . C c.M.v.v.v.v.v.v.M.M.v.v.v.v.v.v.v.V.v.v.M.v.v.M.v.v.B.B.M.v.v.v.v.",
"v.M.M.v.v.v.v.v.N.V.v.v.j.                        +           N v.v.v.v.v.Z.F.v.c.M.v.v.v.v.v.v.v.v.v.v.M.v.v.v.v.v.M.I.Z.n.v.v.v.",
"v.v.v.v.v.v.v.v.v.v.v.v.x..                       +         X C x.v.v.v.v.B.V.v.M.v.v.v.v.M.B.M.v.v.v.v.v.v.v.v.v.v.v.B.M.v.v.v.v.",
"v.v.V.v.v.v.v.v.v.v.v.v.x..                     o o         o C v.M.B.v.v.M.M.M.M.M.v.v.v.v.B.M.v.v.v.v.v.v.v.v.v.v.v.v.M.M.v.v.v.",
"v.M.E.M.v.v.v.v.B.v.v.v.x.o                   .   +         . C v.v.v.v.v.v.v.v.v.v.v.v.n.v.v.F.v.v.v.v.v.v.v.v.v.v.V.v.M.v.v.v.v.",
"v.v.V.v.v.v.v.v.v.v.v.v.v.o                 * * p p         . C v.v.v.v.v.v.n.C.C.v.v.v.v.v.v.N.B.B.v.v.v.v.v.v.v.v.V.v.v.v.v.M.v.",
"v.v.v.M.v.v.v.v.v.v.v.M.J.*               . } d.v.d.@       . L x.v.v.v.v.v.v.N.v.v.v.v.v.v.v.v.n.B.v.v.V.v.v.v.v.v.v.M.v.v.v.V.v.",
"v.v.v.C.v.v.v.v.B.V.v.v.B.y               @ j.n.v.n.d.p     . L v.v.v.v.v.v.v.v.v.v.v.v.v.V.V.v.v.v.v.v.v.v.v.v.v.v.C.V.v.v.v.v.v.",
"v.v.v.v.v.v.Z.V.v.v.v.v.v.}               5 x.v.v.v.v.X.    . P v.v.v.v.v.v.C.C.v.v.v.v.v.v.v.v.v.v.C.C.n.n.v.v.v.v.H.H.M.v.v.v.v.",
"v.v.v.v.v.n.v.v.v.v.v.v.v.v.=             5 l.n.n.B.v.X.    o ..v.v.v.v.v.v.U.T.C.v.v.v.v.v.v.v.v.v.D.Z.v.v.v.v.v.v.v.A.v.v.C.v.v.",
"v.v.v.v.v.v.v.v.v.v.n.V.n.n.e o . * o     e v.D.v.v.v.X.    % f.v.v.V.v.v.v.v.v.v.v.v.v.v.v.v.v.v.v.v.v.B.v.v.V.v.v.v.v.v.V.v.v.v.",
"v.v.v.v.v.v.v.v.v.v.C.V.v.C.G   @ d.@.J Z O.v.v.v.v.v.O.    & f.v.v.C.F.v.V.v.v.v.v.v.v.v.v.v.v.v.E.C.v.v.v.v.v.v.v.v.v.v.v.v.v.v.",
"v.v.v.v.v.v.v.v.v.v.v.v.v.v.7 . 5 v.M.v.v.v.v.v.v.v.v.]     - f.v.v.M.M.v.v.v.V.v.v.v.v.v.v.v.v.v.C.v.v.N.v.v.v.v.v.v.v.v.V.V.v.v.",
"v.v.v.v.V.v.v.v.v.v.v.v.v.v.%   e v.v.v.v.M.v.v.v.N.Z.Q   . & s.v.n.v.v.v.v.v.V.v.v.v.v.v.v.v.v.v.v.v.v.v.v.v.v.v.V.v.v.v.v.v.v.v.",
"v.v.v.v.Z.v.v.v.v.v.v.v.v.z..   D v.v.v.v.v.v.M.v.N./.!     . U v.v.v.v.v.v.v.v.v.v.v.v.v.v.v.v.V.v.v.v.v.v.v.v.n.V.v.v.v.v.v.M.v.",
"V.v.v.v.v.v.v.v.v.v.v.v.v.{ .   K M.n.v.v.v.v.M.v.v.Z.D     . w i.v.v.v.v.v.M.v.v.v.v.v.v.v.v.v.V.v.v.v.v.v.v.v.v.v.v.v.v.v.v.v.v.",
"v.v.v.v.v.v.v.v.v.v.v.v.x.x .   K B.B.M.v.v.v.V.v.v.v.| O .   . w L u.v.v.v.v.V.v.v.v.v.v.v.v.v.v.v.v.V.v.C.v.n.v.v.v.v.v.v.M.v.v.",
"n.v.V.Z.N.v.v.N.v.v.v.v...%     A v.v.B.v.v.v.D.Z.N.v.n.@.Q e X . X L v.v.v.v.V.v.v.v.v.v.v.v.v.v.v.v.v.v.v.v.v.v.v.v.v.v.v.v.v.v.",
"N.v.P.'.G.v.v.V.v.v.v.v. .X     y v.v.V.v.v.n.V.v.v.v.v.v.v.l.Q u e X.M.v.v.v.v.v.v.v.v.v.v.v.v.n.v.v.v.v.v.v.v.v.v.v.V.v.v.v.v.v.",
"v.v.S.R.C.v.v.v.v.v.v.v.i.&     A v.v.V.V.v.v.v.v.v.v.v.C.v.v.v.v.M.v.V.C.v.v.V.V.v.v.v.n.v.Z.v.v.v.A.v.v.N.v.v.v.v.v.v.v.v.v.M.v.",
"v.v.N.v.v.v.v.v.N.C.v.v.v.V & t l.n.v.V.n.M.v.B.v.v.v.v.v.v.v.v.M.B.v.S.J.v.v.v.v.v.v.v.v.v.v.v.v.v.M.v.v.V.v.v.v.v.v.v.v.v.B.B.v."
};
