/* XPM */
static char *result[] = {
/* columns rows colors chars-per-pixel */
"60 60 234 2 ",
"   c #000300",
".  c #010C00",
"X  c #0B0C0A",
"o  c #0A0906",
"O  c #011302",
"+  c #041A06",
"@  c #0B140B",
"#  c #051D09",
"$  c #0B1B0C",
"%  c #081707",
"&  c #11150E",
"*  c #0F1610",
"=  c #131412",
"-  c #141B13",
";  c #1B1B1B",
":  c #05230C",
">  c #09240D",
",  c #052A0F",
"<  c #0B290E",
"1  c #042702",
"2  c #063807",
"3  c #0B2511",
"4  c #042C12",
"5  c #0B2C12",
"6  c #0F2D19",
"7  c #042611",
"8  c #142215",
"9  c #1B231C",
"0  c #142C1B",
"q  c #172919",
"w  c #043215",
"e  c #0C3415",
"r  c #053518",
"t  c #0D3519",
"y  c #053C1C",
"u  c #0D3B1A",
"i  c #0C3816",
"p  c #12341B",
"a  c #113C1C",
"s  c #193815",
"d  c #20261F",
"f  c #271F22",
"g  c #1F2320",
"h  c #1F2D21",
"j  c #1C3323",
"k  c #133E22",
"l  c #1C3D25",
"z  c #242423",
"x  c #212B22",
"c  c #2B2C2A",
"v  c #292727",
"b  c #312C2E",
"n  c #233629",
"m  c #29362C",
"M  c #31392E",
"N  c #2F2F30",
"B  c #382F34",
"V  c #2E3730",
"C  c #333333",
"Z  c #333A33",
"A  c #3B3C3B",
"S  c #373D39",
"D  c #054509",
"F  c #05401E",
"G  c #0E441D",
"H  c #0F481D",
"J  c #11431E",
"K  c #11491F",
"L  c #1E4317",
"P  c #0D5915",
"I  c #244C1B",
"U  c #204418",
"Y  c #29551E",
"T  c #10671E",
"R  c #064422",
"E  c #064B25",
"W  c #0B4B23",
"Q  c #064E29",
"!  c #094927",
"~  c #124422",
"^  c #134C23",
"/  c #164E29",
"(  c #1C4B2A",
")  c #1D4528",
"_  c #06542A",
"`  c #055B2E",
"'  c #085A2E",
"]  c #08552B",
"[  c #145325",
"{  c #155A27",
"}  c #165429",
"|  c #1A542C",
" . c #165B2A",
".. c #195B2D",
"X. c #185227",
"o. c #065E31",
"O. c #1A5832",
"+. c #25452E",
"@. c #2B5620",
"#. c #2E5C21",
"$. c #294835",
"%. c #3D423D",
"&. c #265C36",
"*. c #16622E",
"=. c #19612F",
"-. c #116720",
";. c #127225",
":. c #056333",
">. c #086434",
",. c #056937",
"<. c #076C39",
"1. c #086D39",
"2. c #1C6433",
"3. c #1B6C34",
"4. c #1E6638",
"5. c #1E6C3A",
"6. c #166831",
"7. c #06723D",
"8. c #08703C",
"9. c #1C7236",
"0. c #1D7439",
"q. c #1E7B3B",
"w. c #1D7837",
"e. c #326325",
"r. c #366829",
"t. c #216C3D",
"y. c #256538",
"u. c #30613E",
"i. c #21743C",
"p. c #217C3C",
"a. c #28703E",
"s. c #3A732D",
"d. c #453940",
"f. c #3F4541",
"g. c #3B4B40",
"h. c #375943",
"j. c #057841",
"k. c #376648",
"l. c #237A45",
"z. c #277945",
"x. c #35784A",
"c. c #3F7450",
"v. c #444444",
"b. c #4A4649",
"n. c #4C4C4C",
"m. c #464946",
"M. c #4B534B",
"N. c #48584D",
"B. c #544E51",
"V. c #545453",
"C. c #565957",
"Z. c #5B5B5B",
"A. c #5A5559",
"S. c #504D4E",
"D. c #605C5E",
"F. c #63575E",
"G. c #44654E",
"H. c #4C6757",
"J. c #5A645C",
"K. c #487B59",
"L. c #665861",
"P. c #5F6461",
"I. c #5A6A60",
"U. c #5E7D67",
"Y. c #636363",
"T. c #666866",
"R. c #6B6B6C",
"E. c #696667",
"W. c #6D726E",
"Q. c #64736A",
"!. c #716E70",
"~. c #757474",
"^. c #7B767A",
"/. c #7C7C7D",
"(. c #767977",
"). c #807E7F",
"_. c #1D823E",
"`. c #1F9339",
"'. c #21813E",
"]. c #478836",
"[. c #4C9438",
"{. c #529B3C",
"}. c #45832F",
"|. c #55A23D",
" X c #59A93F",
".X c #1E8441",
"XX c #1E8941",
"oX c #1F9044",
"OX c #228541",
"+X c #228B44",
"@X c #26834A",
"#X c #288B4D",
"$X c #32854C",
"%X c #239246",
"&X c #259549",
"*X c #28944B",
"=X c #269B4C",
"-X c #289D4D",
";X c #269946",
":X c #298D51",
">X c #278C50",
",X c #2A9454",
"<X c #2A9D54",
"1X c #26A14E",
"2X c #29A34F",
"3X c #24A848",
"4X c #26A551",
"5X c #29A451",
"6X c #2AAB54",
"7X c #29AE56",
"8X c #2AB255",
"9X c #2DB559",
"0X c #2CBA5C",
"qX c #25B253",
"wX c #59834C",
"eX c #56A340",
"rX c #5BAA42",
"tX c #5BB042",
"yX c #64BC49",
"uX c #60B645",
"iX c #60AF46",
"pX c #598368",
"aX c #7E807F",
"sX c #758A7C",
"dX c #658F76",
"fX c #69C64B",
"gX c #6AC84C",
"hX c #70D050",
"jX c #70CD51",
"kX c #827E81",
"lX c #838383",
"zX c #878887",
"xX c #8A898A",
"cX c #888988",
/* pixels */
"O . + + O . O + + O O O O O + O O . O O + + + . O . + # O O O O + O O O O . + + O O . + + O O O O O + O O O . O O O O O ",
". 0.5X&X-Xt   0.7Xq.. O . E ,.>.,.4 . 0.1X&X-Xu   q.5X*X1Xu   9.8X0.. O O E ,.o.:.7   }.fX].O O . 3.7Xq.. O O 0.8X_.O O ",
"  =X^ O XX .. + { -X. O O :.w . >.F . 6XK O &X..  5XK O +X .  + { &X. O O :.w O o.y . + r.tX. . O O  .&X. O O O *.1X. O ",
". %Xi   0.{ .   J &X. O O o.,   _ y . -Xi   l...  -X3   p.{ .   K %X  O O o.:   ] r .   Y |.O O O   J %X. O O   W ;X. O ",
". %Xu   q.{ . . H &X. O . :.> . _ F . 5Xa   .X..  -Xe   '.{ . . ~ %X. O O o.: . ] r   . @. XO O O . ~ %X. O O . [ ;XO O ",
"  &Xe   w. .    G %X  . O :.>   _ F . 2X5   .X..  5X3   p. .    a %X  . + o.#   ] y .   I eX  . O   u +X  . O   ~ %X  . ",
". &X+X3.5X^   | &X9Xi.3 . o.' R 8.r . &X+X3.6X^   &XOX3.6X^   X.&X9X5.5 . o._ E 1.w   r.rXjX].q   X.%X9X3.5 . | -X0X9.5 ",
". 5 }  .K O O ~ { ^ [ > . > y y w + . 5 {  .~ + . 5 { } K + . K } ^  .7 . # y y w + . I e.@.e.3 . J { ^ [ : . G } W } 3 ",
"O       . O O       . . O       . . O .       O O         O O         . O .       . O         . O         O O         . ",
". u [ e O O . t ~ 5 O O o U #.s O + . # r r w O . u [ e O O . < ^ [ a + . > [ [ G + . 5 ^ [ k O . u [ e O O . : r y 4 O ",
".  .6X+X  O . | ,Xl.. O . r.gX|.  O O :.,._ 7.r   =.6X+X. O O &X-X'.0XK   %X=Xl.9X~   -X-X_.9X^   =.6X+X. O X :.:.] 7.r ",
"O   u +X. O O   u @X. O O   I |.  O O ,.:   _ F .   u +X. O + =X5   `.*.. ;X,   l. .  -X5   oX*.    a %X  O O >.:   _ R ",
"O . G %X. O O . k @X. O %   Y |.  + + >.4 . _ y . . R +X. O + &Xe   %X{   ;X5   OX{   -Xt   +X..  . K +X. O % :.:   _ y ",
"O   G +X  O O . k l.  O * ; @.{.. @ - >.7   ` y . . u XX. . + &Xe   '.{ . %X5   '.}   -X5   +X .  . J %X  . O >.,   _ G ",
"O O ^ &X+ + O = ( >X@ # c A.u. X  %.Z ,.r . _ F . O ^ &X% O + -XJ . =X .  1Xu . #X .  5XJ . &X*.  O [ =X% + O <.4 . ' y ",
". =.-X-XOX5   b Q.z.l.0 D./.wXuXZ (.m.E :.k $.3   y.&X-X+Xt . 0.%X+X-Xu   0.%XOX=Xt   q.%XOX=Xu   2.*X-XOX5 . Q o.' :.7 ",
"O # : # # + . v.xXf.+ z /.lXC.% C.xXV.. $ Z.A.O O + # # : O O O # : + . O O : : + . O O # : + O O + : + # O . O + + + . ",
"O     X C @ O Y.lX^.b.P.).lX(.Z./.lXE.S Y.xXV.O O . .     . O . .   . . . .     . O O         . O .   . O O O .     O O ",
". ^ +X) R.%.X !.lXzXxXxXlXkXlXxXzXlXlXlXkXlXm.O . < | +Xq.>   r ` _ _ + . | z./ . O . [ +XOX0.7 . F ` y . O . 2.%X .. O ",
"  -X0.q !./.J./.aX~.C.f.V k.Z c G.H.E.lX/.kXn.- N V.+.K 5X .  1.E 4 7.y . t 5.@X. O . 5X9.~ 7X .  4 _ :.. O . u XX-X. O ",
". %X5 c /./.xX~.G.z.. O . &Xe   _.{ o f.(.lX~.Y.lXE.$   p.{ . >.#   ' F .   5 l.O O . -X4   .X..  . 4 ' . O O   G &X. O ",
". %Xt S.lXlXY.- H -X. O O &Xt   _...  O m (.zXzX^.x.,   t.^ . >.4   o.y . . u l.. O . -Xt   %X*.  O w ` . O O . { &X. O ",
". %X4 b.xXZ.$   a *X  . + &X3   q.*.    w $XF.zXY.$.m A g.e O :.#   o.y .   e l.  O . -X7   OX .  . 4 '   O O   ~ &X  . ",
". =X3.V.aXj o a w.8X^ : . -X9.G 2X*.  t q.qX&.(.lXR./.lXK.~ . ,.R r 1.y . 5 4.,X~ #   5X3.G 6X{   , _ 7.r + . i _.9X^ : ",
". ^ 9.N.N h N y.q.q.i.5 . ~ p.i.0.3 .  .p.i.3.$.^.zXlXE.) < . r _ Q ! # . / 5.4.y.3   [ q.0.9.3 . y ] Q ! $ . ..p.0.0.5 ",
"O .   v.C.~.b.=       . O .       . O .       . %.kXlXZ.- - 8 @     . . O         O O         . O . . . . O O .       . ",
". + + M.xXzXV.8 $ $ + O O + : + O O . O # : # O O M.lX/.R.E.!.%.# + O O O # > % O O O O # # % . 1 2 D D D 2 O O # # + O ",
". Q ,.k.kXzXB.u $XP.z . . t.9Xi.  O O p.5X*X5Xu   2.W.lXaXlX~.k.9XOX. O . 3.7Xp.. O . t.:X@X,Xp 1 `.8X3X8XP O t.:X@X>X0 ",
". :.w * E.xXY.S R.xXc . O +  .XX  O + 5X^ O &X..  + Z lX/.lXn..  .+X  O O $ | =X. O @ $Xa % y.k 1 3XT D 3X;.O #Xk O l./ ",
". :.7   V aXaXlXlXlXZ O O . ~ OX. O % -Xe   l. .. . 5 J.lXlXE.S n.N.8 O + c n OXO 8 b.$.< . v.c 2 3XP 1 ;X;.O @X3   l.~ ",
". :.4 . y H.kX)./.lXA . 8 ; ^ OX  O % =Xu   .X... . w k D.lXlXlXkXkXC 8 c W.V.6 * f.lXV - q aXD.5 3Xy.B z.;.O #Xt   i./ ",
". :.7   Q y V.zX/.lXZ.c ^.b.^ +X  . % 4Xt   OX..  O 0 %.!.lXlX/.^./.v.; C.lX/.A c !.lXC.9 Z.aX~.h a.Q.E.+.T + $.*   5./ ",
". o.>._ 8.4 @ R.lX/.lXlXcXA.4.0XXXt . -X-Xw.8X| v P.).).A.b.R.R.zXzXzX~.).lXzXlXkXkXlXlX).cXlXcXZ.S.kXlXS w M.n.O.l.:X~ ",
". # w r , O . q R.lX/./.lXY.0 ~ ~ # . , W h.H.E.lX!.A ;   X = ; D.Y.D.Y.Z.V.A.V.V.M.M.V.A.A.J.T.W./.lXxX(.C.lXZ.6 ) t . ",
"O .     . O O   - R.zX/.lXE.= . = S.Z.v.D.^.~.^.zXV.o   = C S B f ; g g g ; v g % . O     . @ = ; 9 b B./.cXzXY.X o . . ",
". u } t O O . J [ +.E.lXlX(.A %.W.lXzXzX(.J.A c ^.sXk.p - 9 $ ( y.~ @ # % ) k.V O O . J } e O O X * r 7 ; v.).R.c l O O ",
".  .6X%X  + . 2.6X%X- Y.lXkX/.lXlX/.aXZ.b.B = . v h.,X$X& O . ..#Xy.* - @ &.K.Z O O . =.5X&X. O O o.<.Q ; v ; C.m.z.O O ",
"O   u +X. O O   a &X. $ J.lX/./.).).lXA X X   @ o . = 9 X . o     X o = X   X ( O O %   J %XO $ - :.#   f.).v d.Q.y.O O ",
"O . G %X. O O . ^ *X. O O m.lXlX^./.lX!.; X C ; + O 9 X = . @ . = - X . X ; 6 +X. + - X ^ %X. ; b./ 3 . P.zX).).I.y.O O ",
"O   u +X  . O   J *X  O O   %.n.c xX(.xXn.c kXS % . C S @ O # v n a.  + g B.) +X. . v.B ^ ;X@ n.xXf.% g (.)./.kXH.3.. O ",
". #  .=X> + O # ..5X> + O : [ 6.8 ^.lXcX^.E.lXZ.. ; (.R.- $ 9 ~.Z.k e $ d.kXg.l.- c lX!.+.9.z ^.lX(.v C lX/.xXE.y.5X> + ",
". 3.4X4X&Xt   i.2X4X=Xt   3.5X6X&Xk Z J.(.zXlX).v.E.lX/.A @ A.cX).C &.n (.lX!.j n !.lXlXR.9 V.lX/.lX(.!.xXlXA.l %X7X&Xt ",
". % % + + O O O + + + O . # + O + . O : s M.P.(.zXlXlXxXR.V.lX/.lXR.v V.lX/.lXA.A.lX/.kXlX(.aXlXlXlXxXlXW.%.O + # O # O ",
"+       O . O     . . . O       O O O         8 Z b.F.!.lXxXlXkXkX).kXzXzXlXkXlXcXlXlXlX).kX^.(.R.A.d.f o . O         . ",
". ..&X .. O . R o.F O O . ..*X .. O . } +XOXq.:   *.*Xy.z Z m.pXdXpXV.J.T.W.dXQ.Z.Z.C.I.H.G.k.x X [ p.p.q.> .  .@XOXp.3 ",
". t '.&X. O . 4 ' ,.. O O p OX%X  O % 6Xi.~ 6XO.  a q.%X. . O 4 w.oX  O O : R o.. + . l.~ : .X/   5X0.^ 6X[   6X9.^ 5X .",
"O   u +X. O O   4 >.. O O   J '.  O + -Xe   q...    i +XO O O   u %X  O O   , ` . O . >X3   l./ . %X>   _.[   -X3   p. .",
"O . ~ +X. O O . r >.. O O . ^ +X  O % -Xa   XX... . G oX. O O . ~ %X. + O . w :.O O . @X6   l.} . &Xt   XX^ . -Xt   '. .",
"O   u OX  . O   4 :.. . O   J _.  . + -Xe   q....   t XX  . O   G +X  O O   , ' . . . l.3   l.^   &X3   _.[   -X>   q. .",
". a '.9X} , . w ' j.y # . u +X7X} > O 6Xq.^ 6X..  G _.8X .> . u +X9X} 3 . 4 _ 7.y # . ,X4.~ <X/   1X0.[ 7X^   6Xw.[ 6X} ",
". [ 0.0.9.> . y E E W : . | 0.3.0.5 . ~ 0.5.3.: . } 0.3.0.5 . X.0.3.9.5 . y Q W E : . ~ 4.4.O.: . K 0.9.3.: . ^ 0.0.=.> ",
"O         . O .       . O         . O         . O         . O         . O .       . O         . O .       O O         . ",
"O > < # O O . + < < $ O O # > + O O . O , , # O . + : + O O O # , + O O . : , + O O O : > + O O O O < , # . O # > # O O ",
"  s.fX].. O   [.yX|.yXU   3.8Xq.  O O q.-X+X2Xa . E 1._ . O . 2.6X_.. O . 2.6Xp.. O . 3.7Xq.O O . q.=X%X4Xp . O.,X0.. O ",
"O . @.eX. O . gXY   {.r.  . } %X. O + 5XK   +X..  O w ` O O O . [ =X  O O O ^ &X. O O . X.;XO . + -Xa   oX}   O / @X. O ",
"O   I |.. O . fXs   [.e.  . K '.  O + -Xt   .X..  O 4 ` . O O   J %X  O O   a *X. O O   ~ %X. O O +X5   _.[   . ~ @X. O ",
"O . I eX. O . fXL   [.e.  . ^ +X. O % -Xu   .X| . O 4 ` . O O . K %X  O O . u *X. O O   ^ %X. . O %Xe   XX[   . ~ @X. O ",
"O   U eX  . . fXs   [.r.    H +X  . % 4Xe   .X..  . 4 ` . O O   J %X  O O   u *X  O O   ~ %X. . + *X3   _.[   . J @X. O ",
". s.yXhX{.s   iXuX{.gXY   2.5X8X+Xt . &X-X+X7X~ . R ,.7.' : . 6.4X9X+Xe . 2.2X9X+Xe   3.5X0X+Xe . +X-X+X8XG   O.:X,Xl.5 ",
". s I U I > . > I I L O O i G u ~ : . : G ~ u O . : w 4 w + . i G u G # . e K u K # . t G u G # . , G ~ t O O e u t u + "
};
