/* XPM */
static char *result[] = {
/* columns rows colors chars-per-pixel */
"65 65 97 2 ",
"   c #520E7D",
".  c #4F0E79",
"X  c #180424",
"o  c #180423",
"O  c #2F0848",
"+  c #4B0D71",
"@  c black",
"#  c #010002",
"$  c #3E0C5D",
"%  c #010001",
"&  c #07010B",
"*  c #1D052B",
"=  c #4F0E77",
"-  c #0C0212",
";  c #0A020F",
":  c #510E7B",
">  c #27083C",
",  c #050108",
"<  c #060109",
"1  c #230734",
"2  c #450C68",
"3  c #510E7C",
"4  c #4D0E74",
"5  c #360A51",
"6  c #040105",
"7  c #040106",
"8  c #28073D",
"9  c #370950",
"0  c #0C0213",
"q  c #08010D",
"w  c #07010A",
"e  c #470C6C",
"r  c #350951",
"t  c #110319",
"y  c #030105",
"u  c #250637",
"i  c #29073F",
"p  c #020003",
"a  c #3B0A5A",
"s  c #430C66",
"d  c #27073B",
"f  c #500E7A",
"g  c #4B0E70",
"h  c #410B63",
"j  c #2A0740",
"k  c #210631",
"l  c #480D6C",
"z  c #4D0E73",
"x  c #4D0D75",
"c  c #4B0E71",
"v  c #31084A",
"b  c #34094E",
"n  c #2A073F",
"m  c #33094D",
"M  c #370954",
"N  c #4C0D73",
"B  c #4F0E78",
"V  c #220634",
"C  c #29073D",
"Z  c #300949",
"A  c #220A30",
"S  c #3C0E58",
"D  c #20052F",
"F  c #490C6F",
"G  c #3F0B60",
"H  c #11041A",
"J  c #470E6A",
"K  c #390A56",
"L  c #370A53",
"P  c #340A4E",
"I  c #09020E",
"U  c #12031C",
"Y  c #3F0B5D",
"T  c #0A010D",
"R  c #240636",
"E  c #4C0F71",
"W  c #0D0213",
"Q  c #380A55",
"!  c #370A52",
"~  c #020002",
"^  c #430D62",
"/  c #4E0F76",
"(  c #480C6D",
")  c #4A0D71",
"_  c #480C6C",
"`  c #380955",
"'  c #1F0530",
"]  c #400B5E",
"[  c #3A0A59",
"{  c #4D0D76",
"}  c #4D0E75",
"|  c #260739",
" . c #4C0D74",
".. c #3B0A59",
"X. c #2B0741",
"o. c #1D052D",
"O. c #240737",
/* pixels */
"                                                                                                                                  ",
"                                                                                                                                  ",
"                                                                                                                                  ",
"                                                                                                                                  ",
"                                                                                                                                  ",
"                                                                                                                                  ",
"                                                                                                                                  ",
"                                                                                                                                  ",
"                                                                                                                                  ",
"                                                                                                                                  ",
"                                                                                                                                  ",
"                                                                                                                                  ",
"                                                                                                                                  ",
"                                                                                                                                  ",
"                                                                                                                                  ",
"                                                                                                                                  ",
"                                                                                                                                  ",
"                                                                                                                                  ",
"                                                                                                                                  ",
"                                                                                                                                  ",
"                                                                                                                                  ",
"                                                                                                                                  ",
"                                                                                                                                  ",
"                                                                                                                                  ",
"                                                                                                                                  ",
"                                                                                                                                  ",
"                                                                                                                                  ",
"                                                                                                                                  ",
"                                                                                                                                  ",
"                  .                                                                                                               ",
"                  X                                                                                                               ",
"                  o                                                                                                               ",
"                  O +                                                                                                             ",
"                    @                                                                 @ @ @ #                                     ",
"                    @ $                                                             @ @ @ @ @ %                                   ",
"                    & @                                                           @ @ @ @ @ @ @ *                                 ",
"                      @ =                                                       @ @ @ @ @ @ @ @ @                                 ",
"                      - ;             : > , % @ @ @ < 1 2     3 4             : @ @ @ @ @ @ @ @ @                                 ",
"                        @       5 @ @ @ @ @ @ @ @ @ @ @ @ @ @ @ @ @ @ % 6 7 8 9 @ @ @ @ @ @ @ @ 3                                 ",
"                        % 0 q @ @ @ @ @ @ @ @ @ @ @ @ @ @ @ @ @ @ @ @ @ @ @ @ @ @ @ @ @ @ @ @ w                                   ",
"                          @ @ @ @ @ @ @ @ @ @ @ @ @ @ @ @ @ @ @ @ @ @ @ @ @ @ @ @ @ @ @ @ @ @ @                                   ",
"                          @ @ @ @ @ @ @ @ @ @ @ @ @ @ @ @ @ @ @ @ @ @ @ @ @ @ @ @ @ @ @ @ @ @ e                                   ",
"                          @ @ @ @ @ @ r t @ @ @ @ @ @ @ @ @ @ @ @ @ @ @ @ @ @ @ @ @ @ @ @ @                                       ",
"                          y @ @ @ u     @ @ @ @ @ @ @ @ @ @ @ @ @ @ @ @ @ @ @ @ @ @ @ @ @ i                                       ",
"                          : p @       a @ @ @ @ @ @ @ @ @ @ @ @ @ @ @ @ @ @ @ @ @ @ @ @ @ s                                       ",
"                                      @ @ @ @ @ @ @ @ @ @ @ @ @ @ @ @ @ @ @ @ @ @ @ @ @ @ @                                       ",
"                                      , @ @ @ @ @ @ @ @ @ @ @ @ @ @ @ @ @ @ @ @ @ @ @ @ @ @                                       ",
"                                      d @ @ @ @ @ @ @ @ @ @ @ @ @ @ @ @ @ @ @ @ @ @ @ @ @ @ f                                     ",
"                                        @ @ @ @ @ @ @ @ @ @ @ @ @ @ @ @ @ @ @ @ @ @ @ @ @ @ g                                     ",
"                                          @ @ @ @ @ @ @ @ @ @ @ @ @ @ @ @ @ h   = @ @ @ @ @ j                                     ",
"                                          k @ @ @ @ @ @ @ @ @ @ @ @ @ @ l         @ @ @ @ @ z                                     ",
"                                            @ @ @ @ @ @ @ @ @ @ @ @ @ @           x @ @ @ @ c                                     ",
"                                            @ @ @ @ @ @ @ @ @ @ @ @ @ @             v @ @ @ @ %                                   ",
"                                            ; @ @ @ @ @ @ @ @ @ @ @ @ @ b             n @ @ @ @ m                                 ",
"                                            M @ @ @ @ @ @ @ @ @ @ @ @ @ @ N             @ @ @ @ @                                 ",
"                            B                 @ @ @ @ @ @ @ @ @ @ @ @ @ @ %             V @ @ @ @ @                               ",
"                          C @ @ % Z     v A S D @ @ @ @ @ @ @ @ @ @ @ @ F                 @ @ @ @ @ G                             ",
"                          # @ @ @ @ @ & @ @ @ @ @ @ @ @ @ @ @ @ @ @ @ H                   : @ @ @ @ @ @                           ",
"                          @ @ @ @ @ @ @ @ @ @ @ @ @ @ @ @ @ @ @ @ @ @ J                     K @ @ @ @ @ L                         ",
"                        P @ @ @ I U @ @ @ @ @ @ @ @ @ @ @ @ @ @ Y @ @ T                       3 @ @ @ @ @ R                       ",
"                        @ @ @ 4       + @ @ @ @ @ @ @ @ @ @ @ @ E @ @ @                         W @ @ @ @ @ @                     ",
"                      Q @ !                 ~ @ @ @ @ @ @ @ @ @ ^ @ @ @ 7 /                       ( @ @ @ @ @                     ",
"                        @                       ) % @ @ @ @ @ _ @ @ @ @ @ @ , ` '                     @   ] 6 @                   ",
"                        [ % {                       } + | |  .  % @ @ @ @ @ @ @ ..                  X.@   f   @ o.                ",
"                                                                  8 O.I @ @ @ @ @ @                                               "
};
