/* XPM */
static char *result[] = {
/* columns rows colors chars-per-pixel */
"65 65 213 2 ",
"   c #1A2513",
".  c #1D2916",
"X  c #1C261A",
"o  c #1E2A19",
"O  c #1E3510",
"+  c #232E1F",
"@  c #202B15",
"#  c #233C13",
"$  c #2A3B13",
"%  c #24321E",
"&  c #263D1B",
"*  c #2A3B1F",
"=  c #243614",
"-  c #1E2822",
";  c #212A25",
":  c #242D2A",
">  c #253122",
",  c #2A3E21",
"<  c #27312E",
"1  c #29322E",
"2  c #2F3E2D",
"3  c #323F2E",
"4  c #2A3432",
"5  c #2C3835",
"6  c #313937",
"7  c #313D3B",
"8  c #294012",
"9  c #2B421D",
"0  c #2F491D",
"q  c #2E4915",
"w  c #314315",
"e  c #364B17",
"r  c #3C4E15",
"t  c #33461B",
"y  c #334B1C",
"u  c #3B4F1A",
"i  c #3D5116",
"p  c #34521B",
"a  c #3C531D",
"s  c #2D4322",
"d  c #2E4229",
"f  c #2F4825",
"g  c #314625",
"h  c #334A25",
"j  c #394F22",
"k  c #32462B",
"l  c #354C2A",
"z  c #394E2B",
"x  c #375220",
"c  c #3B5223",
"v  c #3B522C",
"b  c #3F5A2D",
"n  c #395527",
"m  c #344634",
"M  c #364A32",
"N  c #3A4D34",
"B  c #35443B",
"V  c #39443B",
"C  c #3A4C3C",
"Z  c #37483B",
"A  c #3D5333",
"S  c #3F523A",
"D  c #3F5930",
"F  c #41551D",
"G  c #445B1B",
"H  c #48591D",
"J  c #47621E",
"K  c #4A651C",
"L  c #4E6A1D",
"P  c #506D1E",
"I  c #445726",
"U  c #425B24",
"Y  c #42572B",
"T  c #435B2C",
"R  c #495D2D",
"E  c #404F34",
"W  c #425634",
"Q  c #425B33",
"!  c #4B5D34",
"~  c #41543C",
"^  c #455C3B",
"/  c #495E3B",
"(  c #4A6424",
")  c #4C6922",
"_  c #46622D",
"`  c #4A642D",
"'  c #4D682A",
"]  c #52652E",
"[  c #516A2C",
"{  c #586E2D",
"}  c #557224",
"|  c #57712C",
" . c #5C782D",
".. c #476134",
"X. c #4A6333",
"o. c #4E6834",
"O. c #4B623C",
"+. c #526534",
"@. c #536A33",
"#. c #52643B",
"$. c #556B3A",
"%. c #5A6D3F",
"&. c #586E36",
"*. c #5D7534",
"=. c #5D753A",
"-. c #577034",
";. c #627D2C",
":. c #617638",
">. c #637A3A",
",. c #607B33",
"<. c #364441",
"1. c #3A4646",
"2. c #3B4A44",
"3. c #3D4B4A",
"4. c #3F5041",
"5. c #424E4E",
"6. c #414944",
"7. c #445544",
"8. c #475B42",
"9. c #4A5E44",
"0. c #43524C",
"q. c #48564D",
"w. c #4B5C4A",
"e. c #455252",
"r. c #4A5655",
"t. c #4D5B55",
"y. c #4B5759",
"u. c #4D5B5A",
"i. c #515D56",
"p. c #525E5D",
"a. c #4C6244",
"s. c #4E614C",
"d. c #526544",
"f. c #576D44",
"g. c #596E44",
"h. c #52644C",
"j. c #56694C",
"k. c #5A6D4B",
"l. c #5E724C",
"z. c #5D7444",
"x. c #4F6152",
"c. c #526454",
"v. c #566855",
"b. c #5B6C54",
"n. c #55645C",
"m. c #59655E",
"M. c #57695A",
"N. c #5A6A5D",
"B. c #596454",
"V. c #5D7153",
"C. c #626E40",
"Z. c #637A47",
"A. c #61724D",
"S. c #697B49",
"D. c #60675F",
"F. c #626E5D",
"G. c #637353",
"H. c #62735C",
"J. c #6B755B",
"K. c #6A7B58",
"L. c #777F5A",
"P. c #525F60",
"I. c #566362",
"U. c #596665",
"Y. c #5C6A63",
"T. c #5B666B",
"R. c #5D696B",
"E. c #646C65",
"W. c #696F66",
"Q. c #616D6D",
"!. c #6C7563",
"~. c #63706E",
"^. c #6B736A",
"/. c #687864",
"(. c #757B6A",
"). c #636F70",
"_. c #647070",
"`. c #6B7572",
"'. c #737A75",
"]. c #757D79",
"[. c #787F79",
"{. c #767A73",
"}. c #6F833E",
"|. c #6D8541",
" X c #758C43",
".X c #728257",
"XX c #758065",
"oX c #7E8375",
"OX c #7C827B",
"+X c #849B48",
"@X c #81876F",
"#X c #848C76",
"$X c #82867C",
"%X c #85897B",
"&X c #8B8D7C",
"*X c #818275",
"=X c #8F927C",
"-X c #8A9071",
";X c #949C70",
":X c #868B81",
">X c #8A8E82",
",X c #8E9084",
"<X c #939485",
"1X c #959689",
"2X c #9C9B8A",
"3X c #989B86",
"4X c #A7A982",
"5X c #A1A08D",
"6X c #A4A491",
"7X c #AAA792",
"8X c #ADA996",
"9X c #B0AC96",
"0X c #B5B298",
/* pixels */
"T.T.T.T.R.Z.o._ b _ T j.Y.U.T.T.T.T.T.T.T.T.T.T.T.Q.R.Y.N v v l l s s n b h 9 * , , s D Q Q a.n.T.T.T.T.T.T.R._.T.T.T.T.R.P.u.Q.T.",
"T.s.s.c.M.V.} ) ( G U d.k.E.Q.Q.Q.Q.Q.T.T.Q.T.Q.Q.Q.e.y.M Q A Q Q h ..O. X}., s , d d b a.s.x.T.T.T.T.T.T.T.R.).T.T.T.T.R.P.y.).R.",
"c.D Q Q Q A b ) ( c z 8.s.q.u.r.r.i.I.I.P.P.P.i.y.r.5.C k l l l h l O.v./.-XB d 2 <.m W n.T.T.T.T.T.T.T.T.T.R._.T.T.T.T.R.P.5.I.U.",
"7.A l s s v T O./.H.XX@X,X=X=XW.: 5.R.U.Q.T.Q.T.T.U.Y.i./ Q / v s a.O.U.Q.<X'.W.i.1.<.7.Y.T.T.T.T.T.T.T.T.T.R._.T.T.T.T.R.u.3.e.y.",
"R.Y.a.l A x.2.C T.U.b.N.E.).`.9X1 R.R.T.T.T.T.T.T.T.T.U.n.^ M.9.l s.^ U.T.Q.`.OX*X1.1.y.Q.Q.T.T.T.T.T.T.T.T.R._.Q.Q.Q.Q.).u.T.~.).",
"T.T.c.A s.U.e.7.T.U.g.m.T.T.T.5X5 R.U.T.T.T.T.T.T.T.T.T.n.a.R.U.S 9.^ I.T.T.T.R.{.1.1.6.y.T.Q.Q.R.Q.R.~.~.R.R.n.~.Q._._.R.y.R.Y.T.",
"T.T.M.S x.Y.N.a.Y.b.b.Y.T.T.T.1X5 U.T.U.T.T.T.T.T.T.T.T.I.Y.Y.T.7.9.s.n.T.T.T.~.Q.1.3.3.5.e.y.y.y.y.y.u.u.t.x.S s.a.c.s.0.5.Q.U.T.",
"T.T.U.8.u.T.T.n.U.T.U.U.T.T.T.>X6 r.U.R.F.Z.Q.Q.Q.R.Q.Q.Q.~.T.U.A 7.R.U.T.U.R.~.P.P.Q.Q.Q.Q.Q.).Q._.T.3.T.~.R.n.T.c.h.M.0.e.).U.T.",
"T.T.T.8.u.T.T.T.T.T.Y.N.T.T.T.].V ; 4 / ,.{ j.T.s.M.T.T.~.Y.T.T.S S ~.T.T.T.~.I.3.T.T.T.P.Q.T.Q.T.Q.Q.e.T.U.T.T.T.a.^ x.7.e.Q.U.T.",
"T.T.T.w.u.T.T.T.T.T.U.N.T.T.T.`.6.; X k ) L ) X.L ' M.M.v...a.I.l s 7.n.I.I.e.1.3.I.I.I.Q.P.P.P.T.Q.U.5.U.).R.R.R.^ Q a.8.q.Q.T.T.",
"T.T.U.i.t.Y.T.T.T.T.U.N.T.T.T.Q.6.; = t a a h p f f f f s 9 s 9 O O & k v M A S r.i.u.u.y.u.p.P.i.i.r.r.3.1.5.3.3.l l l d 0.Q.T.T.",
"T.T.U.I.r.R.T.T.T.T.Y.N.T.T.T.).^ F t t K L T T J v A A n l x 0 v s k Y.T.R.~.R.)._._.^.`.`.`.`.'.{.[.OXE.i.#X7.d f b ^ v 7.Q.U.T.",
"T.T.T.U.5.).T.R.R.R.Y.N.T.R.R.).2.+ . z =.*. .j. .O.n.I.I.a.n.Y.Q.x.3.R.R.R._.T.T.T.T.T.T.T.T.T.T.T.T.T._.'.K.! s D v.R.s.0.R.U.T.",
"T.T.T.U.5.Q.)._.).Q.Q.b.R.R.U.p.1   . ^ V.l.Y.Y.V.f.T.T.T.x.I.T.R.U.3.T.R.R._.T.T.T.T.T.T.T.T.T.T.T.T.T.T.T.v.T 7.Y.T.T.U.e.T.U.T.",
"T.T.T.U.5.R.Q.Q.Q.Q.R.j.u.u.u.1.- > C a.H.R.T.T.T.n.T.T.T.x.U.T.R.T.B P.R.~.~.R.T.T.T.T.T.T.T.T.T.T.T.T.T.T.).W I.U.U.T.T.r.U.U.T.",
"T.T.T.U.5.T.U.T.T.T.T.b.T.T.U.U.6 Y.l.M.Y.T.T.T.T.c.T.T.T.x.U.T.R.R.< 3._._._.R.T.T.T.T.T.T.T.T.T.T.G.Y.U.R.).W R.U.T.T.T.y.U.T.T.",
"T.T.R.T.3.I.T.T.T.T.U.N.N.T.R.T.2.V.N.m.m.T.T.T.T.x.Y.T.T.T.U.T.Q.U.< 1.).).).).T.T.T.T.T.T.T.T.Y.Y.,.A.T.Z.V.A U.T.T.T.T.u.T.T.T.",
"T.)._.R.3.3.y.I.I.T.E.T.b.Y.p.q.a.V.R.n.n.U.T.T.T.c.I.T.T.T.Y.T.Q.I.< <.Q.).).).).).R.R.R.R.Y.j.Y.%.] ] Y.C.} c u.~.R.R.R.5.I.R.U.",
"U.I.u.e.e.I.U.I.I.P.P.p.r.^ a.f.c.3.y.n.n.U.I.U.U.I.I.T.I.I.U.U.P.r.6 <.e.y.i.u.y.P.u.u.p.t.w.c G R F u C ~ H k B B 3.3.1.1.3.p.U.",
"3.3.3.3.e.U.I.U.I.I.I.I.n.7.q.p.y.1.1.7.q.r.y.r.r.r.e.3.3.e.I.Y.W.{.%X%X<X%Xi.1.1.e.I.P.e.w.a.#.] H r $ $ w t * 2 m m m <.3.5.3.3.",
"R.T.U.R._.'.OX<XoX%X3X2X5X5X,X3.1.3.I.E.Y.Q.T.Q.)._._.).I.I.).R.u.I.Q.`.OX6X0X^.1.3.I.T.T.R.~.~.J.] $     $ #.w.T.U.Q.T.R.U.R.R.R.",
"Q.T.T.Q.~.T.U.OXu.u.Q.^.`.'.OXP.1.I.Q.I.m.T.T.U.R.9.a.s.s.R.T.T.T.T.T.T.T.).:X6X1.1.3.P.T.T.T.T.D.%.+   @ Y ! h.T.T.T.T.T.R.T.R.).",
"T.T.T.T.).T.T.).`.R.T.T.T.T.T.).y.Q.T.I.s.U.T.T.n...O.N.R.~.R.T.T.T.T.T.T.T.T.6X1.1.3.P.T.T.T.T.i.L.; @ , / p.c.T.T.T.T.T.T.T.T.).",
"R.T.T.T.).T.T.I.T.T.T.T.T.T.T.T.p.T.E.I.s.I.T.T.a.Y.a.T.T.R.T.T.T.T.T.T.T.T.T.2X1.3.I.T.T.T.T.T.E.*X, l #./ m.U.T.T.T.T.T.T.T.T.Q.",
"T.T.T.T.v.I.T.I.T.T.T.T.T.T.T.R.p.U.T.U.I.T.T.n.s.T.Y.U.T.T.T.T.T.T.T.T.T.T.T.,Xe.5.R.T.T.T.T.T.E.(., W h.a.U.T.T.T.T.T.T.T.T.T.Q.",
"Q.T.T.U.a.n.T.T.T.T.T.T.T.T.T.R.I.U.R.U.U.T.T.n.x.T.T.T.T.T.T.T.T.T.T.T.T.T.T.:XP.y.R.T.T.T.T.T.T.{ 3 / Y.c.U.T.T.T.T.T.T.T.T.U.Q.",
"R.T.T.R.a.M.T.T.T.T.T.T.T.T.T.R.I.^ U.U.U.M.I.a.n.T.T.T.T.T.T.T.T.T.T.T.T.T.T.OXP.u.U.T.T.T.T.@.h.R y #.N.E.R.T.T.T.T.T.T.T.T.E.).",
"R.T.T.R.a.M.T.T.T.T.T.T.T.R.T.R.U.Q n.T.T.s.D Q U.T.T.T.T.T.T.T.T.T.T.T.T.T.T.'.P.P.p.T.V.V.N.[ #.G j T +.v.Q.).Q.Q.Q.Q.Q.).).).).",
"R.U.T.R.O.n.T.T.T.T.Q.Q.).)._._.T.8.Y.T.U.s.D Q I.U.T.T.T.T.R.T.U.T.T.T.Q.E.Q.).p.u.Z 7.W ) ) ( I F r I 9.E._._.R.T.T.T.R.Q.Q.H./.",
"N.$.N.k.A Y.T.T.T._.Q.T.T.R._.R.u.n.R.T.T.x.^ D s.n.I.T.I.T._.Y.Y.N.M.n.P.T.T.P.3.m ~ w.s.s.Q Q T Y t ~ R.T.R._.R.T.T.U.T.T.Y.G.;.",
"[ ] -.U f M.R.R.T._.~.T.Q.T.u.<.1 u.Q.T.T.U.8.Q x.O.S ....x.x.M.Y.b.Q v S i.u.u.e.g Y.R.R.R.h.X.o...g l R.).)._._.Y.a.w.v.c.d.R L ",
"F G G c f l S S <.3.Y.x.<.4 ; - ; t.R.T.n.a.A Q s.a.s.n.s.D a.~.Q.R.Y.a.a.Y.N.).n.N R.U.T.T.T.d.T b g , d N N N Z l h h g c u i i ",
"r i a ' l.M.M.Y.R.T.U.U.I.P.u.7.l v a.I.^ Q D D a.s.I.T.n.n.).R.T.T.T.U.s.D D s.x.9.U.T.T.T.T.f._ h h , A N.a.v.M.Y.M.s.l v v a e ",
"e a _ h.T.T.U.T.T.T.T.T.T.R.R.....j b Q v D Q ^ Y.x.T.T.T.T.~.R.T.T.T.T.U.w.D ..t.n.T.T.T.T.T.k.a.g h A R.~.T.T.T.T.T.T.v A M.T s ",
"t J o.Y.T.T.T.T.T.T.T.T.T.T.T.D ..t x p p x D x.Q.c.T.T.T.T.).R.T.T.T.U.a.^ D ..w.p.T.T.T.T.T.f.Y.c.h s.R.T.T.T.T.T.T.T.A ^ Y...9 ",
"9 X.a.I.T.T.T.T.T.T.T.U.Y.n.n.Q b w q p p x b a.Q.c.U.T.T.T.Q.~.G.T.T.U.8.D Q ..v c.T.T.T.T.T.b.U.n.h w.T.T.T.T.T.T.T.T.9.9.Y.a.* ",
", 9.M.I.T.T.T.T.T.T.T.T.s.Q Q D n 8 p p p p p T M.x.Y.T.A.b.E.G.;.M.n.....b ....h t.T.T.T.T.T.k.Y.U.v t.T.T.T.T.T.T.T.T.I.n.U.a.s ",
", S Y.R.T.T.R.R.T.R.R.T.s.Q Q T p 8 q p p p p T h.q.R.T.=.{ j.} L ( ..( ) ..D l l t.T.T.T.T.N.n.T.T.n t.T.T.I.T.T.T.T.T.U.T.Y.^ * ",
", l t.U.Q.)._.`._._._.Q.Q j 0 9 # 8 8 8 # = O = , d k B M G g h L c U n z h l D D t.T.T.T.T.f.T.U.R.A e.R.R.a.T.T.Q.T.).).).Y.A , ",
"s s f d k m 2.3.3.3.3.2.t.^.!.B J.:.! J.g.+.X./ A S k > X . o g -.' ` ] ] +.b.h.S n.T.T.T.b.Y.T.T.T.u.2.2.M f f k m k k m Z d s s ",
"R.h.R._.~.).~.~.e.3.1.y._.`.<X3.Q.G.F.G.!.S.S.:.|. X+XR . g o.Z.M.s.Q 9.h.^.OX1X5Xx.Y.M.N.Y.T.T.T.Q.I.3.n.M.a...a...D D x.C a.Y.Q.",
"U.Y.T.T.R.R.R.).Y.1.e._.~.T.].Y.T.U.n.n.I.U.T.c.h.U.G.+., X.v.F.T.T.a.s.x.T.T.T.1Xu.R.R.T.T.T.T.T.R.u.3.R.R.x.D x.a.f 2.T.4.M.R.T.",
"T.T.T.T.T.T.T.).R.<.T.Q.T.T.T.T.T.T.I.Y.T.T.T.T.T.T.Q.A.g O.Y.b.T.T.x.n.I.T.T.T.>Xr.Q.R.T.T.T.T.T.R.n.y.R.T.n.D T.T.Q a.U.t.M.T.T.",
"T.T.T.T.T.T.T.~.R.6 I.R.T.T.T.T.T.T.Y.n.T.T.T.T.T.T.Q.!.g O.U.V.U.T.I.U.T.T.T.T.OX5.R.R.T.T.R.T.T.Q.I.y.T.T.I.n.T.T.^ s.T.c.M.T.T.",
"T.T.T.T.T.T.T.R.R.4 p.T.T.T.T.T.T.T.m.m.T.T.T.T.T.T.T.J.g O.U.V.T.T.T.T.T.T.T.T.].6 p.Q.Q.Q.Q.Q._._.P.r.T.T.T.T.T.U.8.w.T.P.T.T.T.",
"T.T.T.T.T.T.T.Q.R.: y.Y.T.T.T.T.T.U.Y.Y.T.T.T.T.T.T.T.k.l s.T.V.T.T.T.T.T.T.R.).`.4 e.Q.T.Q.R.)._._.I.e.T.T.T.T.T.T.a.a.T.I.R.T.T.",
"T.T.T.T.T.T.T.R.U.: e.a.I.T.T.T.T.T.U.Y.T.T.T.T.T.T.R.b.l h.T.V.T.T.T.T.T.T.).R.n.< 5.Q.T.T.T.B._.).p.e.T.T.T.T.T.T.a.a.T.n.Q.T.T.",
"T.T.T.T.T.T.T.Q.p.; B 9.I.I.I.T.T.T.U.T.T.T.T.T.T.T.Q.Y.l h.U.b.T.T.T.T.T.T.T.I.Y.1 <.T.U.m.n.v ^ h.7.2.T.T.T.n.U.T.Q a.R.I.R.T.T.",
").Q.Q.).Q.~._._.1.; , ^ ^ W Q c.s.c.U.R.T.R.Y.T.R.R.~.I.l c.N.U.T.T.T.T.T.T.R.U.7X{.: B Z v l s * s , d c.n.h.^ a.U.! Q j.t.~.Q.R.",
"Q.T.T.T.T.Q.Q.Q.5 X @ g Y z D O.v.s.Y._.~.~.j.N._.Q.R.3.k c.T.T.T.T.T.T.T.T.R.U.~.*X; - . s f n v _ X.@.&.=.:.Y * s , * s M N.R.).",
"Q.T.T.T.T.T.T.h.w @ X + , > , k k l M N 1.Z d M m d s B M n.T.T.T.T.T.T.T.T.U.R.R.{.; > D ..8.4.9.d.d.Q Q Q  X>.s +.g.R m e.R.T.Q.",
"Q.T.T.T.T.T.m.X.* > G ^ i.n.n.I.Y.U.U.y.1.q.I.^.oX&X&XN.2.I.T.T.T.T.T.T.T.T.T.R.Y.'.; l ..a.I.w.U.U.U.s.t.n.v.>.9.#X3X;X=Xu.R.T.R.",
"R.T.T.T.T.T.T.! < ; W =.Y.R.R.R.R.R._.R.e.R.).R.R.R.].oX3.R.T.T.T.T.T.T.T.T.T.R.U.^.k ..^ U.T.n.U.T.T.n.I.T.T.$.Q.T.T.'.9XY.T.U.Q.",
"R.T.T.T.T.T.T.N.4 ; i.f.U.T.T.T.T.T.T.R.u.U.R.T.T.9.x.!.k M.T.T.T.T.T.T.T.T.T.).U.Y.N a.w.T.T.T.T.T.T.I.I.T.T.$.E.U.T.Q.6XE.Q.T.).",
"Q.T.T.T.T.T.T.).4 : I.Y.T.T.T.T.T.T.T.T.U.u.).U.U.8.Q X.k n.T.T.T.T.T.T.T.T.T.).U.c.A N.n.T.T.T.T.T.T.U.U.T.T.d.Q.T.T.T.1XE.Y.Q.).",
"Q.T.T.T.T.T.Q.I.< < U.T.T.T.T.T.T.T.T.T.T.3.U.R.s.Q Q T s l n.T.T.T.T.T.T.T.T.).R.w.z N.T.T.T.T.T.T.T.I.U.T.T.Y.~.T.T.T.:XE.1.5.R.",
"p.P.p.P.P.p.r.< ; 4 U.T.T.U.T.T.T.T.T.T.R.e.1.7.Q ..Q v 9 d I.T.T.T.T.T.T.T.T.).R.^ v v.U.T.T.T.T.T.T.n.I.T.E._.Q.U.T.T.OXW.1.1.y.",
"r.r.r.e.5.5.5.5.5.3.e.~.`.'.OX$XOX:X>X,X1X.X&.! b h s s , B I.T.T.T.T.T.T.T.T.).T.8.l c.T.T.T.T.T.T.T.U.U.T.U._.).T.T.T.].W.e.y.y.",
"T.T.T.U.T.R.T.T.R.T.3.R.Q.R.`.Q.1.I.`.].].OXOX#X=X4X4XB.1.I.T.T.T.T.T.T.T.T.T.).R.w.l s.U.T.T.T.T.T.T.T.T.T.U._.Q.T.T.T.`.~.T.R.Q.",
"T.T.T.T.T.T.T.T.T.Q.y.T.R.U.R.`.P.T.T.T.T.U.U.T.R.OX8X<Xe.R.T.T.T.T.T.T.T.T.T.).R.9.h a.T.T.T.T.T.T.T.I.T.T.T.).R.U.T.T.`.^.U.U.T.",
"T.T.T.T.T.T.T.T.T.T.I.U.R.T.T.T.T.T.T.T.T.T.T.T.T.~.`.<Xr.T.T.T.T.T.T.T.T.T.T.P.Y.8.l O.T.T.T.T.T.T.T.T.T.T.T.Q.T.T.T.T.Q.Q.I.T.T.",
"T.T.T.T.T.U.T.T.T.T.I.Y.R.T.T.T.T.T.T.T.T.T.T.T.T._._.].i.T.T.T.T.T.T.T.T.T.T.S w.^ h ^ T.T.T.T.T.T.T.T.T.T.T.Q.Q.T.T.T.R.E.Y.T.T.",
"T.T.T.T.R.).T.T.T.U.w.U.R.T.T.T.T.T.T.T.T.T.T.T.T._._.`.r.U.Q.R.T.T.R.U.p.h.n.M U W f ^ T.T.T.T.T.T.T.T.T.T.T.).T.T.T.T.Q.I.I.T.T.",
"T.T.T.T.R._.R.T.T.n.~ U.T.T.T.T.T.T.T.T.T.T.T.T.T.R._.~.q.t.R.Y.b.Y.N.v.h.( U b G h g W p.T.T.T.T.T.T.T.T.T.Q.).T.T.T.T.E.n.I.T.T.",
"T.T.T.T.).).T.T.p.n.D I.T.T.T.T.T.T.T.T.T.T.T.T.T.).).T.2.d s s g s s * s t r 9 r t t U n.U.T.T.T.T.T.T.T.T.T.).T.T.T.T.Q.P.p.T.T."
};
