/* XPM */
static char *result[] = {
/* columns rows colors chars-per-pixel */
"60 60 242 2 ",
"   c #000300",
".  c #010C00",
"X  c #0A0B05",
"o  c #011302",
"O  c #041A06",
"+  c #051D09",
"@  c #091909",
"#  c #141A17",
"$  c #05230C",
"%  c #0A230C",
"&  c #08280C",
"*  c #032C12",
"=  c #0B2C13",
"-  c #082710",
";  c #162717",
":  c #053215",
">  c #0C3316",
",  c #043C1B",
"<  c #0D3B1A",
"1  c #093618",
"2  c #113D1C",
"3  c #173717",
"4  c #1B1D2A",
"5  c #191B26",
"6  c #1E242B",
"7  c #1E2B2A",
"8  c #23252B",
"9  c #222431",
"0  c #292A35",
"q  c #332E37",
"w  c #32363D",
"e  c #2E3233",
"r  c #47261B",
"t  c #562B19",
"y  c #67341C",
"u  c #70381B",
"i  c #5A3325",
"p  c #4D3739",
"a  c #543734",
"s  c #532E22",
"d  c #6A3923",
"f  c #763D22",
"g  c #0E441D",
"h  c #08461C",
"j  c #10441E",
"k  c #11491E",
"l  c #1E4317",
"z  c #244C1B",
"x  c #204418",
"c  c #29541E",
"v  c #074A24",
"b  c #124421",
"n  c #124C22",
"m  c #174C28",
"M  c #055429",
"N  c #06592D",
"B  c #145425",
"V  c #165529",
"C  c #155A29",
"Z  c #1A5C2D",
"A  c #165628",
"S  c #065E31",
"D  c #195A33",
"F  c #36473D",
"G  c #2A5528",
"H  c #17642E",
"J  c #056333",
"K  c #076937",
"L  c #1C6C34",
"P  c #1A6634",
"I  c #1D7439",
"U  c #1D7B3A",
"Y  c #1A7435",
"T  c #086E39",
"R  c #346627",
"E  c #217C3C",
"W  c #22723C",
"Q  c #2B6F37",
"!  c #7B4528",
"~  c #69453A",
"^  c #784C3A",
"/  c #7E523C",
"(  c #7D401D",
")  c #3A3C44",
"_  c #383946",
"`  c #2F3341",
"'  c #463D47",
"]  c #503D41",
"[  c #3D4247",
"{  c #335140",
"}  c #247945",
"|  c #2F6541",
" . c #057841",
".. c #42434D",
"X. c #4D434D",
"o. c #434849",
"O. c #57444A",
"+. c #4C4D53",
"@. c #4B4B5B",
"#. c #484651",
"$. c #534751",
"%. c #524E5C",
"&. c #594A53",
"*. c #4B5755",
"=. c #56545D",
"-. c #674A45",
";. c #795449",
":. c #6A5658",
">. c #755956",
",. c #705046",
"<. c #50665C",
"1. c #545263",
"2. c #56596E",
"3. c #5B5A6C",
"4. c #575767",
"5. c #5B5D73",
"6. c #575A71",
"7. c #4E5165",
"8. c #675C67",
"9. c #605F71",
"0. c #715E62",
"q. c #5B6567",
"w. c #5D6177",
"e. c #587868",
"r. c #66666C",
"t. c #776467",
"y. c #666774",
"u. c #6B7778",
"i. c #717C7E",
"p. c #61716B",
"a. c #823D1C",
"s. c #8A4928",
"d. c #914926",
"f. c #924928",
"g. c #94532C",
"h. c #8C5332",
"j. c #87553C",
"k. c #9C5E3B",
"l. c #975935",
"z. c #8D512E",
"x. c #A25F38",
"c. c #A55B2D",
"v. c #A3623D",
"b. c #AA6439",
"n. c #B46A3C",
"m. c #B86C3C",
"M. c #BE713F",
"N. c #92512F",
"B. c #C1703D",
"V. c #875A47",
"C. c #965F43",
"Z. c #815D53",
"A. c #986348",
"S. c #896458",
"D. c #976753",
"F. c #8F634F",
"G. c #AC6943",
"H. c #A46746",
"J. c #B46C43",
"K. c #B76F44",
"L. c #BC7244",
"P. c #BC734A",
"I. c #B67147",
"U. c #AA7055",
"Y. c #896C67",
"T. c #A57966",
"R. c #C4794D",
"E. c #C47748",
"W. c #C87C51",
"Q. c #1D833E",
"!. c #21833F",
"~. c #529C3C",
"^. c #498E36",
"/. c #56A43E",
"(. c #1E8540",
"). c #1E9845",
"_. c #228642",
"`. c #238B44",
"'. c #25834A",
"]. c #278A4C",
"[. c #249246",
"{. c #26954A",
"}. c #259B4B",
"|. c #289E4E",
" X c #259749",
".X c #299953",
"XX c #309655",
"oX c #26A24F",
"OX c #29A451",
"+X c #29AA54",
"@X c #27A854",
"#X c #2DB559",
"$X c #2BB458",
"%X c #37A460",
"&X c #58A641",
"*X c #5CB143",
"=X c #64BB49",
"-X c #60AF46",
";X c #4E9368",
":X c #628D78",
">X c #52AC77",
",X c #61A27D",
"<X c #6BC94D",
"1X c #4AC778",
"2X c #CF8053",
"3X c #747D81",
"4X c #6B718B",
"5X c #7A8687",
"6X c #7A968E",
"7X c #6BAC86",
"8X c #77CD98",
"9X c #838E92",
"0X c #849294",
"qX c #8C9B9D",
"wX c #889799",
"eX c #849191",
"rX c #8AAB9D",
"tX c #8C9EA1",
"yX c #939EA2",
"uX c #8EA1A3",
"iX c #93A2A5",
"pX c #95A6A9",
"aX c #99A6A9",
"sX c #9CAAAD",
"dX c #97A8AB",
"fX c #9DADB1",
"gX c #9FB0B2",
"hX c #95B5A9",
"jX c #A1ADB2",
"kX c #A3B2B5",
"lX c #A6B6B9",
"zX c #AABABD",
"xX c #A8B7BB",
"cX c #A1A4AF",
"vX c #AEBDC1",
"bX c #B1BEC2",
"nX c #B3C2C5",
"mX c #B7C7CA",
"MX c #B9CACC",
"NX c #C7D4D8",
"BX c #D0DEE1",
"VX c #D7E4E9",
/* pixels */
"o . O O o o o o + o o o o o o O o o o . O O o . o . @ O o . o o O o o o . o o o o o o O O o o o o o + o o o . o o o o o ",
". I OX{.|.> . W +XU . o . v K J K - . I OX[.OX<   I OX{.oX< . I $XI . o . v K J K -   ^.<X^.. o . L +XU . o o I $XU o o ",
"  }.n o (.C   O A }.. o o J : o S , . +Xn o ].H   +Xj o `.C   o C  X  o o J : o S ,   O R *X. o o o C  X. o o o H oX. o ",
". [.1   U C   . j  X. o o J $   M h . |.>   (.Z   |.=   E C .   j [.. o o J $   M : .   c /.. o o   j [.. o o   n  X. o ",
"   X<   U C . . k }.. o X J % . N , . .X2   (.Z   |.>   !.C   o n [.. o o J -   M < . . c &Xo o o . b [.. o o . B  Xo o ",
".  X=   U C     <  X  . o J +   M h . OX>   E H   OX-   E C     2 `.  . o S @   M , .   z &X  o o   < `.  . o   v {.  . ",
"   X[.L OXn   A [.#XW - . J N v T , . }.`.L +Xn   {._.L +Xn   V {.#XL = . J N v T >   R &X<X<.3 . m [.$XL - . A }.#XI - ",
". = A C j O . b C n B % . $ < , : o . - B C b O . = C C j O . j A n D - . $ , < : O . z R c R & . j C m B $ . j V n C $ ",
"o       . o o         . o     . . o . .     . . o       . . o         . o . .     o o         . o       . . o         . ",
". < B > o o . > b > o o X x c 3 . o . $ : , * o . 2 B > o O . & k g 7 7 ; 8 2 l g o . = m B 2 O . < B > o o o $ : , * o ",
". C +X`.  o . Z .X'.. o . R <X/.. o o J K M  .:   P +X!.  . @ ;XrX6XiXbXzXnXnXhX,XF   ).).Q.#XB   H +X`.  o X S J M T 1 ",
"o   < `.. o o   1 '.. o o   z /.. o o J *   M , .   : [.8 o.u.zXaXjXkXzXbXMXNXkXsXkX%.>X3   Q.H     2 [.  o @ K $   M v ",
"o . g `.. o o   2 } . o o   c ~.  o o K *   N ,   . F 7XnXNXqXgXdXdXnXvXsXzXzXzXnXkXyXnXsX=.XXH   . b [.. o o K $   M < ",
"o   g `.  o O   2 }   o o   c ~.  o o J *   M v ; +.pXyXgXkXeXsXnXkXqXu.=.i.iXnXNXaXsXlXlXzXhX{ #   j `.  . o J $   M < ",
"o o m  XO o o o m ].# o @ X R &X. @ @ K 1 . D :XjXu.0XtXqXxXkXp.r.) 8 6 9 8 0 +.r.3XnXpX0XdXi.9XgXF j  X@ O X K * . N v ",
". H }.|._.>   D '.].} *   Q -X=X~.3 . M S P 6XlXzXjX5XpXpXwX+.# 9 ` ..=.1.%.' 0 4 8 p.sXjXiX9XNXNXsX7X|.!.= . M J N J - ",
"o + % O % o o O + O + o o + % @ % @ . . ; wXlXpXtXdXaX0X3.8 0 =.Y.^ ] @.1.@.] i >.' 9 q 3X0XsXlXiXnXnXq.O O . o O + o . ",
"o         . o     . o o o         . o   F iXtXgXsXuX6Xe 9 @.S.j.C.s.' 1.1.7.] y f.V.>._ 5 +.nXsXqXsXzXaX@ . o .   . o o ",
". n `._.I % . P `.C . o . n `._.U * . G *.u.lXzXmXwX8 _ t.V.b.t.Y.a.' 6.1.6.] y V.t.k.D.=.0 ) 9XpXpXsXi.[ o . P `.A . o ",
". }.Y b oXV   < !..X. o X |.L j +XC # gXzX5X5XkX5X0 #.:.l.m.K.F.U.f.] 6.1.2.&.y C.Y.l.E.H.&.0 ) iXtXp.0XnX<.. < (.|.. o ",
"  [.=   Y C .   < {.. o @ ].&   U C r.nXzXnXdXq.6 [ Y.! l.P.E.l.n.f.' 6.1.5.&.y K.K.v.E.x.f :.0 0 i.pXuXwXfX{   v }.. o ",
". [.<   Q.C   . k }.. o o {.>   Q.Q yXzXlXzXzX[ 0 0.n.s.k.P.E.v.U.s.] 4X1.9.&.y J.E.k.E.v.h.J.:.5 r.lXuXdXbX5X  B }.. o ",
"  [.>   I C .   g `.  . o {.=   T ;XcXkXtXuX5X0 =.h.E.s.v.R.R.k.I.f.] 9.1.9.:.d P.R.C.R.v.h.K.j.) ) dXtXqXfXqXX h {.  . ",
". }.Y g }.A   > U $Xn % . |.L g ).;XjXiX5XtX+._ Z.g.C.d v.R.R.k.R.N.' 5.1.5.] f P.R.x.R.v.s.J.l.O.9 5XgXyXlXyXm U #Xn % ",
". m U U L % . Z E U W = . n E E L <.zXtXuXqX` X.l.:.1.%.C.W.W.l.P.f.' 4X' 5.1.d P.R.H.P.C.$.8.^ h.p ..lXfXlXjX} I I U = ",
"o         . o         . o         F iXqXpX4.w ;.V.=.C.8.D.W.W.N.I.f.] 4X%.5.] y R.P.x.K.S.8.,.1.C.,.9 5XaXiXeX#       . ",
"o o + + o o o @ @ @ o o o @ % @ . F jXwX5Xw ` V.t.-.L.j.v.P.P.j.P.f.' 4X@.5.] d R.P.k.J.C.V.E.>.S.V.5 *.aXiX9X@ + $ @ o ",
". v T J K $ . I +X_.. o . L #XE   <.VXNXlX[ ` 2.3.y.y.r.9.9.3.9.D.f.] 9.' 4X' d D.t.8.0.0.0.t.t.q.4.4 r.NXnXjX;X'.'.].1 ",
". J : X S h . o A }.. o o O Z `.  q.nXmXzX) _ Y.8.-.D.;.V.D.D.,.U.d.] 5.@.5.] y U.8.:.0.:.8.t.8.3.8.9 q.mXzXfX>X1 X } V ",
". J *   v , . . j {.. o o   k _.  p.qXkXzX..q b.S.O.n.;.G.W.R.h.G.f.] 5.' 5.&.d R.P.l.R.k.j.B.;.S.A.5 u.lXtXfX>X$   W m ",
". J *   M h . . n {.. o o . n `.  :XqXwXzX..q G.H.2.&.3.D.P.G.l.H.f.] 9.%.5.&.f E.P.C.W.S.8.,.1.H.A.5 u.tXwXfX7X$   W m ",
"  J $   M , .   j [.  o o   j _.  u.gXuXzX@.q H.L.^ 0.~ G.P.v.l.H.f.] 3.%.2.&.f P.E.c.W.A.@.8.V.n.A.4 4X3XwXfX>X$   W V ",
". S K M T : . P OX#X_.>   Z @X#XY e.5XeXwXe q H.m.h.E.g.J.K.V.;.H.d.] 6.%.3.] d J.D.D.W.v.f.P.J.n.C.4 ..p.5X5X;X(.W .X2 ",
"o + : : $ o . < n b g % . < n g g rXsXiXkX` q A.m.h.L.l.J.J.>.4XT.d.] 5.1.5.&.d x.t.4XU.G.k.E.J.m.C.4 q.vXkXkX<., b 1 @ ",
"o .     . o o         . o       . yXnXnXNX<.0 v.m.h.I.l.J.n.,.5.D.f.p 2.1.3.] y x.:.9.J.J.l.P.J.M.V.4 5XMXMXmX*.      o ",
". < V > o o . 2 V > o o . 2 C = o 5XuXuXkX4.0 H.n.h.K.l.J.V.>.,.-.s.p 6.3.4X' t V.>.>.;.H.N.E.K.m.V.9 3XvXvXvXe.v 2 o . ",
". C +X[.  o . P +X X. o X H +X`.  u.dXwXkXq.8 H.b.z.K.h.b.:.U.c.p d a 6.9.5.' s 0.U.c.~ F.l.E.J.n.V.6 9XmXiXgX:XoX.X. o ",
"o   < `.. o o   2 }.. o o   g `.. 0XnXgXnXr.0 A.n.h.I.z.b.V.>.^ ] s.a 7.9.6.' y Z.Z.d >.H.N.E.J.n.V.6 0XzXhXnX+., }.. o ",
"o . b [.. o o . k {.. o o . n `.  *.qX5XqX#.9 A.n.l.M.g.G.L.A.V.D.f.p 2.9.9.' f n.C.;.P.J.C.E.J.M.V.8 r.qXeX0X8 k oX. o ",
"o   , `.  o o   j {.  o o   g _.  u.aX5XNXq.9 A.m.j.>.~ b.P.E.m.v.f.a 2.9.9.' d E.R.x.E.v.f C.b.M.j.9 9XzXkXkXF h  X. o ",
". + C |.& O o + Z OX- O . @ H  X= 6XsXqXBXy.8 C.G.1.=.3.F.L.P.G.v.d.a 7.9.4.' d J.P.k.E.V.7.1.>.M.;.8 qXzXlXmXp.C @X& O ",
". L @X@X[.>   W OXOX}.> . L OXoX%XwXqXiXzXr.8 C.S.-.m.;.h.B.E.M.b.s.a 7.9.5.X.y J.E.x.E.F.Z.C.8.A./ 9 q.6XkXnX6X}.@X}.> ",
". @ @ o @ o o o O o O o o @ @ . ; iXiXsXzXq.9 :.8.>.D.Z.;.D.F.S.H.d.a 7.5.3.$.d v.A.C.H.C.V.v.>.t.,.9 y.nXzXzX5Xo + @ o ",
"o       . o o     . . o o       @ 5XiXqXyX+.0 w.5.y.y.y.3.3.3.w.F.d.a @.5.4.] f Z.4X1.6.9.3.4X9.2.2.9 u.iXqXyX*.      . ",
". Z [.Z . o . v S h o o . P [.A . i.zXaXnXy.9 S.8.~ b.V.! G.G.l.x.f.a 7.9.2.$.f v.D.V.V.C.;.C.>.r.>.0 qXsX9X3X;XQ._.E = ",
". < !. X. o . - N K . o . > _.[.  tXVXNXBX5X6 j.D.%.h.:./ L.E.l.g.d.a @.5.1.] ! x.m.x.m.H.,.N.:.F.^ ` xXMXjXcX8XH n +XA ",
"o   < `.. o o   - J . o o   j _.  5XBXnXzX5X9 ;.J.>.1.1./ K.K.l.r.^ i @.9.1.] u 0.Y.k.n.Z.7.1.1.v.^ w sXnXlXsX>X$   E A ",
"o . b `.. o o . : K . o o . n `.  e.fXqXsX5X9 ~ f.u ~ d u z.g.! :.d s 1.1.1.$.t ~ V.f s.f.a -.a.( a ) aXgXkXhX>X*   !.C ",
"o   < _.  o o   * J . . o   < _.  [ jX6XtX5X0 p i r t s r i i r r r q $.+.@...r t t r s d t t t r p [ sXdXdXvX>XO   U C ",
". 2 _.#XA $ . : N  .< + . 2 _.#Xh :XMXiXlX9Xq @.#.#.@.@.@.%.%.%.%.@.1.2.3.8.3.3.3.3.3.9.5.1.3.3.1.@.@.kXlXlXzX1XY B @XC ",
". B I L Y -   < v v v @ . V I I C e.sXsXjXu.9 _ ` w [ ) ` ..) ) _ _ ) ..[ ) ..' ..[ ..o.........[ ) ) qXsXsXiX| L I P % ",
"o         . o .     . o o         o @ @ @ . . o o . . . o . o . . . X o . . . . o . o . . . . . o . . X @ @ + .       o ",
"o & & O o o o o & & @ o o $ & + o o . o $ $ + . o O O o o o o + $ + o o o + - @ o o o @ % + o o o o $ $ O . . + $ o o o ",
". R <X^.. o   ~.=X&X=Xx   P $XE   o o U }.[.OX2   v T M . o . P +XU . o o P +XE . o . L +XU . o . E oX[.OX< . D XXW . o ",
"X o c &X. o . <Xz   ~.R   . B `.. o @ @Xj   `.H   o : S . o o . B }.  o o o n  X. o o . V  X. o o }.2   `.B   o V '.. o ",
"o   z /.. o . =Xl   ^.R   . k !.  o o |.<   U Z . . * S . o o   j [.  o o   2 [.. o o   j [.o . o [.=   (.B   . b '.. o ",
"o   z &X. o . =Xx   ^.R   . n `.  o o .X2   (.Z   o * S . o o . k [.  o o . < [.. o o . n [.o o X [.>   (.B   . n '.. o ",
"o   x &X  . o <X3   ^.R     k `.  o + OX>   (.Z   . * N . o o   j [.  o o   2 [.  o o   j [.  . O  X=   (.B .   j '.  o ",
"o R =X<X~.3 . -X=X~.<Xc   P oX$X`.1 .  XoX_.+Xm   v K T N $ . H @X$X`.> . P OX#X`.>   L +X#X`.>   [.}.`.+Xg   D ]..X} = ",
"o 3 z z z @ . % z z x O o > j < b + . $ g g < o o $ : * : O o > g < g + . > j < j + . > g < b + . % g b < o o > 2 > < + "
};
