/* XPM */
static char *result[] = {
/* columns rows colors chars-per-pixel */
"60 60 186 2 ",
"   c #000300",
".  c #010C00",
"X  c #011302",
"o  c #041A06",
"O  c #081C06",
"+  c #061608",
"@  c #051D09",
"#  c #091E0B",
"$  c #012501",
"%  c #092107",
"&  c #022D01",
"*  c #082907",
"=  c #05230C",
"-  c #09240D",
";  c #05280D",
":  c #0B2A0D",
">  c #003500",
",  c #043C04",
"<  c #062710",
"1  c #0A2611",
"2  c #042C12",
"3  c #0B2C12",
"4  c #162F14",
"5  c #053216",
"6  c #0C3416",
"7  c #0C3917",
"8  c #053518",
"9  c #0D3519",
"0  c #043C1C",
"q  c #0D3B1A",
"w  c #193514",
"e  c #163F12",
"r  c #1B3C15",
"t  c #103418",
"y  c #113D1C",
"u  c #123C20",
"i  c #044204",
"p  c #05440A",
"a  c #09550D",
"s  c #05411E",
"d  c #0E431D",
"f  c #0F491F",
"g  c #1D4315",
"h  c #1D4B16",
"j  c #11441E",
"k  c #1F4518",
"l  c #11491F",
"z  c #0A5712",
"x  c #0C5C15",
"c  c #204017",
"v  c #204619",
"b  c #244C1B",
"n  c #25521B",
"m  c #29551F",
"M  c #285B1E",
"N  c #0E651B",
"B  c #10671E",
"V  c #106B1F",
"C  c #074422",
"Z  c #064B25",
"A  c #0C4B23",
"S  c #064E29",
"D  c #084D28",
"F  c #124421",
"G  c #134C22",
"H  c #164E29",
"J  c #184C2A",
"K  c #05542A",
"L  c #08532A",
"P  c #065B2E",
"I  c #085A2E",
"U  c #145325",
"Y  c #185227",
"T  c #145A27",
"R  c #155529",
"E  c #19542C",
"W  c #165B2A",
"Q  c #195B2C",
"!  c #065E31",
"~  c #1B5C33",
"^  c #2C5620",
"/  c #2E5C21",
"(  c #116E23",
")  c #16622E",
"_  c #19612F",
"`  c #16682F",
"'  c #127125",
"]  c #066333",
"[  c #086433",
"{  c #066936",
"}  c #086A37",
"|  c #076C3A",
" . c #086F3C",
".. c #176631",
"X. c #1B6332",
"o. c #1C6C34",
"O. c #1E6638",
"+. c #1E6D3A",
"@. c #06723D",
"#. c #08713D",
"$. c #1C7236",
"%. c #1D7836",
"&. c #1D7439",
"*. c #1D7B3A",
"=. c #2F6426",
"-. c #2F6825",
";. c #326325",
":. c #326A26",
">. c #33602A",
",. c #396D2A",
"<. c #3A742C",
"1. c #216D3D",
"2. c #20733C",
"3. c #207C3C",
"4. c #057841",
"5. c #227542",
"6. c #247A44",
"7. c #247F4A",
"8. c #1E823E",
"9. c #1F9239",
"0. c #21813E",
"q. c #20973D",
"w. c #21993E",
"e. c #45832F",
"r. c #488C35",
"t. c #478239",
"y. c #468B33",
"u. c #469037",
"i. c #4B9237",
"p. c #4D9B3B",
"a. c #509539",
"s. c #539D3D",
"d. c #54A13D",
"f. c #58A73E",
"g. c #59AA3F",
"h. c #1E8441",
"j. c #1E8941",
"k. c #1F9044",
"l. c #228541",
"z. c #228C44",
"x. c #26834B",
"c. c #258C4C",
"v. c #298B4E",
"b. c #249346",
"n. c #229947",
"m. c #25954A",
"M. c #29944A",
"N. c #259B4C",
"B. c #289D4E",
"V. c #278C50",
"C. c #298E51",
"Z. c #2A9455",
"A. c #279F50",
"S. c #2A9C53",
"D. c #2D9B5A",
"F. c #25A546",
"G. c #22A847",
"H. c #26A24E",
"J. c #28A24E",
"K. c #24AA4A",
"L. c #27A551",
"P. c #29A452",
"I. c #29AB54",
"U. c #2BAF58",
"Y. c #2AB155",
"T. c #2CB559",
"R. c #2BB95B",
"E. c #2CBA57",
"W. c #30BB5B",
"Q. c #2FBC60",
"!. c #56A340",
"~. c #5AA740",
"^. c #5BAA44",
"/. c #5CB243",
"(. c #5EBA46",
"). c #60AF46",
"_. c #61B747",
"`. c #60BD47",
"'. c #64BC49",
"]. c #61C047",
"[. c #66C64D",
"{. c #69C64B",
"}. c #6CC94D",
"|. c #70CD51",
" X c #6FD051",
".X c #70D050",
/* pixels */
"X . + o X . X o o X X X X X X o X . X X X @ X . X . O o X . X o o X X X X . + o X X X o o X X X . o O X X X . X o X X X ",
". &.P.m.B.7   &.Y.*.. X . Z { [ } 2 . &.L.M.L.q   &.P.M.L.q   $.Y.*.  X X S ] ] { =   e.{.y.X X X ..Y.*.. X X &.Y.8.. X ",
"  N.G X l.T   o T B.. X X ] 5 . ] C . P.G X b.Q   P.j X z.W   o T m.  X X ] 2 X I 0 . + ,.^.. X X X T M.. X X X ) N.. X ",
". b.7   *.T . . j m.. X X ! ;   K 0 . J.6   h.Q   B.3   3.T .   j b.. X X ] =   L 0 .   n f.. X X   j z.. X X   U n.. X ",
". m.q   *.I   . l m.. X . ! 3   K 0 . P.y   l.Q   B.6   0.T   . G b.. X X ] ;   K 0 . . m g.X X X . F m.. X X . U k.X X ",
"  m.3   *.T .   q b.  . X [ -   K s . J.3   8._   S.1   3.W     y z.  . X ! O   L 0 .   b f.  . X   q z.  . X   G m.  . ",
". m.b.o.P.G   E m.R.1.3 . [ I C #.0 . m.z.+.I.G   N.l.o.I.G   R m.T.+.3 . ] I C } 5   >.^.|.t.4 . H b.Y.+.3 . E A.R.$.3 ",
". : T T j + . j T f U - . - 0 0 5 X . 3 T T j + . 3 T T l + X j U H T ;   < 0 0 5 + . b >.m >.- . j T l U = . d U G R - ",
"X       . . X       . . X       . X X         X X         X X         . X .       X X         . X       . . X         . ",
". q U 6 X X . 9 F 3 X X . c / w . X X = 8 8 5 X . q G 6 X X . : G U q + . ; G H j X . 3 G U u + . 7 U 6 X X . = 0 8 2 X ",
". W I.z.. X . E C.x.. X . ,.}.d.  X X ] { K @.8   ` I.z.. X X m.B.0.R.G   b.N.h.Y.G   N.N.8.T.G   _ I.z.  + + ] ] L @.8 ",
"X   q z.. X X   q x.. X X   b d.. X X { =   K s .   q z.. X + N.1   q.Y . n.;   l.E   A.3   k...    y b.  X . [ =   K C ",
"X . d b.. X X . u x.. X X   m s.  X X ] 2   K s . . d j.. X + n.7   b.T . b.6   l.U   L.6   z.W   . F b.. X + ] <   K s ",
"X   d z.  X X   u 7.. . X   m s.  X X { 2   K s . . 0 j.. . + n.6   q.T   b.3   6.R   N.3   z.Q   . j b.  . X [ =   L 0 ",
"X X H m.+ X X X F V.+ + + + >.^.X + + | 5 . P s . X H m.+ X + H.j   N.W   H.q . c.W   P.q . m.)   X G m.+ X + } 2 . I 0 ",
". _ m.J.l.6   ~ x.V.5.3   ,.^._.s.r   K [ I [ -   1.M.B.z.6 . &.m.l.B.9 . &.m.l.M.9   *.m.z.N.q   X.B.B.l.3 . K [ I ] < ",
"X O = @ = X X O @ o @ X X O - # - + . X O o X X X o = O = X X X = = X . X X = = + . X X = = + . X @ o o @ X X . o @ X . ",
"X         . X     . . X X         . X .   . X X X         . X .   . . X . .     . X X .       . X . . . X X X .   . X X ",
". G z.l.&.- . X.z.Q . X . G l.l.3.- . X.z.R X X . G z.0.*.1 . 8 P K S O . E 6.J . X . G j.l.&.< . 0 I 0 . X . X.z.T . X ",
". N.$.F A.R   q 8.S.. X X S.o.j I.W   y 8.n.. X . P.o.l P.W   { C 5 @.0 . 6 1.x.. X . I.$.F Y.W   2 K ] . X X q j.S.. X ",
"  b.3   $.W .   q m.. X X M.1   *.W     7 z.. X . B.-   3.T   [ @   I s .   6 6.. X . N.2   l.Q   . 2 I . X X   f m.. X ",
". b.q   *.T . . l M.. X X m.t   8.Q   . j m.. X . B.6   3.T   } 2   ! 0 . . y 6.. X . N.9   z.W   X 5 P . X X . U N.. X ",
". b.6   &.T     d c.  X + m.1   8.T     q z.  . X B.-   3.T . [ @   ! s .   3 6.  X . N.1   h...  . 2 I   X X   A M.  . ",
"  N.$.d J.T   7 %.Y.G = . J.o.d H.)   q *.Y.G =   P...j P.T   { Z 2 #.0   3 O.Z.F -   P.o.d I.T   ; K #.2 @ . 7 0.Y.G = ",
". G *.&.$.- . Q *.%.2.3   G 3.2.&.1 . T *.&.&.6 . J *.&.$.- . 8 L K D O . J +.O.O.1   U 3.&.$.1 . q D D D @ . Q 3.&.&.3 ",
"X .       . X         X X         . X         . X         . X .       X X         X X         . X . . . . X X         . ",
". X @ @ X X X O # + X X X O = o X X . + @ = O . X @ # o X X X o = + o X X @ @ + X X . + @ @ + . & , p p p , o X @ @ + X ",
". S | ] } 2   &.Y.l.. X . 1.T.%.. X X 3.P.M.P.y   2.Y.3.. X . o.Y.*.. X . +.Y.0.. X . 1.C.x.C.6 $ q.Y.K.I.x . 5.C.x.C.3 ",
". ] 8 X I s . X W M.. X X + W j.  X o P.G X m.Q   o R m.. X X X T m.  X X + U M.. X X v.y . x.E $ K.B i F.' X C.u + 5.J ",
". ] ;   S 0 . . j m.. X X   l l.  X + A.6   6.W . . q j.X X X   j b.  X X   y M.. X . x.3   5.H $ G.z > q.( X x.3   5.J ",
". ] 2   K 0 . . l M.. X X . U j.  X o N.q   h.Q   . d j.. X X . G b.. X X . y b.. X . x.3   6.H $ K.x > w.( X x.3   1.R ",
". ] =   S s .   j m.  X X   d l.  . + L.6   h.Q .   q z.  . X   j z.  X X   y b.  X X x.1   5.R $ K.z > w.' X v.3   1.R ",
". ! { K  .5   X.P.R.l.6   X.P.T.0.9 . N.N.0.Y.G   X.B.R.z.6   _ P.W.l.6 . Q B.W.l.3   x.x.1.D.F $ G.F.9.R.B X x.x.1.Z.F ",
". @ 5 5 < X X 9 G j F = . 7 d d A @ . - j G q + . t j d j @ . 9 G q j # . 7 l d j # . - F F t . & a ( V N i o - q F 6 X ",
"X       . X X       . . X       . . X X     . X X         X X       . . X       . . X       . . @ X X . X @ X       . X ",
". q R 9 X X . q R 6 . X X q R 6 X X o e -.:.M * . y Y 7 X X X q R 6 X X . y T 7 X X . d R 6 X X . = 9 8 2 X . d R t X X ",
". W L.b.. X . X.I.m.. X . ~ I.z.  X O (.(.p. X-.  ` P.z.. X X Q I.b.  o . Q J.m.. X . X.P.b.. X X ] [ K  .8   X.I.m.. X ",
"X   q z.. X X   j m.. X X   d z.  X - ].g   p.<.    q z.. X X   y b.  X X   6 m.. X X   F b.. X X ! @   L 0 .   A m.. X ",
"X . f b.. X X . l M.. X X . l z.. X % (.n X d.<.  . d j.. X X . G b.. X X . j M.. X X . G b.X . X ! < . ! 8 . . U N.X X ",
"X   q z.  X X   j M.  X X   f l.  X % (.h . p.<..   q z.. . X   d z.  X X   q z.  X X   j b.  X X ! @   I 8 .   f k.  X ",
". @ W A.- o X O Q P.- o X @ _ m.# + = [.:.* /.<.  # T N.3 o X O Q H.= o X o E P.- o X # _ J.1 o . ] 8 o ] 0 . # ` P.2 X ",
". o.L.L.m.6   &.J.L.m.7   o.L.L.S.q X u.]./.(.h   $.L.L.m.9   o.P.L.m.9 . o.L.L.m.9   &.L.L.M.7 . A { ] { = . $.P.L.M.9 ",
". O O + X X X + o X + X X O O X X X o o * * = o X o o + + X X + O + + X . + + + + X . o O o o X X X X O X X . o O + O X ",
"X       . X . .   . X X X       X X X .       X X       . X X       X . X .   . X X X         . X         . X         . ",
". ~ m.T . X . C ! s . X . ~ m.W . X . E l.l.3.< . X.z.Q X X . X.M.Q . X . 0 ! 0 . X . J 5.5.1.< . R l.0.3.- . T z.l.3.1 ",
". 9 0.m.. X . 2 I { . X . t l.m.  X + I.2.G I.~   y 3.m.. X X 9 l.m.. X X < I ! . X . Z.~ u Z.H   J.2.l I.U   I.+.G P.W ",
"X   q z.. X X   2 [ X X X   j 0.  X X B.6   *.Q .   7 j.. X X   q b.  X X . < ! . X . x.=   5.H   m.-   h.H   B.1   3.W ",
"X . F b.. X X . 8 [ . X X . G j.  X O B.y   h.Q   . F z.. X X   G b.. X X . 2 ! X X . x.3   6.U . m.7 . 8.G . B.9   0.W ",
"X   q z.  . X   2 !   X X   d *.  . O N.3   *.W .   6 8.  . X   q z.  . X   ; !   X . 7.-   2.R   m.1   *.U   N.3   *.T ",
". y 0.T.T = . 5 I 4.0 @ . y z.U.T : X I.3.H I.Q   d 8.T.T : . d l.E.T - . 2 I @.0 @ . Z.O.F D.H   H.&.U U.U   I.*.G I.E ",
". U &.+.o.< . q D Z A # . E &.o.$.3   F $.+.o.- . R &.o.$.3 . E &.+.$.3 . q D Z Z @ . F 1.~ ~ @ . l &.$...= . G &.$.` - ",
"X         . X .       X X         . X .       . X         . X         . X       . . X         X X .       X X         . ",
". - : O X X X X : : # . X @ - o X X X X ; ; # . X @ = o X X X # ; @ X X X = - o X X X O - o X X . + ; ; # X . - = o X X ",
". <.{.r.. X . a.'.!.'.v   o.Y.3.  X X *.N.b.P.y   Z { S . X . ..I.*.. o . ..I.3.X X . +.I.8.. X . 3.N.b.P.9   ~ Z.2.. X ",
"X . m ~.. X . {.b   s.:.  . T z.. X X I.j   z.~   X 5 ] . X X . U m.  X X X G m.. X X . Y m.. X X B.y   j.T   X H x.. X ",
"X   b !.. X . '.r   i.;.  . l 0.  X + B.7   h.W . . ; P . X X   j b.  X X   y m.. X X   l b.X . X m.3   h.U   . j x.. X ",
"X   b !.. X . '.g   i.;.  . G z.. X + A.q   h.E . X 2 P . X X . G b.  X X . q b.. X X . G b.X X X b.7   j.U   . F x.. X ",
"X   b !.  X . {.g   i.,.  . d z.  . + L.6   h.Q   . 2 P . X X   d b.  X X   q M.  X X   F b.  . + m.1   j.U   . j x.  X ",
". ,.'.|.s.w   _.'.a.}.n   X.P.Y.z.6 . b.N.z.U.G . C { @.I = . ..L.T.z.6 . X.P.T.z.3   o.I.T.z.9   b.B.z.I.d   ~ v.D.5.6 ",
". r b g v # . - b m r X . 7 d q F @ . < d F q X . = 5 2 5 o . 7 d q d O . 7 d q F O . 7 d q d @ . 1 d d 7 X X 6 q 9 q O "
};
