/* XPM */
static char *result[] = {
/* columns rows colors chars-per-pixel */
"60 60 254 2 ",
"   c #000300",
".  c #010C00",
"X  c #080B08",
"o  c #011302",
"O  c #041A05",
"+  c #0A140A",
"@  c #051C09",
"#  c #091D0B",
"$  c #081607",
"%  c #171A0B",
"&  c #081A16",
"*  c #1D1D1D",
"=  c #141917",
"-  c #221C1A",
";  c #261B0C",
":  c #05230C",
">  c #09240D",
",  c #08290A",
"<  c #0B2411",
"1  c #042C12",
"2  c #0B2C13",
"3  c #072518",
"4  c #19261A",
"5  c #053216",
"6  c #0C3416",
"7  c #0D3519",
"8  c #043C1C",
"9  c #0D3C1A",
"0  c #073718",
"q  c #113D1C",
"w  c #153516",
"e  c #043A03",
"r  c #3B250E",
"t  c #332915",
"y  c #1B1D22",
"u  c #001D20",
"i  c #0A2929",
"p  c #1C2221",
"a  c #09352A",
"s  c #153922",
"d  c #0A3538",
"f  c #0E2E37",
"g  c #232222",
"h  c #272A29",
"j  c #283429",
"k  c #303A34",
"l  c #221C21",
"z  c #452C16",
"x  c #593815",
"c  c #4B3015",
"v  c #643916",
"b  c #583C20",
"n  c #054607",
"m  c #0E431D",
"M  c #0B461C",
"N  c #11431D",
"B  c #11491F",
"V  c #1E4317",
"C  c #0E5B16",
"Z  c #244C1B",
"A  c #204619",
"S  c #29551E",
"D  c #094A25",
"F  c #134422",
"G  c #134C22",
"H  c #154C2A",
"J  c #06532A",
"K  c #065B2E",
"L  c #07572A",
"P  c #135325",
"I  c #165429",
"U  c #165B2B",
"Y  c #195C2C",
"T  c #175529",
"R  c #075B33",
"E  c #1B5D33",
"W  c #0E4A38",
"Q  c #32482F",
"!  c #17622E",
"~  c #066333",
"^  c #076837",
"/  c #1B6332",
"(  c #1B6C34",
")  c #1A6938",
"_  c #06733D",
"`  c #1D7235",
"'  c #1D7439",
"]  c #1D7B3A",
"[  c #177737",
"{  c #127126",
"}  c #336627",
"|  c #226D3C",
" . c #206D33",
".. c #21733D",
"X. c #217C3D",
"o. c #267839",
"O. c #3A732D",
"+. c #0E6018",
"@. c #554018",
"#. c #774919",
"$. c #6C4F1B",
"%. c #4E4E26",
"&. c #726131",
"*. c #795729",
"=. c #093B48",
"-. c #08394B",
";. c #0A434B",
":. c #0C4B5B",
">. c #0A4857",
",. c #12534C",
"<. c #345148",
"1. c #1B735C",
"2. c #166D49",
"3. c #247843",
"4. c #084B62",
"5. c #0B5365",
"6. c #03546D",
"7. c #08576B",
"8. c #125766",
"9. c #025D74",
"0. c #085C75",
"q. c #1A5B71",
"w. c #03617B",
"e. c #076377",
"r. c #14686E",
"t. c #346876",
"y. c #4A534E",
"u. c #5D635A",
"i. c #4F6F77",
"p. c #72716F",
"a. c #5F6455",
"s. c #89541A",
"d. c #935B1B",
"f. c #965A18",
"g. c #99621C",
"h. c #A7651B",
"j. c #BB721B",
"k. c #B46C19",
"l. c #8A5623",
"z. c #8F6722",
"x. c #B97424",
"c. c #A97223",
"v. c #A65F19",
"b. c #CD7B16",
"n. c #CD7C19",
"m. c #C6781B",
"M. c #D27E16",
"N. c #D37E1A",
"B. c #DA7D17",
"V. c #C97A25",
"C. c #1E833D",
"Z. c #23863D",
"A. c #23943B",
"S. c #4B9137",
"D. c #58A73F",
"F. c #1D8642",
"G. c #1F8C4A",
"H. c #228641",
"J. c #238B44",
"K. c #26844B",
"L. c #278C49",
"P. c #249346",
"I. c #26954A",
"U. c #259B4C",
"Y. c #28984B",
"T. c #268B52",
"R. c #2A9654",
"E. c #359155",
"W. c #27A34D",
"Q. c #27A552",
"!. c #29A551",
"~. c #29AB54",
"^. c #23AA58",
"/. c #2DB459",
"(. c #2AB457",
"). c #229D67",
"_. c #58A541",
"`. c #5BB042",
"'. c #64BC49",
"]. c #60AF46",
"[. c #578462",
"{. c #6BC94D",
"}. c #D6811A",
"|. c #DA831A",
" X c #DC8419",
".X c #E88C1D",
"XX c #EE911F",
"oX c #F5931D",
"OX c #FC961D",
"+X c #FF9A1E",
"@X c #FB9417",
"#X c #F18E1C",
"$X c #DB8722",
"%X c #FE9B21",
"&X c #F59422",
"*X c #E78D23",
"=X c #FFA321",
"-X c #0A6A86",
";X c #126B83",
":X c #0A728D",
">X c #0B7593",
",X c #0C7C9B",
"<X c #09799A",
"1X c #157A95",
"2X c #13738D",
"3X c #2F788A",
"4X c #127EA4",
"5X c #577A85",
"6X c #108599",
"7X c #0B84A3",
"8X c #0A88A9",
"9X c #1487A5",
"0X c #088DB1",
"qX c #0C92B5",
"wX c #0996BB",
"eX c #1394B7",
"rX c #1390B1",
"tX c #3591AA",
"yX c #6C8F97",
"uX c #4C91A4",
"iX c #6E99A3",
"pX c #75AAB8",
"aX c #5192A2",
"sX c #079CC4",
"dX c #129CC2",
"fX c #05A5CC",
"gX c #0BA3CB",
"hX c #09A3C8",
"jX c #05A7D1",
"kX c #05AAD3",
"lX c #09AAD3",
"zX c #05ADDA",
"xX c #0AA6D3",
"cX c #06B1DC",
"vX c #09B0DA",
"bX c #11A6CB",
"nX c #08B5E1",
"mX c #6DBBCF",
"MX c #95AAB0",
"NX c #A9B9B7",
"BX c #AFB1B3",
"VX c #94A79A",
"CX c #C1B9BD",
"ZX c #B1C6B6",
"AX c #B8BEC1",
"SX c #BBC3C6",
"DX c #DCDADA",
"FX c #CCCACC",
"GX c #E0DDE0",
"HX c #E8E8E8",
"JX c #FEFEFE",
"KX c #F8F6F6",
"LX c #F3ECEC",
"PX c #E3E1DF",
/* pixels */
"o . $ O o o o O O o o o o o O O o . o o O O O . o # i a a $ . O O o o o . o o O o o o O O o o o o o O o o o o o O o o o ",
". ' !.I.U.7   o.(.3.. o . D ^ R ^ 1   ( U.W.G.a =.5.7.<XgX7Xi / (.] . o . D ^ ~ ^ :   S.{.S.. o . ( ~.] . o o ` ^.C.o o ",
"  U.G o F.U   O T U.. o o ~ e o R a a ).6XeX8Xw.w.w.9.<XlXnXeX3 P Y.  o O ~ 5 o R 8   $ } `.. o o o U I.. o o o ! U.. o ",
". P.0   [ U   . N I.. o @ ;.;.;.0.sXxXjXkXcXhX>X9.6.9.qXzXgXeX=.9 P.. o o R :   J 0 .   Z D.. o o . q P.. o o   P P.. o ",
". P.9   ] U . . B I.+ d 5.9.w.9.-XqXjXjXjXjXkXhX7X7XwXkXjXfXjX<XH P.. o O K :   L 8 .   S `.o o o . F P.. o o . J U.. o ",
". I.2   ] U   . 2 1.6.w.w.w.9.9.9.<XjXkXjXjXjXjXzXkXcXjXjXkXgXeX1.Z.  . o ~ #   J 8 .   Z _.  o o   9 J.  . o   G I.  . ",
"  P.J.) !.G   q >.0.9.6.:.6.9.9.-XfXzXkXjXkXkXjXfXjXjXjXkXjXfXgXeX1.( 2 . R L D ^ 0   } ].{.S.4   I P.(.( 2 . T U./.` 2 ",
". 2 U U F $ o ,.w.9.w.4.f -.9.9.4XzXfXsXkXlXkXlXjXjXjXjXjXkXxXjXcXrXT < $ : 8 8 5 o . Z S S } % . N U G P : . N P G U > ",
"o       . . 3 0.9.9.9.9.>.6.9.9.7X0X7XfXzXsXsXsXkXzXkXkXfXjXkXcXlXgX& X           o o         . o         o o         . ",
". 9 P 6 o o d 9.9.9.6.6.9.9.9.9.-X>XsXqXuXpXpXpXtXwXkXjXkXkXhX<X,X:X<.u.u.k 7 P m O . 2 H G N $ . 9 P 6 o o . : 0 8 1 o ",
". U ~.J.. . =.w.9.9.4.=.>.w.9.9.:XjXtXSXJXJXJXJXLXMXqXkXxXzX0X5.6XMXJXJXJXLXVXZ./.F   U.U.C./.G   ! ~.J.  O . ~ ~ J _ 0 ",
"o   9 J.. . d 9.9.9.9.>.4.9.9.-XfXtXDXJXJXJXKXKXJXJXNX0XkXjXlXhXpXJXJXJXGXh MXp.[ Y   U.2   G.!     q P.  o $ ^ @   J D ",
"o . m J.. o i 0.9.9.9.9.9.9.0.7X-XMXJXJXJXJXJXFXp.HXJXaXfXkXjXrXFXKXJXJXHXp.FXFXH.P   U.7   J.U   . F P.  o $ ~ 1   J 8 ",
"o   m J.  o 3 7.9.9.9.9.9.9.w.9.q.LXKXKXJXJXJXBXh DXJXNX0XzXfXtXFXDXJXJXJXJXJXFXE.G   U.2   J.U   . N P.  o $ ~ :   L 8 ",
"o o H I.$ O . :.9.9.9.9.9.9.9.6.5XLXDXJXJXJXJXJXJXJXJXSX9XkXjXrXAXHXHXJXJXKXJXCXJ.U   ~.m . P.!   $ G U.$ O o ^ 1 . K M ",
". ! Y.W.H.2 . d 0.9.9.9.9.9.w.9.t.HXPXJXJXJXJXJXJXJXJXNX7XzXkX0XyXPXDXKXJXJXKX[.P.7   3.P.H.U.9   / I.U.H.2   J R K ~ < ",
". @ @ @ : O . X =.9.6.w.9.9.9.9.7.AXKXHXJXJXJXJXJXJXJXiX8XzXxX4X7XaXCXDXHXFXu.. @ . o o : : $ o o O @ O : o o o O O O . ",
"o .       . i ;.>.5.4.:.9.9.9.w.6.5XLXGXLXKXJXJXJXJXDX1XjXcX9X1XrX>X9XuXtXrX>.. . o o .       . o . . . . . o .     o o ",
". G H.J.` a 5.5.5.=.=.:.5.9.9.9.9.6.iXDXKXLXLXJXJXDXt.sXdX1X;.lX-Xf 0XjXhXcX1X7 o o . H J.H.' : . 8 K 8 o o . / P.T . o ",
". U.` G Y.1.4.9.>.:.4.-.:.9.9.9.9.9.,XtXMXNXNXNXyX2XsXxX9X>.=.vXhX4XsXgXhXsXcX1X$ . . ~.( N (.U   1 J ~ . o . 9 C.Q.. o ",
". P.2   ` 2.:.0.5.:.w.7.5.9.9.9.9.9.<XfX0X8X9X7XsXlXvXlXgXqX0XlXzXzXxX0XuXuXwX,Xo . . U.3   G.U   . 1 K . o o   m I.. o ",
"  P.9   C.P i 7.w.7.9.-Xw.9.w.9.9.9.-XgXeXqXcXkX0XwXlXwXqXzXgXr.9XzXwXiXLXLXyX2.o o . U.7   J.!   o 5 K . o o . P U.. o ",
"  P.6   ' U   < ;.8.-.-.f >.6.6.6.9.7XgXsX2XrX1XrX7X1XwXqXqX8.L a 3Xi.KXJXJXZX`   . . U.1   H.U   . 1 K   o o   F P.  o ",
". U.` m U.U   6 ` ~.H : . L.2.) 1.:.7.8XcXqX2XqXkXlXdXhX6X,.j VXVXFXVXDXHXKXNXL.F > . !./ M ~.U   : J _ 5 @ . 7 C./.G : ",
". G ] ' ` > . E ] ] ' 2 . P o.`  .> & i 8.eXlXlXsXwXhX3X[.o Q GXHXJXBXHXHXDXMXT ) <   P X.' ` > . 8 J J D @ . Y X.' ' 2 ",
"o .       . o         . o         o o . f 7.dXsXeXgX;X4 % . % k Q p.u.y.u.p.y.    o o         . $ . . . . o o         . ",
". o @ @ O o o O # $ o o o @ # @ o o o X =.6.;XsXvX9X< o . o o O o o . .   . O O O o . $ @ @ $ . , n n n n e O o O > @ . ",
". J ^ ~ ^ : . ../.H.. o .  ./.]   o . v l.;.-X0X:X2.W.' X . . ) ^.)   o   ) ^.[   o . | R.K.E.H 7 C.~.W.~.C o | T.K.T.7 ",
". ~ 0 . K M . O T Y.. o o O U J.. o o d.+Xk.k <.t @.$.z.l.d.g.c.c.c.z.g.s.z.z.*.v z X o.6 o ..r.7X,.+.n W.{ o T.s o 3.H ",
". ^ :   D 8 .   N I.. o o   B C.  o + g..Xg.v.OX%X%X%XOX%X+X=XoX@X+X=X=X+X+XOXOX+Xa.,X6X5.& w 6X7XR n , A.{ o K.<   3.H ",
". ~ 1   J 8 . . B I.. o o . G J.  o % k. XV.l.x.n.$X.XXXoXoXoXoXoXOXXX%XoXOXoX%Xh.8.nXcXvXwX-X;X:.,.,.,.1.C O K.7   ..H ",
"  ~ :   J M .   N I.  o o   N F.  o ; x.b.$Xl.k.m.b.b.}.N.}. X X.X#X#X*X.X.X*X*Xr . ;XlXfXkXkXhXrX,X:XsXdX8 O K.<   | I ",
". R ^ J _ 5   / !./.H.6   ! !./.H.5 ; m.b.B.j.d.s.f.k.b.N.|.b.m.b.b.M.m.j.h.f.%.G.5 X 8XzXgX8X0XlX7.E 8.gXe.. K.K.| R.s ",
"o @ 5 5 : o . 9 G N F @ . 7 B m G @ z b.b.b..X&X.Xx.f.f.g.f.m.N.}.M.b.b.b.}.h.c V O . i wXzX0.i 0.<XF M :.W $ : q F 2 O ",
"o       . o o       . o o       .   x |.b.b..XOXOX+X%X&Xg.#.#.d.h.k.}.|.b.m.d.&.f & .   :.lX>.  -.9X& . o o o .     . o ",
". 9 U 6 o o . m T 7 . o . 9 T 6 o o $.|.b.b.|..X.XoXoX+Xm.h.}.k.f.s.s.f.b.s.k 6XnX8Xd , ;.lX-.  0.qXi 0 2 $ o q I 7 o o ",
". U ~.P.  o . / ~.Y.. o X Y ~.J.  O d.}.b.b.|..X XOX&XOX$Xs.}.}.}.b.k.#.z w ! r.kXcXrX,.:X:Xi X 5.0.s J _ 5   / ~.I.. o ",
"o   9 J.. o o   q I.. o o   M J.  $ h.N.b.b.N. XV.%XoX@X&Xr c m.M.M.|.d.$ . w 1.sXkX;X>.0.f +   X D @   J 8 .   G I.. o ",
"o . m J.. o o . B I.o o o . B J.. % j.M.b.n.N.N.V.&XoXoX%X@.  t h.m.@.. o . N Y.<XzX9X:X,X>X;X0.;.^ : . K 0 . . P U.. o ",
"o   m J.  o o   N P.  o o   B Z.  ; V.N.b.n.b.b.x.&XoXoX=Xl..   4 %.  o o   q J.7.vX:X7.sX:X=.,XxX,.O   K 8 .   M U.. o ",
"o @ U U.> O o @ Y !.> O o @ ! Y.@ @.m.b.}.b.b.b.x.&X%XV.x.x.$ O U W.> O o # Y A.q.gX=.  8.1X$ =.lXr., O ~ 8 . @ ! ~.> O ",
". ) Q.Q.P.6   ` !.!.Y.7   ` Q.!.G.&.N.}.j.n.B.j.z #.*Xx.= @.; ) Q.W.Y.7    .T.r.sX-X+ i ,X0...F =.d ~ ~ ^ : . ` Q.Q.I.7 ",
". @ @ $ $ o . O $ O o o o O @ $ X s.m.s.c x c.$.y y z b l = + $ @ $ $ o o $ d 0.>.i . 5.qXa o $ . . o $ o o o $ O O @ o ",
"o       . o o     . . o o       X v z = p y * * g p y = g = o       . o o . . . . . X i -.    . o .       . o         . ",
". Y P.Y . o . D R M . o . Y I.Y . . y h g g * g p g g h l o . / L.Y . o o a R 8 o o . H | 3.| < . T H.Z.X.> . U J.K.X.> ",
". 7 Z.Y.. o . 1 K ^ . o . 7 J.J.  O + h h g 4 g g y h g $ o o 7 H.U.. o o : L ^ . o . T./ s R.H   W...B ~.G   ~.` F ~.T ",
"o   9 J.. o o   1 ~ o o o   N Z.  o O 3.p - g g * = * s O . o   9 P.  o o . , K . o . K.:   3.H . P.<   F.P . Y.<   X.U ",
"o . m J.. o o . 0 ~ . o o . G H.  o O !.F g g * - y l p o o o . G P.. o o . 1 ~ . o . K.6   3.G . P.7   F.G . U.7   Z.U ",
"o   9 H.  o o   5 ~ . o o   m C.  . @ L.k - l = = h * g + o o   9 J.  o o   : K   o . 3.<   3.P   P.<   C.P . U.<   ] U ",
". q H./.I : . 1 K 2.8 @ o 9 J.~.T > . Q p f Q q . j g l 4 # . 9 J.(.T > . 1 L 2.8 @ . R.) G R.H   W.' P ~.G   ~.] G ~.T ",
". P ' ` ( 2 . 8 D D D # . I ..( ` 2 = g =.r.H 1 . 4 h y h = . T ' ) ' 2 . 8 J D D : . F | E E : . B ' ` / : . G ' ` ! > ",
"o         . o .       o o       X - h g l &   o o . h g * = o         . o     .   . o         . o .       . o       . . ",
". > , $ o o o o > , # . . > : % h p y y * : O . O O 4 y = $ $ # 3 X i >.3 $ < O o o o > > @ o o . $ : : : o . > : @ o o ",
". O.{.S.. o . S.'.D.'.A    . .x x z z t Z.P.!.q   D D W q.i   ! G.).0XmX5X/ ~.Z.. o .  .~.X.o o . X.W.P.!.7   E R.| . o ",
"o . S D.. o . {.S   D.}   $ w Q z v v x t ; o.T   o 5 L 8.r.. i 8.bX7Xi.y.o G I.. o o . T U.. . o U.q . P.P   o I K.. o ",
"o   Z _.. o . '.w   S.}     B J.  r x v v v x t o . 1 L d wX0X7X7X-Xi . o   q P.. o $   F J.$ X # J.2   ] P   . N K.. o ",
"o   Z _.. o o '.A   S.}   . G J.  $ % z v v v z X . 1 L =.9X8.i W X.. o o . m P.. j p 4 j <.h <.h <.j p E F . . F K.. o ",
"o   V _.  o . {.w   S.O.    M J.  o $ 3.t z v x $   1 K u a $   M P.  o o   9 P.  = & X w | + p + 3.p X E q .   N K.. o ",
". O.'.{.S.w   ].{.S.{.S   / W.(.J.7 . Y.W.H.Q ; . M ^ _ K : . / !./.J.6 . / !./.J.5   / !./.J.2 . P.U.F.(.m   E T.R.3.2 ",
". w Z Z Z > . > A S w o o w N 9 N : . > N N 6 o o : 5 1 5 @ . 0 m 9 B O . 7 N 9 N # . 9 N 9 m > . : m D 7 o . 6 q 7 9 O "
};
