/* XPM */
static char *result[] = {
/* columns rows colors chars-per-pixel */
"60 60 245 2 ",
"   c #000300",
".  c #010C00",
"X  c #070D08",
"o  c #011302",
"O  c #041A06",
"+  c #051409",
"@  c #051D09",
"#  c #091708",
"$  c #171809",
"%  c #071A17",
"&  c #1C1B1B",
"*  c #141814",
"=  c #110F03",
"-  c #251C19",
";  c #241B0E",
":  c #05230C",
">  c #09240D",
",  c #052906",
"<  c #023802",
"1  c #042C12",
"2  c #0B2C12",
"3  c #092512",
"4  c #17281B",
"5  c #043215",
"6  c #0C3316",
"7  c #0D3519",
"8  c #043C1C",
"9  c #0D3C1A",
"0  c #093717",
"q  c #113D1C",
"w  c #163716",
"e  c #1C3F0E",
"r  c #2D240D",
"t  c #24241B",
"y  c #362C15",
"u  c #1B1D21",
"i  c #041D22",
"p  c #092929",
"a  c #1E2122",
"s  c #0C3728",
"d  c #072B34",
"f  c #103733",
"g  c #232223",
"h  c #282A29",
"j  c #2A3B2F",
"k  c #492A15",
"l  c #583514",
"z  c #482F12",
"x  c #643B15",
"c  c #473421",
"v  c #044308",
"b  c #0E441D",
"n  c #02421E",
"m  c #11431D",
"M  c #11491F",
"N  c #1B4417",
"B  c #0A5812",
"V  c #234A1A",
"C  c #28511E",
"Z  c #0F671D",
"A  c #084A24",
"S  c #124322",
"D  c #134B22",
"F  c #164F29",
"G  c #1B4823",
"H  c #05542A",
"J  c #065A2D",
"K  c #135325",
"L  c #165429",
"P  c #165B2A",
"I  c #195B2C",
"U  c #18552A",
"Y  c #065B31",
"T  c #195A36",
"R  c #295925",
"E  c #324A2D",
"W  c #16662B",
"Q  c #066333",
"!  c #086736",
"~  c #1B6C34",
"^  c #1B6635",
"/  c #07723E",
"(  c #1D7439",
")  c #1D7B3B",
"_  c #1C7436",
"`  c #0D6929",
"'  c #346827",
"]  c #3A742C",
"[  c #216C3C",
"{  c #20733C",
"}  c #217C3C",
"|  c #297937",
" . c #306D33",
".. c #734917",
"X. c #724D24",
"o. c #464E23",
"O. c #083A48",
"+. c #053A50",
"@. c #0B454D",
"#. c #145441",
"$. c #0C4454",
"%. c #0A4C5C",
"&. c #074759",
"*. c #104E4F",
"=. c #136D4C",
"-. c #227744",
";. c #2D6D4B",
":. c #084E62",
">. c #02556D",
",. c #03596E",
"<. c #0A5468",
"1. c #135566",
"2. c #025D74",
"3. c #065B75",
"4. c #155D7A",
"5. c #136668",
"6. c #04617A",
"7. c #0A6277",
"8. c #126B70",
"9. c #205C4B",
"0. c #535651",
"q. c #456E71",
"w. c #7E7B7A",
"e. c #8C551A",
"r. c #975D1A",
"t. c #824E18",
"y. c #A8661B",
"u. c #BD721D",
"i. c #B76D19",
"p. c #905922",
"a. c #9C6629",
"s. c #B87424",
"d. c #B16C22",
"f. c #9F611A",
"g. c #CC7A16",
"h. c #CD7B19",
"j. c #C5761B",
"k. c #D27D19",
"l. c #D57E18",
"z. c #CB7B21",
"x. c #D07F22",
"c. c #1E823E",
"v. c #1F883F",
"b. c #1F9239",
"n. c #22833D",
"m. c #21983D",
"M. c #4C9538",
"N. c #529C3C",
"B. c #478832",
"V. c #58A93D",
"C. c #1E8541",
"Z. c #1D8941",
"A. c #1E8852",
"S. c #238541",
"D. c #238B44",
"F. c #26834A",
"G. c #29894C",
"H. c #249346",
"J. c #25954A",
"K. c #269B4C",
"L. c #299E4D",
"P. c #298D51",
"I. c #2A9855",
"U. c #1FA54D",
"Y. c #26A44B",
"T. c #27A551",
"R. c #29A452",
"E. c #29AB54",
"W. c #29AC56",
"Q. c #2AB255",
"!. c #2CB65A",
"~. c #57A540",
"^. c #5CB444",
"/. c #64BB49",
"(. c #60AF46",
"). c #6AC74C",
"_. c #70D050",
"`. c #D5811A",
"'. c #DB841C",
"]. c #DC8717",
"[. c #E58A1B",
"{. c #F4931D",
"}. c #FB961D",
"|. c #FD991E",
" X c #F08E1E",
".X c #D48222",
"XX c #FD9B21",
"oX c #F89522",
"OX c #EC9024",
"+X c #FFA221",
"@X c #086B85",
"#X c #0C7389",
"$X c #0B7896",
"%X c #147995",
"&X c #13708B",
"*X c #277890",
"=X c #117BA1",
"-X c #527B88",
";X c #0C819E",
":X c #179096",
">X c #33869C",
",X c #0C8CAC",
"<X c #0A86A7",
"1X c #118BAC",
"2X c #1685A5",
"3X c #0C8DB2",
"4X c #028DB1",
"5X c #0895B9",
"6X c #1594B5",
"7X c #148EB2",
"8X c #3192AB",
"9X c #4F8697",
"0X c #709095",
"qX c #5F97A7",
"wX c #079CC3",
"eX c #109EC5",
"rX c #03A4CD",
"tX c #0AA4CB",
"yX c #0AA4C8",
"uX c #05A6D1",
"iX c #05A9D2",
"pX c #0AABD3",
"aX c #09AEDA",
"sX c #07AAD6",
"dX c #08B2DC",
"fX c #10A7CE",
"gX c #08B8E4",
"hX c #939895",
"jX c #8AAD91",
"kX c #8EAAAE",
"lX c #AEABAB",
"zX c #BBBDBD",
"xX c #ADB4BA",
"cX c #C0BFBD",
"vX c #AFC6BA",
"bX c #B5BFC1",
"nX c #C7C7C8",
"mX c #D7D7D7",
"MX c #CDD3CF",
"NX c #E3DCDC",
"BX c #E8E8E8",
"VX c #F1EBEA",
"CX c #FEFEFE",
"ZX c #F7F6F6",
"AX c #E4DFDF",
/* pixels */
"o . O O o o o o O o o o o o o O o o o . O # o . o . O O o . . o o o o . . o O O o o o O # o o o o o O o o o . O O o o o ",
". _ R.J.L.7   { W.) . o o A ! Q ! 1 . ( T.H.T.9   ( R.J.Y.q $.,X$X&.@.p % A Q J Q :   B.).B.. o . ~ Q.( . o . _ Q.c.. o ",
"  K.D o Z.P . O P K.. o o Q 5 o Y n . E.D o J.I   E.m # } :XsXdX<X2.6.6.>.@X8.@.#.8 . o ' V.. o o O P J.. O o o ` K.. o ",
". H.0   ( P .   m J.. o . Q :   H n . L.6   C.I   L.2   s 6XtXsX5X6.,.2.2.5XgXuXrX5X2X%.T [ % . o   q H.  o o   M K.. o ",
". J.9   ) K . . M J.. o . Q 3   J n . L.q   C.U   L.6 . 1.eXtXiXiX,X@X@X,XiXrXiXuXsXpX$X6.2.>.$.p   m J.. o o . K K.. o ",
". J.2   ( W     b J.  . o Q >   H n . R.2   C.I   R.> % 7XpXiXiXiXpXiXiXiXiXiXrXuXiX<X7.2.2.2.2.6.:.#.)   . o   D J.  . ",
"  H.H.~ R.D   U J.!.{ 2 . Y J A / 0 . K.D.~ E.K   L.{ 4.3XyXiXiXiXrXiXuXiXiXuXiXuXuXrX6.2.2.2.>.2.6.3.*.F 2 . U K.!.( 2 ",
". 2 L P m O . M K M K > . > 9 8 2 o . 2 P P m # o > 8.dXiXiXuXuXiXiXrXiXuXiXiXuXuXsXdX5X2.2.:.O.&.2.2.2.5.: . m K D L > ",
"o       . o o       . . .       . o o .       . . + 6XdXiXiXiXiXiXuXpXiXaXsXsXdXrX4XyX5X6.6.>.f &.2.2.2.2.d o .       . ",
". 9 K 6 o o . 7 S 2 o o X V R e . o o @ 0 1 O 4 t d <X<X5XiXuXiXuXpXuX5X6X8X8X7XwXwX$X$X6.,.6.2.2.2.6.2.6.&.o O 5 0 5 o ",
". P E.D.  o . U P.F.. o . ' ).V.  o o ! Q ;.vXBXBXcX9X%X%.,XsXiXpXrX8XkXBXVXVXmXkX7XrX@X,.6.2.,.&.&.2.2.2.<.+ Q Q H =.5 ",
"o   9 H.. o o   9 F.. o o   V N.  o + Q E lXhXBXCXCXZXqX3XyXiXiXrX>XmXCXCXCXCXCXCXnX8XrX@X,.2.>.+.&.6.,.3.<.% ! :   H n ",
"o . b H.. o o . s F.. o o   R V.. o O H vXzX* nXCXZXCXMX2XdXuXiX2XMXCXnXmXCXCXCXCXCXbX$X5X6.2.2.>.2.2.2.2.&.# Q : . H n ",
"o   b D.  o o . 9 F.. o o   C N.  o o Y MXCXVXCXCXCXBXNX9XiXiXwXqXCXZX- 0.CXCXCXCXZXZXq.@X7.2.2.2.2.2.2.7.+.o ! :   H 9 ",
"o o F J.O o o o D P.+ o o X R ~.o # + ! MXCXCXCXCXZXBXMX>XuXdX4XkXCXCXzXmXCXCXCXCXBXZX0X>.2.,.2.2.2.2.2.6.p . ! 1 X J n ",
". I K.L.S.2   T -.P.-.4 . ] (./.N.w . n 0XCXCXCXCXmXBXxX<XiXaX4XkXCXCXCXCXCXCXCXCXBXBX0X,.6.2.2.2.2.2.2.<.@ . H Q J Q : ",
". O @ : : o o O @ O @ o o # > @ > o o o $ hXCXCXZXBXcX*X1XfXaX4X0XCXCXZXCXCXCXCXZXBXVX-X,.2.2.2.2.6.2.,.p o o . O O O . ",
"o .       . o     . . o o         X o .   O.qXkXhXqX*XwX=X5XdXuX*XBXCXCXCXCXCXCXmXZXnX1.2.2.2.2.2.&.:.%.p % . X   . o o ",
". F S.S.{ > . ^ H.U . o . D S.n.} > X ^ n.8.rX5X5X4X7.&XeX1.5XaX4X0XZXCXCXCXVXZXBXmX-X>.6.2.2.2.%.&.$.%.:.%.p ^ D.P . o ",
". K._ S Y.L   9 n.T.. o X R.{ m E.P   q =.6XiXiXuXeX$.$XgXO.$.7XtX4X-XnXVXBXAXAXbX9X2.2.2.2.2.,.$.+.O.$.>.<.$.q Z.L.. o ",
"  H.2   _ P .   9 J.. o + J.3   ) P   . =XgX5X5XyXyXyXpXgX3.4.7XyXsX5X$X9X9XqX>X,X5X6.2.2.2.2.:.$.3.3.%.2.<.$.  b J.. o ",
". H.9   ) P . . m J.. o o J.7   c.W   o *.2XxXxX>XrXdXpX1XfXiXiXiXuXdXsXrX5X5X5XaX$X>.2.2.2.6.6.6.2.:.<.2.<.p . K K.. o ",
"  H.6   _ P .   q H.  . o J.2   ( P   . o jXZXCXMX>XyX,.F :XuX1X1X6X1X%X,XaX2X2XwX,X2.2.2.>.>.:.>.3.<.3.$.p o   S H.  . ",
". K._ b K.P   9 ( Q.D : . L.~ m Y.W   q ` kXCXZXCXhXkXhX0X;.4.6XuX7X5XpX$X%X%XpXaX<X2.3.5.5.8.D % A @.=.s O . 6 c.!.D : ",
". D ) ( _ >   I ) _ } 2   D } _ _ 3 . I W hXVXMXmXcXCXBXmX0.  f *XiXtXtXpX<XeX5X7.O.p p I ~ ~ >   5 A H A @ . I ( ( ( 2 ",
"o         . o         . o .       . o .   w.nXcXMXlXBXlXlXE X   3 2XeX5XwXdX7XO.. . o .       . o . . . . o o         o ",
"o o @ O O . o @ @ # o o o O @ O o o o o : 4 j * % j E % # o o O O p 6XfXyX5X1.@.. o o o @ : # X , v v v v < O o # : O o ",
". A / Q ! 1 . { !.S.. o X ~ !.} . o . C.T.J.U.5   W U.)   o . ~ !.) d fXtX&X3.+.; o   { P.F.P.6 , b.Q.Y.!.B o [ P.F.P.4 ",
". Q 0 o J 8 . O U J.o 1.p o W D.  . # F.G $ | E $ r C  .$ $ $ $ R -.  d %X@XE s.s.= . P.q o F.F , Y.Z v Y.` O P.q + -.F ",
". Q :   H 8 .   M J.d eX3.  0 ( % p X.j.u.h.g.k.`.l.l.l.'.'.`.`.j.u.s.y.a.X.p.}.h.; . F.3   -.F , Y.B < m.Z o G.3   -.F ",
". Q 1   A n .   6 n.% %X&X% %.,XwXuXq.[.XX}.}.XXXXXX|.|.|.|.oX|.XXXXXXXXXXu.a.[.j.r . F.2   -.K , U.B < Y.Z o G.6   { F ",
". Q :   H 8 X @X;X8.$.%.&X5XsXiXsXyX@.X.XX}.}.}.oX{.{.{.{. X XOX[.k.j.y.d.X.d.'.l.y . F.2   { K , Y.B < m.` o G.3   -.L ",
". Q ! H / 1 $.gX;X:.#XuXdXuXuXrXsX$.. [ s..Xh..X.X].'.`.`.h.h.h.l.`.g.i.y.e..Xh.'.z   G.F.[ I.S , Y.Y.m.!.Z o G.F.[ I.S ",
". @ 5 5 : + @X1Xp # 7.5X@X$XuXaX7.X o : * e.i.j.g.g.g.g.l.'.`.h.i.r.r.e.f..X'.j.].x   3 q S 6 + , B Z Z Z v o : 9 S 7 o ",
"o       . o % %   % 7XO.  <.aX$X+ o o   x y.`.g.g.`.`.`.j.y.p...f.h.[.}.|.{.l.g.'...o .     . X O O . . o O o       . . ",
". 9 L 7 . o . q M f 3X@.  $.pX$.  . f @Xq.X.y.].`.j.y.e...e.e.p.XX|.}.{. X Xg.h.`.r.. q L 6 o o . @ 9 8 5 o o b L 7 o o ",
". P E.H.  o . ~ L.#.3X3.  O.eX%.  :.fXgX<X% l f.....r.i.j.[.y.y.|.{.}.OX[.[.g.h.l.y.X W R.H.. o . Q Q H =.5   ^ E.J.. o ",
"o   9 D.. o o   w -.+.O.= % <.$XO.7XpXpX&.. ' V e.].`.h.`.j...z.|.{.oX'.[.].g.h.l.u.$   S H.. o o Q @   H 0 .   m K.. o ",
"o . M J.. o o . D L.    o p O.%.%.7.iXwXs o V.] z j.l.l.i.r r OX}.{.|.j.k.l.h.h.h.z.r . D H.o o o Q : . J 8 . . K U.. o ",
"o   9 Z.  o o   m H.+ 4.2X$X<XyX<X3XdX$XO o M.]   $ r.e.= . l {.{.{.|.s.h.l.h.h.h.l.l   m H.  . o Y :   H 8 .   D H.  o ",
"o @ I L.3 O o @ I L.O.aX&X% @X,X@.4.aX5.e 6 ^.]   @ G } 1 + ..XXOXOXoXd.j.k.h.g.g.`...o ^ Y.3 O o Q 5 O Q 0 X @ W R.3 O ",
". ~ T.T.H.6   ( R.Y.8.5Xf w %X<.U #.3X$XB.^./.N . { T.R.K.4 f.e.y.+XXXa.j.h.k.'.h.'.t.! R.T.J.6   A ! ! ! :   ( R.R.J.6 ",
". # # o O o o o O o % d % . <.7Xd X <.3X5.s > O o O O O + # k % p.x...- r.].j.r.j.[.r.# # O # o o o O O o o o O # O O o ",
"o       o . . .   . o . .   % ,X<.X . i +.d   . o       o . * g t - & u y r.k & z y.u.=       o o         o o         o ",
". I J.I . o o S Y n o o . ^ S.T i + . K n.} ) 3   ^ D.I . o # h - u g g u * u g u u k E -.-.[ : . U S.n.} > . U D.S.-.2 ",
". 9 n.J.. o . 1 J ! . o . 7 S.-.  o # E.} D W.I   q } J.. o . * h h g g g g g g h h   -.T m I.F   L._ D E.K   E.( S R.U ",
"o   9 D.. o o   2 Q . o o   b C.. o # L.2   ) I .   0 S.o o o . * g g g g a g h g + . F.:   -.F . J.>   c.K . K.2   ) P ",
"o . D D.. o o . 5 Q o o o . D Z.  o o L.q   C.I   . b H.. o o o X & & * g a g 4 . o . F.6   -.D . J.7   Z.D . K.7   n.P ",
"o   9 S.  o o   1 Q . o o   b c.  . # K.6   ) I .   0 C.  . o . * g g & & - h a . o . -.3   -.L   J.>   c.F . K.2   ( P ",
". q S.!.U : . 5 J =.8 @ o 9 S.W.P > . E.) K W.U   b c.Q.P > . 2 & - h * # g & & 4 @ . I.^ S I.D   R.( K W.K   E.( D W.P ",
". K ( ~ ~ 1 . 9 A A A > X L ( ~ _ 2 . D ( ~ ~ > . U ( ~ ( 2 . 4 g g g O . * @.j h : X S [ T T > . m ( ( ~ : . D ( ( W > ",
"o         . . .       . o         . o         o o         . + & a h * o .   1.1.- - o         o o .       . o         . ",
". > 2 # o o o o 3 2 # o o : > O o o . O : > : . . @ : # o o * & & g O o o # > 4 g g h * : : o o . O : : @ . o @ > # o o ",
". ] ).M.. o . M./.~./.V   ~ Q.)   o o ) T.D.L.T 1.*.! H o . # % f 4 X o . ^ R.} u u g - E _ o o . } Y.H.T.7 X T P.( o o ",
"o X C ~.. o . ).V   N.'   . P D.. o o E.m X -.#.1.pX:XH X . : 4.T U . o o . D K.$ k z l x y o . o L.q   D.K   o F G.. o ",
"o   V ~.. o . /.e   M.'   . M n.  o O L.7   } #.* @XrX#Xf . %.4.m D.  o o = y o.z l ..k y ^ o o o H.2   v.K   . S F.. o ",
"o   C N.X o . /.N   M.'   . D D.. o + K.7   C.I   % <.$X;X<XyX+.N H.  o ; z x x x l k = M K.. . o H.7   v.K   . S F.. o ",
"o   V ~.  o . ).e   M.'     M S.  . O R.7   C.I . . : Y % O.<X+.q H.  o k x x l k ; X   m H.. . O H.2   v.L   . m F.. o ",
". ] /._.N.w   (./.N.).C   ^ R.W.D.0 . J.R.S.W.D   A ! =.J : % #.Y.!.S.6 r x k E G.6   ^ R.!.D.6 . H.L.S.Q.b   T P.I.-.2 ",
". w V N V > . > V C e o . 0 S 9 S : . : m S 7 o o , 5 1 5 @ . 2 b 9 b @ $ y = 6 m O . 7 b b m # . : S S 7 o o 2 q 6 9 O "
};
