/* XPM */
static char *result[] = {
/* columns rows colors chars-per-pixel */
"60 60 203 2 ",
"   c #963015",
".  c #973217",
"X  c #F0B3AF",
"o  c #FDC7C7",
"O  c #832E18",
"+  c #7C260E",
"@  c #7E2812",
"#  c #7E2811",
"$  c #7F2A13",
"%  c #ECB2AE",
"&  c #FFC8C8",
"*  c #9A361C",
"=  c #952E13",
"-  c #963016",
";  c #EBB0AC",
":  c #FFD0D0",
">  c #983218",
",  c #983419",
"<  c #85301A",
"1  c #802A14",
"2  c #802A13",
"3  c #812C15",
"4  c #ECB2AF",
"5  c #9B381E",
"6  c #FFCFD0",
"7  c #90280B",
"8  c #91280C",
"9  c #90270B",
"0  c #922A0E",
"q  c #EFB2AE",
"w  c #751D04",
"e  c #772008",
"r  c #771F07",
"t  c #772007",
"y  c #782109",
"u  c #EBB0AD",
"i  c #942E12",
"p  c #8F2509",
"a  c #EAAEAB",
"s  c #FFD0D1",
"d  c #BB6655",
"f  c #BC6756",
"g  c #BD6857",
"h  c #BC6757",
"j  c #F4B9B7",
"k  c #FCC6C6",
"l  c #AF6557",
"z  c #AB6051",
"x  c #AC6253",
"c  c #AC6152",
"v  c #AD6253",
"b  c #AE6354",
"n  c #AD6354",
"m  c #F2B8B6",
"M  c #FEC7C6",
"N  c #BE6A59",
"B  c #BA6554",
"V  c #F1B7B5",
"C  c #FFCBCC",
"Z  c #FFD4D6",
"A  c #FFD5D7",
"S  c #FFD2D3",
"D  c #FFCCCD",
"F  c #FFD1D2",
"G  c #FFD1D3",
"H  c #FFD5D6",
"J  c #B87164",
"K  c #B97266",
"L  c #B56C5F",
"P  c #D19088",
"I  c #FFCFCF",
"U  c #D89892",
"Y  c #B56D5F",
"T  c #B97265",
"R  c #B97165",
"E  c #B46C5F",
"W  c #782008",
"Q  c #79220A",
"!  c #701700",
"~  c #A85C4C",
"^  c #711800",
"/  c #AD6254",
"(  c #812B15",
")  c #B87165",
"_  c #7F2913",
"`  c #F3BBB9",
"'  c #FFCDCE",
"]  c #F5BDBC",
"[  c #EAAFAC",
"{  c #F4BBB9",
"}  c #F6BDBC",
"|  c #FDC6C5",
" . c #FAC1C0",
".. c #FDC5C4",
"X. c #FFCECF",
"o. c #FFC8C7",
"O. c #F9C1C0",
"+. c #FEC8C8",
"@. c #FEC8C7",
"#. c #FCC5C5",
"$. c #FCC5C4",
"%. c #9B371E",
"&. c #9A361D",
"*. c #9A351B",
"=. c #EFB3AF",
"-. c #FDC6C6",
";. c #993921",
":. c #943218",
">. c #95341B",
",. c #96351D",
"<. c #96351C",
"1. c #95341A",
"2. c #96361D",
"3. c #88341F",
"4. c #812C16",
"5. c #832F19",
"6. c #84301A",
"7. c #832F18",
"8. c #ECB1AE",
"9. c #EAB0AC",
"0. c #FFCECE",
"q. c #8E2A0F",
"w. c #902C12",
"e. c #8F2C12",
"r. c #8F2C11",
"t. c #912E14",
"y. c #EFB2AF",
"u. c #7A240C",
"i. c #7D260F",
"p. c #7C250E",
"a. c #973116",
"s. c #96341B",
"d. c #922F15",
"f. c #912E15",
"g. c #933017",
"h. c #7F2912",
"j. c #993419",
"k. c #97361D",
"l. c #923016",
"z. c #892308",
"x. c #8B260B",
"c. c #8B260A",
"v. c #8B250A",
"b. c #8C270D",
"n. c #EFB1AD",
"m. c #BB6959",
"M. c #B76453",
"N. c #B86654",
"B. c #B86554",
"V. c #B96655",
"C. c #B96756",
"Z. c #B96656",
"A. c #F2B9B6",
"S. c #FDC7C6",
"D. c #FFCCCC",
"F. c #FFD4D7",
"G. c #FFD0D2",
"H. c #C67666",
"J. c #C67768",
"K. c #C27161",
"L. c #DA9389",
"P. c #DF9B93",
"I. c #C37162",
"U. c #C67667",
"Y. c #C57666",
"T. c #C57566",
"R. c #8B2002",
"E. c #B8614F",
"W. c #A85C4D",
"Q. c #C37161",
"!. c #8B2003",
"~. c #91290C",
"^. c #983319",
"/. c #91290D",
"(. c #BC6655",
"). c #FFD4D5",
"_. c #922A0F",
"`. c #FFD3D5",
"'. c #F6BCB9",
"]. c #F7BEBC",
"[. c #EEB1AD",
"{. c #F8BEBC",
"}. c #EEB1AC",
"|. c #FDC8C8",
" X c #FBC5C4",
".X c #9D3B22",
"XX c #9A361B",
"oX c #842F19",
"OX c #932C10",
"+X c #973218",
"@X c #D99389",
"#X c #BC6857",
"$X c #C67668",
"%X c #EEB0AB",
"&X c #F4BAB7",
"*X c #FFCBCB",
"=X c #EAAFAB",
"-X c #F6BCBA",
";X c #EEB0AC",
":X c #FFC9C8",
">X c #FFCDCD",
",X c #FFCFD1",
"<X c white",
/* pixels */
"                        . X o O + @ # # # # # # # # # $ % & * = -                   . X o O + @ # # # # # # # # # $ ; : ",
"                        . X o O + @ # # # # # # # # # $ % & * = -                   . X o O + @ # # # # # # # # # $ ; : ",
"                        . X o O + @ # # # # # # # # # $ % & * = -                   . X o O + @ # # # # # # # # # $ ; : ",
". . . . . . . . . . > . , X o < # 1 2 2 2 2 2 2 2 1 $ 3 4 & 5   > . . . . . . . > . , X o < # 1 2 2 2 2 2 2 2 1 $ 3 ; 6 ",
"7 7 7 7 7 7 7 7 7 7 8 9 0 q o + w e r r r r r r r t r y u & i p 8 7 7 7 7 7 7 7 8 9 0 q o + w e r r r r r r r t r y a s ",
"d d d d d f g f d d d d h j k l z x c c v b v c c x c n m M N B d d d f g f d d d d h j k l z x c c v b v c c x c n V C ",
"Z Z Z Z A S D F A Z Z Z Z G F H H H H A S D F A H H H H G F Z Z Z Z A S D F A Z Z Z Z G F H H H H A S D F A H H H H G F ",
"J J J K L P I U Y T J J J R T J J J K E P I U Y T J J J R T J J J K L P I U Y T J J J R T J J J K E P I U Y T J J J R T ",
"W W W Q ! ~ A L ^ Q W W W W W W W W Q ! ~ A L ^ Q W W W W W W W W Q ! ~ A L ^ Q W W W W W W W W Q ! ~ A L ^ Q W W W W W ",
"$ $ $ 3 y / H T Q ( $ $ $ $ $ $ $ $ 3 y / H T Q ( $ $ $ $ $ $ $ $ 3 y / H T Q ( $ $ $ $ $ $ $ $ 3 y / H T Q ( $ $ $ $ $ ",
"# # # 1 t x H ) W 2 # # # # # # # # 1 t x H ) W 2 # # # # # # # # 1 t x H ) W 2 # # # # # # # # 1 t x H ) W 2 # # # # # ",
"# # # $ r c H J e _ # # # # # # # # $ r c H J e _ # # # # # # # # $ r c H J e _ # # # # # # # # $ r c H J e _ # # # # # ",
"$ $ $ 3 y / Z T Q 3 $ $ $ 1 1 $ $ $ 3 y / Z T Q 3 $ $ $ 1 1 $ $ $ 3 y / Z T Q 3 $ $ $ 1 1 $ $ $ 3 y / Z T Q 3 $ $ $ 1 1 ",
"% % % 4 u ` ' ] u 4 % % % ; [ % % % 4 u ` ' ] u 4 % % % ; [ % % % 4 u { ' } u 4 % % % ; [ % % % 4 u { ' } u 4 % % % ; [ ",
"& & & & & |  ...& & & & & X.6 & o.& & & | O...& & & & & X.6 +.@.@.@.+.#.O.$.+.@.@.@.+.X.6 +.@.@.@.+.#.O.$.+.@.@.@.+.X.: ",
"* * * * * * %.&.* * * *.5 =.-.;.:.>.>.>.>.,.<.>.>.>.1.2.q k 3.4.5.O O 5.6.5.O O 7.O 6.8.-.3.4.5.O O 5.6.5.O O 7.O 6.9.0.",
"= = = = = = = = = = = i   X @.:.q.w.e.e.e.e.e.e.e.w.r.t.y.o 4.u.i.+ + + + + + + i.p.# 8.@.4.u.i.+ + + + + + + i.p.# [ s ",
"- - - - - - - - - - a.  > X @.s.w.d.f.f.f.f.f.f.f.d.t.g.=.o 5.i.h.@ @ @ @ @ @ @ h.# 1 % @.5.i.h.@ @ @ @ @ @ @ h.# 1 ; 6 ",
". . . . . . . . . . > . j.X @.k.t.g.l.l.l.l.l.l.l.g.l.:.X o < # 1 2 2 2 2 2 2 2 1 $ 3 4 @.6.# 1 2 2 2 2 2 2 2 1 $ 3 ; 6 ",
"7 7 7 7 7 7 7 7 7 7 8 9 0 q @.r.z.x.c.c.c.c.c.c.c.x.v.b.n.o + w e r r r r r r r t r y u @.+ w e r r r r r r r t r y a s ",
"d d d d d f g f d d d d h j -.m.M.N.B.B.V.C.V.B.B.N.B.Z.j k l z x c c v b v c c v c n A.S.l z v c c v b v c c v c n V D.",
"Z Z Z Z F.G D F A Z Z Z Z G F Z H H Z A S D F A H H H H G F H H H H A S D F A Z Z Z Z F G.Z Z Z Z A S D F A Z Z Z Z F G.",
"H.H.H.J.K.L.I U Y T J J J R T J J J K L P I U Y T J J J R T J J J K E P X.P.I.U.Y.Y.Y.U.U.Y.T.Y.J.K.L.X.P.I.U.Y.Y.Y.U.U.",
"8 8 8 0 R.E.A Y ^ Q W W W W W W W W Q ! ~ A L ^ Q W W W W W W W W Q ! W.A Q.!.0 8 8 8 ~.~.8 8 8 0 R.E.Z Q.!.0 8 8 8 ~.~.",
". . . ^./.f Z T Q ( $ $ $ $ $ $ $ $ 3 y / H T Q ( $ $ $ $ $ $ $ $ 3 y / Z U.0 ^.. . . . . . . . ^./.f Z U.0 ^.. . . . . ",
"      > 8 d Z R W 2 # # # # # # # # 1 t x H ) W 2 # # # # # # # # 1 t v Z U./..                 > 8 (.Z U./..           ",
"      . 9 d Z J e _ # # # # # # # # $ r c H J e _ # # # # # # # # $ r c Z T.8 a.                . 9 d Z T.8 a.          ",
". . . , 0 f Z T Q 3 $ $ $ 1 1 $ $ $ 3 y / Z T Q 3 $ $ $ 1 1 $ $ $ 3 y n ).U._.^.. . . > > . . . , 0 f `.U._.^.. . . > > ",
"X X X X q '.' } u 4 % % % ; [ % % % 4 u { ' } u 4 % % % ; [ 8.% % 4 u ` ' ].q X X X X n.[.X X X X q '.' {.q X X X X n.}.",
"o o o o |.#.O.$.+.@.@.@.+.X.6 +.@.@.@.+.#.O.$.+.@.@.@.+.X.6 & & & & & |  .$.+.@.@.@.+.X.6 |.o o o |.#.O. X|.o o o o X.6 ",
"O O O O O 5.6.5.O O 7.O 6.8.-.3.4.5.O O 5.6.5.O O 7.O 6.8.M .X, * * * * %.&.* * * XX5 X k 3.4.5.O O 5.6.oXO O 7.O 6.; X.",
"+ + + + + + + + + + i.p.# 8.@.4.u.i.+ + + + + + + i.p.# 8.& , OX= = = = = = = = = i   X o 4.u.i.+ + + + + + + i.p.# [ s ",
"@ @ @ @ @ @ @ @ @ @ h.# 1 % @.5.i.h.@ @ @ @ @ @ @ h.# 1 % & * = a.- - - - - - - a.  +XX o 5.i.h.@ @ @ @ @ @ @ h.# 1 ; 6 ",
"2 2 2 2 2 2 2 2 2 2 1 $ 3 4 @.6.# 1 2 2 2 2 2 2 2 1 $ 3 4 & 5   > . . . . . . . > . , X o < # 1 2 2 2 2 2 2 2 1 $ 3 ; 6 ",
"r r r r r r r r r r t r y u @.+ w e r r r r r r r t r y u & i p 8 7 7 7 7 7 7 7 8 9 0 q o + w e r r r r r r r t r y a s ",
"c c c c c v b v c c v c n A.S.l z v c c v b v c c x c n m M N B d d d f g f d d d d h j k l z x c c v b v c c x c n V C ",
"H H H H A S D F A Z Z Z Z F G.Z Z Z Z A S D F A H H H H G F Z Z Z Z A S D F A Z Z Z Z G F H H H H A S D F A H H H H G F ",
"J J J K E P X.P.I.U.Y.Y.Y.U.U.Y.T.Y.J.K.@XI U Y T J J J R T J J J K L P I U Y T J J J R T J J J K E P I U Y T J J J R T ",
"W W W Q ! W.A Q.!.0 8 8 8 ~.~.8 8 8 0 R.E.A Y ^ Q W W W W W W W W Q ! ~ A L ^ Q W W W W W W W W Q ! ~ A L ^ Q W W W W W ",
"$ $ $ 3 y / Z U.0 ^.. . . . . . . . ^./.f Z T Q ( $ $ $ $ $ $ $ $ 3 y / H T Q ( $ $ $ $ $ $ $ $ 3 y / H T Q ( $ $ $ $ $ ",
"# # # 1 t v Z U./..                 > 8 d Z R W 2 # # # # # # # # 1 t x H ) W 2 # # # # # # # # 1 t x H ) W 2 # # # # # ",
"# # # $ r c Z T.8 a.                . 9 d Z J e _ # # # # # # # # $ r c H J e _ # # # # # # # # $ r c H J e _ # # # # # ",
"$ $ $ 3 y n ).U._.^.. . . > > . . . , 0 f Z T Q 3 $ $ $ 1 1 $ $ $ 3 y / Z T Q 3 $ $ $ 1 1 $ $ $ 3 y / Z T Q 3 $ $ $ 1 1 ",
"% % % 4 u { ' {.q X X X X n.[.X X X X q '.' } u 4 % % % ; [ 8.% % 4 u ` ' ] u 4 % % % ; [ % % % 4 u { ' } u 4 % % % ; [ ",
"@.@.@.@.+.#.O. X|.o o o o X.6 |.o o o |.#.O.$.+.@.@.@.+.X.6 & & & & & |  ...& & & & & X.6 +.@.@.@.+.#.O.$.+.@.@.@.+.X.: ",
"O O O O O 5.6.oXO O 7.O 6.8.-.3.4.5.O O 5.6.5.O O 7.O 6.8.M .X, * * * * %.&.* * * *.5 X k 3.4.5.O O 5.6.5.O O 7.O 6.9.0.",
"+ + + + + + + + + + i.p.# 8.@.4.u.i.+ + + + + + + i.p.# 8.& , OX= = = = = = = = = i   X o 4.u.i.+ + + + + + + i.p.# [ s ",
"@ @ @ @ @ @ @ @ @ @ h.# 1 % @.5.i.h.@ @ @ @ @ @ @ h.# 1 % & * = a.- - - - - - - a.  +XX o 5.i.h.@ @ @ @ @ @ @ h.# 1 ; 6 ",
"2 2 2 2 2 2 2 2 2 2 1 $ 3 4 @.6.# 1 2 2 2 2 2 2 2 1 $ 3 4 & 5   > . . . . . . . > . , X o < # 1 2 2 2 2 2 2 2 1 $ 3 ; 6 ",
"r r r r r r r r r r t r y u @.+ w e r r r r r r r t r y u & i p 8 7 7 7 7 7 7 7 8 9 0 q o + w e r r r r r r r t r y a s ",
"c c c c c v b v c c x c n A.-.l z x c c v b v c c x c n m M N B d d d f g f d d d d h j k l z x c c v b v c c v c n V D.",
"Z Z Z Z A S D F A H H H H G F H H H H A S D F A H H H H G F Z Z Z Z A S D F A Z Z Z Z G F H H H H A S D F A Z Z Z Z F G.",
"Y.Y.Y.J.K.@XI U Y T J J J R T J J J K E P I U Y T J J J R T J J J K L P I U Y T J J J R T J J J K E P X.P.I.U.Y.Y.Y.U.U.",
"8 8 8 0 R.E.A Y ^ Q W W W W W W W W Q ! ~ A L ^ Q W W W W W W W W Q ! ~ A L ^ Q W W W W W W W W Q ! W.A Q.!.0 8 8 8 ~.~.",
". . . ^./.f Z T Q ( $ $ $ $ $ $ $ $ 3 y / H T Q ( $ $ $ $ $ $ $ $ 3 y / H T Q ( $ $ $ $ $ $ $ $ 3 y / Z U.0 ^.. . . . . ",
"      > 8 d Z R W 2 # # # # # # # # 1 t x H ) W 2 # # # # # # # # 1 t x H ) W 2 # # # # # # # # 1 t v Z U./..           ",
"      . 9 d Z J e _ # # # # # # # # $ r c H J e _ # # # # # # # # $ r c H J e _ # # # # # # # # $ r c Z T.8 a.          ",
". . . j.0 #XZ K Q 3 $ $ $ $ $ $ $ $ 3 y n H K Q 3 $ $ $ $ $ $ $ $ 3 y n H K Q 3 $ $ $ $ $ $ $ $ 3 y n Z $X_., . . . . . ",
"n.n.n.n.%X&X*X{ =X; ; ; ; ; ; ; ; ; ; a A.*X{ =X; ; ; ; ; ; ; ; ; ; a A.*X{ =X; ; ; ; ; ; ; ; ; ; a A.*X-X;Xn.n.n.n.n.n.",
"6 6 6 6 s ' :X>Xs 6 : : : : : : : : 6 s ' :X>Xs 6 : : : : : : : : 6 s ' :X>Xs 6 : : : : : : : : 6 s ' :XD ,X6 6 6 6 6 6 "
};
